<?xml version="1.0" encoding="UTF-8"?><svg xmlns="http://www.w3.org/2000/svg" xmlns:xlink="http://www.w3.org/1999/xlink" clip-rule="evenodd" stroke-miterlimit="4.00" viewBox="0 0 1066 109"><desc>SVG generated by Keynote</desc><defs></defs><g transform="matrix(1.00, 0.00, -0.00, -1.00, 0.0, 109.0)"><text xml:space="preserve" font-family="Helvetica-Light" font-size="109.8" fill="#000000" transform="matrix(1.00, 0.00, -0.00, -1.00, -4.0, 26.0)">C</text><text xml:space="preserve" font-family="Helvetica-Light" font-size="109.8" fill="#000000" transform="matrix(1.00, 0.00, -0.00, -1.00, 75.2, 26.0)">h</text><text xml:space="preserve" font-family="Helvetica-Light" font-size="109.8" fill="#000000" transform="matrix(1.00, 0.00, -0.00, -1.00, 136.3, 26.0)">a</text><text xml:space="preserve" font-family="Helvetica-Light" font-size="109.8" fill="#000000" transform="matrix(1.00, 0.00, -0.00, -1.00, 197.3, 26.0)">n</text><text xml:space="preserve" font-family="Helvetica-Light" font-size="109.8" fill="#000000" transform="matrix(1.00, 0.00, -0.00, -1.00, 258.3, 26.0)">g</text><text xml:space="preserve" font-family="Helvetica-Light" font-size="109.8" fill="#000000" transform="matrix(1.00, 0.00, -0.00, -1.00, 325.4, 26.0)">e</text><text xml:space="preserve" font-family="Helvetica-Light" font-size="109.8" fill="#000000" transform="matrix(1.00, 0.00, -0.00, -1.00, 386.4, 26.0)">d</text><text xml:space="preserve" font-family="Helvetica-Light" font-size="109.8" fill="#000000" transform="matrix(1.00, 0.00, -0.00, -1.00, 453.5, 26.0)"> </text><text xml:space="preserve" font-family="Helvetica-Light" font-size="109.8" fill="#000000" transform="matrix(1.00, 0.00, -0.00, -1.00, 484.0, 26.0)">t</text><text xml:space="preserve" font-family="Helvetica-Light" font-size="109.8" fill="#000000" transform="matrix(1.00, 0.00, -0.00, -1.00, 514.5, 26.0)">h</text><text xml:space="preserve" font-family="Helvetica-Light" font-size="109.8" fill="#000000" transform="matrix(1.00, 0.00, -0.00, -1.00, 575.5, 26.0)">e</text><text xml:space="preserve" font-family="Helvetica-Light" font-size="109.8" fill="#000000" transform="matrix(1.00, 0.00, -0.00, -1.00, 636.6, 26.0)"> </text><text xml:space="preserve" font-family="Helvetica-Light" font-size="109.8" fill="#000000" transform="matrix(1.00, 0.00, -0.00, -1.00, 667.1, 26.0)">t</text><text xml:space="preserve" font-family="Helvetica-Light" font-size="109.8" fill="#000000" transform="matrix(1.00, 0.00, -0.00, -1.00, 697.6, 26.0)">w</text><text xml:space="preserve" font-family="Helvetica-Light" font-size="109.8" fill="#000000" transform="matrix(1.00, 0.00, -0.00, -1.00, 776.8, 26.0)">o</text><text xml:space="preserve" font-family="Helvetica-Light" font-size="109.8" fill="#000000" transform="matrix(1.00, 0.00, -0.00, -1.00, 837.9, 26.0)"> </text><text xml:space="preserve" font-family="Helvetica-Light" font-size="109.8" fill="#000000" transform="matrix(1.00, 0.00, -0.00, -1.00, 868.4, 26.0)">ï¬</text><text xml:space="preserve" font-family="Helvetica-Light" font-size="109.8" fill="#000000" transform="matrix(1.00, 0.00, -0.00, -1.00, 923.3, 26.0)">l</text><text xml:space="preserve" font-family="Helvetica-Light" font-size="109.8" fill="#000000" transform="matrix(1.00, 0.00, -0.00, -1.00, 947.6, 26.0)">e</text><text xml:space="preserve" font-family="Helvetica-Light" font-size="109.8" fill="#000000" transform="matrix(1.00, 0.00, -0.00, -1.00, 1008.6, 26.0)">s</text><text xml:space="preserve" font-family="Helvetica-Light" font-size="109.8" fill="#000000" transform="matrix(1.00, 0.00, -0.00, -1.00, 1063.5, 26.0)"> </text></g></svg>