<?xml version="1.0" encoding="UTF-8"?><svg xmlns="http://www.w3.org/2000/svg" xmlns:xlink="http://www.w3.org/1999/xlink" clip-rule="evenodd" stroke-miterlimit="4.00" viewBox="0 0 543 543"><desc>SVG generated by Keynote</desc><defs></defs><g transform="matrix(1.00, 0.00, -0.00, -1.00, 0.0, 543.0)"><g><clipPath id="clip-66"><path d="M 1.0 541.0 L 541.0 541.0 L 541.0 2.0 L 1.0 2.0 Z M 1.3 541.4 "></path></clipPath><g clip-path="url(#clip-66)"><g><clipPath id="clip-67"><path d="M 232.7 5.3 C 233.5 9.2 199.8 17.4 183.5 17.2 C 177.0 17.2 173.0 18.3 174.0 20.0 C 175.8 23.0 148.8 35.9 146.2 33.3 C 145.3 32.4 142.7 34.5 140.4 37.9 C 138.0 41.2 134.3 43.3 132.1 42.5 C 130.0 41.7 127.5 42.9 126.6 45.2 C 125.7 47.5 123.1 48.7 120.8 47.8 C 116.3 46.1 99.5 59.8 99.5 65.1 C 99.5 66.8 95.5 70.4 90.5 73.0 C 76.3 80.7 67.9 87.3 68.8 90.1 C 70.1 94.6 58.8 109.1 55.5 107.1 C 53.8 106.0 53.3 106.6 54.4 108.4 C 55.5 110.2 52.4 114.0 47.4 116.9 C 42.5 119.9 38.5 124.6 38.5 127.4 C 38.5 130.2 37.0 133.4 35.3 134.5 C 33.6 135.5 32.8 137.9 33.4 139.8 C 35.3 145.1 29.7 154.1 25.9 151.8 C 23.8 150.5 23.2 151.9 24.3 156.1 C 25.2 159.6 24.2 163.9 22.0 165.7 C 19.8 167.5 18.7 170.8 19.5 173.0 C 20.3 175.1 18.1 179.0 14.5 181.5 C 9.5 185.0 8.4 187.9 9.9 193.6 C 11.2 199.0 10.1 202.9 6.1 206.9 C 2.6 210.4 1.4 213.7 3.1 215.4 C 4.8 217.1 4.6 229.3 2.7 246.9 C -0.6 275.9 2.1 318.4 8.4 340.3 C 9.9 345.6 10.5 352.6 9.6 356.0 C 8.7 359.4 9.4 362.0 11.3 362.0 C 15.7 362.0 24.5 382.6 23.9 391.8 C 23.6 396.6 26.2 401.5 31.3 405.6 C 35.7 409.1 39.4 415.2 39.6 419.0 C 39.8 422.9 41.6 426.0 43.5 426.0 C 48.8 426.0 55.9 437.0 54.0 442.0 C 53.0 444.6 53.6 445.6 55.5 444.4 C 57.2 443.3 60.3 444.5 62.3 446.9 C 64.3 449.3 65.0 451.3 63.8 451.3 C 62.5 451.3 63.2 453.3 65.2 455.8 C 67.2 458.2 69.9 459.6 71.1 458.8 C 72.3 458.1 76.4 460.8 80.2 464.8 C 84.0 468.9 86.0 472.2 84.7 472.2 C 83.4 472.2 84.0 474.2 86.1 476.6 C 88.1 479.0 90.8 480.4 92.0 479.6 C 95.3 477.6 101.3 485.6 98.7 488.5 C 97.5 489.9 98.8 490.2 101.6 489.2 C 104.8 488.0 109.9 490.4 115.7 495.8 C 120.7 500.5 124.8 503.7 124.8 503.1 C 124.8 502.4 130.2 504.6 136.8 507.9 C 144.1 511.7 148.0 515.4 146.7 517.4 C 145.3 519.6 146.3 520.1 149.5 518.9 C 156.0 516.4 182.1 528.1 179.4 532.3 C 178.0 534.6 180.4 535.0 186.8 533.7 C 192.0 532.7 199.9 533.3 204.4 535.0 C 223.9 542.7 294.6 543.7 324.2 536.7 C 334.8 534.2 346.9 532.8 351.0 533.6 C 358.5 535.1 376.1 528.1 373.0 524.9 C 370.0 521.9 383.1 516.8 388.4 518.8 C 391.9 520.1 392.9 519.7 391.5 517.4 C 389.0 513.4 405.9 503.9 416.3 503.6 C 421.0 503.5 425.0 500.7 427.5 496.0 C 429.6 491.9 432.7 488.9 434.5 489.3 C 436.3 489.8 437.0 488.9 436.0 487.4 C 434.2 484.4 449.1 473.3 453.3 474.6 C 455.9 475.4 465.5 463.6 465.5 459.6 C 465.5 458.5 472.4 451.1 480.7 443.3 C 489.9 434.6 495.6 426.9 495.1 423.6 C 494.6 420.6 496.2 417.5 498.5 416.6 C 500.8 415.7 502.0 413.8 501.1 412.4 C 500.3 411.0 502.1 407.4 505.1 404.3 C 508.2 401.3 510.7 396.9 510.8 394.5 C 510.9 387.0 520.4 367.5 523.1 369.2 C 524.6 370.1 525.8 365.9 525.8 359.8 C 525.9 342.7 534.2 309.8 538.2 310.7 C 540.8 311.3 540.9 310.0 538.6 305.7 C 534.6 298.3 534.5 249.9 538.5 247.5 C 542.6 244.9 542.2 236.9 538.0 237.8 C 533.4 238.8 529.3 220.2 531.5 207.9 C 532.8 200.6 532.2 198.3 529.1 199.0 C 526.1 199.6 525.3 196.8 526.0 188.4 C 526.5 181.3 525.8 177.7 523.9 178.8 C 520.6 180.8 513.8 170.4 516.6 167.7 C 518.9 165.3 510.9 147.9 508.2 149.5 C 505.4 151.3 499.4 140.2 501.9 137.7 C 504.4 135.2 496.5 120.8 493.6 122.6 C 492.3 123.4 490.2 122.3 488.9 120.3 C 486.6 116.7 486.1 115.4 485.3 109.6 C 484.7 105.9 467.0 86.7 464.1 86.7 C 460.8 86.7 456.6 82.5 456.6 79.2 C 456.6 75.0 436.6 58.5 433.7 60.3 C 430.4 62.3 419.0 52.7 420.9 49.6 C 422.6 46.8 408.1 39.1 405.6 41.5 C 402.8 44.3 392.2 37.8 394.2 34.5 C 395.2 33.0 392.9 32.0 389.1 32.4 C 384.6 32.9 382.5 31.8 383.1 29.1 C 383.6 26.5 382.3 25.6 379.3 26.8 C 373.4 29.0 359.0 23.6 361.2 20.0 C 362.2 18.5 358.6 17.3 353.2 17.4 C 335.7 17.8 301.8 9.2 302.8 4.6 C 303.6 1.3 303.0 1.2 300.0 4.2 C 295.4 8.7 242.1 9.3 239.4 4.9 C 236.8 0.8 231.7 1.1 232.7 5.3 "></path></clipPath><g clip-path="url(#clip-67)"><image xlink:href="66914D875E1894AB3C962F13FDF6B2C7.jpeg" width="560.00" height="560.00" transform="matrix(1.00, 0.00, -0.00, -1.00, -9.0, 553.0)"></image></g></g></g></g></g></svg>