<?xml version="1.0" encoding="UTF-8"?><svg xmlns="http://www.w3.org/2000/svg" xmlns:xlink="http://www.w3.org/1999/xlink" clip-rule="evenodd" stroke-miterlimit="4.00" viewBox="0 0 1920 1080"><desc>SVG generated by Keynote</desc><defs></defs><g transform="matrix(1.00, 0.00, -0.00, -1.00, 0.0, 1080.0)"><path d="M 0.0 0.0 L 1920.0 0.0 L 1920.0 1080.0 L 0.0 1080.0 Z M 0.0 0.0 " fill="#FEFFFF"></path><text xml:space="preserve" font-family="Helvetica-Light" font-size="109.8" fill="#000000" transform="matrix(1.00, 0.00, -0.00, -1.00, 551.0, 967.0)">C</text><text xml:space="preserve" font-family="Helvetica-Light" font-size="109.8" fill="#000000" transform="matrix(1.00, 0.00, -0.00, -1.00, 630.2, 967.0)">o</text><text xml:space="preserve" font-family="Helvetica-Light" font-size="109.8" fill="#000000" transform="matrix(1.00, 0.00, -0.00, -1.00, 691.3, 967.0)">n</text><text xml:space="preserve" font-family="Helvetica-Light" font-size="109.8" fill="#000000" transform="matrix(1.00, 0.00, -0.00, -1.00, 752.3, 967.0)">n</text><text xml:space="preserve" font-family="Helvetica-Light" font-size="109.8" fill="#000000" transform="matrix(1.00, 0.00, -0.00, -1.00, 813.3, 967.0)">e</text><text xml:space="preserve" font-family="Helvetica-Light" font-size="109.8" fill="#000000" transform="matrix(1.00, 0.00, -0.00, -1.00, 874.4, 967.0)">c</text><text xml:space="preserve" font-family="Helvetica-Light" font-size="109.8" fill="#000000" transform="matrix(1.00, 0.00, -0.00, -1.00, 935.4, 967.0)">t</text><text xml:space="preserve" font-family="Helvetica-Light" font-size="109.8" fill="#000000" transform="matrix(1.00, 0.00, -0.00, -1.00, 965.9, 967.0)">e</text><text xml:space="preserve" font-family="Helvetica-Light" font-size="109.8" fill="#000000" transform="matrix(1.00, 0.00, -0.00, -1.00, 1026.9, 967.0)">d</text><text xml:space="preserve" font-family="Helvetica-Light" font-size="109.8" fill="#000000" transform="matrix(1.00, 0.00, -0.00, -1.00, 1094.0, 967.0)"> </text><text xml:space="preserve" font-family="Helvetica-Light" font-size="109.8" fill="#000000" transform="matrix(1.00, 0.00, -0.00, -1.00, 1124.5, 967.0)">H</text><text xml:space="preserve" font-family="Helvetica-Light" font-size="109.8" fill="#000000" transform="matrix(1.00, 0.00, -0.00, -1.00, 1203.7, 967.0)">O</text><text xml:space="preserve" font-family="Helvetica-Light" font-size="109.8" fill="#000000" transform="matrix(1.00, 0.00, -0.00, -1.00, 1289.1, 967.0)">C</text><g><clipPath id="clip-69"><path d="M -15.0 938.0 L 1896.0 938.0 L 1896.0 14.0 L -15.0 14.0 Z M -15.5 938.0 "></path></clipPath><g clip-path="url(#clip-69)"><image xlink:href="../../67020B0F-BF1D-4FFC-BD0A-B91427C8E8C2/assets/15B5C30E950DA3B5258BE9066047D0E0.png" width="755.00" height="540.00" transform="matrix(4.85, 0.00, -0.00, -4.85, -48.0, 938.0)"></image></g></g><image xlink:href="../../67020B0F-BF1D-4FFC-BD0A-B91427C8E8C2/assets/C9A0019194D3D729013952D8DCE71CC4.png" width="822.00" height="331.00" transform="matrix(1.00, 0.00, -0.00, -1.00, 855.1, 1047.3)"></image><path d="M 617.1 20.3 C 758.3 47.3 758.3 91.2 617.1 118.2 C 476.0 145.3 247.1 145.3 105.9 118.2 C -35.3 91.2 -35.3 47.3 105.9 20.3 C 247.1 -6.8 476.0 -6.8 617.1 20.3 Z M 617.1 20.3 " fill="none" stroke="#FF2600" stroke-width="18.00" transform="matrix(1.00, 0.00, 0.00, -1.00, 904.1, 952.0)"></path></g></svg>