<?xml version="1.0" encoding="UTF-8"?><svg xmlns="http://www.w3.org/2000/svg" xmlns:xlink="http://www.w3.org/1999/xlink" clip-rule="evenodd" stroke-miterlimit="4.00" viewBox="0 0 810 87"><desc>SVG generated by Keynote</desc><defs></defs><g transform="matrix(1.00, 0.00, -0.00, -1.00, 0.0, 87.0)"><text xml:space="preserve" font-family="Helvetica-Light" font-size="109.8" fill="#000000" transform="matrix(1.00, 0.00, -0.00, -1.00, -4.0, 4.0)">C</text><text xml:space="preserve" font-family="Helvetica-Light" font-size="109.8" fill="#000000" transform="matrix(1.00, 0.00, -0.00, -1.00, 75.2, 4.0)">o</text><text xml:space="preserve" font-family="Helvetica-Light" font-size="109.8" fill="#000000" transform="matrix(1.00, 0.00, -0.00, -1.00, 136.3, 4.0)">n</text><text xml:space="preserve" font-family="Helvetica-Light" font-size="109.8" fill="#000000" transform="matrix(1.00, 0.00, -0.00, -1.00, 197.3, 4.0)">n</text><text xml:space="preserve" font-family="Helvetica-Light" font-size="109.8" fill="#000000" transform="matrix(1.00, 0.00, -0.00, -1.00, 258.3, 4.0)">e</text><text xml:space="preserve" font-family="Helvetica-Light" font-size="109.8" fill="#000000" transform="matrix(1.00, 0.00, -0.00, -1.00, 319.4, 4.0)">c</text><text xml:space="preserve" font-family="Helvetica-Light" font-size="109.8" fill="#000000" transform="matrix(1.00, 0.00, -0.00, -1.00, 380.4, 4.0)">t</text><text xml:space="preserve" font-family="Helvetica-Light" font-size="109.8" fill="#000000" transform="matrix(1.00, 0.00, -0.00, -1.00, 410.9, 4.0)">e</text><text xml:space="preserve" font-family="Helvetica-Light" font-size="109.8" fill="#000000" transform="matrix(1.00, 0.00, -0.00, -1.00, 471.9, 4.0)">d</text><text xml:space="preserve" font-family="Helvetica-Light" font-size="109.8" fill="#000000" transform="matrix(1.00, 0.00, -0.00, -1.00, 539.0, 4.0)"> </text><text xml:space="preserve" font-family="Helvetica-Light" font-size="109.8" fill="#000000" transform="matrix(1.00, 0.00, -0.00, -1.00, 569.5, 4.0)">H</text><text xml:space="preserve" font-family="Helvetica-Light" font-size="109.8" fill="#000000" transform="matrix(1.00, 0.00, -0.00, -1.00, 648.7, 4.0)">O</text><text xml:space="preserve" font-family="Helvetica-Light" font-size="109.8" fill="#000000" transform="matrix(1.00, 0.00, -0.00, -1.00, 734.1, 4.0)">C</text></g></svg>