<?xml version="1.0" encoding="UTF-8"?><svg xmlns="http://www.w3.org/2000/svg" xmlns:xlink="http://www.w3.org/1999/xlink" clip-rule="evenodd" stroke-miterlimit="4.00" viewBox="0 0 113 111"><desc>SVG generated by Keynote</desc><defs></defs><g transform="matrix(1.00, 0.00, -0.00, -1.00, 0.0, 111.0)"><image xlink:href="../../78A98741-3218-4F58-B2FE-607063DF5DA5/assets/55EB21678F54394C60B89EE11CF67BF6.png" width="108.00" height="108.00" transform="matrix(1.00, 0.00, -0.00, -1.00, 4.0, 109.3)" opacity="0.50"></image><g><clipPath id="clip-30"><path d="M 92.3 90.6 C 111.8 71.1 111.8 39.5 92.3 19.9 C 72.8 0.4 41.1 0.4 21.6 19.9 C 2.1 39.5 2.1 71.1 21.6 90.6 C 41.1 110.2 72.8 110.2 92.3 90.6 Z M 92.3 90.6 "></path></clipPath><g clip-path="url(#clip-30)"><image xlink:href="../../78A98741-3218-4F58-B2FE-607063DF5DA5/assets/D5BAA0E7A80E113D25EB92D00157B4C8.jpeg" width="300.00" height="300.00" transform="matrix(1.00, 0.00, -0.00, -1.00, 7.0, 105.3)"></image><path d="M 7.0 5.3 L 107.0 5.3 L 107.0 105.3 L 7.0 105.3 Z M 7.0 5.3 " fill="#00D026" fill-opacity="0.50"></path></g></g></g></svg>