<?xml version="1.0" encoding="UTF-8"?><svg xmlns="http://www.w3.org/2000/svg" xmlns:xlink="http://www.w3.org/1999/xlink" clip-rule="evenodd" stroke-miterlimit="4.00" viewBox="0 0 1920 1080"><desc>SVG generated by Keynote</desc><defs></defs><g transform="matrix(1.00, 0.00, -0.00, -1.00, 0.0, 1080.0)"><path d="M 0.0 0.0 L 1920.0 0.0 L 1920.0 1080.0 L 0.0 1080.0 Z M 0.0 0.0 " fill="#FEFFFF"></path><text xml:space="preserve" font-family="Helvetica-Light" font-size="109.8" fill="#000000" transform="matrix(1.00, 0.00, -0.00, -1.00, 426.0, 967.0)">C</text><text xml:space="preserve" font-family="Helvetica-Light" font-size="109.8" fill="#000000" transform="matrix(1.00, 0.00, -0.00, -1.00, 505.2, 967.0)">h</text><text xml:space="preserve" font-family="Helvetica-Light" font-size="109.8" fill="#000000" transform="matrix(1.00, 0.00, -0.00, -1.00, 566.3, 967.0)">a</text><text xml:space="preserve" font-family="Helvetica-Light" font-size="109.8" fill="#000000" transform="matrix(1.00, 0.00, -0.00, -1.00, 627.3, 967.0)">n</text><text xml:space="preserve" font-family="Helvetica-Light" font-size="109.8" fill="#000000" transform="matrix(1.00, 0.00, -0.00, -1.00, 688.3, 967.0)">g</text><text xml:space="preserve" font-family="Helvetica-Light" font-size="109.8" fill="#000000" transform="matrix(1.00, 0.00, -0.00, -1.00, 755.4, 967.0)">e</text><text xml:space="preserve" font-family="Helvetica-Light" font-size="109.8" fill="#000000" transform="matrix(1.00, 0.00, -0.00, -1.00, 816.4, 967.0)">d</text><text xml:space="preserve" font-family="Helvetica-Light" font-size="109.8" fill="#000000" transform="matrix(1.00, 0.00, -0.00, -1.00, 883.5, 967.0)"> </text><text xml:space="preserve" font-family="Helvetica-Light" font-size="109.8" fill="#000000" transform="matrix(1.00, 0.00, -0.00, -1.00, 914.0, 967.0)">t</text><text xml:space="preserve" font-family="Helvetica-Light" font-size="109.8" fill="#000000" transform="matrix(1.00, 0.00, -0.00, -1.00, 944.5, 967.0)">h</text><text xml:space="preserve" font-family="Helvetica-Light" font-size="109.8" fill="#000000" transform="matrix(1.00, 0.00, -0.00, -1.00, 1005.5, 967.0)">e</text><text xml:space="preserve" font-family="Helvetica-Light" font-size="109.8" fill="#000000" transform="matrix(1.00, 0.00, -0.00, -1.00, 1066.6, 967.0)"> </text><text xml:space="preserve" font-family="Helvetica-Light" font-size="109.8" fill="#000000" transform="matrix(1.00, 0.00, -0.00, -1.00, 1097.1, 967.0)">t</text><text xml:space="preserve" font-family="Helvetica-Light" font-size="109.8" fill="#000000" transform="matrix(1.00, 0.00, -0.00, -1.00, 1127.6, 967.0)">w</text><text xml:space="preserve" font-family="Helvetica-Light" font-size="109.8" fill="#000000" transform="matrix(1.00, 0.00, -0.00, -1.00, 1206.8, 967.0)">o</text><text xml:space="preserve" font-family="Helvetica-Light" font-size="109.8" fill="#000000" transform="matrix(1.00, 0.00, -0.00, -1.00, 1267.9, 967.0)"> </text><text xml:space="preserve" font-family="Helvetica-Light" font-size="109.8" fill="#000000" transform="matrix(1.00, 0.00, -0.00, -1.00, 1298.4, 967.0)">ï¬</text><text xml:space="preserve" font-family="Helvetica-Light" font-size="109.8" fill="#000000" transform="matrix(1.00, 0.00, -0.00, -1.00, 1353.3, 967.0)">l</text><text xml:space="preserve" font-family="Helvetica-Light" font-size="109.8" fill="#000000" transform="matrix(1.00, 0.00, -0.00, -1.00, 1377.6, 967.0)">e</text><text xml:space="preserve" font-family="Helvetica-Light" font-size="109.8" fill="#000000" transform="matrix(1.00, 0.00, -0.00, -1.00, 1438.6, 967.0)">s</text><text xml:space="preserve" font-family="Helvetica-Light" font-size="109.8" fill="#000000" transform="matrix(1.00, 0.00, -0.00, -1.00, 1493.5, 967.0)"> </text></g></svg>