<?xml version="1.0" encoding="UTF-8"?><svg xmlns="http://www.w3.org/2000/svg" xmlns:xlink="http://www.w3.org/1999/xlink" clip-rule="evenodd" stroke-miterlimit="4.00" viewBox="0 0 113 111"><desc>SVG generated by Keynote</desc><defs></defs><g transform="matrix(1.00, 0.00, -0.00, -1.00, 0.0, 111.0)"><image xlink:href="../../78A98741-3218-4F58-B2FE-607063DF5DA5/assets/55EB21678F54394C60B89EE11CF67BF6.png" width="108.00" height="108.00" transform="matrix(1.00, 0.00, -0.00, -1.00, 3.1, 109.4)" opacity="0.50"></image><g><clipPath id="clip-37"><path d="M 91.5 90.7 C 111.0 71.2 111.0 39.5 91.5 20.0 C 72.0 0.5 40.3 0.5 20.8 20.0 C 1.3 39.5 1.3 71.2 20.8 90.7 C 40.3 110.2 72.0 110.2 91.5 90.7 Z M 91.5 90.7 "></path></clipPath><g clip-path="url(#clip-37)"><image xlink:href="../../78A98741-3218-4F58-B2FE-607063DF5DA5/assets/D5BAA0E7A80E113D25EB92D00157B4C8.jpeg" width="300.00" height="300.00" transform="matrix(1.00, 0.00, -0.00, -1.00, 6.1, 105.4)"></image><path d="M 6.1 5.4 L 106.1 5.4 L 106.1 105.4 L 6.1 105.4 Z M 6.1 5.4 " fill="#00D026" fill-opacity="0.50"></path></g></g></g></svg>