<?xml version="1.0" encoding="UTF-8"?><svg xmlns="http://www.w3.org/2000/svg" xmlns:xlink="http://www.w3.org/1999/xlink" clip-rule="evenodd" stroke-miterlimit="4.00" viewBox="0 0 113 111"><desc>SVG generated by Keynote</desc><defs></defs><g transform="matrix(1.00, 0.00, -0.00, -1.00, 0.0, 111.0)"><image xlink:href="../../78A98741-3218-4F58-B2FE-607063DF5DA5/assets/55EB21678F54394C60B89EE11CF67BF6.png" width="108.00" height="108.00" transform="matrix(1.00, 0.00, -0.00, -1.00, 3.2, 109.9)" opacity="0.50"></image><g><clipPath id="clip-31"><path d="M 91.6 91.2 C 111.1 71.7 111.1 40.0 91.6 20.5 C 72.0 1.0 40.4 1.0 20.9 20.5 C 1.3 40.0 1.3 71.7 20.9 91.2 C 40.4 110.8 72.0 110.8 91.6 91.2 Z M 91.6 91.2 "></path></clipPath><g clip-path="url(#clip-31)"><image xlink:href="../../78A98741-3218-4F58-B2FE-607063DF5DA5/assets/D5BAA0E7A80E113D25EB92D00157B4C8.jpeg" width="300.00" height="300.00" transform="matrix(1.00, 0.00, -0.00, -1.00, 6.2, 105.9)"></image><path d="M 6.2 5.9 L 106.2 5.9 L 106.2 105.9 L 6.2 105.9 Z M 6.2 5.9 " fill="#00D026" fill-opacity="0.50"></path></g></g></g></svg>