<?xml version="1.0" encoding="UTF-8"?><svg xmlns="http://www.w3.org/2000/svg" xmlns:xlink="http://www.w3.org/1999/xlink" clip-rule="evenodd" stroke-miterlimit="4.00" viewBox="0 0 109 113"><desc>SVG generated by Keynote</desc><defs></defs><g transform="matrix(1.00, 0.00, -0.00, -1.00, 0.0, 113.0)"><image xlink:href="../../78A98741-3218-4F58-B2FE-607063DF5DA5/assets/EA3800CC99988DBF6A553D97BBDE0AB6.png" width="106.00" height="106.00" transform="matrix(1.00, 0.00, -0.00, -1.00, 1.3, 107.5)" opacity="0.50"></image><g><clipPath id="clip-27"><path d="M 89.7 91.8 C 109.2 72.3 109.2 40.6 89.7 21.1 C 70.2 1.6 38.5 1.6 19.0 21.1 C -0.5 40.6 -0.5 72.3 19.0 91.8 C 38.5 111.3 70.2 111.3 89.7 91.8 Z M 89.7 91.8 "></path></clipPath><g clip-path="url(#clip-27)"><image xlink:href="../../78A98741-3218-4F58-B2FE-607063DF5DA5/assets/D5BAA0E7A80E113D25EB92D00157B4C8.jpeg" width="300.00" height="300.00" transform="matrix(1.00, 0.00, -0.00, -1.00, 4.3, 106.5)"></image><path d="M 4.3 6.5 L 104.3 6.5 L 104.3 106.5 L 4.3 106.5 Z M 4.3 6.5 " fill="#009BFC" fill-opacity="0.50"></path></g></g></g></svg>