<?xml version="1.0" encoding="UTF-8"?><svg xmlns="http://www.w3.org/2000/svg" xmlns:xlink="http://www.w3.org/1999/xlink" clip-rule="evenodd" stroke-miterlimit="4.00" viewBox="0 0 30 213"><desc>SVG generated by Keynote</desc><defs></defs><g transform="matrix(1.00, 0.00, -0.00, -1.00, 0.0, 213.0)"><path d="M 13.6 198.1 C 13.8 198.3 13.5 199.1 13.7 199.3 M 13.6 198.1 C 12.5 198.8 12.4 200.1 12.2 201.8 C 12.2 203.8 13.3 201.8 13.7 202.0 C 14.1 204.5 13.3 204.5 12.2 204.1 C 13.0 205.1 11.5 208.0 13.0 207.4 C 13.0 203.3 13.4 210.2 14.2 206.8 C 14.5 206.4 14.9 207.4 14.9 207.8 C 15.5 206.7 16.2 208.6 16.6 206.8 C 17.6 206.6 17.2 206.9 17.9 205.7 C 18.0 205.2 17.7 205.5 17.5 205.5 C 16.4 205.3 18.1 204.1 17.4 203.2 C 18.8 202.3 17.1 201.5 16.5 202.2 C 16.7 201.4 18.2 200.4 17.2 199.5 C 17.9 199.0 17.4 196.7 16.5 198.1 C 15.9 199.1 15.5 198.0 15.2 197.8 C 14.9 198.2 15.3 199.6 15.0 199.8 C 14.8 199.4 14.3 197.6 14.3 199.5 C 13.8 198.9 13.5 199.8 13.6 198.1 C 13.6 198.1 13.6 198.1 13.6 198.1 Z M 12.8 204.8 C 12.4 204.9 12.8 204.2 12.8 204.8 C 12.8 204.8 12.8 204.8 12.8 204.8 Z M 17.9 200.2 C 17.5 200.2 17.9 199.6 17.9 200.2 C 17.9 200.2 17.9 200.2 17.9 200.2 Z M 17.5 205.2 C 17.1 205.2 17.5 204.5 17.5 205.2 C 17.5 205.2 17.5 205.2 17.5 205.2 Z M 13.0 203.1 C 13.4 202.0 13.6 204.0 13.2 204.1 C 13.3 203.9 12.7 203.3 13.0 203.1 C 13.0 203.1 13.0 203.1 13.0 203.1 Z M 15.2 202.9 C 15.1 202.8 15.0 202.4 15.4 202.5 C 15.5 202.7 15.4 203.0 15.2 202.9 C 15.2 202.9 15.2 202.9 15.2 202.9 Z M 13.7 208.2 C 13.5 208.1 13.5 207.7 13.9 207.7 C 14.0 208.0 13.8 208.3 13.7 208.2 C 13.7 208.2 13.7 208.2 13.7 208.2 Z M 14.0 201.9 C 14.1 201.6 14.5 201.5 14.5 201.8 C 14.3 202.0 14.3 202.7 14.0 201.9 C 14.0 201.9 14.0 201.9 14.0 201.9 Z M 12.8 200.2 C 13.0 199.3 13.5 201.1 13.4 201.1 C 13.1 201.4 12.5 200.7 12.8 200.2 C 12.8 200.2 12.8 200.2 12.8 200.2 Z M 14.6 201.3 C 14.8 200.6 14.8 201.7 14.6 201.3 C 14.6 201.3 14.6 201.3 14.6 201.3 Z M 16.5 207.5 C 16.7 206.8 16.8 207.8 16.5 207.5 C 16.5 207.5 16.5 207.5 16.5 207.5 Z M 17.7 203.6 C 17.9 202.9 18.0 203.9 17.7 203.6 C 17.7 203.6 17.7 203.6 17.7 203.6 Z M 13.8 205.0 C 13.8 206.3 12.8 205.2 13.8 205.0 C 13.8 205.0 13.8 205.0 13.8 205.0 Z M 12.7 198.1 C 12.7 199.4 11.7 198.3 12.7 198.1 C 12.7 198.1 12.7 198.1 12.7 198.1 Z M 13.0 24.0 C 12.8 22.9 11.6 27.5 13.1 25.7 C 14.3 25.2 14.2 28.3 13.1 27.5 C 12.9 28.5 12.8 28.5 13.4 29.0 C 12.5 29.1 12.1 31.3 12.5 32.1 C 13.3 32.5 12.6 30.6 13.5 31.9 C 13.7 34.6 14.3 31.7 15.3 32.7 C 15.3 32.8 14.8 32.9 15.1 33.1 C 16.1 33.2 16.7 31.7 17.4 32.4 C 17.3 31.9 18.3 30.0 17.5 30.8 C 16.6 31.1 18.6 28.7 17.1 28.8 C 17.8 28.2 16.8 27.5 17.7 26.9 C 17.8 26.4 17.1 26.4 16.9 26.5 C 16.2 26.5 18.4 25.9 17.2 25.1 C 17.6 25.0 17.4 22.9 16.9 24.5 C 17.0 24.0 17.3 21.5 16.0 22.8 C 15.4 24.6 14.6 21.0 14.6 23.1 C 14.4 24.7 14.7 25.0 14.0 23.8 C 14.1 23.4 13.9 21.6 13.3 23.2 C 13.5 23.5 13.4 24.3 13.0 24.0 C 13.0 24.0 13.0 24.0 13.0 24.0 Z M 15.0 23.7 C 15.0 24.6 14.5 23.8 15.0 23.7 C 15.0 23.7 15.0 23.7 15.0 23.7 Z M 18.0 27.0 C 18.0 27.9 17.5 27.1 18.0 27.0 C 18.0 27.0 18.0 27.0 18.0 27.0 Z M 12.7 26.9 C 13.1 27.4 11.7 27.5 12.7 26.9 C 12.7 26.9 12.7 26.9 12.7 26.9 Z M 16.9 25.5 C 16.9 25.6 16.7 25.3 16.6 25.2 C 16.7 25.2 16.9 25.4 16.9 25.5 C 16.9 25.5 16.9 25.5 16.9 25.5 Z M 12.7 28.4 C 13.4 29.8 11.6 28.7 12.7 28.4 C 12.7 28.4 12.7 28.4 12.7 28.4 Z M 14.0 31.2 C 15.4 31.4 13.7 32.6 14.0 31.2 C 14.0 31.2 14.0 31.2 14.0 31.2 Z M 17.0 29.3 C 16.7 29.0 17.2 29.0 17.0 29.3 C 17.0 29.3 17.0 29.3 17.0 29.3 Z M 17.2 23.3 C 16.9 23.1 17.4 23.1 17.2 23.3 C 17.2 23.3 17.2 23.3 17.2 23.3 Z M 16.9 31.0 C 16.4 30.9 17.2 30.5 16.9 31.0 C 16.9 31.0 16.9 31.0 16.9 31.0 Z M 13.3 27.2 C 12.2 25.9 14.8 25.6 13.3 27.2 C 13.3 27.2 13.3 27.2 13.3 27.2 Z M 13.1 24.9 C 12.9 24.1 13.8 25.1 13.7 25.4 C 13.5 25.4 13.2 25.1 13.1 24.9 C 13.1 24.9 13.1 24.9 13.1 24.9 Z M 13.4 28.5 C 12.8 27.6 13.7 27.7 13.4 28.5 C 13.4 28.5 13.4 28.5 13.4 28.5 Z M 12.8 26.3 C 12.9 25.9 12.9 26.7 12.8 26.3 C 12.8 26.3 12.8 26.3 12.8 26.3 Z M 12.2 30.2 C 12.4 29.7 12.4 30.5 12.2 30.2 C 12.2 30.2 12.2 30.2 12.2 30.2 Z M 12.6 23.9 C 12.7 23.4 12.7 24.2 12.6 23.9 C 12.6 23.9 12.6 23.9 12.6 23.9 Z M 13.0 29.8 C 13.4 29.9 14.5 28.7 13.6 30.9 C 13.3 31.3 12.6 30.4 13.0 29.8 C 13.0 29.8 13.0 29.8 13.0 29.8 Z M 13.6 194.1 C 12.1 199.7 14.8 198.4 15.3 198.6 C 16.0 199.4 16.5 198.7 17.0 197.5 C 18.7 196.4 15.2 195.7 16.9 194.9 C 19.2 193.4 15.0 193.2 17.4 192.5 C 18.0 192.8 17.5 190.6 17.3 190.8 C 18.5 189.7 16.4 188.1 16.2 188.1 C 16.5 187.4 18.7 187.3 17.1 185.0 C 16.5 183.3 18.6 182.5 17.2 183.0 C 18.8 181.7 16.7 182.1 17.2 180.8 C 18.1 179.9 15.8 180.8 17.6 179.1 C 16.2 178.4 18.5 179.9 17.5 175.5 C 17.4 177.6 16.4 173.5 17.3 174.3 C 18.3 175.8 17.0 172.3 17.5 170.3 C 17.0 169.8 15.8 167.4 17.2 167.8 C 18.7 165.8 16.2 165.7 17.5 164.9 C 18.0 164.2 16.9 163.9 17.0 163.4 C 17.9 162.7 17.3 162.1 17.6 159.5 C 18.1 154.0 15.1 158.7 14.7 156.6 C 14.3 156.2 11.1 159.3 13.5 158.1 C 12.8 158.5 15.3 163.0 12.7 160.8 C 13.7 162.5 11.6 160.4 12.8 163.9 C 14.7 159.1 13.6 169.3 12.7 164.7 C 12.1 165.5 12.2 167.4 12.7 166.0 C 14.4 165.5 11.9 169.3 14.0 167.4 C 13.4 170.3 15.3 169.6 14.0 170.4 C 11.7 171.1 14.5 170.2 13.9 171.7 C 13.9 175.2 11.3 172.5 13.0 174.6 C 11.9 178.0 14.0 175.3 14.3 176.5 C 15.8 176.8 13.1 179.9 12.9 177.4 C 13.7 178.7 12.1 177.6 13.1 179.1 C 14.5 178.0 11.6 181.2 12.7 180.7 C 13.1 182.1 13.9 181.4 14.0 181.8 C 14.0 183.9 12.6 183.2 13.6 183.6 C 14.2 184.1 12.4 185.1 12.8 185.4 C 12.9 183.2 14.3 187.1 13.6 187.3 C 13.5 186.0 11.7 188.0 12.8 188.8 C 15.9 187.8 12.0 190.6 13.1 191.6 C 14.8 190.7 13.3 196.2 12.5 194.1 C 12.7 194.3 13.7 194.1 13.6 194.1 M 13.1 186.0 C 13.2 184.2 13.4 187.8 13.1 186.0 M 12.6 186.0 C 13.2 185.3 12.2 187.7 12.4 185.9 C 12.4 185.9 12.6 186.1 12.6 186.0 M 12.6 178.8 C 13.1 179.0 12.3 179.8 12.6 178.8 M 13.6 177.4 C 14.1 176.3 13.7 179.0 13.6 177.4 M 13.3 161.5 C 15.9 163.1 11.9 163.2 13.3 161.5 M 12.8 172.0 C 13.1 174.0 11.7 171.4 12.8 172.0 M 13.4 172.6 C 13.8 173.5 12.8 172.8 13.4 172.6 M 13.3 164.5 C 13.3 164.4 13.3 164.4 13.3 164.5 C 13.3 164.5 13.3 164.5 13.3 164.5 Z M 13.4 159.8 C 13.3 159.8 13.3 159.8 13.4 159.8 C 13.4 159.8 13.4 159.8 13.4 159.8 Z M 13.6 169.1 C 13.0 170.6 13.3 166.7 13.6 169.1 C 13.6 169.1 13.6 169.1 13.6 169.1 Z M 17.3 162.1 C 17.3 162.1 17.3 162.1 17.3 162.1 C 17.3 162.1 17.3 162.1 17.3 162.1 Z M 14.3 187.3 C 14.3 187.4 14.3 187.4 14.3 187.3 C 14.3 187.3 14.3 187.3 14.3 187.3 Z M 13.3 192.7 C 13.6 192.6 13.0 193.7 13.3 192.7 C 13.3 192.7 13.3 192.7 13.3 192.7 Z M 16.2 197.1 C 16.3 197.1 16.3 197.1 16.2 197.1 C 16.2 197.1 16.2 197.1 16.2 197.1 Z M 15.6 189.1 C 15.6 189.2 15.6 189.2 15.6 189.1 C 15.6 189.1 15.6 189.1 15.6 189.1 Z M 13.7 188.4 C 12.3 189.2 14.1 186.3 13.7 188.4 C 13.7 188.4 13.7 188.4 13.7 188.4 Z M 17.1 170.9 C 16.5 170.9 17.3 169.7 17.1 170.9 C 17.1 170.9 17.1 170.9 17.1 170.9 Z M 14.2 177.2 C 13.9 177.0 14.4 176.4 14.2 177.2 C 14.2 177.2 14.2 177.2 14.2 177.2 Z M 12.3 180.2 C 12.0 180.0 12.4 179.4 12.3 180.2 C 12.3 180.2 12.3 180.2 12.3 180.2 Z M 12.9 192.6 C 12.8 192.5 12.8 192.5 12.9 192.6 C 12.9 192.6 12.9 192.6 12.9 192.6 Z M 14.0 190.7 C 12.6 192.0 14.7 188.6 14.0 190.7 C 14.0 190.7 14.0 190.7 14.0 190.7 Z M 14.3 193.0 C 14.9 192.3 14.1 194.7 14.3 193.0 M 16.4 191.7 C 15.8 190.0 18.8 193.1 16.4 191.7 C 16.4 191.7 16.4 191.7 16.4 191.7 Z M 16.9 183.4 C 17.0 183.3 17.0 183.3 16.9 183.4 C 16.9 183.4 16.9 183.4 16.9 183.4 Z M 13.0 184.3 C 13.1 182.8 13.3 185.2 13.0 184.3 C 13.0 184.3 13.0 184.3 13.0 184.3 Z M 12.7 196.7 C 12.8 195.3 13.1 197.7 12.7 196.7 C 12.7 196.7 12.7 196.7 12.7 196.7 Z M 15.6 178.6 C 15.4 176.2 16.3 180.0 15.6 178.6 C 15.6 178.6 15.6 178.6 15.6 178.6 Z M 14.1 169.9 C 14.1 169.9 14.1 169.9 14.1 169.9 C 14.1 169.9 14.1 169.9 14.1 169.9 Z M 13.5 168.3 C 13.6 168.3 13.6 168.3 13.5 168.3 C 13.5 168.3 13.5 168.3 13.5 168.3 Z M 14.9 161.6 C 14.9 161.5 14.9 161.5 14.9 161.6 C 14.9 161.6 14.9 161.6 14.9 161.6 Z M 12.9 166.9 C 12.9 166.8 12.9 166.8 12.9 166.9 C 12.9 166.9 12.9 166.9 12.9 166.9 Z M 13.2 162.2 C 13.3 162.1 13.3 162.1 13.2 162.2 C 13.2 162.2 13.2 162.2 13.2 162.2 Z M 12.1 162.9 C 12.1 162.8 12.1 162.8 12.1 162.9 C 12.1 162.9 12.1 162.9 12.1 162.9 Z M 17.9 173.2 C 17.9 173.1 17.9 173.1 17.9 173.2 C 17.9 173.2 17.9 173.2 17.9 173.2 Z M 12.5 190.1 C 12.6 190.0 12.6 190.0 12.5 190.1 C 12.5 190.1 12.5 190.1 12.5 190.1 Z M 13.8 162.6 C 13.8 162.5 13.8 162.5 13.8 162.6 C 13.8 162.6 13.8 162.6 13.8 162.6 Z M 14.8 173.9 C 15.9 173.9 13.3 174.9 14.8 173.6 C 14.8 173.7 14.6 174.0 14.8 173.9 M 16.7 172.4 C 16.7 172.5 16.7 172.5 16.7 172.4 C 16.7 172.4 16.7 172.4 16.7 172.4 Z M 17.4 177.5 C 17.4 177.6 17.4 177.6 17.4 177.5 C 17.4 177.5 17.4 177.5 17.4 177.5 Z M 12.7 167.7 C 12.0 167.9 13.2 166.4 12.7 167.9 M 16.9 161.6 C 16.2 161.8 17.4 160.3 16.9 161.8 M 13.2 198.4 C 13.7 198.6 12.9 199.3 13.2 198.4 M 18.0 178.7 C 18.5 178.9 17.7 179.6 18.0 178.7 M 16.5 176.3 C 15.9 176.5 17.0 175.0 16.6 176.5 M 16.8 165.1 C 16.8 165.0 16.8 165.0 16.8 165.1 C 16.8 165.1 16.8 165.1 16.8 165.1 Z M 13.2 182.1 C 13.2 182.0 13.2 182.0 13.2 182.1 C 13.2 182.1 13.2 182.1 13.2 182.1 Z M 14.5 175.8 C 13.6 176.6 15.1 174.7 14.5 175.8 M 14.7 183.9 C 13.6 185.1 15.0 181.9 14.7 183.9 M 17.1 158.9 C 15.8 160.3 17.8 157.9 17.1 158.9 M 13.9 165.8 C 12.6 167.2 14.6 164.8 13.9 165.8 M 13.7 180.8 C 13.0 180.9 14.1 179.4 13.7 180.8 M 13.1 195.1 C 12.9 196.4 12.5 193.4 13.1 195.1 M 16.9 168.5 C 16.9 168.4 16.9 168.4 16.9 168.5 C 16.9 168.5 16.9 168.5 16.9 168.5 Z M 18.0 190.8 C 18.1 190.7 18.1 190.7 18.0 190.8 C 18.0 190.8 18.0 190.8 18.0 190.8 Z M 12.9 157.1 C 12.9 157.1 12.9 157.1 12.9 157.1 C 12.9 157.1 12.9 157.1 12.9 157.1 Z M 14.5 166.7 C 14.6 166.6 14.6 166.6 14.5 166.7 C 14.5 166.7 14.5 166.7 14.5 166.7 Z M 12.7 159.8 C 12.8 159.7 12.8 159.7 12.7 159.8 C 12.7 159.8 12.7 159.8 12.7 159.8 Z M 15.5 171.0 C 15.5 171.0 15.5 171.0 15.5 171.0 C 15.5 171.0 15.5 171.0 15.5 171.0 Z M 12.2 171.9 C 12.2 171.8 12.2 171.8 12.2 171.9 C 12.2 171.9 12.2 171.9 12.2 171.9 Z M 13.6 176.6 C 13.6 176.6 13.6 176.6 13.6 176.6 C 13.6 176.6 13.6 176.6 13.6 176.6 Z M 12.5 169.7 C 12.3 166.9 13.6 171.1 12.5 169.7 C 12.5 169.7 12.5 169.7 12.5 169.7 Z M 15.7 174.6 C 15.8 174.6 15.8 174.6 15.7 174.6 C 15.7 174.6 15.7 174.6 15.7 174.6 Z M 13.4 175.0 C 12.5 173.2 15.0 174.0 13.4 175.0 M 12.6 182.9 C 12.1 182.4 13.4 182.6 12.6 182.9 M 17.0 186.0 C 17.0 186.1 17.0 186.1 17.0 186.0 C 17.0 186.0 17.0 186.0 17.0 186.0 Z M 16.6 185.2 C 16.7 185.1 16.7 185.1 16.6 185.2 C 16.6 185.2 16.6 185.2 16.6 185.2 Z M 12.4 184.8 C 12.5 184.8 12.5 184.8 12.4 184.8 C 12.4 184.8 12.4 184.8 12.4 184.8 Z M 17.9 185.1 C 17.9 185.0 17.9 185.0 17.9 185.1 C 17.9 185.1 17.9 185.1 17.9 185.1 Z M 12.3 172.9 C 12.3 172.9 12.3 172.9 12.3 172.9 C 12.3 172.9 12.3 172.9 12.3 172.9 Z M 12.2 158.4 C 12.3 158.4 12.3 158.4 12.2 158.4 C 12.2 158.4 12.2 158.4 12.2 158.4 Z M 16.5 194.7 C 16.6 194.6 16.6 194.6 16.5 194.7 C 16.5 194.7 16.5 194.7 16.5 194.7 Z M 13.6 171.4 C 13.6 171.4 13.6 171.4 13.6 171.4 C 13.6 171.4 13.6 171.4 13.6 171.4 Z M 16.8 188.1 C 16.8 188.1 16.8 188.1 16.8 188.1 C 16.8 188.1 16.8 188.1 16.8 188.1 Z M 13.3 172.4 C 13.3 172.3 13.3 172.3 13.3 172.4 C 13.3 172.4 13.3 172.4 13.3 172.4 Z M 17.2 168.9 C 17.2 168.9 17.2 168.9 17.2 168.9 C 17.2 168.9 17.2 168.9 17.2 168.9 Z M 17.9 165.8 C 17.9 165.8 17.9 165.8 17.9 165.8 C 17.9 165.8 17.9 165.8 17.9 165.8 Z M 14.8 169.2 C 14.9 169.1 14.9 169.1 14.8 169.2 C 14.8 169.2 14.8 169.2 14.8 169.2 Z M 15.4 189.1 C 14.2 194.8 14.8 184.6 15.4 189.1 M 15.1 168.2 C 14.9 172.2 13.8 165.0 15.1 168.2 C 14.8 167.8 15.1 168.2 15.1 168.2 M 12.4 155.7 C 13.6 157.4 14.7 157.4 16.0 156.6 C 16.6 155.8 14.2 155.9 16.2 155.8 C 16.6 157.7 19.3 155.0 16.7 155.1 C 16.3 152.6 18.4 154.7 17.3 153.2 C 17.0 150.5 17.8 151.9 17.7 149.9 C 16.2 148.7 18.4 148.7 17.0 148.2 C 18.5 149.2 16.6 146.0 17.3 145.9 C 18.2 147.8 17.3 138.9 16.8 143.7 C 16.2 141.8 17.4 142.1 17.6 141.5 C 16.7 140.6 18.3 138.2 17.4 137.0 C 17.2 137.2 17.1 137.9 16.9 138.0 C 16.3 138.4 17.0 136.7 16.9 136.8 C 16.6 136.0 15.7 132.9 17.3 136.3 C 18.0 136.4 16.9 133.5 17.6 133.6 C 17.6 130.6 16.2 132.9 17.2 131.5 C 17.3 129.4 17.3 127.9 17.1 127.9 C 17.2 126.7 18.1 126.4 17.3 125.3 C 18.9 122.7 14.2 123.4 17.3 122.5 C 16.6 121.7 18.6 121.0 16.7 121.1 C 17.6 122.0 18.2 116.7 16.8 119.0 C 16.3 118.4 18.8 115.1 16.8 115.6 C 15.4 114.4 14.0 114.6 12.7 117.2 C 13.7 116.9 11.5 119.9 13.4 118.0 C 14.0 115.7 14.1 122.0 13.4 120.7 C 11.1 120.4 14.8 123.8 13.2 125.1 C 14.1 124.0 14.5 129.1 12.8 127.6 C 12.7 128.6 13.5 128.8 12.5 129.8 C 12.7 126.8 14.3 131.0 13.3 130.8 C 12.6 130.3 12.1 134.9 13.1 134.4 C 15.4 132.8 12.6 135.6 13.5 136.4 C 14.0 138.9 11.5 136.0 13.2 137.9 C 12.9 138.4 12.9 141.7 12.4 139.6 C 12.7 138.8 15.0 141.6 13.0 142.0 C 11.9 138.4 12.4 146.1 13.0 144.9 C 14.1 139.3 14.2 150.7 13.2 146.4 C 12.1 148.9 12.7 145.7 13.2 148.7 C 13.8 148.3 14.4 150.7 13.2 150.1 C 11.3 150.6 15.7 151.0 13.1 152.8 C 12.0 153.1 13.9 156.5 12.7 155.2 C 12.6 155.1 12.3 155.6 12.4 155.7 M 12.6 154.6 C 13.0 155.0 12.0 155.3 12.6 154.6 M 13.0 155.1 C 12.9 155.1 12.9 155.1 13.0 155.1 C 13.0 155.1 13.0 155.1 13.0 155.1 Z M 13.3 149.2 C 13.2 149.2 13.2 149.2 13.3 149.2 C 13.3 149.2 13.3 149.2 13.3 149.2 Z M 18.0 144.5 C 18.0 144.6 18.0 144.6 18.0 144.5 C 18.0 144.5 18.0 144.5 18.0 144.5 Z M 13.4 145.2 C 13.4 145.3 13.4 145.3 13.4 145.2 C 13.4 145.2 13.4 145.2 13.4 145.2 Z M 13.6 151.3 C 13.6 151.3 13.6 151.3 13.6 151.3 C 13.6 151.3 13.6 151.3 13.6 151.3 Z M 12.7 145.6 C 13.4 145.3 12.2 147.0 12.6 145.5 C 12.6 145.5 12.6 145.8 12.7 145.6 M 12.4 140.5 C 12.5 140.4 12.5 140.4 12.4 140.5 M 18.0 129.2 C 18.1 129.1 18.1 129.1 18.0 129.2 M 12.4 128.2 C 12.4 128.1 12.4 128.1 12.4 128.2 M 13.1 135.4 C 13.0 133.8 13.5 135.0 13.1 135.4 M 12.8 124.1 C 12.3 126.1 12.4 122.0 12.8 124.1 M 12.3 122.2 C 12.4 122.0 12.4 122.0 12.3 122.2 M 12.6 131.1 C 12.7 131.1 12.7 131.1 12.6 131.1 C 12.6 131.1 12.6 131.1 12.6 131.1 Z M 12.8 136.0 C 12.4 138.1 12.2 134.0 12.8 136.0 M 12.6 148.5 C 12.2 147.4 13.5 148.5 12.6 148.5 M 13.0 150.8 C 13.0 150.8 13.0 150.8 13.0 150.8 C 13.0 150.8 13.0 150.8 13.0 150.8 Z M 12.7 127.3 C 12.7 127.4 12.7 127.4 12.7 127.3 C 12.7 127.3 12.7 127.3 12.7 127.3 Z M 12.6 125.0 C 12.6 125.1 12.6 125.1 12.6 125.0 C 12.6 125.0 12.6 125.0 12.6 125.0 Z M 17.8 121.2 C 17.8 121.3 17.8 121.3 17.8 121.2 C 17.8 121.2 17.8 121.2 17.8 121.2 Z M 15.2 149.1 C 14.8 150.6 13.4 147.5 14.7 147.8 C 15.3 147.7 15.0 148.9 15.2 149.1 M 14.4 137.5 C 16.2 137.1 12.0 139.0 14.4 137.5 M 13.5 121.9 C 15.6 120.4 12.0 123.8 13.5 121.9 M 13.1 118.8 C 13.6 117.9 13.4 124.6 12.8 119.9 C 12.5 119.5 12.9 119.1 13.1 118.8 M 13.3 140.4 C 14.2 140.0 12.8 142.8 13.3 140.4 M 16.2 131.0 C 15.6 130.2 15.0 128.3 16.1 129.1 C 17.5 129.2 16.7 131.9 16.2 131.0 M 13.6 154.2 C 12.0 152.9 14.9 154.2 13.6 154.2 M 13.7 148.2 C 13.6 148.2 13.6 148.2 13.7 148.2 C 13.7 148.2 13.7 148.2 13.7 148.2 Z M 13.5 145.8 C 13.6 145.7 13.6 145.7 13.5 145.8 M 12.2 153.2 C 12.3 153.1 12.3 153.1 12.2 153.2 M 14.6 131.0 C 14.7 130.9 14.7 130.9 14.6 131.0 M 13.5 135.8 C 15.1 133.5 13.9 137.1 13.5 135.8 M 16.5 141.5 C 17.3 140.8 16.6 142.9 16.5 141.5 M 12.9 132.1 C 14.4 130.4 14.3 134.3 12.9 132.1 M 13.4 137.0 C 13.4 136.8 13.4 136.8 13.4 137.0 C 13.4 137.0 13.4 137.0 13.4 137.0 Z M 16.4 130.4 C 16.4 130.4 16.4 130.4 16.4 130.4 C 16.4 130.4 16.4 130.4 16.4 130.4 Z M 16.3 129.7 C 16.3 129.7 16.3 129.7 16.3 129.7 C 16.3 129.7 16.3 129.7 16.3 129.7 Z M 12.8 130.1 C 12.8 130.1 12.8 130.1 12.8 130.1 C 12.8 130.1 12.8 130.1 12.8 130.1 Z M 17.0 151.0 C 17.2 149.3 17.3 152.2 17.0 151.0 C 17.0 151.0 17.0 151.0 17.0 151.0 Z M 12.7 143.7 C 13.9 141.0 13.8 145.6 12.7 143.7 C 12.7 143.7 12.7 143.7 12.7 143.7 Z M 14.6 140.7 C 14.7 140.7 14.7 140.7 14.6 140.7 C 14.6 140.7 14.6 140.7 14.6 140.7 Z M 12.0 133.1 C 12.1 133.1 12.1 133.1 12.0 133.1 C 12.0 133.1 12.0 133.1 12.0 133.1 Z M 17.2 150.1 C 17.3 150.1 17.3 150.1 17.2 150.1 C 17.2 150.1 17.2 150.1 17.2 150.1 Z M 13.6 125.4 C 13.7 125.4 13.7 125.4 13.6 125.4 C 13.6 125.4 13.6 125.4 13.6 125.4 Z M 16.6 134.8 C 16.0 134.2 17.1 134.7 16.6 134.8 C 16.6 134.8 16.6 134.8 16.6 134.8 Z M 16.6 132.4 C 16.6 132.3 16.6 132.3 16.6 132.4 C 16.6 132.4 16.6 132.4 16.6 132.4 Z M 12.2 121.6 C 12.2 121.5 12.2 121.5 12.2 121.6 C 12.2 121.6 12.2 121.6 12.2 121.6 Z M 18.0 126.1 C 18.0 126.1 18.0 126.1 18.0 126.1 C 18.0 126.1 18.0 126.1 18.0 126.1 Z M 16.3 124.1 C 16.3 124.1 16.3 124.1 16.3 124.1 C 16.3 124.1 16.3 124.1 16.3 124.1 Z M 13.1 130.5 C 12.8 128.1 13.8 131.0 13.1 130.5 C 13.1 130.5 13.1 130.5 13.1 130.5 Z M 15.8 118.1 C 15.9 118.0 15.9 118.0 15.8 118.1 C 15.8 118.1 15.8 118.1 15.8 118.1 Z M 13.8 116.9 C 13.9 116.8 13.9 116.8 13.8 116.9 C 13.8 116.9 13.8 116.9 13.8 116.9 Z M 12.7 116.2 C 12.8 116.2 12.8 116.2 12.7 116.2 C 12.7 116.2 12.7 116.2 12.7 116.2 Z M 15.6 145.9 C 15.6 145.9 15.6 145.9 15.6 145.9 C 15.6 145.9 15.6 145.9 15.6 145.9 Z M 12.3 146.8 C 12.3 146.9 12.3 146.9 12.3 146.8 C 12.3 146.8 12.3 146.8 12.3 146.8 Z M 12.2 143.5 C 12.2 143.6 12.2 143.6 12.2 143.5 C 12.2 143.5 12.2 143.5 12.2 143.5 Z M 17.6 146.5 C 17.6 146.5 17.6 146.5 17.6 146.5 C 17.6 146.5 17.6 146.5 17.6 146.5 Z M 14.8 134.1 C 14.8 134.2 14.8 134.2 14.8 134.1 C 14.8 134.1 14.8 134.1 14.8 134.1 Z M 16.1 133.0 C 16.1 133.0 16.1 133.0 16.1 133.0 C 16.1 133.0 16.1 133.0 16.1 133.0 Z M 17.9 135.8 C 17.9 135.8 17.9 135.8 17.9 135.8 C 17.9 135.8 17.9 135.8 17.9 135.8 Z M 17.3 132.1 C 17.3 132.1 17.3 132.1 17.3 132.1 C 17.3 132.1 17.3 132.1 17.3 132.1 Z M 17.0 154.7 C 17.0 154.8 17.0 154.8 17.0 154.7 C 17.0 154.7 17.0 154.7 17.0 154.7 Z M 14.5 155.0 C 14.6 155.1 14.6 155.1 14.5 155.0 C 14.5 155.0 14.5 155.0 14.5 155.0 Z M 13.0 133.7 C 12.5 133.2 13.7 132.6 13.0 133.7 M 13.3 138.5 C 13.4 138.5 13.4 138.5 13.3 138.5 C 13.3 138.5 13.3 138.5 13.3 138.5 Z M 13.1 125.8 C 14.1 125.2 12.6 128.0 13.1 125.8 C 13.1 125.8 13.1 125.8 13.1 125.8 Z M 17.3 128.3 C 17.3 128.3 17.3 128.3 17.3 128.3 C 17.3 128.3 17.3 128.3 17.3 128.3 Z M 16.9 127.1 C 17.0 127.0 17.0 127.0 16.9 127.1 C 16.9 127.1 16.9 127.1 16.9 127.1 Z M 14.2 120.3 C 14.2 120.2 14.2 120.2 14.2 120.3 M 12.4 139.1 C 12.9 138.3 12.8 138.5 12.4 139.1 M 13.1 124.2 C 13.2 124.3 13.2 124.3 13.1 124.2 C 13.1 124.2 13.1 124.2 13.1 124.2 Z M 13.6 118.8 C 13.6 118.8 13.6 118.8 13.6 118.8 C 13.6 118.8 13.6 118.8 13.6 118.8 Z M 13.1 142.4 C 14.3 142.3 14.0 142.9 13.1 142.4 M 13.5 151.8 C 13.6 151.7 13.6 151.7 13.5 151.8 C 13.5 151.8 13.5 151.8 13.5 151.8 Z M 12.7 111.3 C 11.4 113.9 13.3 113.9 13.3 113.9 C 10.8 113.6 14.3 116.1 14.8 115.6 C 15.2 115.7 19.6 113.7 16.9 112.0 C 16.6 111.5 17.4 111.2 17.4 110.8 C 17.3 107.7 16.1 113.0 16.1 109.2 C 16.4 108.5 18.5 109.3 17.1 107.0 C 17.3 107.0 18.1 104.4 17.1 105.4 C 18.1 104.1 16.9 103.4 16.7 102.2 C 17.2 101.2 18.2 103.1 17.0 99.4 C 18.8 97.8 15.7 97.3 17.6 95.9 C 17.7 94.9 14.5 93.5 16.3 95.7 C 16.1 95.4 14.6 96.7 15.2 93.8 C 15.6 94.2 18.8 95.8 17.3 91.3 C 17.3 90.5 16.5 88.8 16.9 88.4 C 17.2 90.7 18.3 85.2 17.3 85.7 C 18.0 82.1 16.5 84.2 17.6 81.6 C 17.6 79.4 16.1 82.3 17.0 79.6 C 16.8 77.6 17.6 78.9 17.6 79.1 C 17.7 77.4 17.1 76.7 17.2 76.1 C 17.3 75.8 18.0 75.0 17.2 74.5 C 15.7 72.7 14.3 74.4 12.8 73.5 C 12.1 74.9 13.9 74.2 12.8 75.1 C 13.8 75.8 12.8 75.2 13.0 78.9 C 13.2 78.8 13.8 77.9 13.9 78.8 C 13.8 80.2 11.3 79.2 13.1 81.6 C 13.6 78.8 13.9 85.5 14.4 82.9 C 14.7 86.1 14.2 83.8 13.6 86.2 C 15.3 86.0 11.8 86.4 13.1 87.2 C 12.5 87.5 12.8 91.1 13.8 88.5 C 14.2 92.3 13.3 89.9 12.4 91.3 C 12.3 93.1 15.1 91.4 13.0 92.5 C 12.1 94.8 14.1 92.6 12.5 94.3 C 13.9 93.5 12.4 96.0 14.0 95.3 C 14.1 99.3 12.3 94.9 13.4 97.6 C 13.5 96.8 11.4 97.1 12.7 98.8 C 15.2 98.1 10.6 101.0 13.8 99.8 C 14.8 105.3 12.5 100.7 12.5 103.7 C 12.5 104.5 13.5 102.9 13.6 103.6 C 13.1 107.5 12.3 104.2 13.8 106.3 C 14.3 110.1 12.5 107.4 12.4 109.3 C 13.1 109.4 14.4 111.0 12.7 111.3 M 13.5 107.9 C 13.0 107.1 14.0 107.4 13.5 107.9 M 12.7 115.6 C 12.2 114.8 13.3 115.1 12.7 115.6 M 13.0 104.7 C 12.5 103.7 13.9 104.4 13.0 104.7 M 13.8 84.0 C 13.8 85.5 13.4 83.4 13.8 84.0 M 12.6 112.5 C 12.0 111.4 13.5 112.2 12.6 112.5 M 13.9 113.9 C 13.9 113.9 13.9 113.9 13.9 113.9 M 12.5 82.0 C 12.5 81.9 12.5 81.9 12.5 82.0 M 12.5 87.5 C 12.5 86.3 12.8 88.2 12.5 87.5 M 17.8 87.7 C 17.9 86.5 18.2 88.4 17.8 87.7 M 12.4 79.0 C 12.0 77.8 13.0 78.6 12.4 79.0 M 13.6 75.9 C 13.1 74.8 14.2 75.2 13.6 75.9 M 15.4 108.6 C 15.4 108.6 15.4 108.6 15.4 108.6 C 15.4 108.6 15.4 108.6 15.4 108.6 Z M 16.7 98.4 C 16.2 99.6 17.4 96.9 16.7 98.4 M 13.2 100.3 C 14.3 99.5 13.1 101.9 13.2 100.3 C 13.2 100.3 13.2 100.3 13.2 100.3 Z M 13.7 102.1 C 13.7 102.1 13.7 102.1 13.7 102.1 C 13.7 102.1 13.7 102.1 13.7 102.1 Z M 13.8 96.3 C 13.8 96.4 13.8 96.4 13.8 96.3 C 13.8 96.3 13.8 96.3 13.8 96.3 Z M 13.8 97.5 C 14.1 98.0 13.6 98.2 13.8 97.5 C 13.8 97.5 13.8 97.5 13.8 97.5 Z M 17.3 89.2 C 17.5 89.7 17.1 89.8 17.3 89.2 C 17.3 89.2 17.3 89.2 17.3 89.2 Z M 14.2 99.3 C 15.3 99.5 13.5 100.1 14.2 99.3 C 14.2 99.3 14.2 99.3 14.2 99.3 Z M 16.8 93.2 C 16.5 92.6 17.9 92.1 16.8 93.2 M 12.7 80.8 C 12.4 80.3 13.7 79.7 12.7 80.8 M 12.4 93.0 C 12.1 92.4 13.4 91.9 12.4 93.0 M 13.0 107.2 C 13.1 107.1 13.1 107.1 13.0 107.2 M 17.8 100.5 C 17.4 99.7 18.2 100.1 17.8 100.5 M 17.4 111.9 C 17.0 111.1 17.9 111.5 17.4 111.9 M 17.7 82.5 C 17.5 82.6 17.9 81.3 17.7 82.5 M 14.1 91.5 C 14.3 90.5 14.9 89.4 14.8 91.6 C 14.5 91.7 14.4 91.1 14.1 91.5 C 14.1 91.5 14.1 91.5 14.1 91.5 Z M 16.6 87.7 C 16.7 87.6 16.7 87.6 16.6 87.7 M 13.1 89.6 C 13.2 89.5 13.2 89.5 13.1 89.6 M 13.2 83.4 C 13.4 83.3 13.4 83.3 13.2 83.4 M 12.9 82.6 C 13.0 82.7 13.0 82.7 12.9 82.6 C 12.9 82.6 12.9 82.6 12.9 82.6 Z M 12.5 75.8 C 12.5 75.8 12.5 75.8 12.5 75.8 C 12.5 75.8 12.5 75.8 12.5 75.8 Z M 13.4 85.4 C 13.4 85.4 13.4 85.4 13.4 85.4 C 13.4 85.4 13.4 85.4 13.4 85.4 Z M 17.5 79.8 C 17.6 79.8 17.6 79.8 17.5 79.8 C 17.5 79.8 17.5 79.8 17.5 79.8 Z M 16.9 80.5 C 16.9 80.5 16.9 80.5 16.9 80.5 C 16.9 80.5 16.9 80.5 16.9 80.5 Z M 12.7 110.8 C 12.0 109.8 14.6 110.3 12.7 110.8 M 16.9 77.5 C 17.6 76.6 17.0 79.1 16.9 77.5 C 16.9 77.5 16.9 77.5 16.9 77.5 Z M 14.3 86.1 C 14.4 86.1 14.4 86.1 14.3 86.1 M 13.0 82.3 C 13.2 82.2 13.2 82.2 13.0 82.3 M 12.2 100.3 C 12.3 100.2 12.3 100.2 12.2 100.3 M 13.2 77.5 C 13.5 74.6 14.8 78.8 13.2 77.5 M 13.2 101.7 C 13.1 101.7 13.1 101.7 13.2 101.7 M 15.3 95.1 C 15.2 93.2 15.9 95.8 15.3 95.1 M 13.9 90.2 C 13.9 90.2 13.9 90.2 13.9 90.2 C 13.9 90.2 13.9 90.2 13.9 90.2 Z M 13.9 93.1 C 14.0 94.5 13.6 93.4 13.9 93.1 C 13.9 93.1 13.9 93.1 13.9 93.1 Z M 13.7 109.4 C 13.9 107.6 14.1 111.3 13.7 109.4 C 13.7 109.4 13.7 109.4 13.7 109.4 Z M 15.8 78.8 C 15.8 78.9 15.8 78.9 15.8 78.8 C 15.8 78.8 15.8 78.8 15.8 78.8 Z M 12.6 85.8 C 12.9 86.6 12.3 86.2 12.6 85.8 C 12.6 85.8 12.6 85.8 12.6 85.8 Z M 12.5 74.8 C 12.8 75.7 12.2 75.2 12.5 74.8 C 12.5 74.8 12.5 74.8 12.5 74.8 Z M 13.5 111.6 C 15.4 104.9 13.1 120.6 13.5 111.6 C 13.5 111.6 13.5 111.6 13.5 111.6 Z M 13.2 91.9 C 13.2 92.0 13.2 92.0 13.2 91.9 C 13.2 91.9 13.2 91.9 13.2 91.9 Z M 12.4 104.3 C 12.5 104.4 12.5 104.4 12.4 104.3 C 12.4 104.3 12.4 104.3 12.4 104.3 Z M 13.4 106.5 C 13.5 106.5 13.5 106.5 13.4 106.5 C 13.4 106.5 13.4 106.5 13.4 106.5 Z M 17.7 105.9 C 17.7 105.9 17.7 105.9 17.7 105.9 C 17.7 105.9 17.7 105.9 17.7 105.9 Z M 15.7 105.1 C 15.8 105.2 15.8 105.2 15.7 105.1 C 15.7 105.1 15.7 105.1 15.7 105.1 Z M 16.4 109.5 C 16.5 109.5 16.5 109.5 16.4 109.5 C 16.4 109.5 16.4 109.5 16.4 109.5 Z M 17.0 109.4 C 17.1 109.4 17.1 109.4 17.0 109.4 C 17.0 109.4 17.0 109.4 17.0 109.4 Z M 14.2 82.3 C 14.3 82.3 14.3 82.3 14.2 82.3 C 14.2 82.3 14.2 82.3 14.2 82.3 Z M 16.0 84.6 C 15.4 83.0 16.9 85.0 16.0 84.6 C 16.0 84.6 16.0 84.6 16.0 84.6 Z M 15.1 98.5 C 14.9 97.0 15.7 99.4 15.1 98.5 C 15.1 98.5 15.1 98.5 15.1 98.5 Z M 17.4 96.9 C 17.5 96.9 17.5 96.9 17.4 96.9 C 17.4 96.9 17.4 96.9 17.4 96.9 Z M 12.4 106.4 C 12.5 106.5 12.5 106.5 12.4 106.4 C 12.4 106.4 12.4 106.4 12.4 106.4 Z M 13.1 109.1 C 14.0 109.2 12.7 109.9 13.1 109.1 M 12.6 95.8 C 12.7 95.8 12.7 95.8 12.6 95.8 C 12.6 95.8 12.6 95.8 12.6 95.8 Z M 14.0 87.3 C 14.1 87.4 14.1 87.4 14.0 87.3 C 14.0 87.3 14.0 87.3 14.0 87.3 Z M 13.4 79.0 C 13.5 79.0 13.5 79.0 13.4 79.0 C 13.4 79.0 13.4 79.0 13.4 79.0 Z M 12.7 90.5 C 12.8 90.6 12.8 90.6 12.7 90.5 C 12.7 90.5 12.7 90.5 12.7 90.5 Z M 13.5 94.5 C 13.6 94.6 13.6 94.6 13.5 94.5 C 13.5 94.5 13.5 94.5 13.5 94.5 Z M 14.7 77.1 C 14.7 77.2 14.7 77.2 14.7 77.1 C 14.7 77.1 14.7 77.1 14.7 77.1 Z M 12.6 89.6 C 12.6 89.6 12.6 89.6 12.6 89.6 C 12.6 89.6 12.6 89.6 12.6 89.6 Z M 15.4 87.2 C 15.5 87.3 15.5 87.3 15.4 87.2 C 15.4 87.2 15.4 87.2 15.4 87.2 Z M 11.8 108.7 C 11.9 108.7 11.9 108.7 11.8 108.7 C 11.8 108.7 11.8 108.7 11.8 108.7 Z M 13.5 77.1 C 13.5 77.1 13.5 77.1 13.5 77.1 C 13.5 77.1 13.5 77.1 13.5 77.1 Z M 12.7 76.6 C 12.7 76.6 12.7 76.6 12.7 76.6 C 12.7 76.6 12.7 76.6 12.7 76.6 Z M 16.9 82.5 C 16.4 85.4 16.7 79.8 15.8 82.0 C 15.5 77.7 17.0 81.8 16.9 82.5 C 16.9 82.5 16.9 82.5 16.9 82.5 Z M 12.4 72.6 C 13.6 74.2 14.7 74.2 16.0 73.5 C 16.6 72.7 14.2 72.7 16.2 72.7 C 16.6 74.6 19.3 71.9 16.7 71.9 C 16.3 69.5 18.4 71.5 17.3 70.1 C 17.0 67.4 17.8 68.8 17.7 66.7 C 16.2 65.6 18.4 65.6 17.0 65.0 C 18.5 66.1 16.6 62.9 17.3 62.8 C 18.2 64.7 17.3 55.8 16.8 60.6 C 16.2 58.6 17.4 59.0 17.6 58.3 C 16.7 57.5 18.3 55.1 17.4 53.9 C 17.2 54.1 17.1 54.7 16.9 54.9 C 16.3 55.3 17.0 53.5 16.9 53.7 C 16.6 52.9 15.7 49.7 17.3 53.1 C 18.0 53.3 16.9 50.4 17.6 50.5 C 17.6 47.5 16.2 49.7 17.2 48.4 C 17.3 46.3 17.3 44.8 17.1 44.8 C 17.2 43.5 18.1 43.3 17.3 42.1 C 18.9 39.6 14.2 40.3 17.3 39.3 C 16.6 38.6 18.6 37.9 16.7 38.0 C 17.6 38.9 18.2 33.6 16.8 35.9 C 16.3 35.3 18.8 32.0 16.8 32.4 C 15.4 31.2 14.0 31.5 12.7 34.0 C 13.7 33.8 11.5 36.8 13.4 34.8 C 14.0 32.6 14.1 38.9 13.4 37.6 C 11.1 37.3 14.8 40.6 13.2 42.0 C 14.1 40.9 14.5 46.0 12.8 44.5 C 12.7 45.5 13.5 45.7 12.5 46.7 C 12.7 43.7 14.3 47.9 13.3 47.7 C 12.6 47.2 12.1 51.8 13.1 51.3 C 15.4 49.7 12.6 52.5 13.5 53.3 C 14.0 55.8 11.5 52.9 13.2 54.8 C 12.9 55.3 12.9 58.6 12.4 56.5 C 12.7 55.7 15.0 58.5 13.0 58.8 C 11.9 55.3 12.4 63.0 13.0 61.8 C 14.1 56.2 14.2 67.6 13.2 63.3 C 12.1 65.7 12.7 62.6 13.2 65.6 C 13.8 65.2 14.4 67.6 13.2 67.0 C 11.3 67.5 15.7 67.8 13.1 69.7 C 12.0 70.0 13.9 73.4 12.7 72.1 C 12.6 72.0 12.3 72.5 12.4 72.6 M 12.6 71.5 C 13.0 71.9 12.0 72.2 12.6 71.5 M 13.0 71.9 C 12.9 72.0 12.9 72.0 13.0 71.9 C 13.0 71.9 13.0 71.9 13.0 71.9 Z M 13.3 66.1 C 13.2 66.1 13.2 66.1 13.3 66.1 C 13.3 66.1 13.3 66.1 13.3 66.1 Z M 18.0 61.4 C 18.0 61.4 18.0 61.4 18.0 61.4 C 18.0 61.4 18.0 61.4 18.0 61.4 Z M 13.4 62.1 C 13.4 62.2 13.4 62.2 13.4 62.1 C 13.4 62.1 13.4 62.1 13.4 62.1 Z M 13.6 68.2 C 13.6 68.2 13.6 68.2 13.6 68.2 C 13.6 68.2 13.6 68.2 13.6 68.2 Z M 12.7 62.5 C 13.4 62.2 12.2 63.9 12.6 62.4 C 12.6 62.4 12.6 62.6 12.7 62.5 M 12.4 57.4 C 12.5 57.3 12.5 57.3 12.4 57.4 M 18.0 46.1 C 18.1 46.0 18.1 46.0 18.0 46.1 M 12.4 45.1 C 12.4 45.0 12.4 45.0 12.4 45.1 M 13.1 52.3 C 13.0 50.7 13.5 51.9 13.1 52.3 M 12.8 41.0 C 12.3 43.0 12.4 38.9 12.8 41.0 M 12.3 39.1 C 12.4 38.9 12.4 38.9 12.3 39.1 M 12.6 48.0 C 12.7 48.0 12.7 48.0 12.6 48.0 C 12.6 48.0 12.6 48.0 12.6 48.0 Z M 12.8 52.9 C 12.4 55.0 12.2 50.8 12.8 52.9 M 12.6 65.4 C 12.2 64.2 13.5 65.4 12.6 65.4 M 13.0 67.7 C 13.0 67.7 13.0 67.7 13.0 67.7 C 13.0 67.7 13.0 67.7 13.0 67.7 Z M 12.7 44.2 C 12.7 44.2 12.7 44.2 12.7 44.2 C 12.7 44.2 12.7 44.2 12.7 44.2 Z M 12.6 41.9 C 12.6 42.0 12.6 42.0 12.6 41.9 C 12.6 41.9 12.6 41.9 12.6 41.9 Z M 17.8 38.1 C 17.8 38.2 17.8 38.2 17.8 38.1 C 17.8 38.1 17.8 38.1 17.8 38.1 Z M 15.2 66.0 C 14.8 67.5 13.4 64.4 14.7 64.7 C 15.3 64.5 15.0 65.8 15.2 66.0 M 14.4 54.4 C 16.2 54.0 12.0 55.9 14.4 54.4 M 13.5 38.8 C 15.6 37.3 12.0 40.7 13.5 38.8 M 13.1 35.7 C 13.6 34.8 13.4 41.5 12.8 36.8 C 12.5 36.3 12.9 36.0 13.1 35.7 M 13.3 57.3 C 14.2 56.8 12.8 59.7 13.3 57.3 M 16.2 47.8 C 15.6 47.1 15.0 45.2 16.1 46.0 C 17.5 46.0 16.7 48.8 16.2 47.8 M 13.6 71.0 C 12.0 69.8 14.9 71.1 13.6 71.0 M 13.7 65.1 C 13.6 65.0 13.6 65.0 13.7 65.1 C 13.7 65.1 13.7 65.1 13.7 65.1 Z M 13.5 62.7 C 13.6 62.6 13.6 62.6 13.5 62.7 M 12.2 70.1 C 12.3 70.0 12.3 70.0 12.2 70.1 M 14.6 47.9 C 14.7 47.8 14.7 47.8 14.6 47.9 M 13.5 52.7 C 15.1 50.4 13.9 53.9 13.5 52.7 M 16.5 58.3 C 17.3 57.6 16.6 59.8 16.5 58.3 M 12.9 48.9 C 14.4 47.3 14.3 51.2 12.9 48.9 M 13.4 53.8 C 13.4 53.7 13.4 53.7 13.4 53.8 C 13.4 53.8 13.4 53.8 13.4 53.8 Z M 16.4 47.3 C 16.4 47.3 16.4 47.3 16.4 47.3 C 16.4 47.3 16.4 47.3 16.4 47.3 Z M 16.3 46.6 C 16.3 46.6 16.3 46.6 16.3 46.6 C 16.3 46.6 16.3 46.6 16.3 46.6 Z M 12.8 46.9 C 12.8 47.0 12.8 47.0 12.8 46.9 C 12.8 46.9 12.8 46.9 12.8 46.9 Z M 17.0 67.8 C 17.2 66.2 17.3 69.1 17.0 67.8 C 17.0 67.8 17.0 67.8 17.0 67.8 Z M 12.7 60.6 C 13.9 57.9 13.8 62.5 12.7 60.6 C 12.7 60.6 12.7 60.6 12.7 60.6 Z M 14.6 57.6 C 14.7 57.6 14.7 57.6 14.6 57.6 C 14.6 57.6 14.6 57.6 14.6 57.6 Z M 12.0 50.0 C 12.1 50.0 12.1 50.0 12.0 50.0 C 12.0 50.0 12.0 50.0 12.0 50.0 Z M 17.2 67.0 C 17.3 67.0 17.3 67.0 17.2 67.0 C 17.2 67.0 17.2 67.0 17.2 67.0 Z M 13.6 42.3 C 13.7 42.3 13.7 42.3 13.6 42.3 C 13.6 42.3 13.6 42.3 13.6 42.3 Z M 16.6 51.7 C 16.0 51.1 17.1 51.5 16.6 51.7 C 16.6 51.7 16.6 51.7 16.6 51.7 Z M 16.6 49.2 C 16.6 49.2 16.6 49.2 16.6 49.2 C 16.6 49.2 16.6 49.2 16.6 49.2 Z M 12.2 38.5 C 12.2 38.4 12.2 38.4 12.2 38.5 C 12.2 38.5 12.2 38.5 12.2 38.5 Z M 18.0 43.0 C 18.0 43.0 18.0 43.0 18.0 43.0 C 18.0 43.0 18.0 43.0 18.0 43.0 Z M 16.3 41.0 C 16.3 41.0 16.3 41.0 16.3 41.0 C 16.3 41.0 16.3 41.0 16.3 41.0 Z M 13.1 47.4 C 12.8 44.9 13.8 47.9 13.1 47.4 C 13.1 47.4 13.1 47.4 13.1 47.4 Z M 15.8 35.0 C 15.9 34.9 15.9 34.9 15.8 35.0 C 15.8 35.0 15.8 35.0 15.8 35.0 Z M 13.8 33.7 C 13.9 33.7 13.9 33.7 13.8 33.7 C 13.8 33.7 13.8 33.7 13.8 33.7 Z M 12.7 33.1 C 12.8 33.0 12.8 33.0 12.7 33.1 C 12.7 33.1 12.7 33.1 12.7 33.1 Z M 15.6 62.8 C 15.6 62.8 15.6 62.8 15.6 62.8 C 15.6 62.8 15.6 62.8 15.6 62.8 Z M 12.3 63.7 C 12.3 63.7 12.3 63.7 12.3 63.7 C 12.3 63.7 12.3 63.7 12.3 63.7 Z M 12.2 60.4 C 12.2 60.4 12.2 60.4 12.2 60.4 C 12.2 60.4 12.2 60.4 12.2 60.4 Z M 17.6 63.4 C 17.6 63.4 17.6 63.4 17.6 63.4 C 17.6 63.4 17.6 63.4 17.6 63.4 Z M 14.8 51.0 C 14.8 51.0 14.8 51.0 14.8 51.0 C 14.8 51.0 14.8 51.0 14.8 51.0 Z M 16.1 49.8 C 16.1 49.9 16.1 49.9 16.1 49.8 C 16.1 49.8 16.1 49.8 16.1 49.8 Z M 17.9 52.7 C 17.9 52.7 17.9 52.7 17.9 52.7 C 17.9 52.7 17.9 52.7 17.9 52.7 Z M 17.3 48.9 C 17.3 49.0 17.3 49.0 17.3 48.9 C 17.3 48.9 17.3 48.9 17.3 48.9 Z M 17.0 71.6 C 17.0 71.6 17.0 71.6 17.0 71.6 C 17.0 71.6 17.0 71.6 17.0 71.6 Z M 14.5 71.9 C 14.6 71.9 14.6 71.9 14.5 71.9 C 14.5 71.9 14.5 71.9 14.5 71.9 Z M 13.0 50.6 C 12.5 50.1 13.7 49.5 13.0 50.6 M 13.3 55.3 C 13.4 55.4 13.4 55.4 13.3 55.3 C 13.3 55.3 13.3 55.3 13.3 55.3 Z M 13.1 42.7 C 14.1 42.1 12.6 44.9 13.1 42.7 C 13.1 42.7 13.1 42.7 13.1 42.7 Z M 17.3 45.2 C 17.3 45.2 17.3 45.2 17.3 45.2 C 17.3 45.2 17.3 45.2 17.3 45.2 Z M 16.9 44.0 C 17.0 43.9 17.0 43.9 16.9 44.0 C 16.9 44.0 16.9 44.0 16.9 44.0 Z M 14.2 37.2 C 14.2 37.0 14.2 37.0 14.2 37.2 M 12.4 55.9 C 12.9 55.2 12.8 55.4 12.4 55.9 M 13.1 41.1 C 13.2 41.2 13.2 41.2 13.1 41.1 C 13.1 41.1 13.1 41.1 13.1 41.1 Z M 13.6 35.7 C 13.6 35.7 13.6 35.7 13.6 35.7 C 13.6 35.7 13.6 35.7 13.6 35.7 Z M 13.1 59.3 C 14.3 59.1 14.0 59.8 13.1 59.3 M 13.5 68.6 C 13.6 68.6 13.6 68.6 13.5 68.6 C 13.5 68.6 13.5 68.6 13.5 68.6 Z M 13.5 68.6 " fill="#EB5C56"></path><path d="M 28.4 23.7 C 28.9 23.8 29.4 25.3 28.4 24.3 C 28.3 24.2 28.1 23.6 28.4 23.7 Z M 26.9 21.3 C 27.1 21.4 27.1 21.6 27.1 21.8 C 26.8 22.3 26.6 20.6 26.9 21.3 Z M 28.5 25.0 C 28.6 25.1 29.1 25.9 28.9 25.8 C 28.7 25.7 28.5 25.0 28.5 25.0 Z M 24.7 19.6 C 24.9 19.5 25.4 20.4 25.4 20.6 C 25.4 21.1 24.3 19.8 24.7 19.6 Z M 20.7 26.2 C 20.6 26.2 20.5 26.2 20.5 26.2 C 20.5 26.2 20.6 26.2 20.7 26.2 Z M 18.6 8.2 C 18.7 8.3 18.7 8.7 18.5 8.8 C 18.2 8.8 18.2 7.8 18.6 8.2 Z M 4.9 26.7 C 4.9 26.7 5.3 26.8 5.1 27.0 C 4.9 27.1 4.8 26.8 4.9 26.7 Z M 4.9 27.0 C 5.0 27.2 4.6 27.3 4.7 27.1 C 4.8 26.9 4.8 26.8 4.9 27.0 Z M 8.2 14.2 C 8.3 14.1 8.3 14.0 8.3 14.1 C 8.4 14.2 8.2 14.4 8.2 14.2 Z M 8.3 14.7 C 8.4 14.9 8.0 14.9 8.1 14.8 C 8.1 14.5 8.2 14.4 8.3 14.7 Z M 5.8 16.4 C 5.9 16.3 5.9 16.2 5.9 16.4 C 6.0 16.5 5.7 16.6 5.8 16.4 Z M 11.4 27.3 C 11.3 27.4 10.8 27.3 10.8 27.1 C 10.9 26.8 11.6 27.2 11.4 27.3 Z M 10.8 27.5 C 10.8 27.6 10.5 27.7 10.5 27.5 C 10.6 27.4 10.7 27.3 10.8 27.5 Z M 12.7 27.1 C 12.7 26.8 13.3 26.8 13.4 26.9 C 13.6 26.9 13.8 27.0 14.0 27.1 C 14.1 27.1 12.7 27.4 12.7 27.1 Z M 17.0 26.8 C 17.0 26.9 16.9 27.0 16.7 26.9 C 16.6 26.8 17.0 26.7 17.0 26.8 Z M 14.6 27.0 C 14.6 27.1 14.5 27.1 14.3 27.0 C 14.2 27.0 14.6 26.9 14.6 27.0 Z M 22.5 14.9 C 22.6 14.7 22.9 15.4 22.9 15.4 C 22.9 15.5 22.7 15.3 22.8 15.4 C 22.8 15.7 22.1 15.6 22.5 14.9 Z M 26.1 20.0 C 26.1 20.1 26.1 20.2 25.9 20.2 C 25.9 20.2 25.8 19.6 26.1 20.0 Z M 22.3 16.1 C 22.4 16.0 22.4 16.2 22.4 16.2 C 22.3 16.3 22.2 16.1 22.3 16.1 Z M 22.0 15.7 C 22.1 15.8 22.0 16.3 21.8 16.3 C 21.6 16.3 21.6 15.3 22.0 15.7 Z M 22.3 14.0 C 22.4 14.2 22.4 14.2 22.3 14.1 C 22.2 14.0 22.3 14.0 22.3 14.0 Z M 24.5 16.9 C 24.6 17.1 24.6 17.1 24.4 17.0 C 24.3 17.0 24.5 16.9 24.5 16.9 Z M 21.1 12.8 C 21.1 12.8 21.6 13.0 21.3 13.3 C 20.9 13.8 21.1 12.8 21.1 12.8 Z M 19.4 10.9 C 19.4 11.1 19.2 11.1 19.2 10.9 C 19.2 10.7 19.3 10.7 19.4 10.9 Z M 18.2 10.5 C 18.1 10.2 18.2 10.0 18.4 10.3 C 18.5 10.7 18.2 10.9 18.2 10.5 Z M 18.6 10.8 C 18.5 10.9 18.4 10.7 18.5 10.7 C 18.6 10.6 18.6 10.8 18.6 10.8 Z M 20.2 12.4 C 20.4 12.5 20.3 12.8 20.1 12.6 C 19.9 12.3 20.0 12.3 20.2 12.4 Z M 22.9 27.3 C 23.0 27.2 23.0 27.5 22.9 27.6 C 22.8 27.7 22.7 27.4 22.9 27.3 Z M 13.7 26.3 C 13.9 26.5 13.8 26.5 13.5 26.4 C 13.3 26.4 13.6 26.2 13.7 26.3 Z M 8.0 25.9 C 8.1 26.0 8.0 26.0 7.8 26.0 C 7.5 25.9 7.9 25.7 8.0 25.9 Z M 16.1 26.3 C 16.1 26.4 15.5 26.9 15.2 26.5 C 14.9 26.1 15.9 26.0 16.1 26.3 Z M 21.7 21.8 C 21.9 21.7 21.8 21.8 21.8 21.8 C 21.6 21.8 21.6 21.8 21.7 21.8 Z M 14.8 25.7 C 14.9 25.6 14.9 25.8 14.8 25.9 C 14.7 26.0 14.6 25.7 14.8 25.7 Z M 9.0 26.2 C 9.2 26.3 9.1 26.7 9.0 26.8 C 8.5 27.2 8.1 26.7 7.8 26.5 C 7.6 26.3 8.9 26.1 9.0 26.2 Z M 24.3 26.4 C 24.1 26.4 24.0 26.3 23.9 26.3 C 23.8 26.4 23.7 26.4 23.6 26.3 C 23.1 26.4 22.7 26.9 22.4 27.0 C 21.5 27.4 21.2 26.3 20.7 26.2 C 20.8 26.2 20.9 26.2 21.0 26.1 C 21.2 25.8 19.2 25.9 19.1 25.9 C 17.4 26.2 19.4 26.5 19.4 27.1 C 19.5 27.3 18.3 26.7 18.2 26.6 C 17.7 26.4 17.6 27.0 17.1 26.7 C 16.9 26.6 16.2 25.3 16.0 25.5 C 15.9 25.6 15.3 25.5 15.1 25.5 C 14.8 25.5 14.2 25.5 14.6 26.0 C 14.8 26.4 14.9 26.7 14.4 26.4 C 14.1 26.2 12.1 25.3 12.2 26.3 C 12.2 26.4 12.6 26.7 12.7 26.7 C 12.1 26.9 10.4 26.6 10.0 27.0 C 9.1 27.8 10.3 26.4 9.8 26.2 C 9.0 25.8 8.6 25.5 7.6 25.6 C 7.4 25.7 6.5 25.7 6.9 26.2 C 7.2 26.6 7.0 26.8 7.5 26.9 C 6.9 27.4 6.5 26.5 6.4 26.6 C 6.2 26.9 6.5 27.1 6.1 27.0 C 5.5 27.0 5.7 27.1 5.6 26.6 C 5.6 26.5 5.1 26.4 5.1 26.4 C 5.1 26.3 5.1 26.3 5.1 26.2 C 4.6 26.3 3.9 27.2 3.8 27.0 C 3.7 26.8 3.9 26.2 3.9 26.0 C 3.9 26.0 3.8 26.0 3.8 26.0 C 3.6 26.0 3.1 26.4 3.1 26.3 C 3.0 26.2 3.3 25.4 3.1 25.6 C 2.9 25.9 1.9 25.6 1.8 25.3 C 1.8 25.0 1.5 23.9 1.3 23.8 C 1.1 23.7 1.5 23.2 1.6 23.0 C 1.6 22.8 2.1 22.7 2.2 22.7 C 2.3 22.6 2.5 22.2 2.5 22.2 C 2.5 22.2 2.5 21.9 2.6 21.6 C 2.8 21.3 3.2 21.1 3.6 20.8 C 3.9 20.4 3.8 20.1 4.0 19.7 C 4.1 19.3 5.0 19.3 5.3 19.0 C 5.6 18.7 5.0 18.4 5.3 18.0 C 5.5 17.5 5.7 17.3 5.7 17.5 C 5.7 17.7 5.9 17.7 6.0 17.5 C 6.1 17.4 6.5 17.0 6.6 16.8 C 6.6 16.5 5.4 17.6 6.4 16.0 C 6.9 15.2 7.8 15.0 7.7 15.2 C 7.4 15.8 8.9 15.0 8.6 14.8 C 8.4 14.7 9.3 13.3 8.6 13.4 C 8.4 13.4 9.1 12.0 9.3 11.8 C 9.5 11.7 9.7 11.0 10.3 11.1 C 10.5 11.1 10.4 10.0 10.5 9.8 C 10.7 9.6 11.4 8.6 11.6 8.4 C 11.9 8.3 11.6 8.8 11.4 9.0 C 11.3 9.3 10.8 9.5 10.8 9.7 C 10.7 9.9 11.2 9.6 11.4 9.4 C 11.5 9.1 11.8 9.2 12.0 9.0 C 12.0 8.9 12.2 8.7 12.3 8.5 C 12.4 8.4 12.4 8.3 12.3 8.3 C 12.1 8.2 12.0 8.3 11.9 8.2 C 11.9 8.1 11.9 7.9 12.1 7.5 C 12.3 7.2 12.5 7.0 12.9 6.6 C 13.3 6.2 13.2 6.0 13.4 5.7 C 13.5 5.4 13.7 5.2 13.8 5.2 C 13.9 5.2 13.8 5.6 13.8 5.7 C 13.9 5.8 14.4 5.5 14.5 5.4 C 15.1 4.6 15.4 5.7 16.0 4.9 C 16.3 4.5 16.2 5.2 16.4 5.6 C 16.5 5.5 16.5 5.5 16.8 5.9 C 16.9 5.8 17.1 6.4 17.3 6.6 C 17.4 6.8 18.2 7.7 17.6 7.2 C 17.5 7.2 17.5 7.1 17.4 7.1 C 17.4 7.1 17.4 7.1 17.4 7.1 C 17.4 7.1 16.8 7.1 16.8 7.1 C 16.8 7.1 17.4 7.2 17.4 7.2 C 17.3 7.4 17.2 7.6 17.2 7.7 C 17.3 7.7 17.3 7.8 17.4 7.8 C 17.4 7.8 17.4 7.8 17.5 7.8 C 17.5 7.8 17.5 7.8 17.5 7.8 C 17.6 7.7 17.6 7.7 17.7 7.9 C 18.1 8.2 18.3 9.2 18.4 9.6 C 17.0 9.2 18.0 10.8 18.4 11.2 C 18.8 11.7 19.9 11.0 19.7 10.8 C 20.0 11.2 19.9 11.3 19.6 11.6 C 19.6 11.6 19.2 12.4 19.2 12.4 C 19.4 13.5 20.2 12.8 20.4 12.9 C 20.7 13.1 20.9 13.4 21.1 13.6 C 21.3 13.9 21.4 13.5 21.6 13.5 C 22.2 13.6 21.8 14.7 21.9 15.0 C 21.6 14.9 21.4 14.6 21.2 14.5 C 21.6 14.7 21.1 15.2 21.2 15.3 C 21.2 15.7 21.5 16.0 21.7 16.3 C 22.1 16.8 22.5 17.2 22.8 17.7 C 22.8 17.5 23.0 16.4 22.9 16.3 C 23.0 16.5 23.2 17.1 23.5 16.7 C 23.9 15.9 24.4 17.4 24.5 17.7 C 24.8 18.4 25.9 18.7 25.5 19.8 C 25.5 19.8 24.8 18.9 24.7 19.0 C 24.2 19.6 24.1 20.0 24.7 20.6 C 24.8 20.7 25.8 21.4 25.8 21.4 C 25.7 21.5 26.5 19.7 26.6 20.8 C 26.6 21.0 26.1 20.8 26.2 21.1 C 26.2 21.4 26.6 21.8 26.7 22.2 C 26.8 22.2 26.9 22.8 27.0 22.9 C 27.2 22.9 27.5 22.7 27.7 22.9 C 27.9 23.0 27.9 23.4 27.7 23.5 C 27.7 23.5 27.6 23.5 27.6 23.5 C 27.6 23.6 27.6 23.6 27.5 23.7 C 27.6 23.8 27.7 23.9 27.6 24.1 C 27.6 24.2 27.4 24.0 27.4 23.8 C 27.3 23.8 27.2 23.8 27.1 23.9 C 27.3 24.1 27.6 24.4 27.6 24.4 C 28.2 24.6 28.4 24.5 28.2 25.5 C 28.1 26.3 26.2 26.8 25.1 26.5 C 24.9 26.6 24.6 26.6 24.3 26.4 Z M 12.9 8.2 C 12.9 8.2 12.9 8.2 12.9 8.2 C 13.0 8.3 13.1 8.4 13.2 8.4 C 13.4 8.2 13.0 8.4 13.2 8.1 C 13.4 7.9 13.2 7.9 12.9 8.2 Z M 15.5 8.3 C 15.6 8.1 15.5 8.2 15.4 8.2 C 15.4 8.3 15.5 8.3 15.5 8.3 Z M 16.6 7.8 C 16.3 7.5 16.2 8.3 16.7 8.7 C 16.7 8.3 16.7 8.0 16.6 7.8 Z M 17.5 8.3 C 17.5 8.3 17.4 8.3 17.3 8.4 C 17.2 8.4 17.5 8.6 17.4 8.7 C 17.3 8.7 16.9 8.5 17.0 8.7 C 17.0 8.8 17.0 8.9 17.0 9.0 C 17.0 9.0 17.1 9.0 17.1 9.0 C 17.4 9.1 17.6 8.6 17.5 8.3 Z M 12.8 10.1 C 12.8 9.9 12.7 10.0 12.7 10.1 C 12.6 10.2 12.8 10.3 12.8 10.1 Z M 10.8 11.4 C 11.0 11.3 11.0 11.1 10.8 11.2 C 10.6 11.2 10.6 11.5 10.8 11.4 Z M 13.8 14.2 C 13.7 14.1 13.7 14.2 13.7 14.3 C 13.6 14.5 13.8 14.4 13.8 14.2 Z M 15.9 14.4 C 16.0 14.5 16.2 14.2 16.1 14.2 C 16.0 14.2 15.8 14.3 15.9 14.4 Z M 11.0 14.1 C 11.0 14.3 11.2 14.2 11.1 14.1 C 11.1 13.9 11.1 13.9 11.0 14.1 Z M 13.9 13.6 C 13.7 13.8 13.7 13.9 13.8 13.9 C 13.9 14.0 14.0 14.0 14.1 13.8 C 14.2 13.5 14.1 13.5 13.9 13.6 Z M 15.7 13.5 C 16.0 14.0 16.2 13.9 15.8 13.3 C 15.3 12.8 15.5 13.2 15.7 13.5 Z M 9.3 12.5 C 9.4 12.5 9.5 12.1 9.5 12.1 C 9.5 12.1 8.9 12.8 9.3 12.5 Z M 20.5 13.6 C 20.5 13.5 20.2 13.4 20.3 13.7 C 20.4 14.1 20.6 13.9 20.5 13.6 Z M 19.7 14.7 C 20.0 14.3 19.9 13.9 19.9 13.9 C 19.8 14.0 19.5 14.0 19.4 13.9 C 19.0 13.7 19.2 13.0 18.7 12.9 C 18.2 12.7 18.6 13.5 18.8 13.6 C 18.7 13.5 18.6 13.5 18.4 13.5 C 18.3 13.7 18.4 13.8 18.5 13.8 C 18.8 13.9 19.3 15.2 19.7 14.7 Z M 14.6 14.7 C 14.7 14.5 14.5 14.3 14.3 14.4 C 14.1 14.6 13.9 14.8 14.0 14.8 C 14.1 14.9 14.5 14.9 14.6 14.7 Z M 13.0 14.9 C 12.9 14.6 12.8 14.7 12.8 14.9 C 12.6 15.2 13.1 15.1 13.0 14.9 Z M 6.2 17.8 C 6.2 18.0 6.5 17.7 6.4 17.6 C 6.2 17.6 6.2 17.7 6.2 17.8 Z M 8.9 17.7 C 8.8 18.2 9.2 17.8 9.2 17.7 C 9.2 17.6 8.9 17.5 8.9 17.7 Z M 10.5 16.2 C 10.4 16.4 10.7 16.2 10.6 16.0 C 10.6 15.9 10.5 16.1 10.5 16.2 Z M 11.5 16.0 C 11.4 16.1 11.7 16.1 11.7 15.9 C 11.7 15.7 11.6 15.8 11.5 16.0 Z M 20.1 16.8 C 20.1 16.8 19.7 16.9 20.1 17.1 C 20.4 17.2 20.4 17.2 20.1 16.8 Z M 17.0 16.0 C 16.8 15.8 16.6 15.6 15.7 15.9 C 14.9 16.1 15.2 16.3 15.8 16.4 C 16.3 16.6 14.9 17.0 15.9 17.2 C 16.3 17.3 17.2 16.3 17.0 16.0 Z M 11.6 17.6 C 12.1 17.3 12.0 16.5 11.6 16.9 C 11.2 17.4 11.1 17.8 11.6 17.6 Z M 11.2 17.6 C 11.2 17.5 11.1 17.5 11.1 17.7 C 11.0 17.8 11.2 17.8 11.2 17.6 Z M 23.9 17.2 C 23.1 16.4 23.1 17.7 23.1 17.7 C 23.5 18.8 24.6 18.0 23.9 17.2 Z M 5.6 25.8 C 5.6 25.8 5.6 25.8 5.7 25.8 C 5.7 25.8 5.7 25.8 5.7 25.8 C 5.9 25.7 5.5 25.5 5.5 25.5 C 5.5 25.6 5.5 25.7 5.6 25.8 Z M 11.1 26.0 C 10.9 26.0 10.7 26.0 10.5 26.2 C 10.6 26.7 12.3 26.7 11.7 25.8 C 11.6 25.7 10.5 25.0 10.4 25.4 C 10.3 25.6 11.6 26.0 11.1 26.0 Z M 9.4 25.3 C 10.0 25.4 8.8 24.7 9.0 25.0 C 9.0 25.2 9.2 25.3 9.4 25.3 Z M 4.5 23.8 C 3.6 24.2 3.8 25.5 5.1 24.8 C 6.5 24.1 6.6 23.6 5.9 23.7 C 5.2 23.9 5.8 23.3 4.5 23.8 Z M 11.6 23.8 C 11.5 24.8 11.9 24.5 12.1 23.8 C 12.2 23.6 11.7 23.3 11.6 23.8 Z M 13.6 23.7 C 13.9 23.8 13.9 23.8 13.7 23.6 C 13.5 23.4 13.4 23.6 13.6 23.7 Z M 3.1 22.5 C 2.7 22.7 2.5 23.0 2.5 22.8 C 2.5 22.6 2.4 22.7 2.2 22.9 C 2.0 23.1 2.4 23.1 2.6 23.0 C 2.8 23.0 3.4 22.4 3.1 22.5 Z M 10.7 19.3 C 10.6 19.5 10.8 19.4 10.9 19.2 C 10.9 19.1 10.8 19.2 10.7 19.3 Z M 18.3 18.3 C 18.3 18.3 18.1 18.4 18.2 18.5 C 18.4 18.6 18.4 18.6 18.3 18.3 Z M 24.3 18.6 C 24.2 18.5 24.2 18.9 23.8 18.9 C 23.7 18.8 23.9 18.7 23.9 18.6 C 23.9 18.7 23.1 18.8 23.6 19.1 C 23.8 19.2 24.7 19.1 24.3 18.6 Z M 12.8 19.6 C 13.1 19.3 11.8 19.0 12.1 18.8 C 12.3 18.6 12.1 18.5 11.9 18.8 C 11.6 19.1 12.5 19.9 12.8 19.6 Z M 9.6 19.8 C 9.8 19.8 10.3 19.1 10.0 19.3 C 9.7 19.4 9.4 19.8 9.4 19.6 C 9.4 19.3 9.4 19.4 9.2 19.6 C 8.9 19.8 9.4 19.8 9.6 19.8 Z M 4.2 20.0 C 4.3 19.9 4.5 19.5 4.2 19.7 C 4.1 19.8 4.1 20.1 4.2 20.0 Z M 19.2 20.3 C 18.9 20.2 18.8 20.3 19.1 20.6 C 19.3 20.8 19.4 20.4 19.2 20.3 Z M 4.7 20.9 C 5.0 20.6 4.5 20.8 4.7 20.6 C 4.9 20.3 4.8 20.3 4.5 20.6 C 4.2 20.9 4.4 21.2 4.7 20.9 Z M 24.1 21.2 C 23.9 21.1 23.7 21.3 23.8 21.3 C 24.0 21.4 24.2 21.2 24.1 21.2 Z M 22.0 21.9 C 22.0 21.9 22.0 21.8 22.0 21.7 C 21.0 20.4 21.7 22.8 22.0 21.9 Z M 18.9 21.8 C 19.4 21.7 18.9 21.5 18.8 21.5 C 18.8 21.6 18.8 21.7 18.9 21.8 Z M 15.6 21.8 C 15.5 22.0 15.8 21.9 15.8 21.7 C 15.7 21.6 15.6 21.6 15.6 21.8 Z M 26.5 22.4 C 26.5 22.2 26.3 22.2 26.4 22.4 C 26.4 22.5 26.6 22.6 26.5 22.4 Z M 18.1 22.5 C 18.1 22.4 18.1 22.4 17.9 22.5 C 17.8 22.5 18.0 22.6 18.1 22.5 Z M 7.7 22.6 C 7.8 22.5 7.9 22.4 8.0 22.3 C 7.9 22.1 7.2 22.1 7.2 21.8 C 7.2 21.8 7.2 21.8 7.2 21.8 C 7.2 21.8 7.2 21.8 7.2 21.8 C 7.3 21.6 7.3 21.6 7.4 21.7 C 7.5 21.6 7.6 21.6 7.7 21.5 C 7.5 21.3 7.3 21.2 7.1 21.4 C 6.9 21.5 6.8 22.0 6.9 22.4 C 7.0 22.5 7.1 22.5 7.3 22.5 C 7.3 22.5 7.3 22.5 7.3 22.5 C 7.4 22.3 7.6 22.2 7.6 22.3 C 7.6 22.5 7.5 22.5 7.5 22.6 C 7.6 22.6 7.6 22.6 7.7 22.6 Z M 16.8 23.0 C 17.0 22.9 16.8 22.8 16.5 22.7 C 16.3 22.6 16.5 23.1 16.8 23.0 Z M 26.1 22.7 C 26.0 22.7 25.9 22.8 25.9 22.9 C 25.9 22.9 26.0 22.9 26.0 22.9 C 26.2 22.9 26.4 23.0 26.6 23.0 C 26.6 22.8 26.5 22.6 26.1 22.7 Z M 23.2 23.7 C 23.3 23.7 24.5 23.7 24.3 23.4 C 23.9 23.0 24.5 22.5 23.6 22.7 C 23.1 22.8 22.8 23.5 22.3 23.6 C 20.2 24.1 22.9 24.2 23.5 24.3 C 23.6 24.3 23.0 23.8 23.2 23.7 Z M 20.3 24.4 C 20.2 24.6 20.5 24.8 20.7 24.8 C 21.2 24.7 20.4 24.1 20.3 24.4 Z M 26.4 24.7 C 26.4 24.7 26.4 24.6 26.4 24.5 C 26.4 24.6 26.3 24.6 26.3 24.7 C 26.3 24.7 26.4 24.7 26.4 24.7 Z M 27.9 24.9 C 27.4 24.3 27.4 25.4 27.6 25.7 C 27.7 26.2 28.2 25.3 27.9 24.9 Z M 21.9 25.4 C 21.5 25.3 21.0 26.6 21.8 26.6 C 22.5 26.5 22.9 25.5 21.9 25.4 Z M 17.4 27.0 C 17.5 26.9 18.0 27.1 17.8 27.3 C 17.6 27.4 17.3 27.1 17.4 27.0 Z M 24.2 27.7 C 24.0 27.6 24.2 27.6 24.2 27.6 C 24.3 27.8 24.3 27.8 24.2 27.7 Z M 23.5 26.8 C 23.7 26.9 24.0 26.9 24.2 27.0 C 24.3 27.0 23.9 27.1 23.8 27.1 C 23.7 27.1 23.6 26.8 23.5 26.8 Z M 19.9 26.7 C 20.1 26.8 19.8 26.8 19.7 26.8 C 19.5 26.8 19.8 26.6 19.9 26.7 Z M 20.8 27.0 C 20.6 26.9 20.7 26.8 20.9 26.8 C 21.1 26.8 20.9 27.0 20.8 27.0 Z M 19.3 26.2 C 19.6 26.1 20.2 26.0 20.1 26.4 C 20.1 26.5 18.5 26.5 19.3 26.2 Z M 19.3 26.2 " fill="#EB5C56"></path></g></svg>