<?xml version="1.0" encoding="UTF-8"?><svg xmlns="http://www.w3.org/2000/svg" xmlns:xlink="http://www.w3.org/1999/xlink" clip-rule="evenodd" stroke-miterlimit="4.00" viewBox="0 0 349 189"><desc>SVG generated by Keynote</desc><defs></defs><g transform="matrix(1.00, 0.00, -0.00, -1.00, 0.0, 189.0)"><path d="M 19.0 168.0 C 18.8 168.3 18.0 168.4 17.9 168.6 M 19.0 168.0 C 17.9 167.3 16.6 167.8 15.0 168.4 C 13.2 169.2 15.5 169.3 15.5 169.8 C 13.4 171.3 13.1 170.5 12.9 169.3 C 12.4 170.5 9.2 170.4 10.3 171.5 C 14.0 169.7 8.0 173.0 11.4 172.3 C 11.8 172.4 11.1 173.2 10.7 173.3 C 12.0 173.4 10.6 174.9 12.4 174.5 C 13.0 175.2 12.6 175.0 13.9 175.2 C 14.4 175.1 14.1 174.8 13.9 174.7 C 13.6 173.6 15.4 174.6 16.0 173.6 C 17.4 174.5 17.4 172.6 16.5 172.4 C 17.3 172.2 18.9 173.1 19.2 171.8 C 20.0 172.2 21.8 170.8 20.2 170.6 C 19.0 170.5 19.9 169.7 19.9 169.3 C 19.4 169.2 18.3 170.2 18.0 170.0 C 18.3 169.6 19.7 168.4 18.0 169.2 C 18.3 168.5 17.4 168.7 19.0 168.0 C 19.0 168.0 19.0 168.0 19.0 168.0 Z M 12.5 170.2 C 12.3 169.8 13.1 169.9 12.5 170.2 C 12.5 170.2 12.5 170.2 12.5 170.2 Z M 18.9 172.8 C 18.7 172.4 19.5 172.5 18.9 172.8 C 18.9 172.8 18.9 172.8 18.9 172.8 Z M 14.2 174.6 C 14.1 174.2 14.8 174.3 14.2 174.6 C 14.2 174.6 14.2 174.6 14.2 174.6 Z M 14.2 169.6 C 15.3 169.5 13.6 170.5 13.3 170.3 C 13.6 170.2 13.8 169.5 14.2 169.6 C 14.2 169.6 14.2 169.6 14.2 169.6 Z M 15.3 171.6 C 15.3 171.4 15.7 171.2 15.8 171.5 C 15.6 171.7 15.3 171.7 15.3 171.6 C 15.3 171.6 15.3 171.6 15.3 171.6 Z M 9.8 172.5 C 9.9 172.3 10.2 172.1 10.4 172.4 C 10.2 172.6 9.8 172.6 9.8 172.5 C 9.8 172.5 9.8 172.5 9.8 172.5 Z M 15.7 170.0 C 16.0 170.0 16.3 170.2 16.0 170.4 C 15.8 170.3 15.1 170.6 15.7 170.0 C 15.7 170.0 15.7 170.0 15.7 170.0 Z M 16.7 168.2 C 17.6 167.9 16.2 169.2 16.1 169.1 C 15.8 169.0 16.1 168.1 16.7 168.2 C 16.7 168.2 16.7 168.2 16.7 168.2 Z M 16.4 170.3 C 17.2 170.1 16.3 170.7 16.4 170.3 C 16.4 170.3 16.4 170.3 16.4 170.3 Z M 11.7 174.7 C 12.5 174.5 11.6 175.1 11.7 174.7 C 11.7 174.7 11.7 174.7 11.7 174.7 Z M 15.8 174.0 C 16.5 173.9 15.6 174.4 15.8 174.0 C 15.8 174.0 15.8 174.0 15.8 174.0 Z M 12.8 171.2 C 11.6 171.7 12.2 170.4 12.8 171.2 C 12.8 171.2 12.8 171.2 12.8 171.2 Z M 18.5 167.2 C 17.3 167.7 17.9 166.4 18.5 167.2 C 18.5 167.2 18.5 167.2 18.5 167.2 Z M 320.6 22.2 C 321.6 21.5 316.9 22.3 319.1 22.9 C 320.1 23.8 317.3 25.1 317.5 23.7 C 316.6 24.0 316.6 23.9 316.4 24.7 C 315.8 23.9 313.7 24.4 313.2 25.2 C 313.1 26.1 314.5 24.7 313.8 25.9 C 311.4 27.3 314.3 26.6 313.8 28.0 C 313.7 28.1 313.5 27.6 313.4 28.0 C 313.7 28.9 315.4 28.8 315.1 29.7 C 315.4 29.4 317.6 29.5 316.5 29.1 C 315.8 28.4 318.9 29.2 318.1 27.9 C 319.0 28.2 319.2 27.1 320.1 27.6 C 320.6 27.5 320.3 26.8 320.1 26.7 C 319.8 26.1 321.3 27.8 321.5 26.4 C 321.7 26.7 323.6 25.6 321.9 25.8 C 322.4 25.7 324.8 24.9 323.0 24.3 C 321.2 24.5 324.0 22.3 322.2 23.1 C 320.7 23.7 320.5 24.1 321.3 22.9 C 321.6 22.8 323.2 21.9 321.6 22.1 C 321.3 22.4 320.6 22.6 320.6 22.2 C 320.6 22.2 320.6 22.2 320.6 22.2 Z M 321.8 23.8 C 321.0 24.2 321.5 23.4 321.8 23.8 C 321.8 23.8 321.8 23.8 321.8 23.8 Z M 320.1 27.9 C 319.3 28.4 319.8 27.5 320.1 27.9 C 320.1 27.9 320.1 27.9 320.1 27.9 Z M 317.9 23.1 C 317.7 23.7 317.0 22.5 317.9 23.1 C 317.9 23.1 317.9 23.1 317.9 23.1 Z M 321.0 26.3 C 320.9 26.3 321.1 26.0 321.2 25.9 C 321.2 26.0 321.1 26.2 321.0 26.3 C 321.0 26.3 321.0 26.3 321.0 26.3 Z M 316.5 23.8 C 315.6 25.0 315.8 22.9 316.5 23.8 C 316.5 23.8 316.5 23.8 316.5 23.8 Z M 314.6 26.1 C 315.1 27.4 313.2 26.5 314.6 26.1 C 314.6 26.1 314.6 26.1 314.6 26.1 Z M 317.7 28.0 C 317.7 27.7 317.9 28.1 317.7 28.0 C 317.7 28.0 317.7 28.0 317.7 28.0 Z M 323.1 25.6 C 323.2 25.3 323.4 25.7 323.1 25.6 C 323.1 25.6 323.1 25.6 323.1 25.6 Z M 316.1 28.6 C 315.9 28.2 316.6 28.7 316.1 28.6 C 316.1 28.6 316.1 28.6 316.1 28.6 Z M 317.9 23.7 C 318.6 22.2 320.0 24.5 317.9 23.7 C 317.9 23.7 317.9 23.7 317.9 23.7 Z M 319.9 22.6 C 320.6 22.1 320.1 23.3 319.6 23.3 C 319.6 23.2 319.8 22.8 319.9 22.6 C 319.9 22.6 319.9 22.6 319.9 22.6 Z M 316.8 24.4 C 317.3 23.5 317.6 24.3 316.8 24.4 C 316.8 24.4 316.8 24.4 316.8 24.4 Z M 318.5 22.9 C 318.9 22.8 318.2 23.2 318.5 22.9 C 318.5 22.9 318.5 22.9 318.5 22.9 Z M 314.8 24.1 C 315.2 24.0 314.5 24.4 314.8 24.1 C 314.8 24.1 314.8 24.1 314.8 24.1 Z M 320.6 21.7 C 321.0 21.6 320.3 22.0 320.6 21.7 C 320.6 21.7 320.6 21.7 320.6 21.7 Z M 315.4 24.6 C 315.5 25.1 317.1 25.5 314.7 25.7 C 314.2 25.5 314.7 24.5 315.4 24.6 C 315.4 24.6 315.4 24.6 315.4 24.6 Z M 22.5 166.3 C 16.8 167.4 19.2 169.2 19.2 169.8 C 18.8 170.7 19.7 170.8 20.9 170.8 C 22.7 171.8 21.7 168.5 23.2 169.6 C 25.5 171.0 23.9 167.1 25.5 169.0 C 25.5 169.7 27.3 168.3 27.0 168.2 C 28.5 168.8 29.0 166.3 28.9 166.1 C 29.7 166.1 30.7 167.9 32.1 165.5 C 33.3 164.3 35.0 165.9 33.9 164.7 C 35.8 165.7 34.5 163.9 35.9 163.9 C 37.0 164.3 35.3 162.6 37.5 163.5 C 37.5 161.9 37.2 164.6 40.6 161.9 C 38.7 162.7 42.0 160.0 41.6 161.2 C 40.7 162.7 43.3 160.0 45.3 159.7 C 45.5 159.0 47.1 156.9 47.3 158.3 C 49.8 158.8 48.8 156.5 50.1 157.3 C 51.0 157.5 50.7 156.3 51.1 156.2 C 52.2 156.8 52.5 155.9 54.9 155.1 C 60.0 153.2 54.5 152.5 56.3 151.3 C 56.4 150.7 52.2 149.2 54.4 150.8 C 53.7 150.4 50.8 154.6 51.6 151.2 C 50.5 152.9 51.5 150.1 48.9 152.7 C 54.0 152.3 44.5 155.7 48.1 152.9 C 47.2 152.7 45.6 153.6 47.0 153.5 C 48.2 154.8 43.8 154.2 46.3 155.2 C 43.5 156.0 45.0 157.3 43.7 156.5 C 42.1 154.8 44.1 156.9 42.5 157.0 C 39.4 158.4 40.7 155.0 39.5 157.4 C 36.1 157.9 39.3 158.6 38.4 159.4 C 38.8 160.9 34.8 159.8 37.0 158.5 C 36.1 159.8 36.5 157.9 35.5 159.5 C 37.1 160.3 33.1 159.0 34.0 159.8 C 32.9 160.7 33.9 161.2 33.6 161.4 C 31.7 162.3 31.7 160.7 31.8 161.9 C 31.6 162.6 29.9 161.3 29.9 161.9 C 31.8 161.0 29.0 164.0 28.5 163.4 C 29.6 162.7 27.1 162.0 26.8 163.3 C 29.1 165.7 24.8 163.4 24.5 164.8 C 26.0 165.9 20.5 167.0 22.0 165.3 C 21.9 165.5 22.5 166.3 22.5 166.3 M 29.5 162.3 C 31.1 161.7 28.0 163.5 29.5 162.3 M 29.2 162.0 C 30.1 162.2 27.6 162.3 29.2 161.8 C 29.2 161.8 29.1 162.0 29.2 162.0 M 35.6 158.8 C 35.6 159.4 34.6 159.0 35.6 158.8 M 37.3 159.2 C 38.5 159.1 35.9 159.9 37.3 159.2 M 51.3 152.1 C 50.9 155.1 49.1 151.5 51.3 152.1 M 41.7 156.1 C 40.1 157.3 41.8 154.9 41.7 156.1 M 41.4 157.0 C 40.8 157.7 41.0 156.5 41.4 157.0 M 48.6 153.4 C 48.7 153.4 48.7 153.4 48.6 153.4 C 48.6 153.4 48.6 153.4 48.6 153.4 Z M 52.8 151.4 C 52.8 151.4 52.8 151.4 52.8 151.4 C 52.8 151.4 52.8 151.4 52.8 151.4 Z M 44.6 155.6 C 43.1 155.7 46.6 154.4 44.6 155.6 C 44.6 155.6 44.6 155.6 44.6 155.6 Z M 52.5 155.9 C 52.4 156.0 52.4 156.0 52.5 155.9 C 52.5 155.9 52.5 155.9 52.5 155.9 Z M 28.8 164.0 C 28.7 164.1 28.7 164.1 28.8 164.0 C 28.8 164.0 28.8 164.0 28.8 164.0 Z M 23.6 165.4 C 23.8 165.7 22.6 165.6 23.6 165.4 C 23.6 165.4 23.6 165.4 23.6 165.4 Z M 21.0 169.9 C 20.9 170.0 20.9 170.0 21.0 169.9 C 21.0 169.9 21.0 169.9 21.0 169.9 Z M 27.7 166.0 C 27.7 166.0 27.7 166.0 27.7 166.0 C 27.7 166.0 27.7 166.0 27.7 166.0 Z M 27.6 163.9 C 26.2 163.0 29.6 163.4 27.6 163.9 C 27.6 163.9 27.6 163.9 27.6 163.9 Z M 44.6 159.6 C 44.3 159.0 45.8 159.2 44.6 159.6 C 44.6 159.6 44.6 159.6 44.6 159.6 Z M 37.7 159.6 C 37.8 159.2 38.5 159.4 37.7 159.6 C 37.7 159.6 37.7 159.6 37.7 159.6 Z M 34.2 159.2 C 34.3 158.8 35.0 159.0 34.2 159.2 C 34.2 159.2 34.2 159.2 34.2 159.2 Z M 23.5 165.0 C 23.5 164.9 23.5 164.9 23.5 165.0 C 23.5 165.0 23.5 165.0 23.5 165.0 Z M 25.6 165.2 C 23.9 164.5 27.8 164.9 25.6 165.2 C 25.6 165.2 25.6 165.2 25.6 165.2 Z M 23.8 166.5 C 24.6 166.6 22.2 167.0 23.8 166.5 M 25.8 167.8 C 27.0 166.6 25.6 170.5 25.8 167.8 C 25.8 167.8 25.8 167.8 25.8 167.8 Z M 33.4 164.7 C 33.5 164.7 33.5 164.7 33.4 164.7 C 33.4 164.7 33.4 164.7 33.4 164.7 Z M 31.0 161.6 C 32.3 161.0 30.3 162.3 31.0 161.6 C 31.0 161.6 31.0 161.6 31.0 161.6 Z M 19.8 166.6 C 21.1 166.1 19.1 167.3 19.8 166.6 C 19.8 166.6 19.8 166.6 19.8 166.6 Z M 37.1 161.5 C 39.1 160.3 36.1 162.7 37.1 161.5 C 37.1 161.5 37.1 161.5 37.1 161.5 Z M 44.1 156.4 C 44.2 156.4 44.2 156.4 44.1 156.4 C 44.1 156.4 44.1 156.4 44.1 156.4 Z M 45.3 155.2 C 45.4 155.2 45.4 155.2 45.3 155.2 C 45.3 155.2 45.3 155.2 45.3 155.2 Z M 51.8 153.6 C 52.0 153.6 52.0 153.6 51.8 153.6 C 51.8 153.6 51.8 153.6 51.8 153.6 Z M 46.3 154.0 C 46.4 154.0 46.4 154.0 46.3 154.0 C 46.3 154.0 46.3 154.0 46.3 154.0 Z M 50.6 152.4 C 50.7 152.4 50.7 152.4 50.6 152.4 C 50.6 152.4 50.6 152.4 50.6 152.4 Z M 49.5 151.6 C 49.6 151.6 49.6 151.6 49.5 151.6 C 49.5 151.6 49.5 151.6 49.5 151.6 Z M 42.9 161.2 C 43.0 161.2 43.0 161.2 42.9 161.2 C 42.9 161.2 42.9 161.2 42.9 161.2 Z M 25.5 163.5 C 25.7 163.6 25.7 163.6 25.5 163.5 C 25.5 163.5 25.5 163.5 25.5 163.5 Z M 50.5 153.0 C 50.5 153.0 50.5 153.0 50.5 153.0 C 50.5 153.0 50.5 153.0 50.5 153.0 Z M 40.9 158.8 C 41.4 159.8 39.4 157.8 41.1 158.6 C 41.1 158.7 40.7 158.6 40.9 158.8 M 43.1 159.8 C 43.0 159.9 43.0 159.9 43.1 159.8 C 43.1 159.8 43.1 159.8 43.1 159.8 Z M 38.8 162.6 C 38.8 162.7 38.8 162.7 38.8 162.6 C 38.8 162.6 38.8 162.6 38.8 162.6 Z M 45.5 154.2 C 45.1 153.7 46.8 154.1 45.4 154.3 M 52.7 155.4 C 52.3 154.9 54.1 155.2 52.6 155.5 M 18.5 167.7 C 18.5 168.2 17.5 167.9 18.5 167.7 M 38.1 163.6 C 38.1 164.2 37.1 163.8 38.1 163.6 M 39.5 161.3 C 39.1 160.8 40.9 161.2 39.4 161.4 M 49.6 156.8 C 49.7 156.8 49.7 156.8 49.6 156.8 C 49.6 156.8 49.6 156.8 49.6 156.8 Z M 33.0 160.8 C 33.0 160.7 33.0 160.7 33.0 160.8 C 33.0 160.8 33.0 160.8 33.0 160.8 Z M 39.1 159.3 C 38.0 158.9 40.3 159.3 39.1 159.3 M 32.0 162.9 C 30.4 162.5 33.9 162.4 32.0 162.9 M 55.2 154.5 C 53.4 153.9 56.4 154.7 55.2 154.5 M 47.7 154.5 C 45.9 153.9 48.9 154.7 47.7 154.5 M 34.3 160.7 C 33.9 160.1 35.7 160.5 34.3 160.7 M 21.3 166.2 C 20.1 166.7 22.7 165.0 21.3 166.2 M 46.6 158.3 C 46.7 158.3 46.7 158.3 46.6 158.3 C 46.6 158.3 46.6 158.3 46.6 158.3 Z M 27.3 168.8 C 27.4 168.9 27.4 168.9 27.3 168.8 C 27.3 168.8 27.3 168.8 27.3 168.8 Z M 55.0 149.9 C 55.0 149.9 55.0 149.9 55.0 149.9 C 55.0 149.9 55.0 149.9 55.0 149.9 Z M 47.2 155.4 C 47.3 155.4 47.3 155.4 47.2 155.4 C 47.2 155.4 47.2 155.4 47.2 155.4 Z M 52.5 150.8 C 52.6 150.9 52.6 150.9 52.5 150.8 C 52.5 150.8 52.5 150.8 52.5 150.8 Z M 43.8 158.1 C 43.8 158.1 43.8 158.1 43.8 158.1 C 43.8 158.1 43.8 158.1 43.8 158.1 Z M 41.6 155.5 C 41.6 155.5 41.6 155.5 41.6 155.5 C 41.6 155.5 41.6 155.5 41.6 155.5 Z M 38.0 158.8 C 38.0 158.8 38.0 158.8 38.0 158.8 C 38.0 158.8 38.0 158.8 38.0 158.8 Z M 43.6 154.8 C 46.1 153.4 42.8 156.4 43.6 154.8 C 43.6 154.8 43.6 154.8 43.6 154.8 Z M 40.7 159.9 C 40.7 159.9 40.7 159.9 40.7 159.9 C 40.7 159.9 40.7 159.9 40.7 159.9 Z M 39.3 158.0 C 40.5 156.4 40.9 159.0 39.3 158.0 M 32.0 160.6 C 32.3 160.0 32.6 161.2 32.0 160.6 M 31.1 165.9 C 31.1 165.9 31.1 165.9 31.1 165.9 C 31.1 165.9 31.1 165.9 31.1 165.9 Z M 31.7 165.2 C 31.8 165.2 31.8 165.2 31.7 165.2 C 31.7 165.2 31.7 165.2 31.7 165.2 Z M 30.2 161.3 C 30.2 161.3 30.2 161.3 30.2 161.3 C 30.2 161.3 30.2 161.3 30.2 161.3 Z M 32.3 166.3 C 32.4 166.3 32.4 166.3 32.3 166.3 C 32.3 166.3 32.3 166.3 32.3 166.3 Z M 40.7 156.1 C 40.7 156.1 40.7 156.1 40.7 156.1 C 40.7 156.1 40.7 156.1 40.7 156.1 Z M 53.5 149.8 C 53.6 149.8 53.6 149.8 53.5 149.8 C 53.5 149.8 53.5 149.8 53.5 149.8 Z M 23.2 169.2 C 23.3 169.2 23.3 169.2 23.2 169.2 C 23.2 169.2 23.2 169.2 23.2 169.2 Z M 42.6 156.6 C 42.6 156.6 42.6 156.6 42.6 156.6 C 42.6 156.6 42.6 156.6 42.6 156.6 Z M 29.2 166.6 C 29.2 166.6 29.2 166.6 29.2 166.6 C 29.2 166.6 29.2 166.6 29.2 166.6 Z M 41.6 156.8 C 41.7 156.8 41.7 156.8 41.6 156.8 C 41.6 156.8 41.6 156.8 41.6 156.8 Z M 46.3 158.8 C 46.4 158.7 46.4 158.7 46.3 158.8 C 46.3 158.8 46.3 158.8 46.3 158.8 Z M 49.4 158.1 C 49.4 158.1 49.4 158.1 49.4 158.1 C 49.4 158.1 49.4 158.1 49.4 158.1 Z M 45.1 156.8 C 45.2 156.8 45.2 156.8 45.1 156.8 C 45.1 156.8 45.1 156.8 45.1 156.8 Z M 27.7 165.7 C 22.1 167.2 31.4 163.3 27.7 165.7 M 46.1 156.6 C 42.4 158.1 48.4 154.1 46.1 156.6 C 46.3 156.1 46.1 156.5 46.1 156.6 M 56.0 148.8 C 55.0 150.6 55.6 151.6 56.7 152.4 C 57.7 152.7 56.6 150.5 57.6 152.3 C 56.1 153.5 59.6 154.8 58.4 152.4 C 60.5 151.0 59.5 153.7 60.4 152.2 C 62.6 150.8 61.8 152.1 63.5 151.1 C 63.9 149.3 64.8 151.2 64.7 149.7 C 64.4 151.5 66.4 148.5 66.8 149.0 C 65.5 150.7 73.0 146.0 68.6 147.7 C 70.0 146.2 70.2 147.5 70.9 147.4 C 71.3 146.2 74.1 146.6 74.8 145.3 C 74.5 145.3 73.9 145.5 73.6 145.3 C 73.1 144.9 74.9 144.8 74.7 144.9 C 75.3 144.2 77.7 142.0 75.4 144.9 C 75.5 145.6 77.7 143.4 77.9 144.1 C 80.5 142.8 77.9 142.5 79.5 142.9 C 81.4 142.0 82.8 141.3 82.7 141.2 C 83.9 140.8 84.5 141.4 85.1 140.2 C 88.1 140.5 85.4 136.7 87.6 139.1 C 88.0 138.1 89.5 139.6 88.6 137.9 C 88.1 139.1 93.1 137.4 90.5 137.1 C 90.8 136.4 94.8 137.2 93.5 135.7 C 94.0 133.9 93.2 132.7 90.3 132.6 C 91.0 133.5 87.4 132.7 89.9 133.6 C 92.2 133.2 86.6 136.0 87.5 134.8 C 86.8 132.6 85.4 137.3 83.5 136.4 C 84.9 136.8 80.5 139.4 81.1 137.2 C 80.2 137.5 80.4 138.3 79.0 137.9 C 81.8 136.7 78.7 140.0 78.4 139.0 C 78.6 138.2 74.3 139.7 75.2 140.3 C 77.6 141.8 73.9 140.4 73.6 141.6 C 71.6 143.1 73.1 139.6 72.2 141.9 C 71.6 141.9 68.6 143.3 70.3 142.0 C 71.1 141.9 69.6 145.1 68.5 143.5 C 71.2 141.0 64.5 144.7 65.9 144.7 C 71.3 143.4 61.2 148.4 64.6 145.5 C 61.9 145.6 65.1 144.8 62.5 146.6 C 63.2 146.9 61.3 148.5 61.3 147.1 C 60.0 145.6 61.6 149.8 58.9 148.2 C 58.1 147.3 55.9 150.6 56.6 148.9 C 56.6 148.7 56.1 148.7 56.0 148.8 M 57.0 148.5 C 56.9 149.1 56.2 148.3 57.0 148.5 M 56.8 149.1 C 56.8 149.1 56.8 149.1 56.8 149.1 C 56.8 149.1 56.8 149.1 56.8 149.1 Z M 62.2 146.8 C 62.1 146.8 62.1 146.8 62.2 146.8 C 62.2 146.8 62.2 146.8 62.2 146.8 Z M 68.4 149.1 C 68.3 149.1 68.3 149.1 68.4 149.1 C 68.4 149.1 68.4 149.1 68.4 149.1 Z M 65.7 145.2 C 65.7 145.2 65.7 145.2 65.7 145.2 C 65.7 145.2 65.7 145.2 65.7 145.2 Z M 60.4 148.0 C 60.4 148.0 60.4 148.0 60.4 148.0 C 60.4 148.0 60.4 148.0 60.4 148.0 Z M 65.1 144.8 C 65.7 145.3 63.7 144.9 65.1 144.6 C 65.2 144.7 64.9 144.8 65.1 144.8 M 69.5 142.3 C 69.6 142.4 69.6 142.4 69.5 142.3 M 82.0 142.5 C 82.0 142.6 82.0 142.6 82.0 142.5 M 80.3 137.1 C 80.5 137.1 80.5 137.1 80.3 137.1 M 74.3 140.8 C 75.7 140.0 74.9 140.9 74.3 140.8 M 84.2 135.7 C 82.2 136.1 85.9 134.4 84.2 135.7 M 85.7 134.5 C 85.9 134.4 85.9 134.4 85.7 134.5 M 77.9 138.5 C 77.9 138.6 77.9 138.6 77.9 138.5 C 77.9 138.5 77.9 138.5 77.9 138.5 Z M 73.6 140.8 C 71.7 141.3 75.2 139.3 73.6 140.8 M 62.5 145.9 C 63.3 145.1 62.9 146.7 62.5 145.9 M 60.6 147.3 C 60.6 147.3 60.6 147.3 60.6 147.3 C 60.6 147.3 60.6 147.3 60.6 147.3 Z M 81.4 137.0 C 81.3 137.0 81.3 137.0 81.4 137.0 C 81.4 137.0 81.4 137.0 81.4 137.0 Z M 83.3 135.9 C 83.3 135.9 83.3 135.9 83.3 135.9 C 83.3 135.9 83.3 135.9 83.3 135.9 Z M 88.9 139.0 C 88.9 139.0 88.9 139.0 88.9 139.0 C 88.9 139.0 88.9 139.0 88.9 139.0 Z M 63.1 148.5 C 61.6 148.8 63.7 146.3 64.0 147.5 C 64.4 148.0 63.2 148.3 63.1 148.5 M 73.0 142.9 C 74.1 144.3 70.6 141.3 73.0 142.9 M 86.5 135.4 C 88.7 136.6 84.1 134.9 86.5 135.4 M 89.1 133.7 C 90.0 133.7 84.0 136.4 87.9 133.9 C 88.2 133.4 88.7 133.7 89.1 133.7 M 70.0 143.1 C 70.8 143.8 67.6 143.7 70.0 143.1 M 79.6 141.7 C 80.0 140.8 81.5 139.5 81.2 140.8 C 81.8 142.1 79.0 142.6 79.6 141.7 M 57.9 149.2 C 58.3 147.3 58.4 150.4 57.9 149.2 M 63.2 146.8 C 63.2 146.7 63.2 146.7 63.2 146.8 C 63.2 146.8 63.2 146.8 63.2 146.8 Z M 65.2 145.6 C 65.4 145.6 65.4 145.6 65.2 145.6 M 58.1 147.6 C 58.3 147.6 58.3 147.6 58.1 147.6 M 78.8 140.2 C 79.0 140.3 79.0 140.3 78.8 140.2 M 74.1 141.4 C 76.8 141.8 73.2 142.2 74.1 141.4 M 70.4 146.5 C 71.4 146.8 69.2 147.1 70.4 146.5 M 77.2 139.2 C 79.3 139.8 75.9 141.4 77.2 139.2 M 73.1 141.7 C 73.2 141.6 73.2 141.6 73.1 141.7 C 73.1 141.7 73.1 141.7 73.1 141.7 Z M 80.2 141.6 C 80.2 141.6 80.2 141.6 80.2 141.6 C 80.2 141.6 80.2 141.6 80.2 141.6 Z M 80.8 141.2 C 80.7 141.3 80.7 141.3 80.8 141.2 C 80.8 141.2 80.8 141.2 80.8 141.2 Z M 78.9 138.2 C 78.9 138.3 78.9 138.3 78.9 138.2 C 78.9 138.2 78.9 138.2 78.9 138.2 Z M 62.2 151.0 C 63.7 150.4 61.2 151.7 62.2 151.0 C 62.2 151.0 62.2 151.0 62.2 151.0 Z M 66.8 144.0 C 69.6 143.9 65.6 145.8 66.8 144.0 C 66.8 144.0 66.8 144.0 66.8 144.0 Z M 70.3 144.4 C 70.3 144.5 70.3 144.5 70.3 144.4 C 70.3 144.4 70.3 144.4 70.3 144.4 Z M 75.9 138.8 C 75.9 138.9 75.9 138.9 75.9 138.8 C 75.9 138.8 75.9 138.8 75.9 138.8 Z M 63.0 150.8 C 63.1 150.9 63.1 150.9 63.0 150.8 C 63.0 150.8 63.0 150.8 63.0 150.8 Z M 83.4 136.9 C 83.4 137.0 83.4 137.0 83.4 136.9 C 83.4 136.9 83.4 136.9 83.4 136.9 Z M 76.4 143.7 C 76.7 142.9 76.7 144.0 76.4 143.7 C 76.4 143.7 76.4 143.7 76.4 143.7 Z M 78.6 142.6 C 78.6 142.6 78.6 142.6 78.6 142.6 C 78.6 142.6 78.6 142.6 78.6 142.6 Z M 86.2 134.1 C 86.2 134.1 86.2 134.1 86.2 134.1 C 86.2 134.1 86.2 134.1 86.2 134.1 Z M 84.7 141.3 C 84.7 141.2 84.7 141.2 84.7 141.3 C 84.7 141.3 84.7 141.3 84.7 141.3 Z M 85.7 138.8 C 85.7 138.9 85.7 138.9 85.7 138.8 C 85.7 138.8 85.7 138.8 85.7 138.8 Z M 78.7 138.7 C 80.7 137.4 78.5 139.5 78.7 138.7 C 78.7 138.7 78.7 138.7 78.7 138.7 Z M 90.8 135.8 C 90.9 135.9 90.9 135.9 90.8 135.8 C 90.8 135.8 90.8 135.8 90.8 135.8 Z M 91.1 133.5 C 91.2 133.5 91.2 133.5 91.1 133.5 C 91.1 133.5 91.1 133.5 91.1 133.5 Z M 91.2 132.2 C 91.3 132.3 91.3 132.3 91.2 132.2 C 91.2 132.2 91.2 132.2 91.2 132.2 Z M 66.1 147.5 C 66.0 147.5 66.0 147.5 66.1 147.5 C 66.1 147.5 66.1 147.5 66.1 147.5 Z M 63.8 145.0 C 63.8 145.0 63.8 145.0 63.8 145.0 C 63.8 145.0 63.8 145.0 63.8 145.0 Z M 66.7 143.4 C 66.7 143.4 66.7 143.4 66.7 143.4 C 66.7 143.4 66.7 143.4 66.7 143.4 Z M 66.5 149.6 C 66.4 149.6 66.4 149.6 66.5 149.6 C 66.5 149.6 66.5 149.6 66.5 149.6 Z M 76.2 141.8 C 76.1 141.8 76.1 141.8 76.2 141.8 C 76.2 141.8 76.2 141.8 76.2 141.8 Z M 77.8 142.5 C 77.7 142.5 77.7 142.5 77.8 142.5 C 77.8 142.5 77.8 142.5 77.8 142.5 Z M 76.0 145.3 C 76.0 145.3 76.0 145.3 76.0 145.3 C 76.0 145.3 76.0 145.3 76.0 145.3 Z M 79.1 143.1 C 79.1 143.1 79.1 143.1 79.1 143.1 C 79.1 143.1 79.1 143.1 79.1 143.1 Z M 58.9 152.6 C 58.9 152.6 58.9 152.6 58.9 152.6 C 58.9 152.6 58.9 152.6 58.9 152.6 Z M 57.5 150.4 C 57.5 150.5 57.5 150.5 57.5 150.4 C 57.5 150.4 57.5 150.4 57.5 150.4 Z M 75.7 140.0 C 76.0 139.3 77.1 140.1 75.7 140.0 M 71.7 142.3 C 71.7 142.3 71.7 142.3 71.7 142.3 C 71.7 142.3 71.7 142.3 71.7 142.3 Z M 82.8 136.7 C 83.8 137.3 80.6 137.2 82.8 136.7 C 82.8 136.7 82.8 136.7 82.8 136.7 Z M 82.4 141.5 C 82.5 141.5 82.5 141.5 82.4 141.5 C 82.4 141.5 82.4 141.5 82.4 141.5 Z M 83.3 140.6 C 83.5 140.7 83.5 140.7 83.3 140.6 C 83.3 140.6 83.3 140.6 83.3 140.6 Z M 88.2 135.3 C 88.3 135.3 88.3 135.3 88.2 135.3 M 70.8 141.7 C 71.6 141.8 71.4 141.8 70.8 141.7 M 84.2 136.0 C 84.2 136.1 84.2 136.1 84.2 136.0 C 84.2 136.0 84.2 136.0 84.2 136.0 Z M 89.3 134.1 C 89.2 134.2 89.2 134.2 89.3 134.1 C 89.3 134.1 89.3 134.1 89.3 134.1 Z M 68.1 143.8 C 68.8 144.8 68.1 144.8 68.1 143.8 M 60.0 148.1 C 60.0 148.2 60.0 148.2 60.0 148.1 C 60.0 148.1 60.0 148.1 60.0 148.1 Z M 95.5 130.2 C 92.7 130.0 93.5 131.7 93.5 131.8 C 92.7 129.4 91.9 133.7 92.6 133.9 C 92.7 134.3 96.4 137.4 96.8 134.2 C 97.1 133.7 97.7 134.3 98.0 134.2 C 100.7 132.8 95.5 133.9 98.9 132.3 C 99.6 132.3 99.8 134.5 101.2 132.3 C 101.4 132.4 104.0 132.0 102.7 131.5 C 104.2 131.9 104.4 130.5 105.3 129.8 C 106.5 129.9 105.2 131.6 107.9 129.0 C 110.1 129.9 109.3 126.9 111.4 128.0 C 112.2 127.7 112.1 124.2 111.0 126.7 C 111.1 126.4 109.3 125.6 112.1 124.9 C 111.9 125.4 111.9 129.0 115.3 125.7 C 116.0 125.4 117.2 123.9 117.7 124.1 C 115.7 125.4 121.1 124.0 120.2 123.4 C 123.7 122.4 121.2 122.0 124.0 121.8 C 126.0 120.9 122.8 120.8 125.5 120.5 C 127.2 119.5 126.4 120.8 126.2 120.8 C 127.8 120.2 128.1 119.4 128.7 119.2 C 129.1 119.1 130.1 119.4 130.1 118.5 C 131.1 116.4 129.0 115.8 129.1 114.1 C 127.5 114.1 129.0 115.4 127.7 114.8 C 127.5 115.9 127.6 114.8 124.4 116.5 C 124.6 116.7 125.7 116.9 124.9 117.3 C 123.6 117.9 123.4 115.2 122.1 117.8 C 124.8 117.1 118.9 120.2 121.5 119.5 C 118.7 121.2 120.5 119.7 118.2 120.2 C 119.0 121.7 117.3 118.7 117.1 120.3 C 116.6 119.7 113.4 121.6 116.2 121.4 C 113.0 123.4 114.7 121.5 113.1 121.3 C 111.5 122.0 114.2 123.8 112.3 122.4 C 109.9 122.6 112.7 123.4 110.5 122.7 C 111.8 123.6 109.0 123.4 110.2 124.5 C 106.8 126.3 110.0 122.8 108.0 125.0 C 108.8 124.6 107.6 122.9 106.6 124.8 C 108.3 126.7 103.7 123.8 106.2 126.2 C 101.8 129.4 104.8 125.4 102.1 126.7 C 101.5 127.0 103.4 127.3 102.8 127.6 C 99.1 128.9 101.6 126.7 100.5 129.0 C 97.2 131.0 98.9 128.3 97.2 129.0 C 97.4 129.7 96.6 131.5 95.5 130.2 M 98.9 129.4 C 99.4 128.6 99.6 129.7 98.9 129.4 M 91.7 132.0 C 92.2 131.2 92.4 132.3 91.7 132.0 M 101.5 127.6 C 102.2 126.7 102.2 128.2 101.5 127.6 M 120.2 119.5 C 118.9 120.1 120.6 118.8 120.2 119.5 M 94.4 130.6 C 95.1 129.6 95.1 131.3 94.4 130.6 M 93.7 132.3 C 93.8 132.3 93.8 132.3 93.7 132.3 M 121.4 117.4 C 121.5 117.4 121.5 117.4 121.4 117.4 M 116.5 119.8 C 117.6 119.3 116.1 120.4 116.5 119.8 M 118.7 124.7 C 119.7 124.2 118.2 125.3 118.7 124.7 M 124.1 116.1 C 125.0 115.2 124.7 116.5 124.1 116.1 M 127.4 115.8 C 128.1 114.9 128.2 116.0 127.4 115.8 M 99.1 131.4 C 99.1 131.4 99.1 131.4 99.1 131.4 C 99.1 131.4 99.1 131.4 99.1 131.4 Z M 108.7 128.2 C 107.4 128.3 110.3 128.2 108.7 128.2 M 105.5 125.9 C 106.7 126.5 104.1 126.5 105.5 125.9 C 105.5 125.9 105.5 125.9 105.5 125.9 Z M 104.1 127.1 C 104.1 127.1 104.1 127.1 104.1 127.1 C 104.1 127.1 104.1 127.1 104.1 127.1 Z M 109.3 124.7 C 109.2 124.7 109.2 124.7 109.3 124.7 C 109.3 124.7 109.3 124.7 109.3 124.7 Z M 108.3 125.3 C 107.9 125.7 107.6 125.4 108.3 125.3 C 108.3 125.3 108.3 125.3 108.3 125.3 Z M 117.2 124.8 C 116.8 125.3 116.5 124.9 117.2 124.8 C 117.2 124.8 117.2 124.8 117.2 124.8 Z M 106.8 126.4 C 107.2 127.4 105.8 126.1 106.8 126.4 C 106.8 126.4 106.8 126.4 106.8 126.4 Z M 113.4 126.1 C 113.7 125.6 114.8 126.6 113.4 126.1 M 122.6 117.1 C 122.9 116.6 124.0 117.6 122.6 117.1 M 111.7 122.0 C 112.0 121.5 113.1 122.5 111.7 122.0 M 99.3 128.7 C 99.4 128.7 99.4 128.7 99.3 128.7 M 107.3 130.1 C 107.8 129.4 107.9 130.3 107.3 130.1 M 97.0 134.6 C 97.5 133.9 97.6 134.9 97.0 134.6 M 123.2 122.4 C 123.1 122.2 124.4 122.0 123.2 122.4 M 113.7 123.0 C 114.7 122.6 115.9 122.7 113.9 123.6 C 113.7 123.4 114.2 123.0 113.7 123.0 C 113.7 123.0 113.7 123.0 113.7 123.0 Z M 118.2 123.6 C 118.3 123.6 118.3 123.6 118.2 123.6 M 114.9 121.3 C 115.1 121.3 115.1 121.3 114.9 121.3 M 120.5 118.7 C 120.7 118.8 120.7 118.8 120.5 118.7 M 121.0 118.1 C 121.0 118.2 121.0 118.2 121.0 118.1 C 121.0 118.1 121.0 118.1 121.0 118.1 Z M 126.9 114.8 C 126.9 114.8 126.9 114.8 126.9 114.8 C 126.9 114.8 126.9 114.8 126.9 114.8 Z M 118.8 119.7 C 118.8 119.7 118.8 119.7 118.8 119.7 C 118.8 119.7 118.8 119.7 118.8 119.7 Z M 125.6 121.0 C 125.6 121.1 125.6 121.1 125.6 121.0 C 125.6 121.0 125.6 121.0 125.6 121.0 Z M 124.7 120.7 C 124.7 120.8 124.7 120.8 124.7 120.7 C 124.7 120.7 124.7 120.7 124.7 120.7 Z M 96.0 129.9 C 96.5 128.8 97.3 131.4 96.0 129.9 M 127.4 119.5 C 128.5 119.8 126.0 120.3 127.4 119.5 C 127.4 119.5 127.4 119.5 127.4 119.5 Z M 118.5 120.8 C 118.7 120.9 118.7 120.9 118.5 120.8 M 121.4 118.0 C 121.6 118.1 121.6 118.1 121.4 118.0 M 105.0 125.0 C 105.2 125.1 105.2 125.1 105.0 125.0 M 125.8 116.2 C 128.5 115.2 125.3 118.1 125.8 116.2 M 104.3 126.5 C 104.2 126.4 104.2 126.4 104.3 126.5 M 111.0 125.5 C 112.7 124.7 110.6 126.4 111.0 125.5 M 114.8 122.2 C 114.7 122.3 114.7 122.3 114.8 122.2 C 114.8 122.2 114.8 122.2 114.8 122.2 Z M 112.2 123.4 C 111.0 124.2 111.8 123.3 112.2 123.4 C 112.2 123.4 112.2 123.4 112.2 123.4 Z M 97.7 130.2 C 99.4 129.6 96.1 131.4 97.7 130.2 C 97.7 130.2 97.7 130.2 97.7 130.2 Z M 125.7 119.0 C 125.7 119.1 125.7 119.1 125.7 119.0 C 125.7 119.0 125.7 119.0 125.7 119.0 Z M 118.1 119.1 C 117.5 119.8 117.6 119.0 118.1 119.1 C 118.1 119.1 118.1 119.1 118.1 119.1 Z M 127.8 114.4 C 127.2 115.0 127.3 114.2 127.8 114.4 C 127.8 114.4 127.8 114.4 127.8 114.4 Z M 95.6 131.0 C 102.4 129.8 87.5 134.4 95.6 131.0 C 95.6 131.0 95.6 131.0 95.6 131.0 Z M 112.9 122.3 C 112.9 122.3 112.9 122.3 112.9 122.3 C 112.9 122.3 112.9 122.3 112.9 122.3 Z M 101.6 126.9 C 101.6 127.0 101.6 127.0 101.6 126.9 C 101.6 126.9 101.6 126.9 101.6 126.9 Z M 100.1 128.7 C 100.1 128.8 100.1 128.8 100.1 128.7 C 100.1 128.7 100.1 128.7 100.1 128.7 Z M 102.5 132.3 C 102.5 132.3 102.5 132.3 102.5 132.3 C 102.5 132.3 102.5 132.3 102.5 132.3 Z M 102.3 130.2 C 102.3 130.4 102.3 130.4 102.3 130.2 C 102.3 130.2 102.3 130.2 102.3 130.2 Z M 98.8 132.7 C 98.8 132.8 98.8 132.8 98.8 132.7 C 98.8 132.7 98.8 132.7 98.8 132.7 Z M 99.1 133.2 C 99.1 133.2 99.1 133.2 99.1 133.2 C 99.1 133.2 99.1 133.2 99.1 133.2 Z M 122.0 119.1 C 121.9 119.2 121.9 119.2 122.0 119.1 C 122.0 119.1 122.0 119.1 122.0 119.1 Z M 120.7 121.7 C 121.8 120.5 120.6 122.7 120.7 121.7 C 120.7 121.7 120.7 121.7 120.7 121.7 Z M 108.0 126.8 C 109.2 126.0 107.4 127.7 108.0 126.8 C 108.0 126.8 108.0 126.8 108.0 126.8 Z M 110.4 128.3 C 110.4 128.3 110.4 128.3 110.4 128.3 C 110.4 128.3 110.4 128.3 110.4 128.3 Z M 99.7 127.8 C 99.7 127.9 99.7 127.9 99.7 127.8 C 99.7 127.8 99.7 127.8 99.7 127.8 Z M 97.7 129.5 C 98.0 130.4 96.8 129.5 97.7 129.5 M 109.2 123.4 C 109.3 123.5 109.3 123.5 109.2 123.4 C 109.2 123.4 109.2 123.4 109.2 123.4 Z M 117.3 121.1 C 117.3 121.1 117.3 121.1 117.3 121.1 C 117.3 121.1 117.3 121.1 117.3 121.1 Z M 124.5 117.0 C 124.5 117.1 124.5 117.1 124.5 117.0 C 124.5 117.0 124.5 117.0 124.5 117.0 Z M 113.9 121.3 C 114.0 121.4 114.0 121.4 113.9 121.3 C 113.9 121.3 113.9 121.3 113.9 121.3 Z M 110.8 123.7 C 110.8 123.8 110.8 123.8 110.8 123.7 C 110.8 123.7 110.8 123.7 110.8 123.7 Z M 126.7 117.3 C 126.6 117.4 126.6 117.4 126.7 117.3 C 126.7 117.3 126.7 117.3 126.7 117.3 Z M 114.7 120.7 C 114.7 120.8 114.7 120.8 114.7 120.7 C 114.7 120.7 114.7 120.7 114.7 120.7 Z M 118.1 122.3 C 118.1 122.4 118.1 122.4 118.1 122.3 C 118.1 122.3 118.1 122.3 118.1 122.3 Z M 97.4 128.2 C 97.4 128.3 97.4 128.3 97.4 128.2 C 97.4 128.2 97.4 128.2 97.4 128.2 Z M 126.2 116.2 C 126.2 116.3 126.2 116.3 126.2 116.2 C 126.2 116.2 126.2 116.2 126.2 116.2 Z M 126.3 115.3 C 126.3 115.3 126.3 115.3 126.3 115.3 C 126.3 115.3 126.3 115.3 126.3 115.3 Z M 122.9 121.7 C 120.1 122.5 125.2 120.3 122.9 120.4 C 126.5 118.4 123.5 121.4 122.9 121.7 C 122.9 121.7 122.9 121.7 122.9 121.7 Z M 129.7 113.3 C 128.8 115.1 129.3 116.1 130.5 117.0 C 131.4 117.2 130.4 115.0 131.3 116.8 C 129.8 118.0 133.3 119.3 132.2 116.9 C 134.2 115.5 133.3 118.3 134.1 116.7 C 136.3 115.3 135.5 116.6 137.2 115.6 C 137.6 113.8 138.6 115.7 138.4 114.3 C 138.2 116.0 140.2 113.0 140.5 113.5 C 139.3 115.2 146.8 110.6 142.3 112.2 C 143.7 110.8 143.9 112.0 144.6 111.9 C 145.0 110.8 147.8 111.2 148.5 109.9 C 148.2 109.8 147.6 110.0 147.3 109.8 C 146.8 109.4 148.6 109.3 148.4 109.4 C 149.0 108.7 151.4 106.6 149.1 109.4 C 149.3 110.1 151.4 107.9 151.6 108.6 C 154.2 107.3 151.6 107.0 153.3 107.4 C 155.1 106.5 156.5 105.9 156.4 105.7 C 157.6 105.3 158.2 105.9 158.9 104.7 C 161.8 105.1 159.2 101.2 161.4 103.6 C 161.7 102.6 163.2 104.1 162.3 102.4 C 161.9 103.6 166.8 101.9 164.2 101.6 C 164.5 101.0 168.5 101.7 167.3 100.2 C 167.7 98.4 166.9 97.2 164.0 97.1 C 164.8 98.0 161.1 97.2 163.7 98.1 C 165.9 97.7 160.3 100.5 161.2 99.3 C 160.5 97.1 159.1 101.9 157.2 101.0 C 158.6 101.3 154.2 103.9 154.8 101.8 C 153.9 102.0 154.1 102.8 152.7 102.4 C 155.5 101.2 152.5 104.5 152.2 103.5 C 152.4 102.7 148.1 104.2 148.9 104.8 C 151.3 106.3 147.6 104.9 147.3 106.1 C 145.3 107.6 146.8 104.1 145.9 106.5 C 145.3 106.4 142.4 107.8 144.0 106.5 C 144.8 106.4 143.4 109.7 142.2 108.0 C 144.9 105.5 138.3 109.2 139.6 109.3 C 145.0 107.9 134.9 112.9 138.3 110.1 C 135.7 110.1 138.8 109.4 136.3 111.1 C 136.9 111.5 135.1 113.0 135.0 111.7 C 133.8 110.2 135.4 114.3 132.6 112.8 C 131.9 111.9 129.7 115.1 130.3 113.4 C 130.3 113.2 129.8 113.2 129.7 113.3 M 130.8 113.0 C 130.6 113.6 130.0 112.8 130.8 113.0 M 130.6 113.6 C 130.5 113.6 130.5 113.6 130.6 113.6 C 130.6 113.6 130.6 113.6 130.6 113.6 Z M 135.9 111.3 C 135.8 111.3 135.8 111.3 135.9 111.3 C 135.9 111.3 135.9 111.3 135.9 111.3 Z M 142.1 113.6 C 142.0 113.6 142.0 113.6 142.1 113.6 C 142.1 113.6 142.1 113.6 142.1 113.6 Z M 139.4 109.7 C 139.4 109.8 139.4 109.8 139.4 109.7 C 139.4 109.7 139.4 109.7 139.4 109.7 Z M 134.2 112.5 C 134.1 112.5 134.1 112.5 134.2 112.5 C 134.2 112.5 134.2 112.5 134.2 112.5 Z M 138.8 109.3 C 139.4 109.8 137.4 109.4 138.8 109.2 C 138.9 109.2 138.7 109.3 138.8 109.3 M 143.2 106.8 C 143.3 106.9 143.3 106.9 143.2 106.8 M 155.7 107.0 C 155.8 107.1 155.8 107.1 155.7 107.0 M 154.1 101.6 C 154.2 101.6 154.2 101.6 154.1 101.6 M 148.1 105.3 C 149.4 104.6 148.6 105.5 148.1 105.3 M 157.9 100.2 C 156.0 100.6 159.6 98.9 157.9 100.2 M 159.4 99.0 C 159.6 99.0 159.6 99.0 159.4 99.0 M 151.7 103.0 C 151.6 103.1 151.6 103.1 151.7 103.0 C 151.7 103.0 151.7 103.0 151.7 103.0 Z M 147.4 105.3 C 145.4 105.9 148.9 103.8 147.4 105.3 M 136.2 110.4 C 137.1 109.6 136.6 111.2 136.2 110.4 M 134.3 111.8 C 134.3 111.8 134.3 111.8 134.3 111.8 C 134.3 111.8 134.3 111.8 134.3 111.8 Z M 155.1 101.5 C 155.0 101.5 155.0 101.5 155.1 101.5 C 155.1 101.5 155.1 101.5 155.1 101.5 Z M 157.0 100.4 C 157.0 100.4 157.0 100.4 157.0 100.4 C 157.0 100.4 157.0 100.4 157.0 100.4 Z M 162.7 103.5 C 162.6 103.5 162.6 103.5 162.7 103.5 C 162.7 103.5 162.7 103.5 162.7 103.5 Z M 136.8 113.0 C 135.3 113.3 137.4 110.8 137.7 112.1 C 138.1 112.5 136.9 112.8 136.8 113.0 M 146.7 107.4 C 147.9 108.8 144.4 105.9 146.7 107.4 M 160.2 99.9 C 162.5 101.2 157.8 99.4 160.2 99.9 M 162.8 98.2 C 163.8 98.2 157.8 100.9 161.7 98.4 C 161.9 97.9 162.4 98.2 162.8 98.2 M 143.7 107.6 C 144.5 108.3 141.3 108.2 143.7 107.6 M 153.3 106.2 C 153.7 105.3 155.2 104.0 154.9 105.3 C 155.5 106.6 152.8 107.1 153.3 106.2 M 131.6 113.7 C 132.0 111.8 132.2 115.0 131.6 113.7 M 137.0 111.3 C 137.0 111.2 137.0 111.2 137.0 111.3 C 137.0 111.3 137.0 111.3 137.0 111.3 Z M 138.9 110.1 C 139.1 110.1 139.1 110.1 138.9 110.1 M 131.9 112.1 C 132.0 112.1 132.0 112.1 131.9 112.1 M 152.6 104.8 C 152.7 104.8 152.7 104.8 152.6 104.8 M 147.9 105.9 C 150.6 106.3 146.9 106.7 147.9 105.9 M 144.2 111.0 C 145.1 111.3 142.9 111.6 144.2 111.0 M 151.0 103.7 C 153.0 104.4 149.6 105.9 151.0 103.7 M 146.8 106.2 C 146.9 106.2 146.9 106.2 146.8 106.2 C 146.8 106.2 146.8 106.2 146.8 106.2 Z M 153.9 106.1 C 153.9 106.1 153.9 106.1 153.9 106.1 C 153.9 106.1 153.9 106.1 153.9 106.1 Z M 154.5 105.7 C 154.5 105.8 154.5 105.8 154.5 105.7 C 154.5 105.7 154.5 105.7 154.5 105.7 Z M 152.7 102.7 C 152.6 102.8 152.6 102.8 152.7 102.7 C 152.7 102.7 152.7 102.7 152.7 102.7 Z M 136.0 115.5 C 137.5 114.9 134.9 116.3 136.0 115.5 C 136.0 115.5 136.0 115.5 136.0 115.5 Z M 140.5 108.5 C 143.4 108.4 139.3 110.3 140.5 108.5 C 140.5 108.5 140.5 108.5 140.5 108.5 Z M 144.0 108.9 C 144.1 109.0 144.1 109.0 144.0 108.9 C 144.0 108.9 144.0 108.9 144.0 108.9 Z M 149.6 103.4 C 149.7 103.4 149.7 103.4 149.6 103.4 C 149.6 103.4 149.6 103.4 149.6 103.4 Z M 136.8 115.3 C 136.8 115.4 136.8 115.4 136.8 115.3 C 136.8 115.3 136.8 115.3 136.8 115.3 Z M 157.1 101.5 C 157.1 101.5 157.1 101.5 157.1 101.5 C 157.1 101.5 157.1 101.5 157.1 101.5 Z M 150.1 108.2 C 150.4 107.4 150.4 108.6 150.1 108.2 C 150.1 108.2 150.1 108.2 150.1 108.2 Z M 152.3 107.2 C 152.3 107.1 152.3 107.1 152.3 107.2 C 152.3 107.2 152.3 107.2 152.3 107.2 Z M 159.9 98.6 C 160.0 98.6 160.0 98.6 159.9 98.6 C 159.9 98.6 159.9 98.6 159.9 98.6 Z M 158.4 105.8 C 158.4 105.7 158.4 105.7 158.4 105.8 C 158.4 105.8 158.4 105.8 158.4 105.8 Z M 159.4 103.3 C 159.4 103.4 159.4 103.4 159.4 103.3 C 159.4 103.3 159.4 103.3 159.4 103.3 Z M 152.4 103.2 C 154.5 101.9 152.2 104.1 152.4 103.2 C 152.4 103.2 152.4 103.2 152.4 103.2 Z M 164.6 100.3 C 164.7 100.4 164.7 100.4 164.6 100.3 C 164.6 100.3 164.6 100.3 164.6 100.3 Z M 164.8 98.0 C 164.9 98.0 164.9 98.0 164.8 98.0 C 164.8 98.0 164.8 98.0 164.8 98.0 Z M 164.9 96.8 C 165.0 96.8 165.0 96.8 164.9 96.8 C 164.9 96.8 164.9 96.8 164.9 96.8 Z M 139.9 112.0 C 139.8 112.0 139.8 112.0 139.9 112.0 C 139.9 112.0 139.9 112.0 139.9 112.0 Z M 137.6 109.5 C 137.5 109.5 137.5 109.5 137.6 109.5 C 137.6 109.5 137.6 109.5 137.6 109.5 Z M 140.4 108.0 C 140.4 107.9 140.4 107.9 140.4 108.0 C 140.4 108.0 140.4 108.0 140.4 108.0 Z M 140.2 114.1 C 140.1 114.1 140.1 114.1 140.2 114.1 C 140.2 114.1 140.2 114.1 140.2 114.1 Z M 149.9 106.3 C 149.9 106.3 149.9 106.3 149.9 106.3 C 149.9 106.3 149.9 106.3 149.9 106.3 Z M 151.5 107.0 C 151.5 107.0 151.5 107.0 151.5 107.0 C 151.5 107.0 151.5 107.0 151.5 107.0 Z M 149.8 109.8 C 149.7 109.8 149.7 109.8 149.8 109.8 C 149.8 109.8 149.8 109.8 149.8 109.8 Z M 152.8 107.7 C 152.8 107.6 152.8 107.6 152.8 107.7 C 152.8 107.7 152.8 107.7 152.8 107.7 Z M 132.6 117.1 C 132.6 117.1 132.6 117.1 132.6 117.1 C 132.6 117.1 132.6 117.1 132.6 117.1 Z M 131.3 114.9 C 131.3 115.0 131.3 115.0 131.3 114.9 C 131.3 114.9 131.3 114.9 131.3 114.9 Z M 149.5 104.5 C 149.7 103.8 150.8 104.7 149.5 104.5 M 145.4 106.8 C 145.4 106.8 145.4 106.8 145.4 106.8 C 145.4 106.8 145.4 106.8 145.4 106.8 Z M 156.5 101.2 C 157.5 101.8 154.4 101.7 156.5 101.2 C 156.5 101.2 156.5 101.2 156.5 101.2 Z M 156.2 106.1 C 156.2 106.0 156.2 106.0 156.2 106.1 C 156.2 106.1 156.2 106.1 156.2 106.1 Z M 157.1 105.1 C 157.2 105.2 157.2 105.2 157.1 105.1 C 157.1 105.1 157.1 105.1 157.1 105.1 Z M 161.9 99.8 C 162.1 99.8 162.1 99.8 161.9 99.8 M 144.5 106.2 C 145.3 106.3 145.2 106.3 144.5 106.2 M 158.0 100.6 C 157.9 100.6 157.9 100.6 158.0 100.6 C 158.0 100.6 158.0 100.6 158.0 100.6 Z M 163.0 98.6 C 163.0 98.7 163.0 98.7 163.0 98.6 C 163.0 98.6 163.0 98.6 163.0 98.6 Z M 141.9 108.3 C 142.5 109.3 141.8 109.3 141.9 108.3 M 133.7 112.6 C 133.8 112.7 133.8 112.7 133.7 112.6 C 133.7 112.6 133.7 112.6 133.7 112.6 Z M 169.3 94.7 C 166.4 94.6 167.2 96.3 167.3 96.3 C 166.4 93.9 165.7 98.2 166.3 98.4 C 166.4 98.8 170.1 101.9 170.5 98.8 C 170.8 98.2 171.4 98.8 171.7 98.7 C 174.4 97.3 169.2 98.4 172.6 96.8 C 173.4 96.8 173.6 99.1 174.9 96.8 C 175.1 96.9 177.7 96.5 176.4 96.1 C 177.9 96.4 178.1 95.0 179.0 94.3 C 180.2 94.4 178.9 96.1 181.7 93.5 C 183.8 94.4 183.0 91.4 185.1 92.5 C 185.9 92.2 185.8 88.7 184.7 91.3 C 184.9 90.9 183.0 90.2 185.8 89.4 C 185.6 89.9 185.6 93.5 189.0 90.2 C 189.7 89.9 190.9 88.5 191.4 88.6 C 189.5 89.9 194.8 88.5 193.9 87.9 C 197.5 86.9 195.0 86.5 197.8 86.4 C 199.7 85.5 196.5 85.4 199.3 85.0 C 201.0 84.0 200.1 85.3 199.9 85.3 C 201.5 84.7 201.8 83.9 202.4 83.7 C 202.8 83.7 203.8 83.9 203.8 83.0 C 204.8 80.9 202.7 80.3 202.8 78.6 C 201.3 78.6 202.7 79.9 201.4 79.3 C 201.2 80.4 201.3 79.3 198.1 81.0 C 198.3 81.2 199.4 81.4 198.6 81.9 C 197.3 82.4 197.1 79.7 195.8 82.3 C 198.5 81.6 192.6 84.7 195.2 84.0 C 192.4 85.7 194.3 84.3 191.9 84.7 C 192.8 86.2 191.0 83.2 190.8 84.8 C 190.3 84.3 187.2 86.1 189.9 85.9 C 186.7 87.9 188.5 86.0 186.9 85.8 C 185.2 86.5 187.9 88.3 186.1 86.9 C 183.6 87.1 186.4 87.9 184.2 87.2 C 185.5 88.1 182.7 87.9 184.0 89.0 C 180.5 90.8 183.7 87.3 181.7 89.5 C 182.5 89.2 181.3 87.4 180.4 89.4 C 182.1 91.3 177.5 88.3 180.0 90.8 C 175.5 93.9 178.6 89.9 175.9 91.2 C 175.2 91.6 177.1 91.8 176.5 92.1 C 172.8 93.4 175.3 91.2 174.2 93.5 C 171.0 95.5 172.6 92.8 170.9 93.5 C 171.1 94.2 170.3 96.1 169.3 94.7 M 172.6 93.9 C 173.1 93.1 173.3 94.2 172.6 93.9 M 165.5 96.5 C 166.0 95.7 166.1 96.8 165.5 96.5 M 175.2 92.1 C 176.0 91.2 175.9 92.8 175.2 92.1 M 193.9 84.0 C 192.7 84.6 194.3 83.4 193.9 84.0 M 168.1 95.1 C 168.9 94.1 168.8 95.8 168.1 95.1 M 167.4 96.9 C 167.5 96.9 167.5 96.9 167.4 96.9 M 195.2 82.0 C 195.3 81.9 195.3 81.9 195.2 82.0 M 190.3 84.3 C 191.3 83.8 189.8 84.9 190.3 84.3 M 192.4 89.2 C 193.5 88.8 191.9 89.8 192.4 89.2 M 197.8 80.6 C 198.7 79.7 198.4 81.0 197.8 80.6 M 201.1 80.3 C 201.8 79.5 201.9 80.5 201.1 80.3 M 172.8 95.9 C 172.8 96.0 172.8 96.0 172.8 95.9 C 172.8 95.9 172.8 95.9 172.8 95.9 Z M 182.4 92.8 C 181.1 92.8 184.0 92.7 182.4 92.8 M 179.2 90.4 C 180.4 91.0 177.8 91.0 179.2 90.4 C 179.2 90.4 179.2 90.4 179.2 90.4 Z M 177.9 91.6 C 177.9 91.7 177.9 91.7 177.9 91.6 C 177.9 91.6 177.9 91.6 177.9 91.6 Z M 183.0 89.2 C 182.9 89.2 182.9 89.2 183.0 89.2 C 183.0 89.2 183.0 89.2 183.0 89.2 Z M 182.0 89.8 C 181.7 90.2 181.3 89.9 182.0 89.8 C 182.0 89.8 182.0 89.8 182.0 89.8 Z M 190.9 89.4 C 190.6 89.8 190.2 89.4 190.9 89.4 C 190.9 89.4 190.9 89.4 190.9 89.4 Z M 180.5 90.9 C 180.9 92.0 179.5 90.6 180.5 90.9 C 180.5 90.9 180.5 90.9 180.5 90.9 Z M 187.1 90.6 C 187.5 90.1 188.5 91.1 187.1 90.6 M 196.3 81.6 C 196.6 81.2 197.7 82.1 196.3 81.6 M 185.4 86.5 C 185.7 86.1 186.8 87.0 185.4 86.5 M 173.0 93.2 C 173.2 93.3 173.2 93.3 173.0 93.2 M 181.0 94.6 C 181.6 93.9 181.6 94.9 181.0 94.6 M 170.7 99.2 C 171.3 98.4 171.3 99.4 170.7 99.2 M 197.0 86.9 C 196.8 86.7 198.1 86.5 197.0 86.9 M 187.4 87.5 C 188.4 87.2 189.6 87.2 187.6 88.1 C 187.4 88.0 187.9 87.5 187.4 87.5 C 187.4 87.5 187.4 87.5 187.4 87.5 Z M 191.9 88.1 C 192.1 88.1 192.1 88.1 191.9 88.1 M 188.7 85.8 C 188.8 85.8 188.8 85.8 188.7 85.8 M 194.2 83.2 C 194.4 83.3 194.4 83.3 194.2 83.2 M 194.8 82.6 C 194.8 82.7 194.8 82.7 194.8 82.6 C 194.8 82.6 194.8 82.6 194.8 82.6 Z M 200.6 79.3 C 200.6 79.4 200.6 79.4 200.6 79.3 C 200.6 79.3 200.6 79.3 200.6 79.3 Z M 192.5 84.2 C 192.5 84.3 192.5 84.3 192.5 84.2 C 192.5 84.2 192.5 84.2 192.5 84.2 Z M 199.3 85.6 C 199.3 85.6 199.3 85.6 199.3 85.6 C 199.3 85.6 199.3 85.6 199.3 85.6 Z M 198.4 85.3 C 198.4 85.3 198.4 85.3 198.4 85.3 C 198.4 85.3 198.4 85.3 198.4 85.3 Z M 169.7 94.4 C 170.2 93.4 171.0 95.9 169.7 94.4 M 201.1 84.0 C 202.2 84.3 199.7 84.8 201.1 84.0 C 201.1 84.0 201.1 84.0 201.1 84.0 Z M 192.3 85.3 C 192.4 85.4 192.4 85.4 192.3 85.3 M 195.2 82.5 C 195.3 82.6 195.3 82.6 195.2 82.5 M 178.8 89.5 C 178.9 89.6 178.9 89.6 178.8 89.5 M 199.5 80.7 C 202.2 79.7 199.0 82.7 199.5 80.7 M 178.0 91.0 C 177.9 91.0 177.9 91.0 178.0 91.0 M 184.7 90.1 C 186.4 89.2 184.4 90.9 184.7 90.1 M 188.5 86.7 C 188.5 86.8 188.5 86.8 188.5 86.7 C 188.5 86.7 188.5 86.7 188.5 86.7 Z M 185.9 88.0 C 184.7 88.7 185.5 87.8 185.9 88.0 C 185.9 88.0 185.9 88.0 185.9 88.0 Z M 171.4 94.8 C 173.1 94.1 169.9 95.9 171.4 94.8 C 171.4 94.8 171.4 94.8 171.4 94.8 Z M 199.4 83.5 C 199.4 83.6 199.4 83.6 199.4 83.5 C 199.4 83.5 199.4 83.5 199.4 83.5 Z M 191.9 83.7 C 191.2 84.3 191.4 83.5 191.9 83.7 C 191.9 83.7 191.9 83.7 191.9 83.7 Z M 201.5 78.9 C 200.9 79.5 201.0 78.8 201.5 78.9 C 201.5 78.9 201.5 78.9 201.5 78.9 Z M 169.4 95.5 C 176.1 94.3 161.2 98.9 169.4 95.5 C 169.4 95.5 169.4 95.5 169.4 95.5 Z M 186.6 86.8 C 186.6 86.9 186.6 86.9 186.6 86.8 C 186.6 86.8 186.6 86.8 186.6 86.8 Z M 175.3 91.4 C 175.3 91.5 175.3 91.5 175.3 91.4 C 175.3 91.4 175.3 91.4 175.3 91.4 Z M 173.9 93.2 C 173.9 93.3 173.9 93.3 173.9 93.2 C 173.9 93.2 173.9 93.2 173.9 93.2 Z M 176.2 96.8 C 176.2 96.9 176.2 96.9 176.2 96.8 C 176.2 96.8 176.2 96.8 176.2 96.8 Z M 176.0 94.7 C 176.0 94.9 176.0 94.9 176.0 94.7 C 176.0 94.7 176.0 94.7 176.0 94.7 Z M 172.5 97.2 C 172.5 97.3 172.5 97.3 172.5 97.2 C 172.5 97.2 172.5 97.2 172.5 97.2 Z M 172.8 97.7 C 172.8 97.8 172.8 97.8 172.8 97.7 C 172.8 97.7 172.8 97.7 172.8 97.7 Z M 195.7 83.6 C 195.7 83.7 195.7 83.7 195.7 83.6 C 195.7 83.6 195.7 83.6 195.7 83.6 Z M 194.4 86.2 C 195.5 85.0 194.4 87.2 194.4 86.2 C 194.4 86.2 194.4 86.2 194.4 86.2 Z M 181.7 91.4 C 182.9 90.5 181.1 92.2 181.7 91.4 C 181.7 91.4 181.7 91.4 181.7 91.4 Z M 184.1 92.8 C 184.1 92.8 184.1 92.8 184.1 92.8 C 184.1 92.8 184.1 92.8 184.1 92.8 Z M 173.4 92.3 C 173.4 92.4 173.4 92.4 173.4 92.3 C 173.4 92.3 173.4 92.3 173.4 92.3 Z M 171.4 94.1 C 171.7 94.9 170.5 94.0 171.4 94.1 M 183.0 87.9 C 183.0 88.0 183.0 88.0 183.0 87.9 C 183.0 87.9 183.0 87.9 183.0 87.9 Z M 191.1 85.6 C 191.1 85.7 191.1 85.7 191.1 85.6 C 191.1 85.6 191.1 85.6 191.1 85.6 Z M 198.2 81.5 C 198.2 81.6 198.2 81.6 198.2 81.5 C 198.2 81.5 198.2 81.5 198.2 81.5 Z M 187.7 85.8 C 187.7 85.9 187.7 85.9 187.7 85.8 C 187.7 85.8 187.7 85.8 187.7 85.8 Z M 184.5 88.2 C 184.5 88.3 184.5 88.3 184.5 88.2 C 184.5 88.2 184.5 88.2 184.5 88.2 Z M 200.4 81.9 C 200.4 81.9 200.4 81.9 200.4 81.9 C 200.4 81.9 200.4 81.9 200.4 81.9 Z M 188.4 85.3 C 188.4 85.3 188.4 85.3 188.4 85.3 C 188.4 85.3 188.4 85.3 188.4 85.3 Z M 191.8 86.8 C 191.8 86.9 191.8 86.9 191.8 86.8 C 191.8 86.8 191.8 86.8 191.8 86.8 Z M 171.2 92.7 C 171.2 92.8 171.2 92.8 171.2 92.7 C 171.2 92.7 171.2 92.7 171.2 92.7 Z M 200.0 80.7 C 199.9 80.8 199.9 80.8 200.0 80.7 C 200.0 80.7 200.0 80.7 200.0 80.7 Z M 200.1 79.8 C 200.1 79.9 200.1 79.9 200.1 79.8 C 200.1 79.8 200.1 79.8 200.1 79.8 Z M 196.7 86.2 C 193.8 87.0 198.9 84.9 196.6 84.9 C 200.3 82.9 197.2 85.9 196.7 86.2 C 196.7 86.2 196.7 86.2 196.7 86.2 Z M 203.4 77.8 C 202.5 79.6 203.0 80.7 204.2 81.5 C 205.2 81.7 204.1 79.5 205.0 81.4 C 203.5 82.5 207.1 83.8 205.9 81.4 C 207.9 80.0 207.0 82.8 207.8 81.2 C 210.1 79.8 209.2 81.1 210.9 80.1 C 211.4 78.3 212.3 80.2 212.2 78.8 C 211.9 80.6 213.9 77.5 214.3 78.1 C 213.0 79.7 220.5 75.1 216.0 76.8 C 217.5 75.3 217.7 76.6 218.3 76.4 C 218.7 75.3 221.5 75.7 222.2 74.4 C 221.9 74.3 221.4 74.5 221.1 74.3 C 220.5 74.0 222.3 73.8 222.2 73.9 C 222.7 73.3 225.2 71.1 222.8 73.9 C 223.0 74.7 225.1 72.5 225.3 73.1 C 228.0 71.9 225.4 71.5 227.0 71.9 C 228.9 71.0 230.2 70.4 230.1 70.2 C 231.3 69.8 231.9 70.5 232.6 69.2 C 235.6 69.6 232.9 65.7 235.1 68.1 C 235.4 67.1 236.9 68.6 236.0 67.0 C 235.6 68.1 240.6 66.4 237.9 66.2 C 238.3 65.5 242.3 66.3 241.0 64.7 C 241.4 62.9 240.6 61.7 237.8 61.6 C 238.5 62.5 234.8 61.8 237.4 62.6 C 239.6 62.3 234.1 65.0 234.9 63.8 C 234.3 61.6 232.8 66.4 231.0 65.5 C 232.3 65.8 228.0 68.4 228.6 66.3 C 227.7 66.5 227.8 67.4 226.5 66.9 C 229.2 65.8 226.2 69.0 225.9 68.0 C 226.1 67.2 221.8 68.7 222.6 69.4 C 225.1 70.8 221.4 69.4 221.1 70.6 C 219.1 72.1 220.6 68.6 219.6 71.0 C 219.1 70.9 216.1 72.4 217.8 71.0 C 218.6 70.9 217.1 74.2 215.9 72.5 C 218.6 70.0 212.0 73.7 213.3 73.8 C 218.7 72.4 208.7 77.4 212.1 74.6 C 209.4 74.6 212.5 73.9 210.0 75.6 C 210.6 76.0 208.8 77.5 208.7 76.2 C 207.5 74.7 209.1 78.8 206.3 77.3 C 205.6 76.4 203.4 79.6 204.0 77.9 C 204.1 77.7 203.5 77.8 203.4 77.8 M 204.5 77.5 C 204.3 78.1 203.7 77.4 204.5 77.5 M 204.3 78.1 C 204.2 78.1 204.2 78.1 204.3 78.1 C 204.3 78.1 204.3 78.1 204.3 78.1 Z M 209.6 75.9 C 209.6 75.8 209.6 75.8 209.6 75.9 C 209.6 75.9 209.6 75.9 209.6 75.9 Z M 215.8 78.1 C 215.8 78.1 215.8 78.1 215.8 78.1 C 215.8 78.1 215.8 78.1 215.8 78.1 Z M 213.2 74.3 C 213.1 74.3 213.1 74.3 213.2 74.3 C 213.2 74.3 213.2 74.3 213.2 74.3 Z M 207.9 77.0 C 207.9 77.0 207.9 77.0 207.9 77.0 C 207.9 77.0 207.9 77.0 207.9 77.0 Z M 212.5 73.8 C 213.1 74.3 211.1 73.9 212.6 73.7 C 212.6 73.7 212.4 73.8 212.5 73.8 M 217.0 71.4 C 217.0 71.4 217.0 71.4 217.0 71.4 M 229.4 71.6 C 229.5 71.6 229.5 71.6 229.4 71.6 M 227.8 66.1 C 227.9 66.1 227.9 66.1 227.8 66.1 M 221.8 69.8 C 223.2 69.1 222.3 70.0 221.8 69.8 M 231.6 64.7 C 229.7 65.1 233.3 63.4 231.6 64.7 M 233.2 63.5 C 233.3 63.5 233.3 63.5 233.2 63.5 M 225.4 67.5 C 225.4 67.6 225.4 67.6 225.4 67.5 C 225.4 67.5 225.4 67.5 225.4 67.5 Z M 221.1 69.8 C 219.1 70.4 222.7 68.4 221.1 69.8 M 210.0 74.9 C 210.8 74.1 210.3 75.8 210.0 74.9 M 208.1 76.3 C 208.1 76.3 208.1 76.3 208.1 76.3 C 208.1 76.3 208.1 76.3 208.1 76.3 Z M 228.8 66.0 C 228.8 66.0 228.8 66.0 228.8 66.0 C 228.8 66.0 228.8 66.0 228.8 66.0 Z M 230.8 64.9 C 230.7 65.0 230.7 65.0 230.8 64.9 C 230.8 64.9 230.8 64.9 230.8 64.9 Z M 236.4 68.0 C 236.3 68.0 236.3 68.0 236.4 68.0 C 236.4 68.0 236.4 68.0 236.4 68.0 Z M 210.5 77.5 C 209.0 77.8 211.2 75.3 211.5 76.6 C 211.8 77.0 210.6 77.3 210.5 77.5 M 220.5 71.9 C 221.6 73.4 218.1 70.4 220.5 71.9 M 233.9 64.4 C 236.2 65.7 231.6 63.9 233.9 64.4 M 236.5 62.8 C 237.5 62.8 231.5 65.4 235.4 62.9 C 235.7 62.4 236.1 62.7 236.5 62.8 M 217.4 72.1 C 218.2 72.8 215.1 72.8 217.4 72.1 M 227.1 70.7 C 227.4 69.8 228.9 68.5 228.6 69.9 C 229.2 71.1 226.5 71.6 227.1 70.7 M 205.3 78.2 C 205.8 76.3 205.9 79.5 205.3 78.2 M 210.7 75.8 C 210.7 75.8 210.7 75.8 210.7 75.8 C 210.7 75.8 210.7 75.8 210.7 75.8 Z M 212.7 74.6 C 212.8 74.7 212.8 74.7 212.7 74.6 M 205.6 76.6 C 205.8 76.7 205.8 76.7 205.6 76.6 M 226.3 69.3 C 226.5 69.3 226.5 69.3 226.3 69.3 M 221.6 70.4 C 224.3 70.8 220.6 71.2 221.6 70.4 M 217.9 75.5 C 218.8 75.9 216.6 76.2 217.9 75.5 M 224.7 68.3 C 226.8 68.9 223.3 70.5 224.7 68.3 M 220.5 70.7 C 220.6 70.7 220.6 70.7 220.5 70.7 C 220.5 70.7 220.5 70.7 220.5 70.7 Z M 227.7 70.6 C 227.6 70.7 227.6 70.7 227.7 70.6 C 227.7 70.6 227.7 70.6 227.7 70.6 Z M 228.2 70.3 C 228.2 70.3 228.2 70.3 228.2 70.3 C 228.2 70.3 228.2 70.3 228.2 70.3 Z M 226.4 67.2 C 226.3 67.3 226.3 67.3 226.4 67.2 C 226.4 67.2 226.4 67.2 226.4 67.2 Z M 209.7 80.0 C 211.2 79.4 208.7 80.8 209.7 80.0 C 209.7 80.0 209.7 80.0 209.7 80.0 Z M 214.2 73.0 C 217.1 72.9 213.0 74.8 214.2 73.0 C 214.2 73.0 214.2 73.0 214.2 73.0 Z M 217.8 73.4 C 217.8 73.5 217.8 73.5 217.8 73.4 C 217.8 73.4 217.8 73.4 217.8 73.4 Z M 223.4 67.9 C 223.4 67.9 223.4 67.9 223.4 67.9 C 223.4 67.9 223.4 67.9 223.4 67.9 Z M 210.5 79.8 C 210.5 79.9 210.5 79.9 210.5 79.8 C 210.5 79.8 210.5 79.8 210.5 79.8 Z M 230.8 66.0 C 230.9 66.1 230.9 66.1 230.8 66.0 C 230.8 66.0 230.8 66.0 230.8 66.0 Z M 223.8 72.7 C 224.1 71.9 224.2 73.1 223.8 72.7 C 223.8 72.7 223.8 72.7 223.8 72.7 Z M 226.0 71.7 C 226.1 71.6 226.1 71.6 226.0 71.7 C 226.0 71.7 226.0 71.7 226.0 71.7 Z M 233.6 63.1 C 233.7 63.1 233.7 63.1 233.6 63.1 C 233.6 63.1 233.6 63.1 233.6 63.1 Z M 232.1 70.3 C 232.2 70.3 232.2 70.3 232.1 70.3 C 232.1 70.3 232.1 70.3 232.1 70.3 Z M 233.2 67.9 C 233.2 67.9 233.2 67.9 233.2 67.9 C 233.2 67.9 233.2 67.9 233.2 67.9 Z M 226.2 67.8 C 228.2 66.5 225.9 68.6 226.2 67.8 C 226.2 67.8 226.2 67.8 226.2 67.8 Z M 238.3 64.9 C 238.4 64.9 238.4 64.9 238.3 64.9 C 238.3 64.9 238.3 64.9 238.3 64.9 Z M 238.5 62.5 C 238.6 62.6 238.6 62.6 238.5 62.5 C 238.5 62.5 238.5 62.5 238.5 62.5 Z M 238.6 61.3 C 238.7 61.3 238.7 61.3 238.6 61.3 C 238.6 61.3 238.6 61.3 238.6 61.3 Z M 213.6 76.6 C 213.5 76.5 213.5 76.5 213.6 76.6 C 213.6 76.6 213.6 76.6 213.6 76.6 Z M 211.3 74.0 C 211.3 74.0 211.3 74.0 211.3 74.0 C 211.3 74.0 211.3 74.0 211.3 74.0 Z M 214.2 72.5 C 214.1 72.5 214.1 72.5 214.2 72.5 C 214.2 72.5 214.2 72.5 214.2 72.5 Z M 213.9 78.6 C 213.9 78.6 213.9 78.6 213.9 78.6 C 213.9 78.6 213.9 78.6 213.9 78.6 Z M 223.7 70.8 C 223.6 70.8 223.6 70.8 223.7 70.8 C 223.7 70.8 223.7 70.8 223.7 70.8 Z M 225.3 71.5 C 225.2 71.5 225.2 71.5 225.3 71.5 C 225.3 71.5 225.3 71.5 225.3 71.5 Z M 223.5 74.3 C 223.5 74.3 223.5 74.3 223.5 74.3 C 223.5 74.3 223.5 74.3 223.5 74.3 Z M 226.6 72.2 C 226.5 72.2 226.5 72.2 226.6 72.2 C 226.6 72.2 226.6 72.2 226.6 72.2 Z M 206.3 81.6 C 206.3 81.6 206.3 81.6 206.3 81.6 C 206.3 81.6 206.3 81.6 206.3 81.6 Z M 205.0 79.4 C 205.0 79.5 205.0 79.5 205.0 79.4 C 205.0 79.4 205.0 79.4 205.0 79.4 Z M 223.2 69.0 C 223.5 68.3 224.5 69.2 223.2 69.0 M 219.2 71.3 C 219.2 71.4 219.2 71.4 219.2 71.3 C 219.2 71.3 219.2 71.3 219.2 71.3 Z M 230.3 65.7 C 231.2 66.4 228.1 66.2 230.3 65.7 C 230.3 65.7 230.3 65.7 230.3 65.7 Z M 229.9 70.6 C 229.9 70.6 229.9 70.6 229.9 70.6 C 229.9 70.6 229.9 70.6 229.9 70.6 Z M 230.8 69.7 C 230.9 69.7 230.9 69.7 230.8 69.7 C 230.8 69.7 230.8 69.7 230.8 69.7 Z M 235.6 64.3 C 235.8 64.3 235.8 64.3 235.6 64.3 M 218.3 70.8 C 219.1 70.9 218.9 70.8 218.3 70.8 M 231.7 65.1 C 231.6 65.1 231.6 65.1 231.7 65.1 C 231.7 65.1 231.7 65.1 231.7 65.1 Z M 236.7 63.2 C 236.7 63.2 236.7 63.2 236.7 63.2 C 236.7 63.2 236.7 63.2 236.7 63.2 Z M 215.6 72.8 C 216.2 73.8 215.5 73.9 215.6 72.8 M 207.4 77.1 C 207.5 77.2 207.5 77.2 207.4 77.1 C 207.4 77.1 207.4 77.1 207.4 77.1 Z M 243.7 59.9 C 238.0 60.9 240.4 62.8 240.4 63.3 C 240.0 64.3 240.9 64.4 242.1 64.4 C 243.9 65.4 242.9 62.0 244.4 63.2 C 246.7 64.6 245.1 60.7 246.7 62.6 C 246.7 63.2 248.5 61.8 248.2 61.8 C 249.7 62.3 250.2 59.8 250.1 59.6 C 250.9 59.6 251.9 61.5 253.2 59.1 C 254.5 57.8 256.1 59.4 255.1 58.3 C 256.9 59.2 255.7 57.5 257.0 57.4 C 258.2 57.9 256.5 56.2 258.7 57.0 C 258.7 55.5 258.4 58.2 261.8 55.4 C 259.9 56.2 263.2 53.6 262.8 54.8 C 261.9 56.3 264.5 53.6 266.5 53.2 C 266.7 52.6 268.3 50.4 268.5 51.8 C 271.0 52.4 270.0 50.1 271.3 50.9 C 272.1 51.1 271.9 49.9 272.3 49.8 C 273.4 50.4 273.7 49.5 276.0 48.7 C 281.2 46.7 275.7 46.0 277.4 44.8 C 277.5 44.3 273.4 42.7 275.6 44.4 C 274.9 43.9 272.0 48.1 272.8 44.8 C 271.7 46.5 272.7 43.6 270.1 46.3 C 275.2 45.9 265.7 49.2 269.3 46.5 C 268.4 46.3 266.8 47.2 268.2 47.0 C 269.4 48.3 264.9 47.7 267.5 48.8 C 264.7 49.5 266.2 50.9 264.9 50.0 C 263.3 48.3 265.3 50.5 263.7 50.5 C 260.6 52.0 261.8 48.6 260.7 51.0 C 257.2 51.4 260.5 52.2 259.6 52.9 C 259.9 54.4 256.0 53.3 258.2 52.0 C 257.3 53.4 257.7 51.5 256.7 53.0 C 258.3 53.8 254.3 52.5 255.2 53.3 C 254.1 54.3 255.1 54.7 254.8 54.9 C 252.9 55.8 252.9 54.3 253.0 55.4 C 252.8 56.1 251.1 54.9 251.1 55.4 C 253.0 54.6 250.2 57.5 249.7 56.9 C 250.8 56.3 248.3 55.5 248.0 56.9 C 250.3 59.2 246.0 56.9 245.7 58.3 C 247.2 59.5 241.6 60.5 243.2 58.9 C 243.1 59.1 243.7 59.9 243.7 59.9 M 250.7 55.9 C 252.3 55.3 249.1 57.0 250.7 55.9 M 250.4 55.5 C 251.3 55.7 248.8 55.8 250.4 55.3 C 250.4 55.3 250.3 55.5 250.4 55.5 M 256.8 52.4 C 256.8 52.9 255.8 52.6 256.8 52.4 M 258.5 52.8 C 259.7 52.7 257.1 53.5 258.5 52.8 M 272.5 45.6 C 272.1 48.7 270.3 45.1 272.5 45.6 M 262.9 49.7 C 261.3 50.8 263.0 48.4 262.9 49.7 M 262.6 50.5 C 262.0 51.3 262.2 50.1 262.6 50.5 M 269.8 46.9 C 269.9 46.9 269.9 46.9 269.8 46.9 C 269.8 46.9 269.8 46.9 269.8 46.9 Z M 274.0 45.0 C 274.0 44.9 274.0 44.9 274.0 45.0 C 274.0 45.0 274.0 45.0 274.0 45.0 Z M 265.8 49.1 C 264.2 49.2 267.8 47.9 265.8 49.1 C 265.8 49.1 265.8 49.1 265.8 49.1 Z M 273.7 49.5 C 273.6 49.5 273.6 49.5 273.7 49.5 C 273.7 49.5 273.7 49.5 273.7 49.5 Z M 249.9 57.5 C 249.9 57.6 249.9 57.6 249.9 57.5 C 249.9 57.5 249.9 57.5 249.9 57.5 Z M 244.8 59.0 C 245.0 59.3 243.8 59.1 244.8 59.0 C 244.8 59.0 244.8 59.0 244.8 59.0 Z M 242.2 63.5 C 242.1 63.5 242.1 63.5 242.2 63.5 C 242.2 63.5 242.2 63.5 242.2 63.5 Z M 248.9 59.5 C 248.9 59.6 248.9 59.6 248.9 59.5 C 248.9 59.5 248.9 59.5 248.9 59.5 Z M 248.8 57.5 C 247.4 56.6 250.8 57.0 248.8 57.5 C 248.8 57.5 248.8 57.5 248.8 57.5 Z M 265.8 53.1 C 265.5 52.5 266.9 52.8 265.8 53.1 C 265.8 53.1 265.8 53.1 265.8 53.1 Z M 258.9 53.2 C 258.9 52.8 259.7 53.0 258.9 53.2 C 258.9 53.2 258.9 53.2 258.9 53.2 Z M 255.4 52.7 C 255.5 52.3 256.2 52.5 255.4 52.7 C 255.4 52.7 255.4 52.7 255.4 52.7 Z M 244.7 58.6 C 244.7 58.5 244.7 58.5 244.7 58.6 C 244.7 58.6 244.7 58.6 244.7 58.6 Z M 246.8 58.7 C 245.1 58.1 249.0 58.5 246.8 58.7 C 246.8 58.7 246.8 58.7 246.8 58.7 Z M 245.0 60.0 C 245.8 60.2 243.3 60.6 245.0 60.0 M 247.0 61.3 C 248.2 60.1 246.7 64.1 247.0 61.3 C 247.0 61.3 247.0 61.3 247.0 61.3 Z M 254.6 58.3 C 254.7 58.3 254.7 58.3 254.6 58.3 C 254.6 58.3 254.6 58.3 254.6 58.3 Z M 252.2 55.1 C 253.4 54.6 251.5 55.8 252.2 55.1 C 252.2 55.1 252.2 55.1 252.2 55.1 Z M 241.0 60.2 C 242.3 59.6 240.3 60.9 241.0 60.2 C 241.0 60.2 241.0 60.2 241.0 60.2 Z M 258.3 55.0 C 260.3 53.8 257.3 56.3 258.3 55.0 C 258.3 55.0 258.3 55.0 258.3 55.0 Z M 265.3 50.0 C 265.4 50.0 265.4 50.0 265.3 50.0 C 265.3 50.0 265.3 50.0 265.3 50.0 Z M 266.5 48.8 C 266.6 48.8 266.6 48.8 266.5 48.8 C 266.5 48.8 266.5 48.8 266.5 48.8 Z M 273.0 47.2 C 273.1 47.2 273.1 47.2 273.0 47.2 C 273.0 47.2 273.0 47.2 273.0 47.2 Z M 267.5 47.6 C 267.6 47.6 267.6 47.6 267.5 47.6 C 267.5 47.6 267.5 47.6 267.5 47.6 Z M 271.8 45.9 C 271.9 45.9 271.9 45.9 271.8 45.9 C 271.8 45.9 271.8 45.9 271.8 45.9 Z M 270.7 45.2 C 270.8 45.2 270.8 45.2 270.7 45.2 C 270.7 45.2 270.7 45.2 270.7 45.2 Z M 264.1 54.8 C 264.2 54.8 264.2 54.8 264.1 54.8 C 264.1 54.8 264.1 54.8 264.1 54.8 Z M 246.7 57.1 C 246.9 57.2 246.9 57.2 246.7 57.1 C 246.7 57.1 246.7 57.1 246.7 57.1 Z M 271.7 46.5 C 271.7 46.5 271.7 46.5 271.7 46.5 C 271.7 46.5 271.7 46.5 271.7 46.5 Z M 262.1 52.3 C 262.6 53.3 260.6 51.4 262.3 52.1 C 262.3 52.2 261.9 52.2 262.1 52.3 M 264.2 53.4 C 264.2 53.4 264.2 53.4 264.2 53.4 C 264.2 53.4 264.2 53.4 264.2 53.4 Z M 260.0 56.2 C 260.0 56.2 260.0 56.2 260.0 56.2 C 260.0 56.2 260.0 56.2 260.0 56.2 Z M 266.7 47.7 C 266.2 47.3 268.0 47.6 266.5 47.8 M 273.9 48.9 C 273.5 48.4 275.3 48.8 273.8 49.0 M 239.7 61.3 C 239.7 61.8 238.7 61.4 239.7 61.3 M 259.2 57.2 C 259.3 57.7 258.3 57.4 259.2 57.2 M 260.7 54.9 C 260.3 54.4 262.1 54.8 260.6 55.0 M 270.8 50.4 C 270.9 50.4 270.9 50.4 270.8 50.4 C 270.8 50.4 270.8 50.4 270.8 50.4 Z M 254.1 54.3 C 254.2 54.3 254.2 54.3 254.1 54.3 C 254.1 54.3 254.1 54.3 254.1 54.3 Z M 260.3 52.8 C 259.2 52.4 261.5 52.9 260.3 52.8 M 253.2 56.5 C 251.6 56.0 255.1 55.9 253.2 56.5 M 276.4 48.0 C 274.6 47.4 277.6 48.2 276.4 48.0 M 268.9 48.0 C 267.1 47.5 270.1 48.2 268.9 48.0 M 255.5 54.3 C 255.1 53.7 256.9 54.0 255.5 54.3 M 242.5 59.8 C 241.3 60.2 243.9 58.6 242.5 59.8 M 267.8 51.9 C 267.9 51.9 267.9 51.9 267.8 51.9 C 267.8 51.9 267.8 51.9 267.8 51.9 Z M 248.5 62.4 C 248.6 62.4 248.6 62.4 248.5 62.4 C 248.5 62.4 248.5 62.4 248.5 62.4 Z M 276.1 43.4 C 276.2 43.4 276.2 43.4 276.1 43.4 C 276.1 43.4 276.1 43.4 276.1 43.4 Z M 268.4 48.9 C 268.5 49.0 268.5 49.0 268.4 48.9 C 268.4 48.9 268.4 48.9 268.4 48.9 Z M 273.7 44.4 C 273.8 44.4 273.8 44.4 273.7 44.4 C 273.7 44.4 273.7 44.4 273.7 44.4 Z M 265.0 51.7 C 265.0 51.7 265.0 51.7 265.0 51.7 C 265.0 51.7 265.0 51.7 265.0 51.7 Z M 262.8 49.1 C 262.8 49.1 262.8 49.1 262.8 49.1 C 262.8 49.1 262.8 49.1 262.8 49.1 Z M 259.2 52.4 C 259.2 52.4 259.2 52.4 259.2 52.4 C 259.2 52.4 259.2 52.4 259.2 52.4 Z M 264.8 48.4 C 267.2 47.0 264.0 50.0 264.8 48.4 C 264.8 48.4 264.8 48.4 264.8 48.4 Z M 261.9 53.5 C 261.9 53.5 261.9 53.5 261.9 53.5 C 261.9 53.5 261.9 53.5 261.9 53.5 Z M 260.5 51.5 C 261.7 49.9 262.1 52.6 260.5 51.5 M 253.2 54.2 C 253.4 53.5 253.8 54.8 253.2 54.2 M 252.3 59.4 C 252.3 59.5 252.3 59.5 252.3 59.4 C 252.3 59.4 252.3 59.4 252.3 59.4 Z M 252.9 58.8 C 253.0 58.8 253.0 58.8 252.9 58.8 C 252.9 58.8 252.9 58.8 252.9 58.8 Z M 251.4 54.8 C 251.4 54.8 251.4 54.8 251.4 54.8 C 251.4 54.8 251.4 54.8 251.4 54.8 Z M 253.5 59.9 C 253.6 59.8 253.6 59.8 253.5 59.9 C 253.5 59.9 253.5 59.9 253.5 59.9 Z M 261.9 49.6 C 261.9 49.6 261.9 49.6 261.9 49.6 C 261.9 49.6 261.9 49.6 261.9 49.6 Z M 274.7 43.4 C 274.8 43.4 274.8 43.4 274.7 43.4 C 274.7 43.4 274.7 43.4 274.7 43.4 Z M 244.4 62.7 C 244.5 62.7 244.5 62.7 244.4 62.7 C 244.4 62.7 244.4 62.7 244.4 62.7 Z M 263.8 50.2 C 263.8 50.2 263.8 50.2 263.8 50.2 C 263.8 50.2 263.8 50.2 263.8 50.2 Z M 250.4 60.1 C 250.4 60.2 250.4 60.2 250.4 60.1 C 250.4 60.1 250.4 60.1 250.4 60.1 Z M 262.8 50.3 C 262.8 50.3 262.8 50.3 262.8 50.3 C 262.8 50.3 262.8 50.3 262.8 50.3 Z M 267.5 52.3 C 267.6 52.3 267.6 52.3 267.5 52.3 C 267.5 52.3 267.5 52.3 267.5 52.3 Z M 270.6 51.6 C 270.6 51.6 270.6 51.6 270.6 51.6 C 270.6 51.6 270.6 51.6 270.6 51.6 Z M 266.3 50.3 C 266.4 50.3 266.4 50.3 266.3 50.3 C 266.3 50.3 266.3 50.3 266.3 50.3 Z M 248.8 59.3 C 243.3 60.7 252.6 56.9 248.8 59.3 M 267.3 50.2 C 263.6 51.6 269.6 47.6 267.3 50.2 C 267.5 49.7 267.3 50.1 267.3 50.2 M 279.8 41.4 C 277.0 41.3 277.8 43.0 277.8 43.1 C 277.0 40.7 276.3 45.0 276.9 45.2 C 277.0 45.6 280.7 48.7 281.1 45.5 C 281.4 45.0 282.0 45.6 282.3 45.5 C 285.0 44.1 279.8 45.2 283.2 43.5 C 283.9 43.6 284.2 45.8 285.5 43.6 C 285.7 43.7 288.3 43.3 287.0 42.8 C 288.5 43.2 288.7 41.8 289.6 41.1 C 290.8 41.2 289.5 42.9 292.3 40.2 C 294.4 41.2 293.6 38.2 295.7 39.3 C 296.5 39.0 296.4 35.5 295.3 38.0 C 295.5 37.7 293.6 36.9 296.4 36.2 C 296.2 36.7 296.2 40.3 299.6 37.0 C 300.3 36.7 301.5 35.2 302.0 35.4 C 300.1 36.7 305.4 35.3 304.5 34.7 C 308.0 33.7 305.6 33.3 308.4 33.1 C 310.3 32.2 307.1 32.1 309.8 31.8 C 311.6 30.7 310.7 32.1 310.5 32.1 C 312.1 31.5 312.4 30.7 313.0 30.5 C 313.4 30.4 314.4 30.7 314.4 29.8 C 315.4 27.7 313.3 27.1 313.4 25.4 C 311.9 25.4 313.3 26.7 312.0 26.1 C 311.8 27.2 311.9 26.1 308.7 27.8 C 308.9 28.0 310.0 28.2 309.2 28.6 C 307.9 29.2 307.7 26.5 306.4 29.1 C 309.1 28.4 303.2 31.5 305.8 30.8 C 303.0 32.5 304.9 31.0 302.5 31.5 C 303.4 33.0 301.6 30.0 301.4 31.6 C 300.9 31.0 297.8 32.9 300.5 32.7 C 297.3 34.7 299.1 32.8 297.5 32.6 C 295.8 33.3 298.5 35.1 296.7 33.7 C 294.2 33.9 297.0 34.7 294.8 34.0 C 296.1 34.9 293.3 34.7 294.6 35.8 C 291.1 37.6 294.3 34.1 292.3 36.3 C 293.1 35.9 291.9 34.2 291.0 36.1 C 292.7 38.0 288.0 35.1 290.6 37.5 C 286.1 40.7 289.2 36.7 286.5 38.0 C 285.8 38.3 287.7 38.6 287.1 38.9 C 283.4 40.2 285.9 38.0 284.8 40.3 C 281.6 42.3 283.2 39.6 281.5 40.3 C 281.7 41.0 280.9 42.8 279.8 41.4 M 283.2 40.7 C 283.7 39.9 283.9 41.0 283.2 40.7 M 276.1 43.3 C 276.5 42.5 276.7 43.6 276.1 43.3 M 285.8 38.9 C 286.5 38.0 286.5 39.5 285.8 38.9 M 304.5 30.8 C 303.2 31.4 304.9 30.1 304.5 30.8 M 278.7 41.9 C 279.5 40.9 279.4 42.6 278.7 41.9 M 278.0 43.6 C 278.1 43.6 278.1 43.6 278.0 43.6 M 305.8 28.7 C 305.8 28.7 305.8 28.7 305.8 28.7 M 300.8 31.1 C 301.9 30.6 300.4 31.7 300.8 31.1 M 303.0 36.0 C 304.1 35.5 302.5 36.6 303.0 36.0 M 308.4 27.4 C 309.3 26.5 309.0 27.8 308.4 27.4 M 311.7 27.1 C 312.4 26.2 312.5 27.3 311.7 27.1 M 283.4 42.7 C 283.4 42.7 283.4 42.7 283.4 42.7 C 283.4 42.7 283.4 42.7 283.4 42.7 Z M 293.0 39.5 C 291.7 39.6 294.6 39.5 293.0 39.5 M 289.8 37.2 C 291.0 37.8 288.4 37.8 289.8 37.2 C 289.8 37.2 289.8 37.2 289.8 37.2 Z M 288.5 38.4 C 288.5 38.4 288.5 38.4 288.5 38.4 C 288.5 38.4 288.5 38.4 288.5 38.4 Z M 293.6 36.0 C 293.5 36.0 293.5 36.0 293.6 36.0 C 293.6 36.0 293.6 36.0 293.6 36.0 Z M 292.6 36.6 C 292.3 37.0 291.9 36.7 292.6 36.6 C 292.6 36.6 292.6 36.6 292.6 36.6 Z M 301.5 36.1 C 301.2 36.6 300.8 36.2 301.5 36.1 C 301.5 36.1 301.5 36.1 301.5 36.1 Z M 291.1 37.7 C 291.5 38.7 290.1 37.4 291.1 37.7 C 291.1 37.7 291.1 37.7 291.1 37.7 Z M 297.7 37.4 C 298.1 36.9 299.1 37.9 297.7 37.4 M 306.9 28.4 C 307.2 27.9 308.3 28.9 306.9 28.4 M 296.0 33.3 C 296.3 32.8 297.4 33.8 296.0 33.3 M 283.6 40.0 C 283.8 40.0 283.8 40.0 283.6 40.0 M 291.6 41.4 C 292.2 40.7 292.2 41.6 291.6 41.4 M 281.3 45.9 C 281.9 45.2 281.9 46.2 281.3 45.9 M 307.6 33.7 C 307.4 33.4 308.7 33.3 307.6 33.7 M 298.0 34.3 C 299.0 33.9 300.2 34.0 298.2 34.9 C 298.0 34.7 298.5 34.3 298.0 34.3 C 298.0 34.3 298.0 34.3 298.0 34.3 Z M 302.5 34.9 C 302.7 34.9 302.7 34.9 302.5 34.9 M 299.2 32.6 C 299.4 32.6 299.4 32.6 299.2 32.6 M 304.8 30.0 C 305.0 30.1 305.0 30.1 304.8 30.0 M 305.4 29.4 C 305.4 29.4 305.4 29.4 305.4 29.4 C 305.4 29.4 305.4 29.4 305.4 29.4 Z M 311.2 26.1 C 311.2 26.1 311.2 26.1 311.2 26.1 C 311.2 26.1 311.2 26.1 311.2 26.1 Z M 303.1 31.0 C 303.1 31.0 303.1 31.0 303.1 31.0 C 303.1 31.0 303.1 31.0 303.1 31.0 Z M 309.9 32.3 C 309.9 32.4 309.9 32.4 309.9 32.3 C 309.9 32.3 309.9 32.3 309.9 32.3 Z M 309.0 32.0 C 309.0 32.1 309.0 32.1 309.0 32.0 C 309.0 32.0 309.0 32.0 309.0 32.0 Z M 280.3 41.2 C 280.8 40.1 281.6 42.7 280.3 41.2 M 311.7 30.8 C 312.8 31.0 310.3 31.6 311.7 30.8 C 311.7 30.8 311.7 30.8 311.7 30.8 Z M 302.8 32.1 C 303.0 32.2 303.0 32.2 302.8 32.1 M 305.8 29.3 C 305.9 29.4 305.9 29.4 305.8 29.3 M 289.4 36.3 C 289.5 36.4 289.5 36.4 289.4 36.3 M 310.1 27.5 C 312.8 26.5 309.6 29.4 310.1 27.5 M 288.6 37.8 C 288.5 37.7 288.5 37.7 288.6 37.8 M 295.3 36.8 C 297.0 36.0 294.9 37.7 295.3 36.8 M 299.1 33.5 C 299.1 33.6 299.1 33.6 299.1 33.5 C 299.1 33.5 299.1 33.5 299.1 33.5 Z M 296.5 34.7 C 295.3 35.5 296.1 34.6 296.5 34.7 C 296.5 34.7 296.5 34.7 296.5 34.7 Z M 282.0 41.5 C 283.7 40.9 280.5 42.7 282.0 41.5 C 282.0 41.5 282.0 41.5 282.0 41.5 Z M 310.0 30.3 C 310.0 30.4 310.0 30.4 310.0 30.3 C 310.0 30.3 310.0 30.3 310.0 30.3 Z M 302.5 30.4 C 301.8 31.1 302.0 30.3 302.5 30.4 C 302.5 30.4 302.5 30.4 302.5 30.4 Z M 312.1 25.7 C 311.5 26.3 311.6 25.5 312.1 25.7 C 312.1 25.7 312.1 25.7 312.1 25.7 Z M 279.9 42.3 C 286.7 41.1 271.8 45.7 279.9 42.3 C 279.9 42.3 279.9 42.3 279.9 42.3 Z M 297.2 33.6 C 297.2 33.6 297.2 33.6 297.2 33.6 C 297.2 33.6 297.2 33.6 297.2 33.6 Z M 285.9 38.2 C 285.9 38.3 285.9 38.3 285.9 38.2 C 285.9 38.2 285.9 38.2 285.9 38.2 Z M 284.5 40.0 C 284.5 40.1 284.5 40.1 284.5 40.0 C 284.5 40.0 284.5 40.0 284.5 40.0 Z M 286.8 43.6 C 286.8 43.6 286.8 43.6 286.8 43.6 C 286.8 43.6 286.8 43.6 286.8 43.6 Z M 286.6 41.5 C 286.6 41.7 286.6 41.7 286.6 41.5 C 286.6 41.5 286.6 41.5 286.6 41.5 Z M 283.1 44.0 C 283.1 44.1 283.1 44.1 283.1 44.0 C 283.1 44.0 283.1 44.0 283.1 44.0 Z M 283.4 44.5 C 283.4 44.5 283.4 44.5 283.4 44.5 C 283.4 44.5 283.4 44.5 283.4 44.5 Z M 306.3 30.4 C 306.3 30.5 306.3 30.5 306.3 30.4 C 306.3 30.4 306.3 30.4 306.3 30.4 Z M 305.0 33.0 C 306.1 31.8 305.0 34.0 305.0 33.0 C 305.0 33.0 305.0 33.0 305.0 33.0 Z M 292.3 38.1 C 293.5 37.3 291.7 39.0 292.3 38.1 C 292.3 38.1 292.3 38.1 292.3 38.1 Z M 294.7 39.6 C 294.7 39.6 294.7 39.6 294.7 39.6 C 294.7 39.6 294.7 39.6 294.7 39.6 Z M 284.0 39.1 C 284.0 39.2 284.0 39.2 284.0 39.1 C 284.0 39.1 284.0 39.1 284.0 39.1 Z M 282.0 40.8 C 282.3 41.7 281.1 40.8 282.0 40.8 M 293.6 34.7 C 293.6 34.8 293.6 34.8 293.6 34.7 C 293.6 34.7 293.6 34.7 293.6 34.7 Z M 301.7 32.4 C 301.7 32.4 301.7 32.4 301.7 32.4 C 301.7 32.4 301.7 32.4 301.7 32.4 Z M 308.8 28.3 C 308.8 28.4 308.8 28.4 308.8 28.3 C 308.8 28.3 308.8 28.3 308.8 28.3 Z M 298.3 32.6 C 298.3 32.7 298.3 32.7 298.3 32.6 C 298.3 32.6 298.3 32.6 298.3 32.6 Z M 295.1 35.0 C 295.1 35.1 295.1 35.1 295.1 35.0 C 295.1 35.0 295.1 35.0 295.1 35.0 Z M 311.0 28.6 C 311.0 28.7 311.0 28.7 311.0 28.6 C 311.0 28.6 311.0 28.6 311.0 28.6 Z M 299.0 32.0 C 299.0 32.1 299.0 32.1 299.0 32.0 C 299.0 32.0 299.0 32.0 299.0 32.0 Z M 302.4 33.6 C 302.4 33.7 302.4 33.7 302.4 33.6 C 302.4 33.6 302.4 33.6 302.4 33.6 Z M 281.8 39.5 C 281.8 39.6 281.8 39.6 281.8 39.5 C 281.8 39.5 281.8 39.5 281.8 39.5 Z M 310.6 27.5 C 310.5 27.6 310.5 27.6 310.6 27.5 C 310.6 27.5 310.6 27.5 310.6 27.5 Z M 310.7 26.6 C 310.7 26.6 310.7 26.6 310.7 26.6 C 310.7 26.6 310.7 26.6 310.7 26.6 Z M 307.3 33.0 C 304.4 33.8 309.5 31.6 307.2 31.7 C 310.8 29.7 307.8 32.7 307.3 33.0 C 307.3 33.0 307.3 33.0 307.3 33.0 Z M 307.3 33.0 " fill="#EB5C56"></path><path d="M 327.6 35.8 C 327.8 36.4 326.6 37.5 327.1 36.1 C 327.1 36.0 327.6 35.6 327.6 35.8 Z M 329.2 33.5 C 329.1 33.7 329.0 33.8 328.8 33.8 C 328.2 33.8 329.6 32.9 329.2 33.5 Z M 326.5 36.6 C 326.5 36.7 326.0 37.4 325.9 37.2 C 325.9 37.0 326.5 36.5 326.5 36.6 Z M 329.7 30.8 C 329.9 31.0 329.3 31.7 329.1 31.8 C 328.6 32.0 329.3 30.5 329.7 30.8 Z M 322.0 30.0 C 322.0 29.9 321.9 29.9 321.9 29.8 C 321.9 29.9 322.0 29.9 322.0 30.0 Z M 337.3 20.3 C 337.3 20.5 336.9 20.6 336.8 20.5 C 336.6 20.2 337.6 19.8 337.3 20.3 Z M 314.7 16.0 C 314.7 16.0 314.7 16.4 314.6 16.3 C 314.4 16.2 314.6 15.9 314.7 16.0 Z M 314.5 16.1 C 314.3 16.3 314.1 16.0 314.3 16.0 C 314.5 15.9 314.6 16.0 314.5 16.1 Z M 327.5 13.6 C 327.6 13.6 327.7 13.5 327.6 13.6 C 327.5 13.7 327.3 13.6 327.5 13.6 Z M 327.0 13.8 C 326.9 14.1 326.7 13.7 326.9 13.7 C 327.1 13.6 327.2 13.6 327.0 13.8 Z M 324.4 12.4 C 324.5 12.3 324.6 12.3 324.5 12.4 C 324.4 12.5 324.2 12.4 324.4 12.4 Z M 317.0 22.1 C 316.8 22.1 316.7 21.6 316.9 21.5 C 317.2 21.5 317.2 22.2 317.0 22.1 Z M 316.6 21.6 C 316.4 21.7 316.2 21.4 316.4 21.4 C 316.6 21.4 316.7 21.5 316.6 21.6 Z M 317.8 23.2 C 318.0 23.1 318.3 23.6 318.3 23.7 C 318.3 23.9 318.3 24.1 318.3 24.3 C 318.3 24.4 317.5 23.4 317.8 23.2 Z M 319.8 26.9 C 319.8 27.0 319.7 26.9 319.7 26.7 C 319.7 26.5 319.9 26.9 319.8 26.9 Z M 318.7 24.8 C 318.6 24.9 318.5 24.9 318.5 24.7 C 318.5 24.4 318.8 24.8 318.7 24.8 Z M 333.1 26.8 C 333.2 26.8 332.7 27.3 332.7 27.3 C 332.6 27.3 332.7 27.1 332.6 27.2 C 332.4 27.3 332.2 26.7 333.1 26.8 Z M 330.0 32.2 C 329.9 32.3 329.8 32.3 329.7 32.1 C 329.7 32.1 330.1 31.8 330.0 32.2 Z M 331.8 27.1 C 331.9 27.1 331.8 27.2 331.7 27.2 C 331.7 27.2 331.8 27.0 331.8 27.1 Z M 332.0 26.6 C 331.9 26.7 331.6 26.9 331.5 26.7 C 331.3 26.5 332.2 26.1 332.0 26.6 Z M 333.7 26.2 C 333.6 26.4 333.6 26.4 333.6 26.2 C 333.6 26.1 333.7 26.2 333.7 26.2 Z M 332.0 29.4 C 331.9 29.5 331.9 29.5 331.9 29.4 C 331.9 29.2 332.0 29.4 332.0 29.4 Z M 334.3 24.6 C 334.3 24.6 334.3 25.1 333.9 25.0 C 333.3 24.8 334.3 24.6 334.3 24.6 Z M 335.2 22.2 C 335.1 22.3 335.0 22.1 335.2 22.0 C 335.3 21.9 335.3 22.1 335.2 22.2 Z M 335.0 20.9 C 335.3 20.8 335.6 20.7 335.3 21.0 C 335.0 21.4 334.8 21.1 335.0 20.9 Z M 334.9 21.4 C 334.9 21.4 335.0 21.3 335.0 21.3 C 335.1 21.4 335.0 21.5 334.9 21.4 Z M 334.3 23.5 C 334.3 23.8 333.9 23.9 334.1 23.6 C 334.2 23.2 334.3 23.3 334.3 23.5 Z M 322.0 32.4 C 322.1 32.6 321.9 32.6 321.7 32.6 C 321.6 32.5 321.8 32.3 322.0 32.4 Z M 318.9 23.8 C 318.8 24.0 318.7 23.9 318.7 23.7 C 318.7 23.4 318.9 23.7 318.9 23.8 Z M 316.8 18.4 C 316.7 18.6 316.7 18.5 316.6 18.3 C 316.6 18.0 316.9 18.2 316.8 18.4 Z M 319.9 25.9 C 319.8 26.0 319.2 25.7 319.4 25.2 C 319.6 24.7 320.1 25.6 319.9 25.9 Z M 326.5 29.0 C 326.6 29.1 326.4 29.1 326.4 29.1 C 326.4 28.9 326.4 28.9 326.5 29.0 Z M 319.9 24.4 C 320.0 24.5 319.8 24.6 319.7 24.6 C 319.6 24.5 319.8 24.3 319.9 24.4 Z M 316.9 19.5 C 316.9 19.7 316.5 19.8 316.4 19.7 C 315.8 19.5 316.1 18.9 316.2 18.5 C 316.2 18.2 316.9 19.3 316.9 19.5 Z M 323.4 33.3 C 323.4 33.2 323.3 33.0 323.3 32.9 C 323.2 32.9 323.2 32.8 323.2 32.7 C 322.9 32.2 322.3 32.1 322.0 31.9 C 321.3 31.2 322.2 30.5 322.0 30.0 C 322.1 30.1 322.1 30.2 322.3 30.3 C 322.7 30.3 321.6 28.6 321.6 28.5 C 320.6 27.0 321.2 29.0 320.7 29.3 C 320.5 29.4 320.6 28.0 320.6 28.0 C 320.5 27.4 320.0 27.5 320.0 27.0 C 320.0 26.8 320.9 25.6 320.6 25.5 C 320.4 25.4 320.3 24.9 320.2 24.7 C 320.1 24.4 319.8 23.9 319.5 24.4 C 319.3 24.8 319.0 25.0 319.1 24.4 C 319.2 24.1 319.1 21.9 318.2 22.4 C 318.2 22.4 318.1 22.9 318.1 23.0 C 317.7 22.6 317.2 20.9 316.7 20.7 C 315.5 20.2 317.3 20.7 317.3 20.2 C 317.4 19.3 317.5 18.8 316.9 18.0 C 316.7 17.8 316.3 17.0 316.0 17.6 C 315.9 18.0 315.5 17.9 315.7 18.5 C 315.0 18.1 315.6 17.3 315.4 17.3 C 315.1 17.2 315.1 17.6 314.9 17.2 C 314.7 16.6 314.7 16.9 315.1 16.6 C 315.2 16.5 315.1 16.0 315.1 16.0 C 315.2 16.0 315.2 16.0 315.2 16.0 C 315.0 15.6 313.8 15.3 314.0 15.1 C 314.1 14.9 314.8 14.9 314.9 14.8 C 314.9 14.8 314.9 14.7 314.9 14.7 C 314.8 14.5 314.2 14.3 314.3 14.2 C 314.3 14.1 315.2 14.0 314.9 13.9 C 314.6 13.8 314.4 12.8 314.6 12.6 C 314.9 12.4 315.8 11.7 315.8 11.5 C 315.8 11.3 316.4 11.4 316.6 11.4 C 316.8 11.4 317.1 11.7 317.2 11.8 C 317.3 11.9 317.7 11.8 317.7 11.8 C 317.7 11.8 318.0 11.7 318.4 11.7 C 318.7 11.8 319.0 12.0 319.5 12.2 C 320.0 12.4 320.2 12.1 320.6 12.1 C 321.1 12.1 321.4 12.8 321.8 13.0 C 322.2 13.1 322.3 12.5 322.8 12.5 C 323.3 12.5 323.5 12.7 323.4 12.8 C 323.2 12.9 323.3 13.0 323.5 13.0 C 323.6 13.1 324.2 13.3 324.4 13.2 C 324.6 13.1 323.2 12.5 325.0 12.7 C 326.0 12.8 326.6 13.5 326.3 13.5 C 325.6 13.5 327.0 14.5 327.0 14.2 C 327.1 13.9 328.6 14.1 328.3 13.6 C 328.2 13.4 329.8 13.4 330.0 13.5 C 330.2 13.6 331.0 13.5 331.2 14.1 C 331.2 14.3 332.2 13.7 332.4 13.8 C 332.6 13.8 333.9 14.0 334.1 14.1 C 334.3 14.3 333.7 14.2 333.5 14.2 C 333.2 14.2 332.8 13.9 332.6 13.9 C 332.3 14.0 332.8 14.2 333.1 14.3 C 333.4 14.4 333.5 14.6 333.7 14.7 C 333.9 14.7 334.1 14.7 334.3 14.8 C 334.5 14.8 334.5 14.7 334.5 14.7 C 334.6 14.5 334.4 14.4 334.5 14.3 C 334.5 14.2 334.7 14.1 335.1 14.2 C 335.5 14.2 335.8 14.3 336.3 14.5 C 336.8 14.7 336.9 14.5 337.3 14.5 C 337.7 14.5 338.0 14.6 338.0 14.7 C 338.0 14.8 337.5 14.8 337.5 14.9 C 337.4 15.0 337.9 15.4 338.1 15.4 C 339.0 15.6 338.2 16.3 339.1 16.5 C 339.7 16.6 339.1 16.9 338.7 17.2 C 338.8 17.2 338.8 17.3 338.7 17.7 C 338.8 17.8 338.3 18.2 338.2 18.5 C 338.1 18.6 337.6 19.7 337.8 19.0 C 337.8 18.9 337.8 18.8 337.8 18.8 C 337.8 18.8 337.8 18.8 337.8 18.8 C 337.8 18.8 337.6 18.3 337.6 18.3 C 337.6 18.3 337.8 18.8 337.8 18.8 C 337.5 18.8 337.3 18.8 337.2 18.8 C 337.2 18.9 337.2 19.0 337.2 19.0 C 337.2 19.1 337.2 19.1 337.2 19.1 C 337.2 19.1 337.2 19.1 337.2 19.1 C 337.4 19.2 337.3 19.2 337.2 19.4 C 337.1 19.9 336.3 20.5 336.0 20.7 C 335.7 19.3 334.7 20.8 334.5 21.4 C 334.3 22.0 335.3 22.7 335.5 22.4 C 335.3 22.8 335.0 22.8 334.7 22.7 C 334.7 22.7 333.8 22.7 333.8 22.7 C 332.9 23.4 333.9 23.7 333.9 24.0 C 333.8 24.3 333.6 24.6 333.5 24.9 C 333.4 25.2 333.7 25.1 333.8 25.3 C 334.0 25.9 332.8 26.0 332.6 26.2 C 332.7 25.9 332.8 25.6 332.8 25.4 C 332.8 25.8 332.1 25.6 332.0 25.7 C 331.7 25.9 331.6 26.3 331.4 26.6 C 331.1 27.2 330.9 27.7 330.6 28.3 C 330.8 28.2 331.8 27.8 331.9 27.7 C 331.8 27.9 331.3 28.3 331.8 28.4 C 332.7 28.5 331.5 29.5 331.4 29.7 C 330.9 30.3 331.0 31.4 329.9 31.6 C 329.9 31.6 330.4 30.5 330.2 30.5 C 329.5 30.3 329.1 30.4 328.8 31.2 C 328.7 31.3 328.5 32.5 328.6 32.5 C 328.5 32.5 330.4 32.4 329.5 33.0 C 329.3 33.1 329.3 32.6 329.0 32.7 C 328.7 32.9 328.5 33.4 328.3 33.7 C 328.2 33.7 327.7 34.1 327.8 34.2 C 327.8 34.4 328.1 34.6 328.1 34.9 C 328.0 35.1 327.7 35.3 327.5 35.1 C 327.5 35.1 327.5 35.1 327.5 35.1 C 327.4 35.1 327.3 35.1 327.2 35.0 C 327.2 35.1 327.1 35.3 326.9 35.3 C 326.8 35.3 326.9 35.1 327.1 35.0 C 327.1 34.9 327.0 34.9 326.9 34.8 C 326.8 35.1 326.7 35.4 326.7 35.4 C 326.7 36.1 326.9 36.2 325.9 36.5 C 325.2 36.7 323.9 35.3 323.6 34.1 C 323.5 34.0 323.4 33.7 323.4 33.3 Z M 334.9 15.2 C 334.9 15.2 334.9 15.2 334.8 15.2 C 334.8 15.3 334.8 15.4 334.8 15.5 C 335.1 15.6 334.8 15.3 335.0 15.4 C 335.3 15.5 335.3 15.3 334.9 15.2 Z M 335.9 17.6 C 336.1 17.6 336.0 17.5 335.9 17.4 C 335.9 17.5 335.9 17.6 335.9 17.6 Z M 336.8 18.4 C 337.0 18.0 336.2 18.2 336.0 18.8 C 336.5 18.6 336.7 18.5 336.8 18.4 Z M 336.8 19.4 C 336.7 19.4 336.7 19.3 336.6 19.2 C 336.5 19.1 336.5 19.5 336.4 19.4 C 336.3 19.3 336.4 18.9 336.1 19.1 C 336.1 19.1 336.0 19.2 336.0 19.2 C 336.0 19.2 336.0 19.3 336.0 19.3 C 336.0 19.6 336.6 19.6 336.8 19.4 Z M 333.1 15.9 C 333.3 15.8 333.2 15.8 333.1 15.8 C 332.9 15.8 333.0 16.0 333.1 15.9 Z M 331.0 14.6 C 331.2 14.8 331.4 14.8 331.3 14.5 C 331.1 14.4 330.9 14.5 331.0 14.6 Z M 329.8 18.6 C 329.9 18.5 329.8 18.5 329.7 18.5 C 329.5 18.5 329.7 18.7 329.8 18.6 Z M 330.6 20.5 C 330.6 20.7 330.9 20.8 330.8 20.7 C 330.8 20.5 330.6 20.4 330.6 20.5 Z M 328.7 16.0 C 328.6 16.1 328.7 16.2 328.8 16.1 C 328.9 16.1 328.9 16.0 328.7 16.0 Z M 330.4 18.5 C 330.2 18.3 330.1 18.4 330.1 18.5 C 330.0 18.6 330.1 18.7 330.4 18.7 C 330.6 18.7 330.6 18.6 330.4 18.5 Z M 331.3 20.0 C 331.0 20.5 331.2 20.6 331.5 20.0 C 331.8 19.3 331.5 19.7 331.3 20.0 Z M 329.4 13.8 C 329.5 13.9 329.8 13.8 329.8 13.8 C 329.8 13.8 329.0 13.6 329.4 13.8 Z M 333.3 24.4 C 333.4 24.3 333.3 24.0 333.1 24.3 C 332.9 24.5 333.1 24.6 333.3 24.4 Z M 331.9 24.1 C 332.4 24.2 332.7 23.9 332.8 24.0 C 332.7 23.9 332.5 23.6 332.5 23.5 C 332.6 23.1 333.2 22.9 333.2 22.4 C 333.2 21.9 332.6 22.6 332.6 22.8 C 332.6 22.7 332.6 22.6 332.5 22.5 C 332.3 22.4 332.2 22.5 332.2 22.7 C 332.2 22.9 331.3 24.0 331.9 24.1 Z M 329.7 19.5 C 330.0 19.5 330.1 19.3 329.9 19.1 C 329.6 19.0 329.4 19.0 329.3 19.1 C 329.3 19.1 329.5 19.5 329.7 19.5 Z M 328.9 18.1 C 329.1 18.0 329.0 18.0 328.8 18.0 C 328.4 18.0 328.7 18.3 328.9 18.1 Z M 323.3 13.3 C 323.1 13.4 323.5 13.5 323.5 13.4 C 323.5 13.3 323.4 13.2 323.3 13.3 Z M 324.5 15.7 C 324.1 15.8 324.6 16.0 324.7 16.0 C 324.8 15.9 324.8 15.6 324.5 15.7 Z M 326.6 16.4 C 326.4 16.4 326.7 16.6 326.8 16.5 C 326.9 16.4 326.7 16.4 326.6 16.4 Z M 327.2 17.3 C 327.1 17.3 327.2 17.5 327.4 17.4 C 327.5 17.4 327.4 17.3 327.2 17.3 Z M 330.3 25.4 C 330.3 25.4 330.0 25.1 330.0 25.5 C 330.0 25.8 330.0 25.8 330.3 25.4 Z M 329.6 22.3 C 329.7 22.0 329.8 21.7 329.2 21.1 C 328.6 20.4 328.6 20.8 328.7 21.3 C 328.8 21.9 327.8 20.7 328.1 21.7 C 328.2 22.2 329.4 22.6 329.6 22.3 Z M 325.9 18.0 C 326.4 18.4 327.0 17.9 326.5 17.8 C 325.9 17.7 325.4 17.7 325.9 18.0 Z M 325.7 17.7 C 325.8 17.7 325.7 17.6 325.5 17.6 C 325.3 17.6 325.5 17.8 325.7 17.7 Z M 331.5 28.9 C 332.0 27.9 330.8 28.5 330.8 28.5 C 329.9 29.3 331.1 30.0 331.5 28.9 Z M 315.8 16.2 C 315.9 16.2 315.9 16.3 315.9 16.3 C 315.9 16.3 315.9 16.3 315.9 16.4 C 316.1 16.4 316.1 16.0 316.1 16.0 C 316.0 16.0 315.9 16.1 315.8 16.2 Z M 318.0 21.3 C 317.9 21.1 317.8 20.9 317.6 20.8 C 317.2 21.1 317.9 22.6 318.4 21.7 C 318.5 21.6 318.7 20.3 318.3 20.4 C 318.0 20.4 318.2 21.8 318.0 21.3 Z M 317.9 19.4 C 318.1 20.0 318.2 18.6 318.0 18.9 C 317.8 19.1 317.8 19.2 317.9 19.4 Z M 317.1 14.4 C 316.4 13.7 315.3 14.4 316.5 15.4 C 317.7 16.3 318.3 16.1 317.8 15.6 C 317.3 15.1 318.2 15.3 317.1 14.4 Z M 320.2 20.8 C 319.3 21.1 319.7 21.3 320.5 21.3 C 320.6 21.2 320.8 20.7 320.2 20.8 Z M 321.2 22.5 C 321.3 22.8 321.3 22.8 321.3 22.6 C 321.5 22.3 321.2 22.3 321.2 22.5 Z M 317.7 12.5 C 317.4 12.3 317.0 12.2 317.2 12.1 C 317.4 12.0 317.3 12.0 317.0 11.9 C 316.7 11.8 316.9 12.2 317.0 12.4 C 317.2 12.5 318.0 12.7 317.7 12.5 Z M 323.9 18.0 C 323.7 18.0 323.9 18.2 324.0 18.1 C 324.1 18.1 324.1 18.0 323.9 18.0 Z M 328.1 24.4 C 328.1 24.4 327.9 24.2 327.9 24.5 C 327.9 24.7 327.9 24.7 328.1 24.4 Z M 330.4 30.0 C 330.5 29.8 330.1 30.0 330.0 29.6 C 330.0 29.5 330.2 29.6 330.3 29.7 C 330.2 29.6 329.8 29.0 329.7 29.6 C 329.7 29.8 330.2 30.6 330.4 30.0 Z M 324.6 20.0 C 325.0 20.2 324.6 18.9 325.0 19.0 C 325.3 19.1 325.2 19.0 324.8 18.8 C 324.5 18.7 324.2 19.8 324.6 20.0 Z M 323.0 17.2 C 323.1 17.4 323.9 17.6 323.6 17.4 C 323.4 17.1 322.9 17.1 323.1 17.0 C 323.3 16.9 323.2 16.9 323.0 16.8 C 322.7 16.6 322.9 17.0 323.0 17.2 Z M 320.5 12.5 C 320.6 12.5 321.0 12.5 320.7 12.4 C 320.6 12.3 320.4 12.4 320.5 12.5 Z M 326.6 26.1 C 326.6 25.8 326.5 25.8 326.4 26.1 C 326.3 26.4 326.6 26.3 326.6 26.1 Z M 319.9 13.3 C 320.3 13.5 319.8 13.1 320.1 13.2 C 320.5 13.2 320.4 13.1 320.0 13.0 C 319.7 12.9 319.4 13.1 319.9 13.3 Z M 328.0 30.9 C 328.0 30.7 327.8 30.6 327.8 30.7 C 327.7 30.9 328.0 31.0 328.0 30.9 Z M 326.5 29.4 C 326.5 29.3 326.6 29.2 326.6 29.2 C 327.4 27.8 325.6 29.5 326.5 29.4 Z M 325.3 26.5 C 325.5 26.8 325.5 26.3 325.5 26.3 C 325.3 26.3 325.3 26.4 325.3 26.5 Z M 323.8 23.5 C 323.6 23.5 323.8 23.8 323.9 23.6 C 324.0 23.5 323.9 23.5 323.8 23.5 Z M 328.0 33.6 C 328.1 33.5 328.0 33.4 327.9 33.5 C 327.8 33.6 327.9 33.7 328.0 33.6 Z M 324.2 26.0 C 324.3 26.0 324.3 26.0 324.2 25.9 C 324.1 25.8 324.1 26.0 324.2 26.0 Z M 319.7 16.7 C 319.8 16.8 319.9 16.8 320.0 16.9 C 320.1 16.7 319.9 16.1 320.1 16.0 C 320.1 16.0 320.1 16.0 320.2 16.0 C 320.2 16.0 320.2 16.0 320.2 16.0 C 320.3 15.9 320.4 16.0 320.3 16.0 C 320.4 16.1 320.5 16.2 320.6 16.3 C 320.7 16.0 320.7 15.7 320.5 15.7 C 320.2 15.6 319.8 15.7 319.5 15.9 C 319.5 16.0 319.5 16.2 319.5 16.3 C 319.5 16.3 319.5 16.3 319.6 16.3 C 319.8 16.3 320.0 16.5 319.8 16.5 C 319.7 16.6 319.6 16.6 319.6 16.5 C 319.6 16.6 319.6 16.7 319.7 16.7 Z M 323.2 25.1 C 323.4 25.2 323.4 25.0 323.4 24.7 C 323.3 24.5 323.0 24.9 323.2 25.1 Z M 327.5 33.4 C 327.4 33.3 327.4 33.3 327.3 33.2 C 327.3 33.3 327.3 33.3 327.3 33.4 C 327.4 33.6 327.4 33.8 327.4 33.9 C 327.6 33.8 327.7 33.7 327.5 33.4 Z M 325.4 31.2 C 325.4 31.2 325.9 32.4 326.1 32.0 C 326.3 31.5 327.0 31.8 326.4 31.1 C 326.1 30.7 325.4 30.7 325.1 30.4 C 323.7 28.6 324.8 31.1 325.0 31.7 C 325.0 31.8 325.2 31.0 325.4 31.2 Z M 323.5 28.9 C 323.3 28.9 323.2 29.3 323.3 29.4 C 323.6 29.8 323.8 28.9 323.5 28.9 Z M 325.9 34.5 C 325.9 34.5 325.9 34.5 326.0 34.4 C 325.9 34.4 325.9 34.4 325.8 34.4 C 325.8 34.4 325.8 34.5 325.9 34.5 Z M 326.3 36.0 C 326.7 35.2 325.6 35.8 325.4 36.0 C 325.1 36.3 326.1 36.4 326.3 36.0 Z M 323.3 30.8 C 323.1 30.4 321.8 30.5 322.2 31.1 C 322.5 31.8 323.6 31.7 323.3 30.8 Z M 319.9 27.4 C 320.1 27.4 320.1 28.0 319.8 27.8 C 319.6 27.7 319.8 27.3 319.9 27.4 Z M 322.2 33.8 C 322.2 33.6 322.3 33.7 322.3 33.7 C 322.2 33.9 322.2 33.9 322.2 33.8 Z M 322.7 32.8 C 322.7 33.0 322.8 33.3 322.8 33.5 C 322.8 33.6 322.5 33.3 322.5 33.3 C 322.5 33.1 322.7 32.9 322.7 32.8 Z M 321.3 29.5 C 321.2 29.7 321.1 29.5 321.0 29.3 C 321.0 29.2 321.3 29.3 321.3 29.5 Z M 321.4 30.4 C 321.3 30.3 321.5 30.3 321.6 30.4 C 321.6 30.6 321.4 30.5 321.4 30.4 Z M 321.4 28.7 C 321.6 29.0 321.9 29.5 321.6 29.6 C 321.5 29.6 320.8 28.1 321.4 28.7 Z M 321.4 28.7 " fill="#EB5C56"></path></g></svg>