<?xml version="1.0" encoding="UTF-8"?><svg xmlns="http://www.w3.org/2000/svg" xmlns:xlink="http://www.w3.org/1999/xlink" clip-rule="evenodd" stroke-miterlimit="4.00" viewBox="0 0 113 111"><desc>SVG generated by Keynote</desc><defs></defs><g transform="matrix(1.00, 0.00, -0.00, -1.00, 0.0, 111.0)"><image xlink:href="../../78A98741-3218-4F58-B2FE-607063DF5DA5/assets/55EB21678F54394C60B89EE11CF67BF6.png" width="108.00" height="108.00" transform="matrix(1.00, 0.00, -0.00, -1.00, 3.8, 109.3)" opacity="0.50"></image><g><clipPath id="clip-28"><path d="M 92.2 90.6 C 111.7 71.1 111.7 39.5 92.2 19.9 C 72.6 0.4 41.0 0.4 21.4 19.9 C 1.9 39.5 1.9 71.1 21.4 90.6 C 41.0 110.2 72.6 110.2 92.2 90.6 Z M 92.2 90.6 "></path></clipPath><g clip-path="url(#clip-28)"><image xlink:href="../../78A98741-3218-4F58-B2FE-607063DF5DA5/assets/D5BAA0E7A80E113D25EB92D00157B4C8.jpeg" width="300.00" height="300.00" transform="matrix(1.00, 0.00, -0.00, -1.00, 6.8, 105.3)"></image><path d="M 6.8 5.3 L 106.8 5.3 L 106.8 105.3 L 6.8 105.3 Z M 6.8 5.3 " fill="#00D026" fill-opacity="0.50"></path></g></g></g></svg>