<?xml version="1.0" encoding="UTF-8"?><svg xmlns="http://www.w3.org/2000/svg" xmlns:xlink="http://www.w3.org/1999/xlink" clip-rule="evenodd" stroke-miterlimit="4.00" viewBox="0 0 53 137"><desc>SVG generated by Keynote</desc><defs></defs><g transform="matrix(1.00, 0.00, -0.00, -1.00, 0.0, 137.0)"><path d="M 15.7 119.7 C 15.8 120.0 15.4 120.7 15.5 120.9 M 15.7 119.7 C 14.4 120.2 14.1 121.5 13.6 123.2 C 13.3 125.1 14.6 123.3 15.1 123.6 C 15.0 126.1 14.3 126.0 13.2 125.4 C 13.8 126.5 11.9 129.1 13.4 128.7 C 14.1 124.8 13.3 131.6 14.7 128.4 C 15.0 128.1 15.2 129.1 15.2 129.5 C 16.0 128.5 16.3 130.5 17.1 128.8 C 18.1 128.8 17.6 129.0 18.5 128.0 C 18.7 127.5 18.3 127.7 18.1 127.7 C 17.1 127.3 19.0 126.5 18.5 125.4 C 20.0 124.8 18.5 123.7 17.8 124.3 C 18.1 123.5 19.8 122.8 18.9 121.7 C 19.7 121.4 19.6 119.1 18.5 120.2 C 17.8 121.1 17.5 120.0 17.2 119.8 C 16.9 120.0 17.1 121.5 16.8 121.6 C 16.6 121.2 16.4 119.3 16.1 121.2 C 15.7 120.5 15.3 121.4 15.7 119.7 C 15.7 119.7 15.7 119.7 15.7 119.7 Z M 13.7 126.2 C 13.3 126.2 13.8 125.6 13.7 126.2 C 13.7 126.2 13.7 126.2 13.7 126.2 Z M 19.5 122.6 C 19.1 122.5 19.6 122.0 19.5 122.6 C 19.5 122.6 19.5 122.6 19.5 122.6 Z M 18.2 127.4 C 17.8 127.3 18.3 126.8 18.2 127.4 C 18.2 127.4 18.2 127.4 18.2 127.4 Z M 14.2 124.5 C 14.7 123.5 14.6 125.5 14.2 125.6 C 14.3 125.4 13.8 124.7 14.2 124.5 C 14.2 124.5 14.2 124.5 14.2 124.5 Z M 16.4 124.8 C 16.3 124.7 16.3 124.2 16.7 124.3 C 16.7 124.6 16.5 124.9 16.4 124.8 C 16.4 124.8 16.4 124.8 16.4 124.8 Z M 13.9 129.7 C 13.8 129.6 13.8 129.2 14.2 129.3 C 14.3 129.6 14.0 129.8 13.9 129.7 C 13.9 129.7 13.9 129.7 13.9 129.7 Z M 15.4 123.5 C 15.5 123.3 15.9 123.2 15.9 123.6 C 15.7 123.7 15.5 124.4 15.4 123.5 C 15.4 123.5 15.4 123.5 15.4 123.5 Z M 14.5 121.6 C 14.8 120.8 15.0 122.7 14.9 122.6 C 14.6 122.9 14.1 122.1 14.5 121.6 C 14.5 121.6 14.5 121.6 14.5 121.6 Z M 16.0 123.1 C 16.3 122.4 16.2 123.5 16.0 123.1 C 16.0 123.1 16.0 123.1 16.0 123.1 Z M 16.8 129.5 C 17.1 128.8 17.0 129.9 16.8 129.5 C 16.8 129.5 16.8 129.5 16.8 129.5 Z M 18.7 125.9 C 19.0 125.2 18.9 126.2 18.7 125.9 C 18.7 125.9 18.7 125.9 18.7 125.9 Z M 14.6 126.6 C 14.4 127.9 13.6 126.6 14.6 126.6 C 14.6 126.6 14.6 126.6 14.6 126.6 Z M 14.7 119.6 C 14.5 120.9 13.8 119.6 14.7 119.6 C 14.7 119.6 14.7 119.6 14.7 119.6 Z M 32.0 25.4 C 32.0 24.2 30.0 28.5 31.7 27.1 C 33.1 26.8 32.4 29.9 31.4 28.9 C 31.1 29.8 31.0 29.8 31.5 30.4 C 30.6 30.3 29.8 32.4 30.1 33.2 C 30.8 33.8 30.5 31.8 31.1 33.2 C 30.8 35.9 31.9 33.2 32.8 34.4 C 32.7 34.5 32.2 34.4 32.5 34.7 C 33.4 35.0 34.3 33.6 34.9 34.4 C 34.8 34.0 36.2 32.2 35.2 32.9 C 34.3 33.0 36.7 30.9 35.2 30.9 C 36.0 30.3 35.1 29.5 36.1 29.1 C 36.3 28.6 35.6 28.5 35.4 28.5 C 34.7 28.4 37.0 28.2 35.9 27.2 C 36.3 27.2 36.5 25.0 35.7 26.5 C 35.9 26.1 36.7 23.7 35.1 24.8 C 34.2 26.4 34.1 22.7 33.7 24.8 C 33.3 26.3 33.5 26.6 33.0 25.4 C 33.1 25.0 33.3 23.2 32.5 24.6 C 32.6 25.0 32.3 25.7 32.0 25.4 C 32.0 25.4 32.0 25.4 32.0 25.4 Z M 34.0 25.4 C 33.9 26.4 33.5 25.4 34.0 25.4 C 34.0 25.4 34.0 25.4 34.0 25.4 Z M 36.3 29.2 C 36.2 30.1 35.8 29.2 36.3 29.2 C 36.3 29.2 36.3 29.2 36.3 29.2 Z M 31.2 28.2 C 31.5 28.7 30.1 28.6 31.2 28.2 C 31.2 28.2 31.2 28.2 31.2 28.2 Z M 35.5 27.5 C 35.5 27.6 35.4 27.3 35.3 27.2 C 35.4 27.2 35.5 27.5 35.5 27.5 C 35.5 27.5 35.5 27.5 35.5 27.5 Z M 30.9 29.7 C 31.3 31.1 29.8 29.8 30.9 29.7 C 30.9 29.7 30.9 29.7 30.9 29.7 Z M 31.7 32.6 C 33.0 33.0 31.2 34.0 31.7 32.6 C 31.7 32.6 31.7 32.6 31.7 32.6 Z M 35.0 31.3 C 34.8 31.0 35.2 31.1 35.0 31.3 C 35.0 31.3 35.0 31.3 35.0 31.3 Z M 36.2 25.5 C 36.0 25.2 36.5 25.3 36.2 25.5 C 36.2 25.5 36.2 25.5 36.2 25.5 Z M 34.6 32.9 C 34.1 32.7 34.9 32.5 34.6 32.9 C 34.6 32.9 34.6 32.9 34.6 32.9 Z M 31.7 28.5 C 30.8 27.1 33.5 27.3 31.7 28.5 C 31.7 28.5 31.7 28.5 31.7 28.5 Z M 32.0 26.3 C 31.9 25.4 32.6 26.6 32.4 26.9 C 32.3 26.9 32.0 26.5 32.0 26.3 C 32.0 26.3 32.0 26.3 32.0 26.3 Z M 31.6 29.8 C 31.2 28.9 32.0 29.1 31.6 29.8 C 31.6 29.8 31.6 29.8 31.6 29.8 Z M 31.4 27.6 C 31.6 27.2 31.4 28.0 31.4 27.6 C 31.4 27.6 31.4 27.6 31.4 27.6 Z M 30.1 31.3 C 30.3 30.9 30.2 31.7 30.1 31.3 C 30.1 31.3 30.1 31.3 30.1 31.3 Z M 31.6 25.2 C 31.8 24.8 31.7 25.5 31.6 25.2 C 31.6 25.2 31.6 25.2 31.6 25.2 Z M 30.9 31.1 C 31.4 31.3 32.6 30.3 31.4 32.3 C 31.0 32.6 30.4 31.6 30.9 31.1 C 30.9 31.1 30.9 31.1 30.9 31.1 Z M 16.2 117.1 C 14.0 120.7 16.8 120.3 17.2 120.5 C 17.8 121.2 18.4 120.8 19.0 120.1 C 20.9 119.5 17.5 118.5 19.3 118.2 C 21.7 117.6 17.6 116.7 20.0 116.7 C 20.6 116.9 20.4 115.3 20.2 115.4 C 21.4 114.9 19.6 113.4 19.4 113.4 C 19.8 112.9 22.0 113.3 20.7 111.4 C 20.3 110.1 22.5 109.9 21.0 110.0 C 22.8 109.4 20.7 109.3 21.3 108.5 C 22.3 108.0 20.0 108.2 21.9 107.4 C 20.6 106.7 22.7 108.1 22.3 104.9 C 21.9 106.3 21.4 103.3 22.2 104.0 C 23.0 105.2 22.1 102.5 23.0 101.3 C 22.5 100.8 21.6 98.9 22.9 99.5 C 24.7 98.3 22.2 97.9 23.6 97.5 C 24.2 97.1 23.1 96.7 23.3 96.4 C 24.3 96.1 23.7 95.5 24.3 93.8 C 25.5 90.0 22.0 92.8 21.9 91.2 C 21.5 90.9 18.0 92.5 20.5 92.1 C 19.8 92.2 21.7 95.8 19.3 93.8 C 20.2 95.2 18.3 93.3 19.1 96.0 C 21.6 93.0 19.2 99.9 18.9 96.5 C 18.2 97.0 18.1 98.3 18.7 97.4 C 20.4 97.4 17.5 99.6 19.8 98.6 C 18.9 100.5 20.8 100.3 19.4 100.7 C 17.2 100.8 20.0 100.7 19.2 101.6 C 18.7 104.0 16.6 101.7 18.0 103.4 C 16.5 105.6 18.8 104.1 19.0 105.0 C 20.4 105.5 17.4 107.2 17.5 105.3 C 18.1 106.4 16.7 105.4 17.5 106.6 C 19.0 106.1 15.8 107.8 16.9 107.6 C 17.1 108.7 18.0 108.3 18.0 108.6 C 17.8 110.0 16.5 109.4 17.5 109.8 C 18.0 110.3 16.0 110.6 16.5 110.9 C 16.8 109.4 17.7 112.4 16.9 112.4 C 17.0 111.5 15.0 112.5 16.0 113.3 C 19.2 113.1 15.0 114.4 16.0 115.3 C 17.8 114.9 15.6 118.5 15.1 116.9 C 15.2 117.0 16.2 117.1 16.2 117.1 M 16.6 111.3 C 17.0 110.2 16.7 112.7 16.6 111.3 M 16.2 111.3 C 16.8 110.9 15.5 112.4 16.0 111.2 C 16.0 111.2 16.1 111.4 16.2 111.3 M 17.0 106.3 C 17.5 106.5 16.6 106.9 17.0 106.3 M 18.2 105.5 C 18.8 104.8 18.1 106.6 18.2 105.5 M 19.9 94.4 C 22.2 96.0 18.3 95.3 19.9 94.4 M 18.0 101.6 C 18.1 103.0 17.1 101.0 18.0 101.6 M 18.6 102.1 C 18.9 102.8 18.0 102.2 18.6 102.1 M 19.5 96.5 C 19.6 96.4 19.6 96.4 19.5 96.5 C 19.5 96.5 19.5 96.5 19.5 96.5 Z M 20.2 93.2 C 20.1 93.2 20.1 93.2 20.2 93.2 C 20.2 93.2 20.2 93.2 20.2 93.2 Z M 19.2 99.7 C 18.4 100.7 19.3 98.0 19.2 99.7 C 19.2 99.7 19.2 99.7 19.2 99.7 Z M 23.7 95.5 C 23.8 95.6 23.8 95.6 23.7 95.5 C 23.7 95.5 23.7 95.5 23.7 95.5 Z M 17.6 112.5 C 17.6 112.6 17.6 112.6 17.6 112.5 C 17.6 112.5 17.6 112.5 17.6 112.5 Z M 16.0 116.1 C 16.3 116.1 15.6 116.7 16.0 116.1 C 16.0 116.1 16.0 116.1 16.0 116.1 Z M 18.3 119.6 C 18.4 119.7 18.4 119.7 18.3 119.6 C 18.3 119.6 18.3 119.6 18.3 119.6 Z M 18.7 114.0 C 18.7 114.0 18.7 114.0 18.7 114.0 C 18.7 114.0 18.7 114.0 18.7 114.0 Z M 16.9 113.1 C 15.4 113.5 17.6 111.8 16.9 113.1 C 16.9 113.1 16.9 113.1 16.9 113.1 Z M 22.5 101.6 C 21.9 101.5 22.8 100.8 22.5 101.6 C 22.5 101.6 22.5 101.6 22.5 101.6 Z M 18.8 105.5 C 18.5 105.3 19.1 105.0 18.8 105.5 C 18.8 105.5 18.8 105.5 18.8 105.5 Z M 16.6 107.2 C 16.3 107.0 16.8 106.7 16.6 107.2 C 16.6 107.2 16.6 107.2 16.6 107.2 Z M 15.6 115.9 C 15.5 115.8 15.5 115.8 15.6 115.9 C 15.6 115.9 15.6 115.9 15.6 115.9 Z M 16.9 114.8 C 15.4 115.5 17.9 113.5 16.9 114.8 C 16.9 114.8 16.9 114.8 16.9 114.8 Z M 17.0 116.4 C 17.6 116.0 16.6 117.6 17.0 116.4 M 19.2 115.9 C 18.8 114.7 21.3 117.3 19.2 115.9 C 19.2 115.9 19.2 115.9 19.2 115.9 Z M 20.7 110.2 C 20.8 110.2 20.8 110.2 20.7 110.2 C 20.7 110.2 20.7 110.2 20.7 110.2 Z M 16.8 110.2 C 17.0 109.2 17.0 110.9 16.8 110.2 C 16.8 110.2 16.8 110.2 16.8 110.2 Z M 14.9 118.8 C 15.2 117.8 15.1 119.5 14.9 118.8 C 14.9 118.8 14.9 118.8 14.9 118.8 Z M 20.0 106.7 C 20.1 105.0 20.6 107.8 20.0 106.7 C 20.0 106.7 20.0 106.7 20.0 106.7 Z M 19.6 100.4 C 19.6 100.4 19.6 100.4 19.6 100.4 C 19.6 100.4 19.6 100.4 19.6 100.4 Z M 19.3 99.2 C 19.3 99.2 19.3 99.2 19.3 99.2 C 19.3 99.2 19.3 99.2 19.3 99.2 Z M 21.4 94.8 C 21.5 94.7 21.5 94.7 21.4 94.8 C 21.4 94.8 21.4 94.8 21.4 94.8 Z M 18.8 98.1 C 18.9 98.0 18.9 98.0 18.8 98.1 C 18.8 98.1 18.8 98.1 18.8 98.1 Z M 19.7 94.9 C 19.8 94.8 19.8 94.8 19.7 94.9 C 19.7 94.9 19.7 94.9 19.7 94.9 Z M 18.5 95.2 C 18.6 95.1 18.6 95.1 18.5 95.2 C 18.5 95.2 18.5 95.2 18.5 95.2 Z M 22.9 103.3 C 23.0 103.3 23.0 103.3 22.9 103.3 C 22.9 103.3 22.9 103.3 22.9 103.3 Z M 15.5 114.1 C 15.6 114.0 15.6 114.0 15.5 114.1 C 15.5 114.1 15.5 114.1 15.5 114.1 Z M 20.2 95.3 C 20.2 95.2 20.2 95.2 20.2 95.3 C 20.2 95.3 20.2 95.3 20.2 95.3 Z M 19.8 103.3 C 20.9 103.5 18.2 103.7 19.8 103.1 C 19.9 103.1 19.6 103.3 19.8 103.3 M 21.9 102.6 C 21.9 102.6 21.9 102.6 21.9 102.6 C 21.9 102.6 21.9 102.6 21.9 102.6 Z M 21.9 106.3 C 21.9 106.3 21.9 106.3 21.9 106.3 C 21.9 106.3 21.9 106.3 21.9 106.3 Z M 18.5 98.6 C 17.9 98.6 19.1 97.8 18.5 98.7 M 23.4 95.1 C 22.7 95.1 24.0 94.3 23.4 95.2 M 15.2 120.0 C 15.6 120.2 14.8 120.6 15.2 120.0 M 22.3 107.2 C 22.8 107.4 21.9 107.8 22.3 107.2 M 21.2 105.2 C 20.6 105.3 21.9 104.4 21.2 105.4 M 22.9 97.5 C 22.9 97.5 22.9 97.5 22.9 97.5 C 22.9 97.5 22.9 97.5 22.9 97.5 Z M 17.2 108.7 C 17.2 108.6 17.2 108.6 17.2 108.7 C 17.2 108.7 17.2 108.7 17.2 108.7 Z M 19.3 104.5 C 18.3 105.0 20.0 103.9 19.3 104.5 M 18.4 110.2 C 17.2 110.9 19.0 108.9 18.4 110.2 M 24.0 93.3 C 22.5 94.0 24.8 92.7 24.0 93.3 M 19.9 97.5 C 18.5 98.2 20.8 96.9 19.9 97.5 M 17.9 107.9 C 17.2 107.8 18.5 107.0 17.9 107.9 M 15.5 117.7 C 15.2 118.6 15.2 116.4 15.5 117.7 M 22.5 99.9 C 22.6 99.9 22.6 99.9 22.5 99.9 C 22.5 99.9 22.5 99.9 22.5 99.9 Z M 20.9 115.6 C 20.9 115.5 20.9 115.5 20.9 115.6 C 20.9 115.6 20.9 115.6 20.9 115.6 Z M 20.0 91.3 C 20.1 91.3 20.1 91.3 20.0 91.3 C 20.0 91.3 20.0 91.3 20.0 91.3 Z M 20.4 98.2 C 20.5 98.2 20.5 98.2 20.4 98.2 C 20.4 98.2 20.4 98.2 20.4 98.2 Z M 19.5 93.1 C 19.6 93.1 19.6 93.1 19.5 93.1 C 19.5 93.1 19.5 93.1 19.5 93.1 Z M 20.9 101.4 C 20.9 101.4 20.9 101.4 20.9 101.4 C 20.9 101.4 20.9 101.4 20.9 101.4 Z M 17.5 101.4 C 17.5 101.4 17.5 101.4 17.5 101.4 C 17.5 101.4 17.5 101.4 17.5 101.4 Z M 18.3 104.9 C 18.3 104.9 18.3 104.9 18.3 104.9 C 18.3 104.9 18.3 104.9 18.3 104.9 Z M 18.0 100.0 C 18.2 97.9 18.9 101.1 18.0 100.0 C 18.0 100.0 18.0 100.0 18.0 100.0 Z M 20.7 103.9 C 20.7 103.9 20.7 103.9 20.7 103.9 C 20.7 103.9 20.7 103.9 20.7 103.9 Z M 18.3 103.8 C 17.6 102.4 20.0 103.4 18.3 103.8 M 16.6 109.1 C 16.1 108.7 17.4 109.1 16.6 109.1 M 20.4 112.1 C 20.5 112.1 20.5 112.1 20.4 112.1 C 20.4 112.1 20.4 112.1 20.4 112.1 Z M 20.2 111.5 C 20.3 111.4 20.3 111.4 20.2 111.5 C 20.2 111.5 20.2 111.5 20.2 111.5 Z M 16.1 110.4 C 16.2 110.4 16.2 110.4 16.1 110.4 C 16.1 110.4 16.1 110.4 16.1 110.4 Z M 21.4 111.6 C 21.5 111.5 21.5 111.5 21.4 111.6 C 21.4 111.6 21.4 111.6 21.4 111.6 Z M 17.5 102.2 C 17.5 102.1 17.5 102.1 17.5 102.2 C 17.5 102.2 17.5 102.2 17.5 102.2 Z M 19.2 92.1 C 19.2 92.1 19.2 92.1 19.2 92.1 C 19.2 92.1 19.2 92.1 19.2 92.1 Z M 18.9 118.0 C 19.0 118.0 19.0 118.0 18.9 118.0 C 18.9 118.0 18.9 118.0 18.9 118.0 Z M 18.9 101.4 C 19.0 101.3 19.0 101.3 18.9 101.4 C 18.9 101.4 18.9 101.4 18.9 101.4 Z M 20.0 113.5 C 20.0 113.5 20.0 113.5 20.0 113.5 C 20.0 113.5 20.0 113.5 20.0 113.5 Z M 18.5 102.0 C 18.6 101.9 18.6 101.9 18.5 102.0 C 18.5 102.0 18.5 102.0 18.5 102.0 Z M 22.7 100.3 C 22.8 100.2 22.8 100.2 22.7 100.3 C 22.7 100.3 22.7 100.3 22.7 100.3 Z M 23.9 98.2 C 23.9 98.2 23.9 98.2 23.9 98.2 C 23.9 98.2 23.9 98.2 23.9 98.2 Z M 20.5 100.0 C 20.5 100.0 20.5 100.0 20.5 100.0 C 20.5 100.0 20.5 100.0 20.5 100.0 Z M 18.5 113.9 C 16.6 117.7 18.5 110.7 18.5 113.9 M 20.8 99.4 C 20.1 102.1 20.0 96.9 20.8 99.4 C 20.6 99.0 20.8 99.3 20.8 99.4 M 19.7 90.2 C 20.7 91.6 21.8 91.8 23.1 91.5 C 23.8 91.1 21.4 90.7 23.5 91.0 C 23.6 92.4 26.6 91.0 24.0 90.5 C 23.9 88.8 25.7 90.6 24.9 89.3 C 24.9 87.5 25.6 88.6 25.6 87.1 C 24.4 86.0 26.5 86.4 25.2 85.8 C 26.5 86.8 25.1 84.2 25.7 84.3 C 26.4 85.8 26.6 79.4 25.6 82.7 C 25.2 81.2 26.3 81.7 26.6 81.3 C 25.8 80.5 27.7 79.1 27.0 78.1 C 26.7 78.3 26.6 78.7 26.3 78.8 C 25.7 78.9 26.6 77.8 26.5 77.9 C 26.3 77.3 25.8 75.0 26.9 77.6 C 27.6 77.8 27.0 75.6 27.6 75.8 C 28.0 73.8 26.3 75.0 27.5 74.3 C 27.8 72.9 28.0 71.8 27.8 71.8 C 28.1 70.9 29.0 70.9 28.3 70.0 C 30.2 68.5 25.6 68.2 28.7 68.0 C 28.1 67.4 30.2 67.3 28.3 67.0 C 29.0 67.8 30.3 64.2 28.6 65.5 C 28.3 65.0 31.1 63.2 29.1 63.1 C 27.8 62.1 26.4 62.0 24.8 63.5 C 25.9 63.5 23.3 65.2 25.4 64.2 C 26.3 62.8 25.6 67.2 25.1 66.1 C 22.9 65.5 26.1 68.5 24.3 69.1 C 25.3 68.5 25.1 72.2 23.7 70.8 C 23.4 71.5 24.2 71.8 23.1 72.3 C 23.6 70.2 24.7 73.4 23.7 73.1 C 23.1 72.6 22.0 75.7 23.0 75.6 C 25.5 74.9 22.4 76.3 23.2 77.0 C 23.4 78.9 21.3 76.4 22.8 78.0 C 22.4 78.3 22.0 80.6 21.8 79.1 C 22.1 78.6 24.0 80.9 22.0 80.8 C 21.4 78.1 20.9 83.6 21.7 82.8 C 23.4 79.2 22.2 87.1 21.6 83.9 C 20.3 85.4 21.3 83.3 21.4 85.5 C 22.0 85.4 22.3 87.1 21.2 86.5 C 19.3 86.5 23.6 87.5 20.8 88.4 C 19.7 88.4 21.1 91.1 20.1 89.9 C 20.0 89.9 19.7 90.2 19.7 90.2 M 20.0 89.5 C 20.4 89.9 19.4 89.9 20.0 89.5 M 20.4 89.9 C 20.3 89.9 20.3 89.9 20.4 89.9 C 20.4 89.9 20.4 89.9 20.4 89.9 Z M 21.4 85.9 C 21.3 85.9 21.3 85.9 21.4 85.9 C 21.4 85.9 21.4 85.9 21.4 85.9 Z M 26.7 83.5 C 26.6 83.5 26.6 83.5 26.7 83.5 C 26.7 83.5 26.7 83.5 26.7 83.5 Z M 22.0 83.1 C 22.0 83.2 22.0 83.2 22.0 83.1 C 22.0 83.1 22.0 83.1 22.0 83.1 Z M 21.4 87.4 C 21.4 87.4 21.4 87.4 21.4 87.4 C 21.4 87.4 21.4 87.4 21.4 87.4 Z M 21.3 83.3 C 22.0 83.2 20.6 84.1 21.2 83.2 C 21.2 83.2 21.2 83.4 21.3 83.3 M 21.6 79.7 C 21.7 79.7 21.7 79.7 21.6 79.7 M 28.5 72.8 C 28.6 72.8 28.6 72.8 28.5 72.8 M 23.1 71.2 C 23.2 71.1 23.2 71.1 23.1 71.2 M 23.0 76.3 C 23.1 75.1 23.4 76.0 23.0 76.3 M 24.0 68.4 C 23.3 69.7 23.9 66.8 24.0 68.4 M 23.8 67.0 C 23.9 66.9 23.9 66.9 23.8 67.0 M 23.0 73.2 C 23.0 73.2 23.0 73.2 23.0 73.2 C 23.0 73.2 23.0 73.2 23.0 73.2 Z M 22.6 76.7 C 22.0 78.0 22.2 75.1 22.6 76.7 M 20.8 85.3 C 20.6 84.4 21.7 85.4 20.8 85.3 M 20.9 86.9 C 20.9 87.0 20.9 87.0 20.9 86.9 C 20.9 86.9 20.9 86.9 20.9 86.9 Z M 23.6 70.6 C 23.6 70.6 23.6 70.6 23.6 70.6 C 23.6 70.6 23.6 70.6 23.6 70.6 Z M 23.7 69.0 C 23.7 69.0 23.7 69.0 23.7 69.0 C 23.7 69.0 23.7 69.0 23.7 69.0 Z M 29.3 67.3 C 29.3 67.3 29.3 67.3 29.3 67.3 C 29.3 67.3 29.3 67.3 29.3 67.3 Z M 23.3 86.1 C 22.7 87.1 21.8 84.7 23.0 85.2 C 23.5 85.2 23.2 86.0 23.3 86.1 M 24.0 78.0 C 25.8 78.0 21.4 78.6 24.0 78.0 M 25.0 67.0 C 27.3 66.3 23.3 68.1 25.0 67.0 M 25.0 64.8 C 25.6 64.2 24.6 68.8 24.6 65.5 C 24.3 65.1 24.8 64.9 25.0 64.8 M 22.5 79.8 C 23.5 79.6 21.8 81.4 22.5 79.8 M 26.6 73.7 C 26.0 73.1 25.7 71.7 26.7 72.5 C 28.0 72.7 27.0 74.5 26.6 73.7 M 21.1 89.4 C 19.7 88.2 22.4 89.6 21.1 89.4 M 21.9 85.2 C 21.9 85.2 21.9 85.2 21.9 85.2 C 21.9 85.2 21.9 85.2 21.9 85.2 Z M 22.0 83.6 C 22.1 83.5 22.1 83.5 22.0 83.6 M 19.8 88.5 C 20.0 88.4 20.0 88.4 19.8 88.5 M 24.9 73.5 C 25.1 73.4 25.1 73.4 24.9 73.5 M 23.3 76.6 C 25.1 75.3 23.5 77.6 23.3 76.6 M 25.6 81.1 C 26.4 80.7 25.4 82.1 25.6 81.1 M 23.2 73.9 C 24.9 73.0 24.3 75.7 23.2 73.9 M 23.0 77.4 C 23.0 77.3 23.0 77.3 23.0 77.4 C 23.0 77.4 23.0 77.4 23.0 77.4 Z M 26.8 73.4 C 26.8 73.4 26.8 73.4 26.8 73.4 C 26.8 73.4 26.8 73.4 26.8 73.4 Z M 26.8 72.9 C 26.8 72.9 26.8 72.9 26.8 72.9 C 26.8 72.9 26.8 72.9 26.8 72.9 Z M 23.3 72.5 C 23.3 72.6 23.3 72.6 23.3 72.5 C 23.3 72.5 23.3 72.5 23.3 72.5 Z M 24.9 87.8 C 25.2 86.7 25.0 88.7 24.9 87.8 C 24.9 87.8 24.9 87.8 24.9 87.8 Z M 21.5 82.0 C 23.0 80.3 22.4 83.5 21.5 82.0 C 21.5 82.0 21.5 82.0 21.5 82.0 Z M 23.8 80.2 C 23.9 80.2 23.9 80.2 23.8 80.2 C 23.8 80.2 23.8 80.2 23.8 80.2 Z M 22.2 74.5 C 22.3 74.5 22.3 74.5 22.2 74.5 C 22.2 74.5 22.2 74.5 22.2 74.5 Z M 25.2 87.2 C 25.3 87.2 25.3 87.2 25.2 87.2 C 25.2 87.2 25.2 87.2 25.2 87.2 Z M 24.6 69.4 C 24.7 69.4 24.7 69.4 24.6 69.4 C 24.6 69.4 24.6 69.4 24.6 69.4 Z M 26.5 76.5 C 26.0 75.9 26.9 76.5 26.5 76.5 C 26.5 76.5 26.5 76.5 26.5 76.5 Z M 26.8 74.8 C 26.8 74.7 26.8 74.7 26.8 74.8 C 26.8 74.8 26.8 74.8 26.8 74.8 Z M 23.8 66.5 C 23.8 66.5 23.8 66.5 23.8 66.5 C 23.8 66.5 23.8 66.5 23.8 66.5 Z M 28.9 70.7 C 28.9 70.7 28.9 70.7 28.9 70.7 C 28.9 70.7 28.9 70.7 28.9 70.7 Z M 27.5 69.0 C 27.5 69.0 27.5 69.0 27.5 69.0 C 27.5 69.0 27.5 69.0 27.5 69.0 Z M 23.6 72.9 C 23.6 71.1 24.2 73.4 23.6 72.9 C 23.6 72.9 23.6 72.9 23.6 72.9 Z M 27.8 64.7 C 27.9 64.7 27.9 64.7 27.8 64.7 C 27.8 64.7 27.8 64.7 27.8 64.7 Z M 25.9 63.5 C 26.0 63.5 26.0 63.5 25.9 63.5 C 25.9 63.5 25.9 63.5 25.9 63.5 Z M 24.9 62.9 C 25.0 62.9 25.0 62.9 24.9 62.9 C 24.9 62.9 24.9 62.9 24.9 62.9 Z M 24.1 84.0 C 24.0 84.0 24.0 84.0 24.1 84.0 C 24.1 84.0 24.1 84.0 24.1 84.0 Z M 20.8 84.1 C 20.7 84.1 20.7 84.1 20.8 84.1 C 20.8 84.1 20.8 84.1 20.8 84.1 Z M 21.0 81.8 C 21.0 81.8 21.0 81.8 21.0 81.8 C 21.0 81.8 21.0 81.8 21.0 81.8 Z M 26.0 84.7 C 26.0 84.8 26.0 84.8 26.0 84.7 C 26.0 84.7 26.0 84.7 26.0 84.7 Z M 24.8 75.7 C 24.7 75.7 24.7 75.7 24.8 75.7 C 24.8 75.7 24.8 75.7 24.8 75.7 Z M 26.2 75.1 C 26.2 75.1 26.2 75.1 26.2 75.1 C 26.2 75.1 26.2 75.1 26.2 75.1 Z M 27.6 77.4 C 27.6 77.4 27.6 77.4 27.6 77.4 C 27.6 77.4 27.6 77.4 27.6 77.4 Z M 27.5 74.7 C 27.5 74.7 27.5 74.7 27.5 74.7 C 27.5 74.7 27.5 74.7 27.5 74.7 Z M 24.4 90.4 C 24.4 90.4 24.4 90.4 24.4 90.4 C 24.4 90.4 24.4 90.4 24.4 90.4 Z M 21.9 90.1 C 21.9 90.2 21.9 90.2 21.9 90.1 C 21.9 90.1 21.9 90.1 21.9 90.1 Z M 23.0 75.1 C 22.6 74.6 23.9 74.4 23.0 75.1 M 22.8 78.4 C 22.8 78.4 22.8 78.4 22.8 78.4 C 22.8 78.4 22.8 78.4 22.8 78.4 Z M 24.1 69.6 C 25.2 69.4 23.3 71.1 24.1 69.6 C 24.1 69.6 24.1 69.6 24.1 69.6 Z M 28.0 72.1 C 28.0 72.1 28.0 72.1 28.0 72.1 C 28.0 72.1 28.0 72.1 28.0 72.1 Z M 27.7 71.2 C 27.8 71.1 27.8 71.1 27.7 71.2 C 27.7 71.2 27.7 71.2 27.7 71.2 Z M 25.9 66.0 C 26.0 65.9 26.0 65.9 25.9 66.0 M 21.8 78.7 C 22.3 78.3 22.2 78.3 21.8 78.7 M 24.4 68.5 C 24.4 68.6 24.4 68.6 24.4 68.5 C 24.4 68.5 24.4 68.5 24.4 68.5 Z M 25.5 64.8 C 25.5 64.9 25.5 64.9 25.5 64.8 C 25.5 64.8 25.5 64.8 25.5 64.8 Z M 22.1 81.1 C 23.3 81.2 22.9 81.6 22.1 81.1 M 21.3 87.7 C 21.4 87.7 21.4 87.7 21.3 87.7 C 21.3 87.7 21.3 87.7 21.3 87.7 Z M 25.6 59.5 C 23.9 61.0 25.8 61.4 25.9 61.4 C 23.4 60.7 26.6 63.1 27.1 62.9 C 27.4 63.0 32.1 62.4 29.6 60.7 C 29.4 60.3 30.2 60.2 30.3 60.0 C 30.6 57.8 28.6 61.2 29.1 58.6 C 29.6 58.2 31.5 59.1 30.4 57.3 C 30.6 57.3 31.7 55.6 30.6 56.1 C 31.7 55.5 30.7 54.7 30.6 53.9 C 31.3 53.3 32.0 54.7 31.3 52.0 C 33.2 51.2 30.3 50.3 32.4 49.6 C 32.5 49.0 29.6 47.5 31.1 49.3 C 30.9 49.0 29.3 49.7 30.2 47.8 C 30.5 48.1 33.5 49.8 32.5 46.4 C 32.7 45.9 32.1 44.5 32.5 44.3 C 32.6 46.0 34.3 42.3 33.3 42.5 C 34.4 40.1 32.7 41.3 34.1 39.7 C 34.4 38.2 32.6 39.9 33.7 38.2 C 33.8 36.8 34.4 37.9 34.4 38.0 C 34.7 36.8 34.2 36.3 34.4 35.9 C 34.6 35.6 35.3 35.2 34.6 34.7 C 33.4 33.2 31.7 34.1 30.4 33.3 C 29.5 34.1 31.4 33.9 30.2 34.4 C 31.0 35.0 30.1 34.4 29.9 37.0 C 30.1 37.0 30.8 36.5 30.8 37.1 C 30.5 38.1 28.2 36.9 29.6 38.9 C 30.5 37.1 29.9 41.8 30.8 40.1 C 30.6 42.4 30.4 40.7 29.6 42.2 C 31.2 42.4 27.8 42.0 29.0 42.9 C 28.3 42.9 28.1 45.5 29.5 43.8 C 29.4 46.6 28.8 44.7 27.7 45.5 C 27.4 46.7 30.4 46.1 28.2 46.5 C 27.0 47.9 29.2 46.7 27.4 47.6 C 28.9 47.4 27.2 48.8 28.8 48.6 C 28.4 51.4 27.3 48.0 28.0 50.1 C 28.1 49.5 26.0 49.4 27.2 50.8 C 29.7 50.7 24.7 52.0 28.1 51.7 C 28.3 55.7 26.7 52.1 26.3 54.2 C 26.2 54.7 27.4 53.8 27.4 54.3 C 26.4 56.9 26.0 54.5 27.3 56.2 C 27.2 58.9 25.8 56.7 25.5 58.0 C 26.2 58.2 27.3 59.5 25.6 59.5 M 26.8 57.2 C 26.4 56.6 27.3 57.0 26.8 57.2 M 25.1 62.5 C 24.7 61.8 25.6 62.2 25.1 62.5 M 26.7 55.0 C 26.3 54.1 27.6 54.9 26.7 55.0 M 30.1 40.7 C 29.9 41.7 29.7 40.2 30.1 40.7 M 25.3 60.3 C 24.9 59.4 26.2 60.3 25.3 60.3 M 26.4 61.5 C 26.4 61.5 26.4 61.5 26.4 61.5 M 29.0 39.1 C 29.0 39.0 29.0 39.0 29.0 39.1 M 28.3 42.9 C 28.5 42.1 28.5 43.4 28.3 42.9 M 33.6 44.0 C 33.7 43.2 33.8 44.6 33.6 44.0 M 29.3 37.0 C 29.1 36.1 30.0 36.8 29.3 37.0 M 30.9 35.0 C 30.5 34.2 31.5 34.7 30.9 35.0 M 28.5 58.1 C 28.6 58.1 28.6 58.1 28.5 58.1 C 28.5 58.1 28.5 58.1 28.5 58.1 Z M 31.1 51.2 C 30.4 52.0 31.9 50.3 31.1 51.2 M 27.4 51.9 C 28.6 51.5 27.1 53.0 27.4 51.9 C 27.4 51.9 27.4 51.9 27.4 51.9 Z M 27.7 53.2 C 27.7 53.3 27.7 53.3 27.7 53.2 C 27.7 53.2 27.7 53.2 27.7 53.2 Z M 28.5 49.3 C 28.5 49.3 28.5 49.3 28.5 49.3 C 28.5 49.3 28.5 49.3 28.5 49.3 Z M 28.4 50.1 C 28.6 50.5 28.1 50.5 28.4 50.1 C 28.4 50.1 28.4 50.1 28.4 50.1 Z M 32.8 44.9 C 33.0 45.3 32.5 45.3 32.8 44.9 C 32.8 44.9 32.8 44.9 32.8 44.9 Z M 28.5 51.4 C 29.6 51.7 27.7 51.9 28.5 51.4 C 28.5 51.4 28.5 51.4 28.5 51.4 Z M 31.9 47.6 C 31.7 47.2 33.0 47.1 31.9 47.6 M 29.3 38.3 C 29.1 37.9 30.5 37.8 29.3 38.3 M 27.5 46.7 C 27.3 46.3 28.7 46.1 27.5 46.7 M 26.4 56.7 C 26.5 56.6 26.5 56.6 26.4 56.7 M 31.9 52.9 C 31.6 52.2 32.4 52.7 31.9 52.9 M 30.1 60.7 C 29.8 60.1 30.6 60.6 30.1 60.7 M 34.1 40.4 C 33.8 40.4 34.4 39.6 34.1 40.4 M 29.4 46.0 C 29.7 45.3 30.4 44.6 30.1 46.2 C 29.8 46.2 29.7 45.7 29.4 46.0 C 29.4 46.0 29.4 46.0 29.4 46.0 Z M 32.4 43.8 C 32.5 43.7 32.5 43.7 32.4 43.8 M 28.7 44.5 C 28.8 44.4 28.8 44.4 28.7 44.5 M 29.5 40.2 C 29.7 40.2 29.7 40.2 29.5 40.2 M 29.3 39.6 C 29.4 39.6 29.4 39.6 29.3 39.6 C 29.3 39.6 29.3 39.6 29.3 39.6 Z M 29.8 34.8 C 29.8 34.8 29.8 34.8 29.8 34.8 C 29.8 34.8 29.8 34.8 29.8 34.8 Z M 29.4 41.6 C 29.5 41.6 29.5 41.6 29.4 41.6 C 29.4 41.6 29.4 41.6 29.4 41.6 Z M 34.2 38.5 C 34.3 38.5 34.3 38.5 34.2 38.5 C 34.2 38.5 34.2 38.5 34.2 38.5 Z M 33.5 38.8 C 33.5 38.8 33.5 38.8 33.5 38.8 C 33.5 38.8 33.5 38.8 33.5 38.8 Z M 25.6 59.1 C 25.0 58.3 27.6 59.1 25.6 59.1 M 33.9 36.7 C 34.7 36.2 33.8 37.9 33.9 36.7 C 33.9 36.7 33.9 36.7 33.9 36.7 Z M 30.2 42.3 C 30.4 42.3 30.4 42.3 30.2 42.3 M 29.5 39.4 C 29.6 39.3 29.6 39.3 29.5 39.4 M 26.4 51.8 C 26.6 51.7 26.6 51.7 26.4 51.8 M 30.3 36.1 C 30.9 34.1 31.7 37.3 30.3 36.1 M 27.3 52.9 C 27.2 52.9 27.2 52.9 27.3 52.9 M 30.1 48.7 C 30.3 47.4 30.6 49.3 30.1 48.7 M 29.4 45.0 C 29.4 45.1 29.4 45.1 29.4 45.0 C 29.4 45.0 29.4 45.0 29.4 45.0 Z M 29.0 47.0 C 29.0 48.0 28.7 47.2 29.0 47.0 C 29.0 47.0 29.0 47.0 29.0 47.0 Z M 26.8 58.3 C 27.2 57.1 26.9 59.7 26.8 58.3 C 26.8 58.3 26.8 58.3 26.8 58.3 Z M 32.6 37.5 C 32.7 37.5 32.7 37.5 32.6 37.5 C 32.6 37.5 32.6 37.5 32.6 37.5 Z M 28.6 41.7 C 28.8 42.4 28.3 42.0 28.6 41.7 C 28.6 41.7 28.6 41.7 28.6 41.7 Z M 29.9 34.1 C 30.0 34.8 29.5 34.3 29.9 34.1 C 29.9 34.1 29.9 34.1 29.9 34.1 Z M 26.3 59.8 C 29.0 55.5 24.8 66.0 26.3 59.8 C 26.3 59.8 26.3 59.8 26.3 59.8 Z M 28.4 46.1 C 28.5 46.1 28.5 46.1 28.4 46.1 C 28.4 46.1 28.4 46.1 28.4 46.1 Z M 26.1 54.6 C 26.2 54.6 26.2 54.6 26.1 54.6 C 26.1 54.6 26.1 54.6 26.1 54.6 Z M 26.9 56.2 C 26.9 56.3 26.9 56.3 26.9 56.2 C 26.9 56.2 26.9 56.2 26.9 56.2 Z M 31.1 56.6 C 31.2 56.6 31.2 56.6 31.1 56.6 C 31.1 56.6 31.1 56.6 31.1 56.6 Z M 29.3 55.7 C 29.4 55.8 29.4 55.8 29.3 55.7 C 29.3 55.7 29.3 55.7 29.3 55.7 Z M 29.5 58.9 C 29.5 58.9 29.5 58.9 29.5 58.9 C 29.5 58.9 29.5 58.9 29.5 58.9 Z M 30.0 58.9 C 30.1 58.9 30.1 58.9 30.0 58.9 C 30.0 58.9 30.0 58.9 30.0 58.9 Z M 30.7 39.6 C 30.8 39.6 30.8 39.6 30.7 39.6 C 30.7 39.6 30.7 39.6 30.7 39.6 Z M 32.1 41.5 C 31.7 40.3 33.0 42.0 32.1 41.5 C 32.1 41.5 32.1 41.5 32.1 41.5 Z M 29.6 51.0 C 29.5 49.9 30.0 51.7 29.6 51.0 C 29.6 51.0 29.6 51.0 29.6 51.0 Z M 32.0 50.3 C 32.0 50.3 32.0 50.3 32.0 50.3 C 32.0 50.3 32.0 50.3 32.0 50.3 Z M 25.8 56.0 C 25.9 56.1 25.9 56.1 25.8 56.0 C 25.8 56.0 25.8 56.0 25.8 56.0 Z M 26.2 58.0 C 27.1 58.2 25.7 58.5 26.2 58.0 M 27.4 48.7 C 27.5 48.7 27.5 48.7 27.4 48.7 C 27.4 48.7 27.4 48.7 27.4 48.7 Z M 29.8 43.1 C 29.9 43.1 29.9 43.1 29.8 43.1 C 29.8 43.1 29.8 43.1 29.8 43.1 Z M 30.3 37.2 C 30.4 37.2 30.4 37.2 30.3 37.2 C 30.3 37.2 30.3 37.2 30.3 37.2 Z M 28.1 45.1 C 28.2 45.1 28.2 45.1 28.1 45.1 C 28.1 45.1 28.1 45.1 28.1 45.1 Z M 28.4 48.0 C 28.6 48.0 28.6 48.0 28.4 48.0 C 28.4 48.0 28.4 48.0 28.4 48.0 Z M 31.8 36.1 C 31.8 36.2 31.8 36.2 31.8 36.1 C 31.8 36.1 31.8 36.1 31.8 36.1 Z M 28.1 44.4 C 28.1 44.4 28.1 44.4 28.1 44.4 C 28.1 44.4 28.1 44.4 28.1 44.4 Z M 31.2 43.2 C 31.3 43.3 31.3 43.3 31.2 43.2 C 31.2 43.2 31.2 43.2 31.2 43.2 Z M 25.0 57.5 C 25.0 57.5 25.0 57.5 25.0 57.5 C 25.0 57.5 25.0 57.5 25.0 57.5 Z M 30.6 35.9 C 30.6 35.9 30.6 35.9 30.6 35.9 C 30.6 35.9 30.6 35.9 30.6 35.9 Z M 29.9 35.4 C 29.9 35.4 29.9 35.4 29.9 35.4 C 29.9 35.4 29.9 35.4 29.9 35.4 Z M 33.3 40.2 C 32.5 42.2 33.5 38.3 32.2 39.7 C 32.5 36.7 33.4 39.8 33.3 40.2 C 33.3 40.2 33.3 40.2 33.3 40.2 Z M 33.3 40.2 " fill="#EB5C56"></path><path d="M 47.2 27.8 C 47.7 28.0 47.9 29.6 47.1 28.4 C 47.0 28.3 47.0 27.7 47.2 27.8 Z M 46.2 25.2 C 46.3 25.3 46.3 25.5 46.2 25.7 C 45.9 26.1 45.9 24.5 46.2 25.2 Z M 47.1 29.2 C 47.2 29.2 47.5 30.0 47.3 29.9 C 47.1 29.8 47.0 29.1 47.1 29.2 Z M 44.3 23.2 C 44.5 23.1 44.8 24.0 44.8 24.2 C 44.6 24.7 43.8 23.3 44.3 23.2 Z M 39.1 28.9 C 39.1 28.9 39.0 28.9 38.9 28.9 C 39.0 28.9 39.1 28.9 39.1 28.9 Z M 40.3 10.8 C 40.4 11.0 40.3 11.4 40.1 11.3 C 39.8 11.3 40.0 10.3 40.3 10.8 Z M 23.5 26.6 C 23.5 26.6 23.9 26.8 23.7 26.9 C 23.5 27.0 23.4 26.7 23.5 26.6 Z M 23.5 26.9 C 23.5 27.1 23.2 27.1 23.3 26.9 C 23.4 26.7 23.5 26.7 23.5 26.9 Z M 29.0 14.9 C 29.1 14.8 29.1 14.7 29.1 14.8 C 29.2 14.9 28.9 15.0 29.0 14.9 Z M 29.0 15.4 C 29.1 15.6 28.7 15.6 28.8 15.4 C 28.9 15.2 28.9 15.1 29.0 15.4 Z M 26.2 16.6 C 26.3 16.5 26.3 16.5 26.4 16.6 C 26.4 16.7 26.2 16.8 26.2 16.6 Z M 29.8 28.4 C 29.7 28.5 29.2 28.2 29.3 28.1 C 29.4 27.8 30.0 28.3 29.8 28.4 Z M 29.2 28.4 C 29.2 28.6 28.8 28.6 28.9 28.4 C 29.0 28.3 29.1 28.2 29.2 28.4 Z M 31.2 28.4 C 31.2 28.1 31.8 28.2 31.9 28.3 C 32.0 28.4 32.2 28.5 32.4 28.6 C 32.5 28.7 31.1 28.7 31.2 28.4 Z M 35.4 28.9 C 35.4 29.0 35.3 29.0 35.2 28.9 C 35.0 28.7 35.4 28.8 35.4 28.9 Z M 33.0 28.6 C 33.0 28.7 32.9 28.7 32.8 28.6 C 32.6 28.5 33.0 28.5 33.0 28.6 Z M 43.0 18.1 C 43.1 17.9 43.2 18.6 43.2 18.7 C 43.2 18.8 43.1 18.5 43.1 18.7 C 43.1 18.9 42.5 18.7 43.0 18.1 Z M 45.6 23.7 C 45.6 23.9 45.5 23.9 45.4 23.9 C 45.4 23.9 45.3 23.3 45.6 23.7 Z M 42.5 19.2 C 42.6 19.2 42.7 19.4 42.6 19.4 C 42.5 19.4 42.5 19.3 42.5 19.2 Z M 42.3 18.8 C 42.3 18.9 42.2 19.4 42.1 19.3 C 41.8 19.3 42.0 18.3 42.3 18.8 Z M 42.9 17.2 C 43.0 17.4 43.0 17.4 42.9 17.3 C 42.8 17.2 42.9 17.2 42.9 17.2 Z M 44.5 20.4 C 44.6 20.6 44.6 20.6 44.5 20.5 C 44.3 20.4 44.5 20.4 44.5 20.4 Z M 42.0 15.8 C 42.0 15.7 42.4 16.1 42.0 16.3 C 41.6 16.7 41.9 15.8 42.0 15.8 Z M 40.6 13.6 C 40.6 13.8 40.4 13.8 40.4 13.6 C 40.4 13.4 40.5 13.4 40.6 13.6 Z M 39.5 13.0 C 39.5 12.7 39.6 12.5 39.7 12.9 C 39.8 13.3 39.4 13.4 39.5 13.0 Z M 39.8 13.4 C 39.7 13.4 39.7 13.3 39.8 13.3 C 39.8 13.2 39.9 13.4 39.8 13.4 Z M 41.1 15.2 C 41.3 15.3 41.2 15.7 41.0 15.4 C 40.8 15.1 40.9 15.0 41.1 15.2 Z M 41.1 30.4 C 41.3 30.3 41.2 30.6 41.1 30.7 C 41.0 30.7 40.9 30.4 41.1 30.4 Z M 32.3 27.8 C 32.4 28.0 32.3 28.0 32.1 27.9 C 31.9 27.8 32.2 27.7 32.3 27.8 Z M 26.7 26.3 C 26.8 26.5 26.7 26.5 26.5 26.4 C 26.3 26.3 26.6 26.2 26.7 26.3 Z M 34.6 28.2 C 34.6 28.3 34.0 28.7 33.7 28.2 C 33.5 27.7 34.5 27.9 34.6 28.2 Z M 41.0 24.7 C 41.1 24.7 41.0 24.8 41.0 24.8 C 40.9 24.8 40.9 24.8 41.0 24.7 Z M 33.4 27.3 C 33.6 27.3 33.5 27.5 33.4 27.6 C 33.3 27.7 33.2 27.4 33.4 27.3 Z M 27.7 26.9 C 27.9 27.0 27.7 27.4 27.5 27.4 C 27.0 27.7 26.7 27.2 26.4 26.9 C 26.2 26.7 27.5 26.8 27.7 26.9 Z M 42.6 29.8 C 42.5 29.7 42.4 29.6 42.3 29.6 C 42.2 29.7 42.1 29.6 42.0 29.5 C 41.5 29.5 41.0 29.9 40.7 30.0 C 39.8 30.2 39.6 29.1 39.1 28.9 C 39.3 28.9 39.4 29.0 39.5 28.9 C 39.8 28.6 37.8 28.4 37.6 28.4 C 35.9 28.3 37.9 29.0 37.8 29.5 C 37.7 29.8 36.7 28.9 36.6 28.9 C 36.1 28.6 35.9 29.1 35.5 28.8 C 35.4 28.7 34.9 27.2 34.7 27.4 C 34.5 27.5 34.0 27.3 33.8 27.2 C 33.5 27.2 32.9 27.1 33.2 27.6 C 33.3 28.0 33.3 28.4 33.0 28.0 C 32.7 27.7 30.9 26.5 30.8 27.5 C 30.8 27.6 31.1 27.9 31.2 27.9 C 30.6 28.1 28.9 27.4 28.5 27.8 C 27.4 28.5 28.9 27.3 28.5 27.0 C 27.8 26.4 27.4 26.0 26.4 26.0 C 26.2 26.0 25.2 25.9 25.6 26.5 C 25.8 26.9 25.6 27.1 26.1 27.3 C 25.4 27.6 25.1 26.7 25.0 26.8 C 24.7 27.0 25.1 27.3 24.6 27.1 C 24.1 27.0 24.3 27.2 24.3 26.7 C 24.3 26.5 23.8 26.3 23.8 26.3 C 23.8 26.3 23.8 26.2 23.8 26.2 C 23.3 26.1 22.5 26.9 22.4 26.7 C 22.3 26.5 22.7 25.9 22.7 25.7 C 22.7 25.7 22.6 25.7 22.6 25.7 C 22.4 25.7 21.8 26.0 21.8 25.9 C 21.7 25.8 22.2 25.0 22.0 25.2 C 21.7 25.4 20.8 24.9 20.7 24.7 C 20.7 24.4 20.7 23.2 20.5 23.1 C 20.3 23.0 20.8 22.5 20.9 22.4 C 21.0 22.2 21.5 22.2 21.6 22.2 C 21.7 22.1 21.9 21.7 21.9 21.7 C 21.9 21.7 22.0 21.5 22.2 21.2 C 22.4 20.9 22.8 20.8 23.3 20.5 C 23.7 20.3 23.6 19.9 23.9 19.5 C 24.1 19.2 24.9 19.3 25.3 19.1 C 25.6 18.8 25.1 18.5 25.4 18.1 C 25.7 17.7 26.0 17.5 26.0 17.7 C 26.0 17.9 26.2 17.9 26.3 17.8 C 26.4 17.7 26.9 17.4 26.9 17.1 C 27.0 16.9 25.6 17.7 26.9 16.3 C 27.6 15.6 28.5 15.6 28.3 15.7 C 27.9 16.3 29.5 15.8 29.3 15.6 C 29.1 15.4 30.2 14.2 29.5 14.2 C 29.4 14.2 30.3 12.9 30.5 12.7 C 30.7 12.6 31.1 12.0 31.6 12.2 C 31.9 12.2 31.9 11.1 32.1 11.0 C 32.2 10.8 33.1 9.9 33.4 9.8 C 33.6 9.7 33.3 10.2 33.1 10.4 C 32.9 10.6 32.4 10.7 32.3 10.9 C 32.2 11.1 32.7 10.9 33.0 10.7 C 33.2 10.5 33.4 10.6 33.7 10.5 C 33.7 10.3 33.9 10.2 34.1 10.0 C 34.1 9.9 34.1 9.8 34.1 9.8 C 33.9 9.7 33.8 9.7 33.7 9.6 C 33.7 9.6 33.7 9.3 34.0 9.0 C 34.3 8.7 34.5 8.5 34.9 8.2 C 35.4 7.9 35.4 7.7 35.6 7.4 C 35.8 7.2 36.0 7.0 36.1 7.0 C 36.2 7.1 36.0 7.5 36.0 7.5 C 36.1 7.6 36.6 7.4 36.7 7.3 C 37.4 6.7 37.6 7.8 38.3 7.1 C 38.7 6.8 38.5 7.4 38.5 7.9 C 38.6 7.8 38.7 7.8 38.9 8.2 C 39.1 8.1 39.2 8.8 39.3 9.0 C 39.4 9.2 40.0 10.2 39.5 9.7 C 39.4 9.6 39.4 9.6 39.3 9.5 C 39.3 9.5 39.3 9.6 39.3 9.6 C 39.3 9.6 38.8 9.4 38.8 9.4 C 38.8 9.4 39.3 9.6 39.3 9.6 C 39.2 9.8 39.1 10.0 39.0 10.1 C 39.0 10.1 39.1 10.2 39.2 10.2 C 39.2 10.2 39.2 10.2 39.2 10.2 C 39.2 10.2 39.2 10.2 39.2 10.2 C 39.4 10.1 39.4 10.2 39.4 10.4 C 39.8 10.7 39.8 11.7 39.8 12.2 C 38.5 11.5 39.2 13.2 39.5 13.8 C 39.9 14.3 41.1 13.8 40.9 13.5 C 41.1 14.0 41.0 14.1 40.7 14.4 C 40.7 14.3 40.2 15.1 40.2 15.0 C 40.1 16.2 41.1 15.6 41.3 15.8 C 41.5 16.0 41.6 16.3 41.8 16.6 C 42.0 16.9 42.1 16.5 42.3 16.6 C 42.9 16.8 42.2 17.8 42.3 18.1 C 42.1 17.9 41.9 17.6 41.7 17.5 C 42.1 17.7 41.6 18.1 41.6 18.3 C 41.6 18.6 41.8 19.0 41.9 19.3 C 42.2 19.9 42.5 20.4 42.8 20.9 C 42.8 20.7 43.1 19.6 43.1 19.6 C 43.2 19.8 43.2 20.4 43.6 20.0 C 44.2 19.4 44.3 20.9 44.4 21.2 C 44.6 21.9 45.6 22.4 45.1 23.5 C 45.1 23.5 44.5 22.4 44.4 22.5 C 43.8 23.0 43.6 23.4 44.1 24.1 C 44.1 24.3 45.0 25.1 45.1 25.1 C 45.0 25.1 46.0 23.5 45.9 24.6 C 45.9 24.8 45.5 24.5 45.5 24.8 C 45.4 25.2 45.7 25.6 45.8 26.0 C 45.8 26.1 45.9 26.7 45.9 26.7 C 46.1 26.8 46.5 26.7 46.6 26.9 C 46.8 27.0 46.8 27.4 46.5 27.5 C 46.5 27.5 46.5 27.5 46.5 27.5 C 46.5 27.5 46.4 27.6 46.3 27.7 C 46.4 27.7 46.4 27.9 46.3 28.1 C 46.3 28.1 46.1 27.9 46.2 27.7 C 46.1 27.7 46.0 27.7 45.9 27.7 C 46.1 28.0 46.3 28.3 46.3 28.3 C 46.8 28.7 47.0 28.6 46.7 29.6 C 46.5 30.3 44.5 30.5 43.4 30.0 C 43.2 30.1 42.9 30.0 42.6 29.8 Z M 34.7 9.8 C 34.7 9.8 34.7 9.8 34.7 9.8 C 34.7 9.9 34.8 10.0 34.9 10.1 C 35.2 9.9 34.7 10.0 34.9 9.8 C 35.2 9.6 35.1 9.5 34.7 9.8 Z M 37.2 10.4 C 37.3 10.2 37.2 10.2 37.1 10.3 C 37.1 10.4 37.2 10.4 37.2 10.4 Z M 38.4 10.1 C 38.2 9.8 37.9 10.5 38.3 11.0 C 38.4 10.5 38.5 10.3 38.4 10.1 Z M 39.2 10.7 C 39.2 10.8 39.1 10.7 39.0 10.8 C 38.9 10.8 39.2 11.1 39.0 11.1 C 38.9 11.1 38.6 10.8 38.6 11.0 C 38.6 11.1 38.6 11.2 38.6 11.3 C 38.6 11.3 38.7 11.3 38.7 11.3 C 38.9 11.4 39.3 11.0 39.2 10.7 Z M 34.3 11.6 C 34.3 11.5 34.2 11.5 34.1 11.6 C 34.1 11.8 34.2 11.8 34.3 11.6 Z M 32.0 12.6 C 32.2 12.5 32.3 12.3 32.1 12.4 C 31.8 12.4 31.8 12.6 32.0 12.6 Z M 34.5 15.9 C 34.4 15.8 34.4 15.8 34.3 15.9 C 34.2 16.1 34.5 16.0 34.5 15.9 Z M 36.5 16.4 C 36.6 16.5 36.9 16.3 36.8 16.3 C 36.6 16.2 36.4 16.3 36.5 16.4 Z M 31.8 15.3 C 31.7 15.5 31.9 15.4 31.9 15.3 C 31.9 15.1 31.8 15.1 31.8 15.3 Z M 34.7 15.3 C 34.5 15.5 34.5 15.5 34.6 15.6 C 34.6 15.7 34.8 15.7 34.9 15.5 C 35.0 15.3 35.0 15.2 34.7 15.3 Z M 36.5 15.5 C 36.7 16.1 36.9 16.0 36.6 15.4 C 36.2 14.7 36.4 15.2 36.5 15.5 Z M 30.4 13.4 C 30.5 13.4 30.6 13.1 30.6 13.1 C 30.6 13.1 30.0 13.6 30.4 13.4 Z M 41.2 16.5 C 41.2 16.3 40.9 16.3 41.0 16.6 C 41.1 16.9 41.3 16.7 41.2 16.5 Z M 40.2 17.4 C 40.6 17.1 40.5 16.7 40.6 16.6 C 40.5 16.7 40.1 16.7 40.0 16.6 C 39.7 16.3 40.0 15.7 39.6 15.4 C 39.1 15.1 39.4 16.0 39.5 16.1 C 39.4 16.0 39.3 16.0 39.2 16.0 C 39.1 16.1 39.1 16.3 39.2 16.4 C 39.4 16.5 39.7 17.8 40.2 17.4 Z M 35.2 16.5 C 35.3 16.3 35.2 16.1 34.9 16.2 C 34.7 16.3 34.5 16.5 34.6 16.5 C 34.6 16.6 35.1 16.7 35.2 16.5 Z M 33.6 16.4 C 33.5 16.2 33.5 16.2 33.4 16.4 C 33.2 16.7 33.6 16.6 33.6 16.4 Z M 26.4 18.1 C 26.4 18.3 26.7 18.0 26.6 17.9 C 26.5 17.9 26.4 18.0 26.4 18.1 Z M 29.0 18.5 C 28.9 18.9 29.3 18.6 29.3 18.5 C 29.3 18.4 29.1 18.2 29.0 18.5 Z M 30.9 17.2 C 30.8 17.4 31.1 17.3 31.1 17.1 C 31.0 17.0 30.9 17.1 30.9 17.2 Z M 31.9 17.2 C 31.8 17.4 32.1 17.4 32.1 17.1 C 32.2 17.0 32.0 17.1 31.9 17.2 Z M 40.3 19.5 C 40.3 19.5 39.9 19.6 40.2 19.8 C 40.5 20.0 40.5 20.0 40.3 19.5 Z M 37.4 18.3 C 37.2 18.0 37.0 17.7 36.1 17.8 C 35.2 18.0 35.5 18.2 36.0 18.4 C 36.5 18.6 35.1 18.8 36.0 19.2 C 36.4 19.3 37.5 18.6 37.4 18.3 Z M 31.7 18.8 C 32.3 18.6 32.3 17.8 31.9 18.2 C 31.4 18.6 31.2 19.0 31.7 18.8 Z M 31.3 18.8 C 31.4 18.6 31.3 18.7 31.2 18.8 C 31.1 18.9 31.3 18.9 31.3 18.8 Z M 43.9 20.6 C 43.3 19.6 43.1 21.0 43.1 21.0 C 43.2 22.1 44.5 21.5 43.9 20.6 Z M 24.4 25.8 C 24.4 25.8 24.4 25.9 24.5 25.9 C 24.5 25.9 24.5 25.9 24.5 25.9 C 24.7 25.7 24.4 25.5 24.4 25.5 C 24.3 25.6 24.3 25.7 24.4 25.8 Z M 29.7 27.1 C 29.5 27.0 29.3 27.0 29.2 27.1 C 29.2 27.6 30.8 27.9 30.3 26.9 C 30.3 26.8 29.3 25.9 29.2 26.3 C 29.1 26.5 30.3 27.1 29.7 27.1 Z M 28.2 26.1 C 28.8 26.2 27.7 25.3 27.8 25.7 C 27.9 25.9 28.0 26.0 28.2 26.1 Z M 23.6 23.7 C 22.7 23.9 22.6 25.2 24.1 24.8 C 25.6 24.3 25.7 23.8 25.0 23.9 C 24.3 23.9 25.0 23.4 23.6 23.7 Z M 30.7 25.0 C 30.3 25.9 30.8 25.7 31.2 25.0 C 31.3 24.9 30.9 24.4 30.7 25.0 Z M 32.7 25.2 C 32.9 25.3 32.9 25.3 32.8 25.1 C 32.6 24.9 32.4 25.0 32.7 25.2 Z M 22.5 22.1 C 22.1 22.2 21.8 22.6 21.8 22.3 C 21.9 22.1 21.8 22.2 21.6 22.3 C 21.3 22.5 21.7 22.6 21.9 22.6 C 22.2 22.6 22.8 22.1 22.5 22.1 Z M 30.6 20.4 C 30.5 20.5 30.7 20.5 30.7 20.3 C 30.7 20.2 30.7 20.2 30.6 20.4 Z M 38.2 20.7 C 38.2 20.7 37.9 20.8 38.1 20.9 C 38.3 21.0 38.3 21.0 38.2 20.7 Z M 44.1 22.1 C 44.0 22.0 43.9 22.3 43.5 22.2 C 43.4 22.2 43.7 22.1 43.7 22.0 C 43.6 22.1 42.9 22.0 43.3 22.4 C 43.5 22.6 44.4 22.6 44.1 22.1 Z M 32.6 21.0 C 33.0 20.8 31.7 20.3 32.0 20.1 C 32.2 19.9 32.1 19.8 31.8 20.1 C 31.5 20.3 32.2 21.2 32.6 21.0 Z M 29.4 20.6 C 29.6 20.6 30.2 20.1 29.9 20.2 C 29.5 20.3 29.2 20.6 29.2 20.4 C 29.3 20.1 29.2 20.2 29.0 20.4 C 28.7 20.5 29.2 20.6 29.4 20.6 Z M 24.0 19.9 C 24.2 19.9 24.4 19.5 24.1 19.6 C 24.0 19.7 23.9 19.9 24.0 19.9 Z M 38.7 22.9 C 38.5 22.7 38.4 22.8 38.6 23.1 C 38.8 23.3 38.9 23.0 38.7 22.9 Z M 24.4 20.9 C 24.7 20.6 24.2 20.8 24.4 20.6 C 24.7 20.4 24.5 20.3 24.2 20.5 C 23.9 20.7 24.0 21.1 24.4 20.9 Z M 43.4 24.6 C 43.2 24.5 43.0 24.6 43.1 24.7 C 43.3 24.8 43.5 24.6 43.4 24.6 Z M 41.3 24.9 C 41.2 24.9 41.2 24.8 41.2 24.7 C 40.5 23.3 40.8 25.7 41.3 24.9 Z M 38.2 24.2 C 38.7 24.2 38.2 23.9 38.2 23.9 C 38.1 24.0 38.1 24.2 38.2 24.2 Z M 34.9 23.6 C 34.8 23.8 35.1 23.8 35.1 23.6 C 35.1 23.5 35.0 23.5 34.9 23.6 Z M 45.6 26.2 C 45.6 26.0 45.4 26.0 45.4 26.2 C 45.4 26.3 45.6 26.4 45.6 26.2 Z M 37.2 24.8 C 37.3 24.7 37.3 24.7 37.1 24.7 C 37.0 24.8 37.2 24.9 37.2 24.8 Z M 27.0 23.1 C 27.1 23.0 27.2 22.9 27.3 22.8 C 27.3 22.6 26.7 22.5 26.7 22.2 C 26.7 22.2 26.7 22.2 26.7 22.2 C 26.7 22.2 26.7 22.2 26.7 22.2 C 26.7 22.0 26.9 22.0 26.9 22.1 C 27.0 22.0 27.1 22.0 27.2 22.0 C 27.0 21.8 26.8 21.6 26.6 21.7 C 26.4 21.9 26.3 22.3 26.2 22.7 C 26.4 22.8 26.5 22.9 26.6 22.9 C 26.6 22.9 26.6 22.9 26.6 22.9 C 26.8 22.7 27.0 22.6 27.0 22.8 C 26.9 22.9 26.9 23.0 26.8 23.0 C 26.9 23.0 27.0 23.1 27.0 23.1 Z M 35.9 25.1 C 36.1 25.0 36.0 24.8 35.7 24.7 C 35.4 24.6 35.6 25.1 35.9 25.1 Z M 45.1 26.4 C 45.0 26.4 44.9 26.5 44.9 26.5 C 44.9 26.5 45.0 26.6 45.0 26.6 C 45.2 26.7 45.4 26.7 45.5 26.8 C 45.6 26.6 45.5 26.4 45.1 26.4 Z M 42.1 26.9 C 42.1 26.9 43.3 27.1 43.2 26.8 C 42.9 26.3 43.5 26.0 42.6 26.0 C 42.2 26.0 41.7 26.6 41.3 26.6 C 39.0 26.7 41.7 27.3 42.3 27.5 C 42.4 27.6 41.9 26.9 42.1 26.9 Z M 39.1 27.0 C 39.0 27.2 39.3 27.5 39.4 27.5 C 39.9 27.5 39.3 26.8 39.1 27.0 Z M 45.1 28.4 C 45.1 28.4 45.1 28.4 45.1 28.3 C 45.0 28.3 45.0 28.4 45.0 28.4 C 45.0 28.4 45.0 28.4 45.1 28.4 Z M 46.5 28.9 C 46.1 28.2 45.9 29.3 46.0 29.6 C 46.1 30.1 46.7 29.3 46.5 28.9 Z M 40.5 28.3 C 40.1 28.2 39.4 29.4 40.2 29.5 C 40.9 29.5 41.5 28.6 40.5 28.3 Z M 35.8 29.1 C 35.9 29.0 36.4 29.3 36.1 29.4 C 35.9 29.5 35.7 29.2 35.8 29.1 Z M 42.3 31.0 C 42.2 30.9 42.4 30.9 42.4 30.9 C 42.4 31.1 42.4 31.1 42.3 31.0 Z M 41.9 30.0 C 42.0 30.1 42.3 30.2 42.5 30.3 C 42.6 30.4 42.1 30.4 42.1 30.4 C 41.9 30.3 41.9 30.0 41.9 30.0 Z M 38.3 29.2 C 38.5 29.4 38.2 29.4 38.0 29.3 C 37.9 29.2 38.2 29.1 38.3 29.2 Z M 39.1 29.7 C 39.0 29.6 39.1 29.5 39.3 29.5 C 39.5 29.6 39.2 29.7 39.1 29.7 Z M 37.7 28.7 C 38.1 28.6 38.7 28.7 38.6 29.0 C 38.5 29.1 37.0 28.8 37.7 28.7 Z M 37.7 28.7 " fill="#EB5C56"></path></g></svg>