<?xml version="1.0" encoding="UTF-8"?><svg xmlns="http://www.w3.org/2000/svg" xmlns:xlink="http://www.w3.org/1999/xlink" clip-rule="evenodd" stroke-miterlimit="4.00" viewBox="0 0 304 71"><desc>SVG generated by Keynote</desc><defs></defs><g transform="matrix(1.00, 0.00, -0.00, -1.00, 0.0, 71.0)"><text xml:space="preserve" font-family="Helvetica-Light" font-size="71.0" fill="#000000" transform="matrix(1.00, 0.00, -0.00, -1.00, -4.0, 17.0)">B</text><text xml:space="preserve" font-family="Helvetica-Light" font-size="71.0" fill="#000000" transform="matrix(1.00, 0.00, -0.00, -1.00, 43.4, 17.0)">i</text><text xml:space="preserve" font-family="Helvetica-Light" font-size="71.0" fill="#000000" transform="matrix(1.00, 0.00, -0.00, -1.00, 59.1, 17.0)">g</text><text xml:space="preserve" font-family="Helvetica-Light" font-size="71.0" fill="#000000" transform="matrix(1.00, 0.00, -0.00, -1.00, 102.5, 17.0)"> </text><text xml:space="preserve" font-family="Helvetica-Light" font-size="71.0" fill="#000000" transform="matrix(1.00, 0.00, -0.00, -1.00, 122.2, 17.0)">C</text><text xml:space="preserve" font-family="Helvetica-Light" font-size="71.0" fill="#000000" transform="matrix(1.00, 0.00, -0.00, -1.00, 173.5, 17.0)">l</text><text xml:space="preserve" font-family="Helvetica-Light" font-size="71.0" fill="#000000" transform="matrix(1.00, 0.00, -0.00, -1.00, 189.3, 17.0)">i</text><text xml:space="preserve" font-family="Helvetica-Light" font-size="71.0" fill="#000000" transform="matrix(1.00, 0.00, -0.00, -1.00, 205.0, 17.0)">e</text><text xml:space="preserve" font-family="Helvetica-Light" font-size="71.0" fill="#000000" transform="matrix(1.00, 0.00, -0.00, -1.00, 244.5, 17.0)">n</text><text xml:space="preserve" font-family="Helvetica-Light" font-size="71.0" fill="#000000" transform="matrix(1.00, 0.00, -0.00, -1.00, 284.0, 17.0)">t</text></g></svg>