<?xml version="1.0" encoding="UTF-8"?><svg xmlns="http://www.w3.org/2000/svg" xmlns:xlink="http://www.w3.org/1999/xlink" clip-rule="evenodd" stroke-miterlimit="4.00" viewBox="0 0 376 160"><desc>SVG generated by Keynote</desc><defs></defs><g transform="matrix(1.00, 0.00, -0.00, -1.00, 0.0, 160.0)"><text xml:space="preserve" font-family="Helvetica-Bold" font-weight="bold" font-size="64.8" fill="#000000" transform="matrix(1.00, 0.00, -0.00, -1.00, 115.0, 81.0)">H</text><text xml:space="preserve" font-family="Helvetica-Bold" font-weight="bold" font-size="64.8" fill="#000000" transform="matrix(1.00, 0.00, -0.00, -1.00, 161.8, 81.0)">O</text><text xml:space="preserve" font-family="Helvetica-Bold" font-weight="bold" font-size="64.8" fill="#000000" transform="matrix(1.00, 0.00, -0.00, -1.00, 212.2, 81.0)">C</text><text xml:space="preserve" font-family="Helvetica-Bold" font-weight="bold" font-size="64.8" fill="#000000" transform="matrix(1.00, 0.00, -0.00, -1.00, -2.0, 3.0)">C</text><text xml:space="preserve" font-family="Helvetica-Bold" font-weight="bold" font-size="64.8" fill="#000000" transform="matrix(1.00, 0.00, -0.00, -1.00, 44.8, 3.0)">O</text><text xml:space="preserve" font-family="Helvetica-Bold" font-weight="bold" font-size="64.8" fill="#000000" transform="matrix(1.00, 0.00, -0.00, -1.00, 95.2, 3.0)">M</text><text xml:space="preserve" font-family="Helvetica-Bold" font-weight="bold" font-size="64.8" fill="#000000" transform="matrix(1.00, 0.00, -0.00, -1.00, 149.2, 3.0)">P</text><text xml:space="preserve" font-family="Helvetica-Bold" font-weight="bold" font-size="64.8" fill="#000000" transform="matrix(1.00, 0.00, -0.00, -1.00, 192.4, 3.0)">O</text><text xml:space="preserve" font-family="Helvetica-Bold" font-weight="bold" font-size="64.8" fill="#000000" transform="matrix(1.00, 0.00, -0.00, -1.00, 242.8, 3.0)">S</text><text xml:space="preserve" font-family="Helvetica-Bold" font-weight="bold" font-size="64.8" fill="#000000" transform="matrix(1.00, 0.00, -0.00, -1.00, 286.0, 3.0)">E</text><text xml:space="preserve" font-family="Helvetica-Bold" font-weight="bold" font-size="64.8" fill="#000000" transform="matrix(1.00, 0.00, -0.00, -1.00, 329.2, 3.0)">D</text></g></svg>