<?xml version="1.0" encoding="UTF-8"?><svg xmlns="http://www.w3.org/2000/svg" xmlns:xlink="http://www.w3.org/1999/xlink" clip-rule="evenodd" stroke-miterlimit="4.00" viewBox="0 0 1920 1080"><desc>SVG generated by Keynote</desc><defs></defs><g transform="matrix(1.00, 0.00, -0.00, -1.00, 0.0, 1080.0)"><path d="M 0.0 0.0 L 1920.0 0.0 L 1920.0 1080.0 L 0.0 1080.0 Z M 0.0 0.0 " fill="#FEFFFF"></path><text xml:space="preserve" font-family="Helvetica-Light" font-size="84.0" fill="#000000" transform="matrix(1.00, 0.00, -0.00, -1.00, 548.0, 977.0)">C</text><text xml:space="preserve" font-family="Helvetica-Light" font-size="84.0" fill="#000000" transform="matrix(1.00, 0.00, -0.00, -1.00, 608.6, 977.0)">o</text><text xml:space="preserve" font-family="Helvetica-Light" font-size="84.0" fill="#000000" transform="matrix(1.00, 0.00, -0.00, -1.00, 655.4, 977.0)">m</text><text xml:space="preserve" font-family="Helvetica-Light" font-size="84.0" fill="#000000" transform="matrix(1.00, 0.00, -0.00, -1.00, 725.3, 977.0)">m</text><text xml:space="preserve" font-family="Helvetica-Light" font-size="84.0" fill="#000000" transform="matrix(1.00, 0.00, -0.00, -1.00, 795.3, 977.0)">o</text><text xml:space="preserve" font-family="Helvetica-Light" font-size="84.0" fill="#000000" transform="matrix(1.00, 0.00, -0.00, -1.00, 842.0, 977.0)">n</text><text xml:space="preserve" font-family="Helvetica-Light" font-size="84.0" fill="#000000" transform="matrix(1.00, 0.00, -0.00, -1.00, 888.7, 977.0)"> </text><text xml:space="preserve" font-family="Helvetica-Light" font-size="84.0" fill="#000000" transform="matrix(1.00, 0.00, -0.00, -1.00, 912.1, 977.0)">C</text><text xml:space="preserve" font-family="Helvetica-Light" font-size="84.0" fill="#000000" transform="matrix(1.00, 0.00, -0.00, -1.00, 972.7, 977.0)">o</text><text xml:space="preserve" font-family="Helvetica-Light" font-size="84.0" fill="#000000" transform="matrix(1.00, 0.00, -0.00, -1.00, 1019.4, 977.0)">m</text><text xml:space="preserve" font-family="Helvetica-Light" font-size="84.0" fill="#000000" transform="matrix(1.00, 0.00, -0.00, -1.00, 1089.4, 977.0)">p</text><text xml:space="preserve" font-family="Helvetica-Light" font-size="84.0" fill="#000000" transform="matrix(1.00, 0.00, -0.00, -1.00, 1140.7, 977.0)">o</text><text xml:space="preserve" font-family="Helvetica-Light" font-size="84.0" fill="#000000" transform="matrix(1.00, 0.00, -0.00, -1.00, 1187.4, 977.0)">n</text><text xml:space="preserve" font-family="Helvetica-Light" font-size="84.0" fill="#000000" transform="matrix(1.00, 0.00, -0.00, -1.00, 1234.1, 977.0)">e</text><text xml:space="preserve" font-family="Helvetica-Light" font-size="84.0" fill="#000000" transform="matrix(1.00, 0.00, -0.00, -1.00, 1280.8, 977.0)">n</text><text xml:space="preserve" font-family="Helvetica-Light" font-size="84.0" fill="#000000" transform="matrix(1.00, 0.00, -0.00, -1.00, 1327.5, 977.0)">t</text><text xml:space="preserve" font-family="Helvetica-Light" font-size="84.0" fill="#000000" transform="matrix(1.00, 0.00, -0.00, -1.00, 1350.9, 977.0)">s</text><image xlink:href="../../C69629D2-0884-4AFF-8AA8-220BFC9D46C2/assets/66CBBC318C00CD70C30F205C1434961E.png" width="960.00" height="476.00" transform="matrix(2.00, 0.00, -0.00, -2.00, 1.0, 942.0)"></image></g></svg>