<?xml version="1.0" encoding="UTF-8"?><svg xmlns="http://www.w3.org/2000/svg" xmlns:xlink="http://www.w3.org/1999/xlink" clip-rule="evenodd" stroke-miterlimit="4.00" viewBox="0 0 147 35"><desc>SVG generated by Keynote</desc><defs></defs><g transform="matrix(1.00, 0.00, -0.00, -1.00, 0.0, 35.0)"><path d="M 72.8 9.2 C 71.4 10.1 67.5 8.8 66.3 9.7 M 72.8 9.2 C 72.8 9.2 72.8 9.2 72.8 9.2 C 74.3 8.3 68.1 5.5 67.5 4.5 C 66.9 3.4 65.8 4.6 64.9 4.6 C 62.9 4.6 65.7 1.9 61.6 2.8 C 58.6 3.4 55.7 2.1 52.6 1.8 C 50.0 1.6 48.1 1.7 48.6 4.7 C 52.4 7.1 51.8 9.7 51.7 9.7 C 48.7 10.0 42.0 10.5 39.7 9.3 C 39.0 8.9 40.9 1.4 40.3 1.4 C 38.5 0.8 37.7 3.2 35.8 3.2 C 33.7 3.2 32.7 3.4 30.9 2.1 C 30.5 1.8 26.8 1.7 28.3 2.9 C 26.8 2.7 24.6 2.1 23.1 2.7 C 21.8 3.3 21.5 5.7 23.2 6.0 C 22.8 6.3 30.2 7.0 30.3 6.4 C 30.1 8.6 24.3 5.5 22.8 8.7 C 20.7 13.0 24.1 11.3 26.1 12.5 C 28.1 13.7 22.8 15.8 20.9 15.8 C 16.9 15.9 26.8 19.8 22.8 21.0 C 18.8 22.2 22.9 23.2 26.2 25.3 C 28.6 26.8 27.7 28.4 25.9 29.3 C 28.5 29.0 30.0 29.6 31.9 32.0 C 34.5 32.6 33.3 30.8 33.1 29.7 C 32.0 24.7 41.1 30.4 41.5 30.4 C 42.8 30.2 43.9 28.8 45.4 29.3 C 46.5 29.7 46.3 31.9 47.3 31.9 C 48.6 31.9 50.0 31.9 51.4 31.9 C 52.4 31.9 50.0 30.9 51.6 29.4 C 53.1 27.9 51.0 25.1 50.7 24.8 C 50.8 23.0 57.6 30.3 61.3 30.1 C 65.0 29.9 62.6 28.3 65.1 28.1 C 67.3 28.0 66.5 30.2 68.1 30.3 C 69.7 30.3 70.3 29.0 71.7 29.5 C 74.8 30.8 74.8 27.4 72.6 24.6 C 71.6 23.4 69.7 22.4 70.9 20.1 C 72.2 17.8 75.8 19.1 74.0 17.5 C 72.2 15.9 64.7 18.3 63.6 16.8 C 62.6 15.3 70.9 15.8 69.7 13.8 C 68.6 11.8 68.0 14.2 65.3 13.1 C 65.5 12.1 66.8 13.0 67.0 11.7 C 67.2 10.4 65.2 10.6 66.3 9.7 C 67.5 8.8 71.4 10.1 72.8 9.2 C 72.8 9.2 72.8 9.2 72.8 9.2 Z M 36.6 4.8 C 36.6 4.8 36.6 4.8 36.6 4.8 C 36.2 4.3 37.1 3.8 37.9 4.1 C 38.8 4.3 37.0 5.3 36.6 4.8 C 36.6 4.8 36.6 4.8 36.6 4.8 Z M 61.3 32.0 C 61.3 32.0 61.3 32.0 61.3 32.0 C 60.9 31.5 61.7 30.9 62.6 31.2 C 63.5 31.5 61.7 32.5 61.3 32.0 C 61.3 32.0 61.3 32.0 61.3 32.0 Z M 34.8 29.8 C 34.8 29.8 34.8 29.8 34.8 29.8 C 34.4 29.4 35.2 28.8 36.1 29.1 C 37.0 29.4 35.2 30.3 34.8 29.8 C 34.8 29.8 34.8 29.8 34.8 29.8 Z M 46.1 6.1 C 46.1 6.1 46.1 6.1 46.1 6.1 C 47.3 6.0 48.8 7.1 46.2 8.0 C 45.1 8.3 44.2 8.3 43.4 8.0 C 42.4 7.9 41.0 7.8 40.5 7.1 C 42.8 6.5 44.8 4.7 46.1 6.1 C 46.1 6.1 46.1 6.1 46.1 6.1 Z M 46.8 17.9 C 46.8 17.9 46.8 17.9 46.8 17.9 C 47.3 17.2 49.6 16.9 49.4 18.9 C 47.9 19.5 46.4 18.6 46.8 17.9 C 46.8 17.9 46.8 17.9 46.8 17.9 Z M 18.6 9.5 C 18.6 9.5 18.6 9.5 18.6 9.5 C 19.0 8.8 21.4 8.5 21.1 10.6 C 19.7 11.1 18.2 10.2 18.6 9.5 C 18.6 9.5 18.6 9.5 18.6 9.5 Z M 52.5 11.5 C 52.5 11.5 52.5 11.5 52.5 11.5 C 53.9 11.9 54.5 13.7 52.8 14.0 C 52.0 13.1 48.0 12.7 52.5 11.5 C 52.5 11.5 52.5 11.5 52.5 11.5 Z M 61.5 4.8 C 61.5 4.8 61.5 4.8 61.5 4.8 C 62.3 5.2 62.9 5.0 62.6 6.6 C 61.5 6.6 61.8 6.7 60.5 6.8 C 58.6 6.4 57.6 10.1 56.7 7.9 C 55.3 4.7 60.9 3.6 61.5 4.8 C 61.5 4.8 61.5 4.8 61.5 4.8 Z M 55.3 14.3 C 55.3 14.3 55.3 14.3 55.3 14.3 C 55.8 14.5 56.3 14.9 56.4 15.2 C 56.0 16.0 54.8 14.7 55.3 14.3 C 55.3 14.3 55.3 14.3 55.3 14.3 Z M 22.5 24.6 C 22.5 24.6 22.5 24.6 22.5 24.6 C 22.9 24.7 23.4 25.2 23.6 25.4 C 23.2 26.3 22.0 25.0 22.5 24.6 C 22.5 24.6 22.5 24.6 22.5 24.6 Z M 43.3 30.9 C 43.3 30.9 43.3 30.9 43.3 30.9 C 43.8 31.0 44.3 31.5 44.4 31.8 C 44.0 32.6 42.8 31.3 43.3 30.9 C 43.3 30.9 43.3 30.9 43.3 30.9 Z M 35.5 10.2 C 35.5 10.2 35.5 10.2 35.5 10.2 C 34.6 11.0 31.9 9.0 32.3 8.5 C 33.3 6.9 36.5 9.3 35.5 10.2 C 35.5 10.2 35.5 10.2 35.5 10.2 Z M 72.5 4.3 C 72.5 4.3 72.5 4.3 72.5 4.3 C 71.5 5.1 68.8 3.2 69.2 2.6 C 70.2 1.0 73.4 3.5 72.5 4.3 C 72.5 4.3 72.5 4.3 72.5 4.3 Z M 120.2 6.3 C 120.2 6.3 120.2 6.3 120.2 6.3 C 121.0 6.2 121.6 6.0 122.3 5.7 C 122.0 5.5 121.7 5.3 121.4 5.2 C 120.9 5.2 120.4 5.2 119.9 5.2 C 117.7 5.2 120.8 2.5 116.4 3.3 C 113.3 3.9 113.0 2.8 110.0 2.4 C 109.3 2.5 111.1 5.8 111.2 6.4 C 111.6 8.5 109.4 11.1 108.9 10.9 C 107.8 11.2 105.0 11.7 102.9 10.5 C 100.3 10.7 101.7 6.3 101.6 6.3 C 98.4 6.6 99.5 6.0 97.0 5.4 C 95.2 5.6 95.8 8.2 93.9 8.3 C 93.2 8.7 92.6 3.5 88.4 3.5 C 86.1 3.5 85.0 3.7 83.1 2.4 C 82.6 2.1 78.6 1.9 80.2 3.1 C 79.3 3.0 77.9 2.8 77.4 3.5 C 75.7 6.7 80.6 5.4 81.0 6.3 C 81.1 6.6 78.2 7.2 78.6 8.5 C 79.0 10.0 68.2 9.1 72.0 10.8 C 76.2 12.8 74.9 17.9 74.0 18.5 C 73.4 18.5 73.1 15.8 71.8 17.3 C 70.4 18.8 73.9 20.5 73.9 21.6 C 73.9 28.0 74.1 23.9 77.6 26.0 C 79.3 27.1 76.7 28.7 75.9 29.6 C 76.2 30.0 79.2 29.8 79.4 30.2 C 81.0 30.4 80.6 29.7 82.0 31.4 C 82.8 32.3 85.3 31.2 85.7 31.1 C 86.3 30.8 84.3 30.8 84.1 30.0 C 83.3 26.0 87.1 30.7 89.7 30.6 C 92.3 30.5 93.2 30.3 93.7 30.4 C 94.1 30.5 93.9 27.7 94.6 27.9 C 95.5 27.4 96.3 28.7 97.1 29.6 C 97.9 30.4 100.1 28.4 101.3 28.6 C 102.5 28.7 102.3 30.1 105.0 31.0 C 107.7 31.9 107.6 27.8 107.2 26.7 C 105.9 23.0 109.5 30.4 111.4 30.2 C 113.3 30.0 113.2 28.5 114.4 28.5 C 115.1 28.8 115.6 29.2 116.2 29.7 C 116.8 28.9 117.8 29.4 119.7 29.3 C 120.0 29.3 120.2 29.3 120.4 29.3 C 120.6 29.0 117.5 27.3 117.8 26.8 C 118.8 25.3 120.5 27.4 121.1 28.3 C 122.2 27.0 123.8 26.4 125.5 27.1 C 128.9 28.4 129.0 24.8 126.6 22.0 C 125.5 20.8 123.0 19.0 124.8 17.3 C 126.7 15.7 130.2 17.5 128.2 14.8 C 128.0 14.8 128.6 13.4 125.3 14.4 C 122.0 15.4 120.2 13.8 120.2 13.8 C 118.3 13.6 118.1 14.9 117.0 13.9 C 116.0 12.9 118.6 12.9 120.4 13.0 C 120.7 12.4 119.8 11.4 121.5 11.3 C 123.2 11.3 123.1 12.7 123.9 11.8 C 124.7 10.9 123.8 11.3 123.6 10.9 C 124.9 10.7 126.2 10.7 127.5 10.9 C 130.0 11.3 125.9 8.1 124.9 7.9 C 122.9 7.5 120.8 9.8 120.2 6.3 C 120.2 6.3 120.2 6.3 120.2 6.3 Z M 121.9 16.6 C 121.9 16.6 121.9 16.6 121.9 16.6 C 121.3 17.0 118.9 16.4 119.9 15.7 C 121.0 15.0 122.6 16.2 121.9 16.6 C 121.9 16.6 121.9 16.6 121.9 16.6 Z M 104.3 32.5 C 104.3 32.5 104.3 32.5 104.3 32.5 C 103.6 32.9 101.2 32.3 102.3 31.6 C 103.3 30.9 105.0 32.2 104.3 32.5 C 104.3 32.5 104.3 32.5 104.3 32.5 Z M 105.0 4.4 C 105.0 4.4 105.0 4.4 105.0 4.4 C 104.2 5.8 102.1 3.5 102.9 2.8 C 103.8 3.1 104.7 3.9 105.0 4.4 C 105.0 4.4 105.0 4.4 105.0 4.4 Z M 112.4 26.7 C 112.4 26.7 112.4 26.7 112.4 26.7 C 112.1 26.7 111.8 26.7 111.5 26.7 C 111.9 26.0 113.6 25.4 114.2 25.3 C 114.4 26.7 113.2 26.7 112.4 26.7 C 112.4 26.7 112.4 26.7 112.4 26.7 Z M 96.7 4.4 C 96.7 4.4 96.7 4.4 96.7 4.4 C 95.7 5.4 94.6 4.9 93.5 4.8 C 93.2 0.6 97.8 3.4 96.7 4.4 C 96.7 4.4 96.7 4.4 96.7 4.4 Z M 82.1 11.3 C 82.1 11.3 82.1 11.3 82.1 11.3 C 83.8 12.6 79.5 14.8 78.7 13.5 C 77.9 12.3 79.5 11.8 80.7 11.7 C 80.9 11.4 80.4 10.1 82.1 11.3 C 82.1 11.3 82.1 11.3 82.1 11.3 Z M 92.3 27.4 C 92.3 27.4 92.3 27.4 92.3 27.4 C 92.6 27.3 92.9 26.6 93.2 27.0 C 93.4 27.3 92.8 28.0 92.3 27.4 C 92.3 27.4 92.3 27.4 92.3 27.4 Z M 124.0 28.5 C 124.0 28.5 124.0 28.5 124.0 28.5 C 124.2 28.4 124.6 27.7 124.8 28.1 C 125.1 28.4 124.5 29.1 124.0 28.5 C 124.0 28.5 124.0 28.5 124.0 28.5 Z M 83.2 26.7 C 83.2 26.7 83.2 26.7 83.2 26.7 C 82.7 25.5 84.1 26.2 84.5 25.9 C 84.8 26.8 83.7 27.9 83.2 26.7 C 83.2 26.7 83.2 26.7 83.2 26.7 Z M 103.6 7.4 C 103.6 7.4 103.6 7.4 103.6 7.4 C 105.1 5.6 109.0 5.4 109.0 8.8 C 107.8 9.0 106.7 9.5 105.6 9.3 C 104.9 9.1 104.2 7.9 103.6 7.4 C 103.6 7.4 103.6 7.4 103.6 7.4 Z M 115.6 6.8 C 115.6 6.8 115.6 6.8 115.6 6.8 C 116.3 6.2 118.0 6.3 117.0 7.8 C 116.5 8.4 115.9 8.8 115.2 8.9 C 114.5 9.3 113.1 10.2 112.7 9.5 C 112.3 8.9 113.8 6.4 115.6 6.8 C 115.6 6.8 115.6 6.8 115.6 6.8 Z M 96.6 8.0 C 96.6 8.0 96.6 8.0 96.6 8.0 C 97.0 6.9 99.9 6.9 100.0 7.5 C 100.0 8.0 96.3 9.1 96.6 8.0 C 96.6 8.0 96.6 8.0 96.6 8.0 Z M 108.2 4.8 C 108.2 4.8 108.2 4.8 108.2 4.8 C 108.7 4.9 109.0 5.1 108.8 5.3 C 108.5 5.5 108.0 5.5 107.8 5.3 C 107.7 5.1 107.8 4.7 108.2 4.8 C 108.2 4.8 108.2 4.8 108.2 4.8 Z M 87.7 1.9 C 87.7 1.9 87.7 1.9 87.7 1.9 C 88.1 2.0 88.5 2.2 88.2 2.4 C 87.9 2.6 87.4 2.6 87.3 2.4 C 87.1 2.2 87.2 1.9 87.7 1.9 C 87.7 1.9 87.7 1.9 87.7 1.9 Z M 121.2 3.8 C 121.2 3.8 121.2 3.8 121.2 3.8 C 121.6 3.9 122.0 4.0 121.7 4.3 C 121.4 4.5 121.0 4.4 120.8 4.3 C 120.6 4.1 120.7 3.7 121.2 3.8 C 121.2 3.8 121.2 3.8 121.2 3.8 Z M 89.5 5.8 C 89.5 5.8 89.5 5.8 89.5 5.8 C 90.3 6.4 90.2 7.5 88.6 7.6 C 97.5 11.1 84.8 11.9 83.7 9.2 C 82.0 5.3 88.8 4.3 89.5 5.8 C 89.5 5.8 89.5 5.8 89.5 5.8 Z M 70.9 9.4 C 70.9 7.3 70.7 9.2 70.6 8.2 C 70.6 7.1 70.5 4.3 70.5 7.9 C 70.4 10.6 70.2 10.6 70.2 13.0 C 70.3 14.8 70.3 16.2 70.3 18.2 C 70.3 21.8 70.2 22.6 70.3 25.1 C 70.4 27.2 70.4 22.7 70.4 27.3 C 70.5 30.5 70.6 30.7 70.6 27.5 C 70.7 24.4 70.7 22.7 70.8 27.0 C 70.8 29.1 70.8 29.7 70.9 30.6 C 70.9 30.8 71.1 28.8 71.1 28.8 C 71.0 28.0 71.0 25.7 71.0 25.4 C 71.1 25.2 71.2 27.3 71.1 29.2 C 71.1 32.5 71.4 29.8 71.4 29.0 C 71.4 29.3 71.5 32.8 71.5 30.2 C 71.5 30.2 71.6 29.7 71.7 29.6 C 71.9 28.7 71.5 23.3 71.8 23.1 C 72.0 23.1 71.8 27.9 71.9 28.8 C 71.9 30.8 72.0 30.6 72.1 30.8 C 72.1 30.9 72.2 28.7 72.2 27.7 C 72.3 26.2 72.4 26.8 72.4 28.2 C 72.4 28.9 72.5 30.8 72.5 31.0 C 72.5 31.0 72.6 31.2 72.6 30.7 C 72.6 30.3 72.5 29.0 72.5 28.1 C 72.5 27.5 72.6 30.7 72.7 30.9 C 72.7 31.5 72.7 25.9 72.8 28.5 C 72.9 30.3 72.9 30.1 72.9 27.5 C 72.9 26.2 73.1 29.3 73.1 30.3 C 73.0 24.9 73.1 29.8 73.2 28.9 C 73.1 29.5 73.1 29.8 73.1 30.6 C 73.1 30.9 73.6 31.8 73.6 29.9 C 73.6 28.1 73.5 26.5 73.7 27.1 C 73.7 27.3 73.8 28.5 73.8 29.0 C 73.7 29.9 73.7 29.3 73.6 30.5 C 73.6 30.6 73.8 31.2 73.8 31.2 C 73.9 31.2 73.9 30.0 74.0 28.7 C 74.0 27.9 74.1 30.4 74.1 30.5 C 74.2 30.6 74.3 30.7 74.3 30.2 C 74.4 29.8 74.4 30.0 74.4 28.1 C 74.4 26.3 74.5 26.1 74.6 25.2 C 74.6 24.3 74.6 24.3 74.7 25.3 C 74.7 27.0 74.7 27.2 74.7 28.2 C 74.7 31.5 74.9 31.2 75.0 30.6 C 75.1 30.0 74.9 28.3 75.0 28.0 C 75.0 27.2 75.1 28.1 75.1 28.1 C 75.2 28.1 75.1 29.3 75.1 29.9 C 75.2 32.9 75.3 26.6 75.3 27.1 C 75.4 27.8 75.4 32.2 75.5 30.1 C 75.7 27.9 75.8 32.1 75.9 30.3 C 76.0 28.9 76.1 33.8 76.2 29.4 C 76.2 27.4 76.3 24.9 76.3 22.8 C 76.3 22.1 76.3 15.7 76.2 16.8 C 76.2 16.0 76.3 16.2 76.3 15.2 C 76.3 14.5 76.2 13.4 76.2 12.8 C 76.2 12.5 76.3 10.9 76.3 10.2 C 76.3 9.4 76.1 7.8 76.1 4.8 C 76.1 3.6 76.1 2.6 76.1 4.1 C 76.1 4.8 76.1 8.7 76.1 8.5 C 76.1 8.6 76.0 7.6 76.0 7.6 C 76.0 8.1 76.0 8.8 76.0 9.6 C 76.0 9.9 75.8 9.9 75.8 9.5 C 75.7 8.3 75.8 4.9 75.7 4.1 C 75.7 3.7 75.7 5.7 75.6 5.7 C 75.6 5.6 75.6 3.8 75.6 3.3 C 75.6 3.1 75.3 4.5 75.3 5.1 C 75.3 5.3 75.4 8.5 75.4 9.6 C 75.4 11.7 75.3 10.8 75.2 10.7 C 75.2 10.6 75.0 8.7 75.0 5.9 C 75.0 5.0 75.1 4.7 75.2 4.2 C 75.1 4.9 75.0 -0.1 74.9 3.3 C 74.9 3.8 75.0 4.0 75.0 4.3 C 75.0 4.7 74.9 7.9 74.9 7.6 C 74.9 7.5 74.8 5.2 74.8 5.8 C 74.8 5.5 74.7 8.7 74.7 7.5 C 74.7 8.2 74.8 10.4 74.8 11.2 C 74.8 11.2 74.6 10.8 74.6 10.7 C 74.5 9.8 74.6 10.9 74.5 12.2 C 74.4 13.5 74.3 14.6 74.3 11.1 C 74.4 7.0 74.3 5.9 74.3 9.0 C 74.3 12.2 74.2 11.5 74.2 10.7 C 74.1 9.9 74.0 11.2 73.9 8.8 C 73.8 5.7 74.0 5.2 73.9 4.0 C 73.9 2.6 73.8 2.9 73.8 3.1 C 73.7 3.6 73.8 5.7 73.7 6.0 C 73.7 6.6 73.6 3.4 73.6 3.9 C 73.6 4.0 73.5 5.9 73.5 5.9 C 73.3 5.6 73.5 7.2 73.6 10.1 C 73.6 11.1 73.4 9.2 73.5 12.7 C 73.5 16.4 73.3 16.2 73.3 14.5 C 73.3 14.1 73.3 13.7 73.3 13.4 C 73.3 11.5 73.1 12.0 73.1 10.4 C 73.1 9.7 73.4 7.2 73.3 5.3 C 73.3 4.1 73.3 6.0 73.3 6.6 C 73.2 7.6 73.2 5.2 73.2 4.9 C 73.2 5.1 73.1 5.3 73.1 6.6 C 73.1 7.0 73.2 8.0 73.1 8.4 C 73.0 9.9 73.1 7.0 73.0 5.2 C 73.0 4.1 72.8 2.8 72.8 3.1 C 72.8 3.4 72.9 3.9 72.9 4.6 C 72.9 5.7 72.8 4.9 72.8 5.9 C 72.8 6.2 72.8 6.8 72.8 7.0 C 72.8 8.1 72.7 7.7 72.7 8.8 C 72.7 9.7 72.8 9.0 72.8 10.4 C 72.8 11.4 72.7 12.9 72.7 11.2 C 72.7 9.1 72.6 11.6 72.5 10.5 C 72.5 9.2 72.6 7.6 72.5 7.1 C 72.4 6.5 72.5 8.3 72.4 9.4 C 72.4 12.5 72.2 2.6 72.2 5.1 C 72.2 5.9 72.3 9.8 72.2 9.0 C 72.1 8.5 71.9 12.2 71.9 9.0 C 71.9 8.3 72.1 8.0 72.0 7.4 C 72.0 5.9 71.9 6.3 71.9 6.0 C 71.8 5.6 71.9 4.0 71.8 3.0 C 71.8 1.8 71.7 5.2 71.7 5.0 C 71.7 4.8 71.7 9.9 71.7 10.5 C 71.7 8.5 71.6 11.2 71.5 9.2 C 71.5 5.0 71.4 6.6 71.3 5.2 C 71.4 5.3 71.4 5.6 71.4 6.2 C 71.4 6.5 71.3 6.7 71.3 6.6 C 71.3 6.9 71.4 7.4 71.4 8.3 C 71.4 8.4 71.0 13.8 71.0 9.2 C 71.0 8.6 71.0 1.2 70.9 3.5 C 70.9 4.2 70.9 9.5 70.9 9.4 M 72.1 6.4 C 72.1 6.3 72.1 6.6 72.2 7.2 C 72.1 7.8 72.1 7.9 72.1 7.4 C 72.1 6.7 72.1 6.4 72.1 6.4 M 72.1 4.0 C 72.1 3.9 72.1 4.2 72.1 4.8 C 72.0 6.4 72.0 1.1 72.1 3.0 C 72.1 3.0 72.1 3.8 72.1 4.0 M 73.1 3.7 C 73.1 4.2 73.0 5.2 73.1 3.9 C 73.1 3.2 73.1 3.1 73.1 3.7 M 73.3 9.4 C 73.4 10.6 73.3 10.8 73.3 10.2 C 73.3 9.2 73.3 9.1 73.3 9.4 M 75.6 7.5 C 75.6 10.3 75.4 14.8 75.4 10.6 C 75.4 5.8 75.6 3.6 75.6 7.5 M 74.1 4.7 C 74.1 5.8 74.0 4.9 74.0 3.7 C 74.0 1.5 74.1 3.5 74.1 4.7 M 74.0 8.2 C 74.0 9.4 74.0 8.7 74.0 7.9 C 74.0 7.1 74.0 6.9 74.0 8.2 M 75.2 7.6 C 75.2 6.7 75.3 7.9 75.2 8.3 C 75.2 8.7 75.2 8.4 75.2 7.6 C 75.2 7.6 75.2 7.6 75.2 7.6 Z M 75.9 8.0 C 75.9 7.6 75.9 6.8 75.9 7.2 C 75.9 7.5 75.9 8.3 75.9 8.0 C 75.9 8.0 75.9 8.0 75.9 8.0 Z M 74.5 9.0 C 74.5 8.8 74.5 5.9 74.6 7.3 C 74.7 8.5 74.6 9.2 74.5 9.0 C 74.5 9.0 74.5 9.0 74.5 9.0 Z M 75.5 28.7 C 75.5 29.1 75.5 29.8 75.5 29.4 C 75.4 28.7 75.5 28.4 75.5 28.7 C 75.5 28.7 75.5 28.7 75.5 28.7 Z M 71.9 12.7 C 71.9 13.4 71.9 13.7 71.9 13.3 C 71.9 12.7 71.9 12.0 71.9 12.7 C 71.9 12.7 71.9 12.7 71.9 12.7 Z M 71.1 7.5 C 71.2 8.2 71.1 8.2 71.1 7.7 C 71.1 7.1 71.1 6.8 71.1 7.5 C 71.1 7.5 71.1 7.5 71.1 7.5 Z M 70.5 23.2 C 70.5 23.9 70.5 24.3 70.5 23.8 C 70.5 23.2 70.5 22.4 70.5 23.2 C 70.5 23.2 70.5 23.2 70.5 23.2 Z M 71.6 19.9 C 71.7 20.6 71.6 21.0 71.6 20.5 C 71.6 19.9 71.6 19.2 71.6 19.9 C 71.6 19.9 71.6 19.9 71.6 19.9 Z M 71.8 9.7 C 71.7 8.5 71.8 4.8 71.8 7.8 C 71.9 10.8 71.8 11.0 71.8 9.7 C 71.8 9.7 71.8 9.7 71.8 9.7 Z M 74.2 27.9 C 74.2 27.9 74.3 26.4 74.3 26.9 C 74.4 28.8 74.2 27.9 74.2 27.9 C 74.2 27.9 74.2 27.9 74.2 27.9 Z M 73.4 12.4 C 73.4 12.4 73.4 11.7 73.4 11.8 C 73.5 13.0 73.4 12.4 73.4 12.4 C 73.4 12.4 73.4 12.4 73.4 12.4 Z M 72.9 2.2 C 72.9 2.2 73.0 1.5 73.0 1.7 C 73.0 2.8 72.9 2.2 72.9 2.2 C 72.9 2.2 72.9 2.2 72.9 2.2 Z M 71.2 5.4 C 71.1 5.0 71.1 3.4 71.2 4.0 C 71.3 4.5 71.2 5.9 71.2 5.4 C 71.2 5.4 71.2 5.4 71.2 5.4 Z M 71.4 11.1 C 71.4 9.0 71.4 8.0 71.5 9.9 C 71.5 11.6 71.5 13.3 71.4 11.1 C 71.4 11.1 71.4 11.1 71.4 11.1 Z M 71.1 13.2 C 71.1 13.0 71.1 13.3 71.1 13.9 C 71.1 14.7 71.0 14.3 71.0 13.5 C 71.0 12.1 71.1 13.2 71.1 13.2 M 71.3 24.0 C 71.4 20.5 71.3 29.1 71.3 28.2 C 71.2 27.2 71.2 24.7 71.3 24.0 C 71.3 24.0 71.3 24.0 71.3 24.0 Z M 72.5 26.8 C 72.5 25.9 72.5 27.0 72.5 27.7 C 72.5 28.2 72.4 27.7 72.5 26.8 C 72.5 26.8 72.5 26.8 72.5 26.8 Z M 72.4 6.2 C 72.4 5.7 72.4 6.0 72.4 6.7 C 72.4 7.2 72.3 7.1 72.4 6.2 C 72.4 6.2 72.4 6.2 72.4 6.2 Z M 70.6 4.6 C 70.6 4.1 70.7 4.4 70.6 5.1 C 70.6 5.6 70.5 5.5 70.6 4.6 C 70.6 4.6 70.6 4.6 70.6 4.6 Z M 73.2 19.9 C 73.2 18.6 73.3 20.4 73.2 21.0 C 73.2 21.7 73.1 21.2 73.2 19.9 C 73.2 19.9 73.2 19.9 73.2 19.9 Z M 74.4 11.7 C 74.4 11.0 74.5 12.2 74.4 12.3 C 74.4 12.5 74.4 12.1 74.4 11.7 C 74.4 11.7 74.4 11.7 74.4 11.7 Z M 74.6 8.8 C 74.7 8.4 74.7 9.1 74.7 9.2 C 74.6 9.4 74.6 9.1 74.6 8.8 C 74.6 8.8 74.6 8.8 74.6 8.8 Z M 75.6 16.1 C 75.6 15.3 75.7 16.6 75.6 16.9 C 75.6 17.3 75.6 16.7 75.6 16.1 C 75.6 16.1 75.6 16.1 75.6 16.1 Z M 74.9 5.4 C 74.9 5.1 74.9 5.7 74.9 5.8 C 74.8 6.0 74.8 5.7 74.9 5.4 C 74.9 5.4 74.9 5.4 74.9 5.4 Z M 75.5 7.3 C 75.6 6.3 75.6 7.9 75.6 8.1 C 75.5 8.3 75.5 7.8 75.5 7.3 C 75.5 7.3 75.5 7.3 75.5 7.3 Z M 75.4 1.2 C 75.5 0.1 75.5 1.7 75.5 1.9 C 75.4 2.1 75.4 1.6 75.4 1.2 C 75.4 1.2 75.4 1.2 75.4 1.2 Z M 73.9 32.0 C 74.0 31.0 74.0 32.6 74.0 32.8 C 73.9 33.0 73.9 32.5 73.9 32.0 C 73.9 32.0 73.9 32.0 73.9 32.0 Z M 71.5 3.1 C 71.6 2.9 71.6 3.9 71.6 4.9 C 71.5 5.9 71.5 3.2 71.5 3.1 C 71.5 3.1 71.5 3.1 71.5 3.1 Z M 75.5 10.0 C 75.5 9.4 75.5 10.2 75.5 10.5 C 75.5 10.8 75.4 10.6 75.5 10.0 C 75.5 10.0 75.5 10.0 75.5 10.0 Z M 73.8 15.6 C 73.8 16.2 73.8 16.7 73.8 17.2 C 73.8 17.1 73.7 14.9 73.8 13.4 C 73.8 11.9 73.9 13.9 73.9 15.3 C 73.9 15.6 73.8 14.7 73.8 15.6 M 74.0 25.6 C 74.1 26.2 74.0 27.0 74.0 26.2 C 74.0 25.3 74.0 25.0 74.0 25.6 C 74.0 25.6 74.0 25.6 74.0 25.6 Z M 73.3 29.3 C 73.3 29.9 73.3 30.7 73.3 29.9 C 73.2 29.0 73.3 28.7 73.3 29.3 C 73.3 29.3 73.3 29.3 73.3 29.3 Z M 74.7 4.2 C 74.8 4.4 74.7 3.6 74.8 3.2 C 74.8 3.2 74.8 3.5 74.8 4.1 C 74.8 5.8 74.7 4.7 74.7 4.4 C 74.7 4.4 74.7 4.3 74.7 4.2 M 75.6 26.6 C 75.6 26.8 75.6 26.0 75.6 25.6 C 75.6 25.6 75.6 25.9 75.7 26.5 C 75.7 28.2 75.6 27.1 75.6 26.8 C 75.6 26.8 75.6 26.7 75.6 26.6 M 70.3 6.9 C 70.3 7.4 70.2 8.4 70.3 7.1 C 70.3 6.4 70.3 6.3 70.3 6.9 M 73.1 32.5 C 73.1 33.0 73.0 34.0 73.0 32.7 C 73.1 32.1 73.1 31.9 73.1 32.5 M 73.5 24.8 C 73.5 25.0 73.5 24.2 73.5 23.8 C 73.5 23.8 73.5 24.1 73.5 24.7 C 73.6 26.4 73.5 25.3 73.4 25.0 C 73.5 24.9 73.5 24.9 73.5 24.8 M 75.1 26.4 C 75.1 25.8 75.1 25.8 75.1 26.5 C 75.1 27.0 75.1 27.0 75.1 26.4 C 75.1 26.4 75.1 26.4 75.1 26.4 Z M 72.7 6.9 C 72.7 6.2 72.7 6.7 72.7 7.1 C 72.7 7.3 72.7 7.5 72.7 6.9 C 72.7 6.9 72.7 6.9 72.7 6.9 Z M 73.6 14.0 C 73.5 14.8 73.5 13.2 73.5 12.6 C 73.6 10.9 73.6 14.6 73.6 14.7 C 73.6 14.8 73.6 13.8 73.6 14.0 M 72.4 14.9 C 72.3 16.4 72.4 9.7 72.5 13.5 C 72.5 17.3 72.4 14.6 72.4 14.9 M 76.0 28.0 C 76.0 27.4 75.9 26.6 75.9 26.0 C 75.9 24.4 76.0 27.4 76.0 28.8 C 76.0 29.2 75.9 29.2 76.0 28.0 M 75.0 10.7 C 75.0 10.1 74.9 9.3 74.9 8.7 C 74.9 7.1 75.0 10.1 75.0 11.5 C 75.0 11.9 75.0 11.9 75.0 10.7 M 72.8 9.8 C 72.8 9.7 72.9 7.5 72.9 9.0 C 73.0 11.5 72.9 9.8 72.8 9.8 M 70.8 6.3 C 70.8 6.5 70.8 6.3 70.8 5.6 C 70.7 4.7 70.8 4.5 70.8 5.0 C 70.8 5.4 70.8 5.8 70.8 6.3 M 74.6 26.6 C 74.6 25.5 74.6 27.1 74.6 27.4 C 74.6 27.8 74.6 27.8 74.6 26.6 C 74.6 26.6 74.6 26.6 74.6 26.6 Z M 71.4 32.7 C 71.4 31.5 71.4 33.2 71.4 33.5 C 71.4 33.9 71.4 33.9 71.4 32.7 C 71.4 32.7 71.4 32.7 71.4 32.7 Z M 76.3 5.4 C 76.3 4.5 76.3 5.8 76.3 6.0 C 76.3 6.3 76.2 6.3 76.3 5.4 C 76.3 5.4 76.3 5.4 76.3 5.4 Z M 74.9 13.9 C 74.9 13.6 75.0 14.4 74.9 15.3 C 74.9 15.8 74.9 14.2 74.9 13.9 C 74.9 13.9 74.9 13.9 74.9 13.9 Z M 75.9 4.4 C 75.9 4.1 76.0 4.9 75.9 5.9 C 75.9 6.4 75.9 4.8 75.9 4.4 C 75.9 4.4 75.9 4.4 75.9 4.4 Z M 74.2 19.3 C 74.3 18.8 74.3 19.4 74.3 19.8 C 74.2 20.1 74.2 19.8 74.2 19.3 C 74.2 19.3 74.2 19.3 74.2 19.3 Z M 74.1 1.7 C 74.2 1.2 74.2 1.8 74.2 2.2 C 74.1 2.5 74.1 2.2 74.1 1.7 C 74.1 1.7 74.1 1.7 74.1 1.7 Z M 73.5 9.2 C 73.5 8.7 73.5 9.3 73.5 9.7 C 73.4 10.0 73.4 9.7 73.5 9.2 C 73.5 9.2 73.5 9.2 73.5 9.2 Z M 74.5 3.1 C 74.5 2.1 74.6 3.1 74.5 5.2 C 74.4 6.5 74.4 3.3 74.5 3.1 C 74.5 3.1 74.5 3.1 74.5 3.1 Z M 73.7 20.6 C 73.7 20.2 73.8 20.9 73.7 21.2 C 73.7 21.4 73.7 21.1 73.7 20.6 C 73.7 20.6 73.7 20.6 73.7 20.6 Z M 73.7 8.2 C 73.6 6.8 73.9 5.7 73.8 9.3 C 73.8 14.0 73.7 8.9 73.7 8.2 M 72.6 4.0 C 72.5 3.3 72.6 3.0 72.6 4.4 C 72.6 7.0 72.6 4.3 72.6 4.0 M 72.1 27.1 C 72.1 27.1 72.1 28.5 72.1 28.2 C 72.0 27.6 72.1 27.1 72.1 27.1 C 72.1 27.1 72.1 27.1 72.1 27.1 Z M 72.2 25.4 C 72.2 24.5 72.3 25.6 72.2 26.0 C 72.2 26.2 72.2 26.2 72.2 25.4 C 72.2 25.4 72.2 25.4 72.2 25.4 Z M 72.3 3.0 C 72.3 2.6 72.3 3.1 72.3 3.3 C 72.3 3.4 72.3 3.4 72.3 3.0 C 72.3 3.0 72.3 3.0 72.3 3.0 Z M 72.2 32.0 C 72.2 31.4 72.3 32.2 72.2 32.4 C 72.2 32.6 72.2 32.6 72.2 32.0 C 72.2 32.0 72.2 32.0 72.2 32.0 Z M 74.0 2.1 C 74.0 1.8 74.0 2.3 74.0 2.4 C 74.0 2.5 74.0 2.5 74.0 2.1 C 74.0 2.1 74.0 2.1 74.0 2.1 Z M 76.1 1.9 C 76.1 1.6 76.1 2.0 76.1 2.2 C 76.1 2.3 76.1 2.3 76.1 1.9 C 76.1 1.9 76.1 1.9 76.1 1.9 Z M 70.8 24.7 C 70.8 23.8 70.9 25.1 70.9 25.5 C 70.8 25.7 70.8 25.7 70.8 24.7 C 70.8 24.7 70.8 24.7 70.8 24.7 Z M 74.2 9.1 C 74.2 8.1 74.3 9.4 74.2 9.9 C 74.2 10.1 74.2 10.1 74.2 9.1 C 74.2 9.1 74.2 9.1 74.2 9.1 Z M 71.8 26.1 C 71.8 25.1 71.8 26.4 71.8 26.9 C 71.8 27.1 71.8 27.1 71.8 26.1 C 71.8 26.1 71.8 26.1 71.8 26.1 Z M 74.1 7.6 C 74.1 7.1 74.1 7.6 74.1 7.8 C 74.1 8.0 74.1 8.2 74.1 7.6 C 74.1 7.6 74.1 7.6 74.1 7.6 Z M 74.5 28.1 C 74.5 27.6 74.6 28.1 74.5 28.3 C 74.5 28.5 74.5 28.7 74.5 28.1 C 74.5 28.1 74.5 28.1 74.5 28.1 Z M 75.0 32.1 C 75.0 31.5 75.0 32.0 75.0 32.3 C 75.0 32.4 75.0 32.6 75.0 32.1 C 75.0 32.1 75.0 32.1 75.0 32.1 Z M 74.5 15.8 C 74.5 15.3 74.6 16.0 74.5 16.2 C 74.5 16.4 74.5 16.4 74.5 15.8 C 74.5 15.8 74.5 15.8 74.5 15.8 Z M 71.6 18.5 C 71.6 18.7 71.5 16.8 71.5 15.1 C 71.5 16.5 71.7 15.2 71.7 15.4 C 71.7 15.6 71.7 18.4 71.6 18.5 M 74.6 17.3 C 74.4 18.2 74.5 12.1 74.7 14.1 C 74.7 14.3 74.7 17.1 74.6 17.3 C 74.7 14.3 74.7 17.1 74.6 17.3 C 74.7 14.3 74.7 17.1 74.6 17.3 C 74.7 14.3 74.7 17.1 74.6 17.3 " fill="#EB5C56"></path></g></svg>