<?xml version="1.0" encoding="UTF-8"?><svg xmlns="http://www.w3.org/2000/svg" xmlns:xlink="http://www.w3.org/1999/xlink" clip-rule="evenodd" stroke-miterlimit="4.00" viewBox="0 0 170 252"><desc>SVG generated by Keynote</desc><defs></defs><g transform="matrix(1.00, 0.00, -0.00, -1.00, 0.0, 252.0)"><path d="M 21.4 19.5 C 21.1 19.4 20.9 18.6 20.7 18.5 M 21.4 19.5 C 22.0 18.3 21.3 17.2 20.6 15.6 C 19.6 13.9 19.8 16.2 19.3 16.2 C 17.6 14.3 18.3 13.9 19.5 13.6 C 18.3 13.2 18.0 10.0 17.0 11.3 C 19.1 14.7 15.3 9.1 16.3 12.4 C 16.3 12.8 15.4 12.2 15.3 11.9 C 15.3 13.1 13.7 11.9 14.3 13.6 C 13.6 14.3 13.8 13.8 13.7 15.2 C 13.9 15.7 14.1 15.3 14.2 15.2 C 15.3 14.8 14.4 16.7 15.5 17.1 C 14.7 18.6 16.6 18.5 16.7 17.5 C 17.0 18.3 16.3 19.9 17.6 20.1 C 17.3 20.9 18.9 22.6 18.9 21.0 C 18.9 19.8 19.8 20.6 20.2 20.5 C 20.3 20.1 19.1 19.1 19.3 18.8 C 19.7 19.0 21.1 20.3 20.0 18.7 C 20.8 19.0 20.5 18.0 21.4 19.5 C 21.4 19.5 21.4 19.5 21.4 19.5 Z M 18.6 13.3 C 18.9 13.1 18.9 13.9 18.6 13.3 C 18.6 13.3 18.6 13.3 18.6 13.3 Z M 16.6 19.9 C 16.9 19.7 16.9 20.5 16.6 19.9 C 16.6 19.9 16.6 19.9 16.6 19.9 Z M 14.4 15.5 C 14.7 15.3 14.7 16.0 14.4 15.5 C 14.4 15.5 14.4 15.5 14.4 15.5 Z M 19.3 14.9 C 19.5 16.0 18.3 14.5 18.6 14.1 C 18.6 14.4 19.4 14.6 19.3 14.9 C 19.3 14.9 19.3 14.9 19.3 14.9 Z M 17.5 16.2 C 17.6 16.2 17.9 16.6 17.5 16.7 C 17.3 16.5 17.3 16.2 17.5 16.2 C 17.5 16.2 17.5 16.2 17.5 16.2 Z M 16.0 10.9 C 16.2 10.9 16.5 11.2 16.1 11.4 C 15.9 11.2 15.9 10.9 16.0 10.9 C 16.0 10.9 16.0 10.9 16.0 10.9 Z M 19.0 16.5 C 19.1 16.8 18.9 17.0 18.7 16.8 C 18.7 16.6 18.4 15.9 19.0 16.5 C 19.0 16.5 19.0 16.5 19.0 16.5 Z M 21.0 17.3 C 21.3 18.1 19.9 16.9 20.0 16.8 C 20.1 16.4 21.0 16.7 21.0 17.3 C 21.0 17.3 21.0 17.3 21.0 17.3 Z M 18.9 17.2 C 19.1 17.9 18.5 17.1 18.9 17.2 C 18.9 17.2 18.9 17.2 18.9 17.2 Z M 14.0 13.0 C 14.2 13.7 13.6 12.8 14.0 13.0 C 14.0 13.0 14.0 13.0 14.0 13.0 Z M 15.0 16.9 C 15.3 17.6 14.6 16.8 15.0 16.9 C 15.0 16.9 15.0 16.9 15.0 16.9 Z M 17.6 13.7 C 16.9 12.5 18.3 13.0 17.6 13.7 C 17.6 13.7 17.6 13.7 17.6 13.7 Z M 22.1 19.0 C 21.5 17.9 22.9 18.3 22.1 19.0 C 22.1 19.0 22.1 19.0 22.1 19.0 Z M 146.3 223.3 C 147.1 224.2 145.8 219.6 145.4 221.9 C 144.6 223.0 143.1 220.2 144.5 220.3 C 144.1 219.5 144.2 219.4 143.4 219.3 C 144.1 218.7 143.4 216.6 142.6 216.2 C 141.7 216.2 143.3 217.5 141.9 216.9 C 140.3 214.7 141.3 217.5 139.8 217.1 C 139.8 217.0 140.2 216.7 139.8 216.6 C 139.0 217.1 139.2 218.7 138.3 218.5 C 138.6 218.8 138.7 221.0 139.0 219.9 C 139.6 219.2 139.2 222.3 140.4 221.3 C 140.1 222.2 141.3 222.3 140.9 223.3 C 141.0 223.8 141.7 223.4 141.8 223.2 C 142.3 222.8 140.8 224.5 142.2 224.6 C 141.9 224.8 143.2 226.6 142.8 224.9 C 143.0 225.4 144.0 227.7 144.4 225.9 C 144.0 224.1 146.5 226.7 145.5 224.9 C 144.8 223.5 144.4 223.4 145.6 224.0 C 145.8 224.4 146.8 225.8 146.5 224.2 C 146.2 224.0 145.9 223.3 146.3 223.3 C 146.3 223.3 146.3 223.3 146.3 223.3 Z M 144.8 224.6 C 144.3 223.9 145.2 224.3 144.8 224.6 C 144.8 224.6 144.8 224.6 144.8 224.6 Z M 140.6 223.3 C 140.0 222.6 141.0 223.0 140.6 223.3 C 140.6 223.3 140.6 223.3 140.6 223.3 Z M 145.1 220.7 C 144.5 220.5 145.7 219.7 145.1 220.7 C 145.1 220.7 145.1 220.7 145.1 220.7 Z M 142.3 224.1 C 142.3 224.0 142.5 224.1 142.7 224.2 C 142.6 224.2 142.3 224.1 142.3 224.1 C 142.3 224.1 142.3 224.1 142.3 224.1 Z M 144.3 219.4 C 143.1 218.6 145.1 218.6 144.3 219.4 C 144.3 219.4 144.3 219.4 144.3 219.4 Z M 141.8 217.7 C 140.5 218.3 141.3 216.4 141.8 217.7 C 141.8 217.7 141.8 217.7 141.8 217.7 Z M 140.2 220.9 C 140.6 221.0 140.2 221.2 140.2 220.9 C 140.2 220.9 140.2 220.9 140.2 220.9 Z M 143.1 226.1 C 143.5 226.1 143.1 226.4 143.1 226.1 C 143.1 226.1 143.1 226.1 143.1 226.1 Z M 139.4 219.4 C 139.9 219.2 139.5 220.0 139.4 219.4 C 139.4 219.4 139.4 219.4 139.4 219.4 Z M 144.5 220.8 C 146.1 221.3 144.0 222.9 144.5 220.8 C 144.5 220.8 144.5 220.8 144.5 220.8 Z M 145.8 222.6 C 146.4 223.2 145.1 222.8 145.1 222.4 C 145.2 222.4 145.7 222.5 145.8 222.6 C 145.8 222.6 145.8 222.6 145.8 222.6 Z M 143.7 219.7 C 144.6 220.2 143.9 220.5 143.7 219.7 C 143.7 219.7 143.7 219.7 143.7 219.7 Z M 145.4 221.3 C 145.5 221.7 145.1 221.0 145.4 221.3 C 145.4 221.3 145.4 221.3 145.4 221.3 Z M 143.8 217.7 C 143.9 218.1 143.5 217.4 143.8 217.7 C 143.8 217.7 143.8 217.7 143.8 217.7 Z M 146.8 223.2 C 146.9 223.6 146.5 223.0 146.8 223.2 C 146.8 223.2 146.8 223.2 146.8 223.2 Z M 143.4 218.4 C 142.9 218.5 142.6 220.1 142.3 217.8 C 142.4 217.3 143.5 217.7 143.4 218.4 C 143.4 218.4 143.4 218.4 143.4 218.4 Z M 23.3 22.6 C 21.8 17.4 20.2 19.9 19.6 19.9 C 18.7 19.7 18.6 20.5 18.7 21.7 C 17.9 23.5 21.1 22.2 20.1 23.7 C 18.8 26.1 22.6 24.0 20.8 25.8 C 20.2 25.9 21.7 27.4 21.7 27.2 C 21.3 28.7 23.8 28.8 24.0 28.7 C 24.0 29.5 22.3 30.7 24.7 31.6 C 26.0 32.7 24.6 34.4 25.6 33.3 C 24.8 35.2 26.5 33.8 26.6 35.0 C 26.3 36.2 27.8 34.4 27.1 36.5 C 28.6 36.4 26.0 36.4 28.9 39.3 C 28.0 37.6 30.8 40.4 29.7 40.2 C 28.1 39.6 31.0 41.6 31.4 43.5 C 32.1 43.7 34.3 44.9 32.9 45.3 C 32.6 47.7 34.8 46.4 34.1 47.8 C 34.0 48.6 35.1 48.2 35.2 48.7 C 34.7 49.7 35.6 49.9 36.6 52.1 C 38.9 56.7 39.1 51.4 40.4 52.9 C 41.0 53.0 42.3 48.8 40.8 51.1 C 41.2 50.4 36.8 48.1 40.2 48.5 C 38.4 47.7 41.3 48.2 38.5 46.1 C 39.3 50.9 35.3 42.3 38.3 45.4 C 38.4 44.5 37.4 43.1 37.6 44.4 C 36.4 45.7 36.7 41.4 35.9 44.0 C 34.9 41.4 33.7 42.9 34.5 41.6 C 36.0 39.9 34.0 42.0 33.9 40.5 C 32.2 37.8 35.7 38.6 33.2 37.8 C 32.5 34.5 32.0 37.7 31.2 36.9 C 29.8 37.4 30.6 33.6 32.0 35.5 C 30.6 34.8 32.5 34.9 30.9 34.2 C 30.3 35.8 31.2 31.8 30.5 32.8 C 29.5 31.9 29.1 32.9 28.9 32.6 C 27.9 30.9 29.4 30.7 28.3 30.9 C 27.6 30.9 28.7 29.1 28.2 29.1 C 29.1 30.9 26.0 28.6 26.6 28.0 C 27.3 29.0 27.9 26.5 26.5 26.4 C 24.4 28.9 26.3 24.5 24.9 24.3 C 23.9 26.0 22.5 20.8 24.2 22.0 C 24.0 22.0 23.3 22.7 23.3 22.6 M 27.7 28.8 C 28.4 30.3 26.5 27.5 27.7 28.8 M 28.0 28.5 C 27.9 29.4 27.6 27.0 28.2 28.5 C 28.2 28.5 28.0 28.4 28.0 28.5 M 31.5 34.2 C 31.0 34.3 31.3 33.3 31.5 34.2 M 31.3 35.8 C 31.5 37.0 30.5 34.6 31.3 35.8 M 39.3 48.3 C 36.3 48.3 39.7 46.2 39.3 48.3 M 34.6 39.7 C 33.4 38.3 35.9 39.6 34.6 39.7 M 33.8 39.5 C 33.0 39.0 34.2 39.1 33.8 39.5 M 37.8 45.9 C 37.9 46.0 37.9 46.0 37.8 45.9 C 37.8 45.9 37.8 45.9 37.8 45.9 Z M 40.0 49.7 C 40.1 49.7 40.1 49.7 40.0 49.7 C 40.0 49.7 40.0 49.7 40.0 49.7 Z M 35.4 42.4 C 35.2 40.9 36.7 44.2 35.4 42.4 C 35.4 42.4 35.4 42.4 35.4 42.4 Z M 35.6 49.9 C 35.6 49.9 35.6 49.9 35.6 49.9 C 35.6 49.9 35.6 49.9 35.6 49.9 Z M 26.0 28.3 C 25.9 28.3 25.9 28.3 26.0 28.3 C 26.0 28.3 26.0 28.3 26.0 28.3 Z M 24.2 23.6 C 24.0 23.8 24.0 22.6 24.2 23.6 C 24.2 23.6 24.2 23.6 24.2 23.6 Z M 19.6 21.6 C 19.6 21.6 19.6 21.6 19.6 21.6 C 19.6 21.6 19.6 21.6 19.6 21.6 Z M 24.0 27.6 C 23.9 27.6 23.9 27.6 24.0 27.6 C 24.0 27.6 24.0 27.6 24.0 27.6 Z M 26.0 27.2 C 26.8 25.8 26.6 29.0 26.0 27.2 C 26.0 27.2 26.0 27.2 26.0 27.2 Z M 31.5 42.8 C 32.0 42.5 31.9 43.9 31.5 42.8 C 31.5 42.8 31.5 42.8 31.5 42.8 Z M 30.9 36.3 C 31.3 36.3 31.2 37.0 30.9 36.3 C 30.9 36.3 30.9 36.3 30.9 36.3 Z M 31.1 33.0 C 31.5 33.0 31.4 33.7 31.1 33.0 C 31.1 33.0 31.1 33.0 31.1 33.0 Z M 24.6 23.4 C 24.7 23.5 24.7 23.5 24.6 23.4 C 24.6 23.4 24.6 23.4 24.6 23.4 Z M 24.6 25.5 C 25.1 23.8 25.0 27.5 24.6 25.5 C 24.6 25.5 24.6 25.5 24.6 25.5 Z M 23.2 23.9 C 23.1 24.7 22.5 22.4 23.2 23.9 M 22.1 26.0 C 23.4 27.0 19.3 26.1 22.1 26.0 C 22.1 26.0 22.1 26.0 22.1 26.0 Z M 25.6 32.8 C 25.6 32.9 25.6 32.9 25.6 32.8 C 25.6 32.8 25.6 32.8 25.6 32.8 Z M 28.5 30.1 C 29.2 31.3 27.8 29.6 28.5 30.1 C 28.5 30.1 28.5 30.1 28.5 30.1 Z M 22.7 20.1 C 23.4 21.3 22.0 19.5 22.7 20.1 C 22.7 20.1 22.7 20.1 22.7 20.1 Z M 29.1 36.0 C 30.4 37.7 27.8 35.2 29.1 36.0 C 29.1 36.0 29.1 36.0 29.1 36.0 Z M 34.6 42.0 C 34.6 42.1 34.6 42.1 34.6 42.0 C 34.6 42.0 34.6 42.0 34.6 42.0 Z M 35.8 43.0 C 35.8 43.0 35.8 43.0 35.8 43.0 C 35.8 43.0 35.8 43.0 35.8 43.0 Z M 37.9 49.0 C 37.9 49.1 37.9 49.1 37.9 49.0 C 37.9 49.0 37.9 49.0 37.9 49.0 Z M 37.0 43.8 C 37.0 43.9 37.0 43.9 37.0 43.8 C 37.0 43.8 37.0 43.8 37.0 43.8 Z M 39.0 47.7 C 39.0 47.8 39.0 47.8 39.0 47.7 C 39.0 47.7 39.0 47.7 39.0 47.7 Z M 39.6 46.6 C 39.7 46.7 39.7 46.7 39.6 46.6 C 39.6 46.6 39.6 46.6 39.6 46.6 Z M 29.7 41.4 C 29.7 41.5 29.7 41.5 29.7 41.4 C 29.7 41.4 29.7 41.4 29.7 41.4 Z M 26.2 25.2 C 26.2 25.4 26.2 25.4 26.2 25.2 C 26.2 25.2 26.2 25.2 26.2 25.2 Z M 38.4 47.7 C 38.4 47.7 38.4 47.7 38.4 47.7 C 38.4 47.7 38.4 47.7 38.4 47.7 Z M 32.0 39.2 C 31.1 39.9 32.8 37.7 32.2 39.4 C 32.1 39.4 32.1 39.1 32.0 39.2 M 31.1 41.4 C 31.1 41.4 31.1 41.4 31.1 41.4 C 31.1 41.4 31.1 41.4 31.1 41.4 Z M 28.1 37.7 C 28.0 37.7 28.0 37.7 28.1 37.7 C 28.1 37.7 28.1 37.7 28.1 37.7 Z M 36.8 43.1 C 37.3 42.6 37.0 44.3 36.7 42.9 M 36.2 50.1 C 36.6 49.6 36.4 51.3 36.1 49.9 M 21.6 19.0 C 21.1 19.1 21.4 18.1 21.6 19.0 M 27.0 37.1 C 26.5 37.2 26.8 36.2 27.0 37.1 M 29.4 38.3 C 29.8 37.8 29.6 39.5 29.3 38.1 M 34.5 47.3 C 34.6 47.3 34.6 47.3 34.5 47.3 C 34.5 47.3 34.5 47.3 34.5 47.3 Z M 29.5 31.9 C 29.5 32.0 29.5 32.0 29.5 31.9 C 29.5 31.9 29.5 31.9 29.5 31.9 Z M 31.4 37.6 C 31.7 36.5 31.4 38.8 31.4 37.6 M 27.3 31.3 C 27.6 29.7 28.0 33.0 27.3 31.3 M 37.3 52.3 C 37.7 50.5 37.2 53.5 37.3 52.3 M 36.7 45.2 C 37.1 43.4 36.6 46.4 36.7 45.2 M 29.6 33.2 C 30.1 32.8 29.9 34.5 29.6 33.2 M 23.3 21.5 C 22.7 20.4 24.6 22.6 23.3 21.5 M 32.9 44.6 C 32.8 44.7 32.8 44.7 32.9 44.6 C 32.9 44.6 32.9 44.6 32.9 44.6 Z M 21.1 27.5 C 21.1 27.6 21.1 27.6 21.1 27.5 C 21.1 27.5 21.1 27.5 21.1 27.5 Z M 41.7 51.5 C 41.7 51.6 41.7 51.6 41.7 51.5 C 41.7 51.5 41.7 51.5 41.7 51.5 Z M 35.8 44.8 C 35.7 44.9 35.7 44.9 35.8 44.8 C 35.8 44.8 35.8 44.8 35.8 44.8 Z M 40.6 49.3 C 40.6 49.4 40.6 49.4 40.6 49.3 C 40.6 49.3 40.6 49.3 40.6 49.3 Z M 32.8 41.9 C 32.8 42.0 32.8 42.0 32.8 41.9 C 32.8 41.9 32.8 41.9 32.8 41.9 Z M 35.2 39.5 C 35.2 39.5 35.2 39.5 35.2 39.5 C 35.2 39.5 35.2 39.5 35.2 39.5 Z M 31.7 36.5 C 31.7 36.5 31.7 36.5 31.7 36.5 C 31.7 36.5 31.7 36.5 31.7 36.5 Z M 36.0 41.3 C 37.6 43.5 34.4 40.8 36.0 41.3 C 36.0 41.3 36.0 41.3 36.0 41.3 Z M 30.9 39.2 C 30.9 39.2 30.9 39.2 30.9 39.2 C 30.9 39.2 30.9 39.2 30.9 39.2 Z M 32.7 37.7 C 34.3 38.6 31.8 39.2 32.7 37.7 M 29.5 31.0 C 30.2 31.2 29.0 31.6 29.5 31.0 M 24.3 30.8 C 24.2 30.8 24.2 30.8 24.3 30.8 C 24.3 30.8 24.3 30.8 24.3 30.8 Z M 25.0 31.2 C 25.0 31.3 25.0 31.3 25.0 31.2 C 25.0 31.2 25.0 31.2 25.0 31.2 Z M 28.8 29.4 C 28.8 29.4 28.8 29.4 28.8 29.4 C 28.8 29.4 28.8 29.4 28.8 29.4 Z M 24.0 32.0 C 24.0 32.1 24.0 32.1 24.0 32.0 C 24.0 32.0 24.0 32.0 24.0 32.0 Z M 34.6 38.7 C 34.6 38.7 34.6 38.7 34.6 38.7 C 34.6 38.7 34.6 38.7 34.6 38.7 Z M 41.7 50.2 C 41.7 50.2 41.7 50.2 41.7 50.2 C 41.7 50.2 41.7 50.2 41.7 50.2 Z M 20.5 23.7 C 20.5 23.8 20.5 23.8 20.5 23.7 C 20.5 23.7 20.5 23.7 20.5 23.7 Z M 34.2 40.6 C 34.2 40.6 34.2 40.6 34.2 40.6 C 34.2 40.6 34.2 40.6 34.2 40.6 Z M 23.5 29.0 C 23.5 29.1 23.5 29.1 23.5 29.0 C 23.5 29.0 23.5 29.0 23.5 29.0 Z M 34.0 39.7 C 34.0 39.7 34.0 39.7 34.0 39.7 C 34.0 39.7 34.0 39.7 34.0 39.7 Z M 32.4 44.4 C 32.4 44.4 32.4 44.4 32.4 44.4 C 32.4 44.4 32.4 44.4 32.4 44.4 Z M 33.3 47.2 C 33.3 47.3 33.3 47.3 33.3 47.2 C 33.3 47.2 33.3 47.2 33.3 47.2 Z M 34.3 43.0 C 34.3 43.1 34.3 43.1 34.3 43.0 C 34.3 43.0 34.3 43.0 34.3 43.0 Z M 24.2 27.5 C 22.4 22.4 26.8 30.8 24.2 27.5 M 34.5 43.9 C 32.8 40.6 37.1 45.8 34.5 43.9 C 35.0 44.1 34.6 43.9 34.5 43.9 M 42.9 52.4 C 41.1 51.7 40.1 52.3 39.3 53.5 C 39.2 54.5 41.3 53.2 39.5 54.3 C 38.3 53.0 37.3 56.5 39.5 55.1 C 41.0 56.9 38.3 56.3 39.9 57.0 C 41.4 58.9 40.0 58.3 41.2 59.8 C 43.0 59.9 41.1 61.1 42.6 60.8 C 40.8 60.7 44.0 62.3 43.4 62.7 C 41.7 61.7 46.8 68.2 44.8 64.2 C 46.4 65.4 45.1 65.7 45.3 66.4 C 46.5 66.6 46.3 69.3 47.6 69.8 C 47.7 69.5 47.4 69.0 47.6 68.7 C 47.9 68.1 48.1 69.9 48.1 69.7 C 48.8 70.2 51.1 72.2 48.1 70.3 C 47.4 70.6 49.7 72.3 49.1 72.6 C 50.5 75.0 50.7 72.4 50.4 74.0 C 51.4 75.7 52.1 76.9 52.3 76.8 C 52.7 77.9 52.2 78.6 53.4 79.0 C 53.3 81.9 56.9 78.9 54.7 81.3 C 55.7 81.5 54.3 83.1 55.9 82.0 C 54.7 81.8 56.7 86.3 56.8 83.8 C 57.5 84.0 57.0 87.9 58.5 86.5 C 60.2 86.7 61.3 85.8 61.2 83.1 C 60.4 83.8 60.9 80.3 60.2 82.8 C 60.8 84.9 57.7 79.9 58.9 80.6 C 61.0 79.7 56.2 78.9 57.0 77.1 C 56.7 78.4 53.9 74.6 56.0 74.9 C 55.7 74.0 54.9 74.3 55.2 72.9 C 56.6 75.4 53.2 72.9 54.1 72.5 C 54.9 72.6 53.2 68.7 52.6 69.6 C 51.3 72.1 52.4 68.4 51.2 68.3 C 49.6 66.5 53.1 67.5 50.8 66.9 C 50.8 66.4 49.2 63.7 50.6 65.2 C 50.8 65.9 47.4 64.9 49.0 63.6 C 51.7 65.9 47.5 60.0 47.6 61.3 C 49.3 66.2 43.7 57.3 46.7 60.2 C 46.4 57.6 47.4 60.5 45.5 58.3 C 45.2 59.0 43.5 57.4 44.9 57.2 C 46.3 55.8 42.3 57.9 43.6 55.0 C 44.4 54.2 41.1 52.5 42.8 53.0 C 43.0 52.9 42.9 52.4 42.9 52.4 M 43.2 53.3 C 42.7 53.2 43.4 52.5 43.2 53.3 M 42.7 53.2 C 42.7 53.2 42.7 53.2 42.7 53.2 C 42.7 53.2 42.7 53.2 42.7 53.2 Z M 45.3 58.0 C 45.3 58.0 45.3 58.0 45.3 58.0 C 45.3 58.0 45.3 58.0 45.3 58.0 Z M 43.5 64.2 C 43.5 64.1 43.5 64.1 43.5 64.2 C 43.5 64.2 43.5 64.2 43.5 64.2 Z M 47.1 61.2 C 47.1 61.2 47.1 61.2 47.1 61.2 C 47.1 61.2 47.1 61.2 47.1 61.2 Z M 44.0 56.5 C 44.0 56.5 44.0 56.5 44.0 56.5 C 44.0 56.5 44.0 56.5 44.0 56.5 Z M 47.5 60.5 C 47.0 61.2 47.3 59.2 47.6 60.5 C 47.6 60.6 47.5 60.4 47.5 60.5 M 50.2 64.5 C 50.1 64.5 50.1 64.5 50.2 64.5 M 50.9 76.3 C 50.8 76.4 50.8 76.4 50.9 76.3 M 56.2 74.1 C 56.1 74.3 56.1 74.3 56.2 74.1 M 52.0 68.9 C 52.9 70.1 51.9 69.4 52.0 68.9 M 57.8 77.6 C 57.2 75.8 59.2 79.1 57.8 77.6 M 59.1 78.9 C 59.1 79.1 59.1 79.1 59.1 78.9 M 54.6 72.0 C 54.5 72.0 54.5 72.0 54.6 72.0 C 54.6 72.0 54.6 72.0 54.6 72.0 Z M 52.0 68.2 C 51.3 66.4 53.5 69.5 52.0 68.2 M 46.2 58.2 C 47.0 58.9 45.4 58.7 46.2 58.2 M 44.7 56.6 C 44.7 56.6 44.7 56.6 44.7 56.6 C 44.7 56.6 44.7 56.6 44.7 56.6 Z M 56.3 75.1 C 56.3 75.0 56.3 75.0 56.3 75.1 C 56.3 75.1 56.3 75.1 56.3 75.1 Z M 57.5 76.8 C 57.5 76.8 57.5 76.8 57.5 76.8 C 57.5 76.8 57.5 76.8 57.5 76.8 Z M 54.9 82.5 C 54.8 82.5 54.8 82.5 54.9 82.5 C 54.9 82.5 54.9 82.5 54.9 82.5 Z M 43.7 59.1 C 43.3 57.7 45.9 59.4 44.7 59.8 C 44.3 60.3 43.9 59.2 43.7 59.1 M 49.9 67.8 C 48.6 69.1 51.2 65.4 49.9 67.8 M 58.2 79.7 C 57.2 82.0 58.6 77.4 58.2 79.7 M 60.0 82.0 C 60.1 82.9 57.0 77.5 59.8 81.0 C 60.3 81.1 60.1 81.6 60.0 82.0 M 49.5 65.0 C 48.9 65.8 48.7 62.8 49.5 65.0 M 51.5 74.0 C 52.4 74.2 53.9 75.5 52.5 75.4 C 51.3 76.1 50.7 73.5 51.5 74.0 M 42.6 54.2 C 44.5 54.4 41.4 54.9 42.6 54.2 M 45.4 59.0 C 45.4 59.0 45.4 59.0 45.4 59.0 C 45.4 59.0 45.4 59.0 45.4 59.0 Z M 46.7 60.8 C 46.7 60.9 46.7 60.9 46.7 60.8 M 44.2 54.3 C 44.2 54.4 44.2 54.4 44.2 54.3 M 52.9 73.1 C 52.9 73.2 52.9 73.2 52.9 73.1 M 51.5 68.7 C 51.3 71.3 50.6 67.9 51.5 68.7 M 46.2 65.8 C 45.9 66.8 45.5 64.7 46.2 65.8 M 53.8 71.4 C 53.3 73.5 51.5 70.4 53.8 71.4 M 51.1 67.7 C 51.1 67.8 51.1 67.8 51.1 67.7 C 51.1 67.7 51.1 67.7 51.1 67.7 Z M 51.7 74.5 C 51.7 74.5 51.7 74.5 51.7 74.5 C 51.7 74.5 51.7 74.5 51.7 74.5 Z M 52.1 75.0 C 52.0 75.0 52.0 75.0 52.1 75.0 C 52.1 75.0 52.1 75.0 52.1 75.0 Z M 54.9 72.9 C 54.9 72.9 54.9 72.9 54.9 72.9 C 54.9 72.9 54.9 72.9 54.9 72.9 Z M 41.2 58.6 C 41.9 59.9 40.4 57.7 41.2 58.6 C 41.2 58.6 41.2 58.6 41.2 58.6 Z M 48.4 62.0 C 48.7 64.8 46.5 61.1 48.4 62.0 C 48.4 62.0 48.4 62.0 48.4 62.0 Z M 48.2 65.5 C 48.1 65.5 48.1 65.5 48.2 65.5 C 48.2 65.5 48.2 65.5 48.2 65.5 Z M 54.1 70.1 C 54.0 70.2 54.0 70.2 54.1 70.1 C 54.1 70.1 54.1 70.1 54.1 70.1 Z M 41.4 59.3 C 41.3 59.4 41.3 59.4 41.4 59.3 C 41.4 59.3 41.4 59.3 41.4 59.3 Z M 56.5 77.0 C 56.4 77.0 56.4 77.0 56.5 77.0 C 56.5 77.0 56.5 77.0 56.5 77.0 Z M 49.4 71.2 C 50.1 71.3 49.0 71.5 49.4 71.2 C 49.4 71.2 49.4 71.2 49.4 71.2 Z M 50.5 73.1 C 50.6 73.1 50.6 73.1 50.5 73.1 C 50.5 73.1 50.5 73.1 50.5 73.1 Z M 59.5 79.3 C 59.5 79.4 59.5 79.4 59.5 79.3 C 59.5 79.3 59.5 79.3 59.5 79.3 Z M 52.3 78.7 C 52.4 78.8 52.4 78.8 52.3 78.7 C 52.3 78.7 52.3 78.7 52.3 78.7 Z M 54.8 79.4 C 54.8 79.4 54.8 79.4 54.8 79.4 C 54.8 79.4 54.8 79.4 54.8 79.4 Z M 54.4 72.7 C 55.8 74.5 53.6 72.6 54.4 72.7 C 54.4 72.7 54.4 72.7 54.4 72.7 Z M 58.1 84.0 C 58.1 84.1 58.1 84.1 58.1 84.0 C 58.1 84.0 58.1 84.0 58.1 84.0 Z M 60.4 83.9 C 60.4 84.0 60.4 84.0 60.4 83.9 C 60.4 83.9 60.4 83.9 60.4 83.9 Z M 61.7 83.8 C 61.6 83.9 61.6 83.9 61.7 83.8 C 61.7 83.8 61.7 83.8 61.7 83.8 Z M 44.8 61.9 C 44.9 61.8 44.9 61.8 44.8 61.9 C 44.8 61.9 44.8 61.9 44.8 61.9 Z M 47.2 59.4 C 47.2 59.4 47.2 59.4 47.2 59.4 C 47.2 59.4 47.2 59.4 47.2 59.4 Z M 48.9 61.9 C 48.9 61.9 48.9 61.9 48.9 61.9 C 48.9 61.9 48.9 61.9 48.9 61.9 Z M 42.9 62.4 C 42.9 62.4 42.9 62.4 42.9 62.4 C 42.9 62.4 42.9 62.4 42.9 62.4 Z M 51.2 70.8 C 51.2 70.7 51.2 70.7 51.2 70.8 C 51.2 70.8 51.2 70.8 51.2 70.8 Z M 50.6 72.4 C 50.7 72.3 50.7 72.3 50.6 72.4 C 50.6 72.4 50.6 72.4 50.6 72.4 Z M 47.8 71.0 C 47.8 71.0 47.8 71.0 47.8 71.0 C 47.8 71.0 47.8 71.0 47.8 71.0 Z M 50.1 73.7 C 50.1 73.6 50.1 73.6 50.1 73.7 C 50.1 73.7 50.1 73.7 50.1 73.7 Z M 39.4 55.6 C 39.4 55.6 39.4 55.6 39.4 55.6 C 39.4 55.6 39.4 55.6 39.4 55.6 Z M 41.4 54.0 C 41.3 54.0 41.3 54.0 41.4 54.0 C 41.4 54.0 41.4 54.0 41.4 54.0 Z M 53.0 70.1 C 53.7 70.3 52.9 71.4 53.0 70.1 M 50.4 66.5 C 50.4 66.5 50.4 66.5 50.4 66.5 C 50.4 66.5 50.4 66.5 50.4 66.5 Z M 56.7 76.4 C 56.1 77.4 56.1 74.4 56.7 76.4 C 56.7 76.4 56.7 76.4 56.7 76.4 Z M 51.9 76.6 C 51.9 76.7 51.9 76.7 51.9 76.6 C 51.9 76.6 51.9 76.6 51.9 76.6 Z M 52.9 77.4 C 52.8 77.5 52.8 77.5 52.9 77.4 C 52.9 77.4 52.9 77.4 52.9 77.4 Z M 58.5 81.4 C 58.4 81.5 58.4 81.5 58.5 81.4 M 50.9 65.6 C 50.8 66.4 50.8 66.2 50.9 65.6 M 57.4 77.7 C 57.4 77.7 57.4 77.7 57.4 77.7 C 57.4 77.7 57.4 77.7 57.4 77.7 Z M 59.7 82.3 C 59.6 82.2 59.6 82.2 59.7 82.3 C 59.7 82.3 59.7 82.3 59.7 82.3 Z M 48.7 63.3 C 47.7 64.0 47.6 63.4 48.7 63.3 M 43.8 56.1 C 43.8 56.1 43.8 56.1 43.8 56.1 C 43.8 56.1 43.8 56.1 43.8 56.1 Z M 64.0 87.7 C 63.9 85.0 62.3 86.0 62.3 86.0 C 64.6 84.9 60.3 84.7 60.1 85.4 C 59.8 85.5 56.9 89.4 60.1 89.4 C 60.6 89.6 60.1 90.2 60.2 90.6 C 61.8 93.0 60.4 88.1 62.2 91.1 C 62.2 91.9 60.0 92.4 62.4 93.4 C 62.2 93.5 62.8 96.0 63.2 94.7 C 62.9 96.2 64.3 96.2 65.0 97.0 C 65.0 98.1 63.3 97.1 66.1 99.4 C 65.3 101.5 68.2 100.4 67.3 102.5 C 67.7 103.3 71.1 102.7 68.5 102.0 C 68.8 102.1 69.4 100.3 70.4 102.8 C 69.8 102.7 66.3 103.1 69.8 106.0 C 70.1 106.6 71.7 107.5 71.6 108.0 C 70.1 106.4 71.9 111.3 72.5 110.4 C 73.6 113.6 73.9 111.2 74.2 113.8 C 75.2 115.5 75.1 112.5 75.7 115.1 C 76.8 116.6 75.5 115.9 75.4 115.7 C 76.1 117.2 76.9 117.4 77.2 117.9 C 77.2 118.3 77.0 119.3 77.9 119.2 C 80.1 119.9 80.5 117.8 82.2 117.7 C 82.1 116.2 80.9 117.8 81.4 116.5 C 80.3 116.4 81.4 116.3 79.5 113.5 C 79.3 113.7 79.2 114.8 78.7 114.1 C 78.1 112.9 80.7 112.4 78.1 111.4 C 79.0 113.9 75.5 108.7 76.3 111.1 C 74.5 108.7 76.0 110.2 75.4 108.1 C 74.0 109.0 76.8 107.0 75.3 107.0 C 75.8 106.5 73.7 103.7 74.1 106.3 C 71.9 103.5 73.9 104.9 74.0 103.4 C 73.2 101.9 71.6 104.7 72.8 102.8 C 72.5 100.5 71.9 103.2 72.5 101.1 C 71.6 102.4 71.7 99.7 70.6 101.0 C 68.6 98.0 72.3 100.6 70.0 98.9 C 70.4 99.6 72.0 98.3 70.0 97.6 C 68.3 99.5 70.8 94.7 68.6 97.4 C 65.2 93.6 69.3 96.0 67.9 93.6 C 67.5 93.0 67.4 94.8 67.0 94.3 C 65.5 91.0 67.8 93.1 65.5 92.3 C 63.3 89.5 66.1 90.7 65.3 89.1 C 64.6 89.4 62.7 88.9 64.0 87.7 M 65.0 90.8 C 65.8 91.2 64.8 91.5 65.0 90.8 M 61.9 84.3 C 62.7 84.7 61.7 85.0 61.9 84.3 M 66.9 93.1 C 67.9 93.7 66.4 93.8 66.9 93.1 M 76.3 109.9 C 75.6 108.7 76.9 110.2 76.3 109.9 M 63.5 86.7 C 64.6 87.3 62.9 87.4 63.5 86.7 M 61.7 86.3 C 61.7 86.3 61.7 86.3 61.7 86.3 M 78.4 110.8 C 78.4 110.9 78.4 110.9 78.4 110.8 M 75.7 106.4 C 76.2 107.4 75.1 106.1 75.7 106.4 M 71.0 109.1 C 71.6 110.0 70.4 108.7 71.0 109.1 M 79.9 113.2 C 80.8 113.9 79.5 113.8 79.9 113.2 M 80.4 116.3 C 81.3 116.8 80.2 117.1 80.4 116.3 M 63.1 91.3 C 63.0 91.3 63.0 91.3 63.1 91.3 C 63.1 91.3 63.1 91.3 63.1 91.3 Z M 66.8 100.0 C 66.7 98.8 67.0 101.5 66.8 100.0 M 68.9 96.7 C 68.4 97.9 68.2 95.4 68.9 96.7 C 68.9 96.7 68.9 96.7 68.9 96.7 Z M 67.7 95.5 C 67.6 95.5 67.6 95.5 67.7 95.5 C 67.7 95.5 67.7 95.5 67.7 95.5 Z M 70.4 100.1 C 70.3 100.1 70.3 100.1 70.4 100.1 C 70.4 100.1 70.4 100.1 70.4 100.1 Z M 69.7 99.2 C 69.3 99.0 69.6 98.6 69.7 99.2 C 69.7 99.2 69.7 99.2 69.7 99.2 Z M 70.8 107.6 C 70.4 107.4 70.7 107.0 70.8 107.6 C 70.8 107.6 70.8 107.6 70.8 107.6 Z M 68.5 98.0 C 67.5 98.4 68.7 97.0 68.5 98.0 C 68.5 98.0 68.5 98.0 68.5 98.0 Z M 69.3 104.2 C 69.8 104.5 68.9 105.6 69.3 104.2 M 78.8 111.8 C 79.3 112.1 78.4 113.2 78.8 111.8 M 73.2 102.1 C 73.7 102.3 72.8 103.5 73.2 102.1 M 65.7 91.1 C 65.7 91.3 65.7 91.3 65.7 91.1 M 64.9 98.9 C 65.7 99.3 64.7 99.5 64.9 98.9 M 59.7 89.7 C 60.5 90.1 59.5 90.2 59.7 89.7 M 73.6 113.1 C 73.9 112.9 74.1 114.2 73.6 113.1 M 72.4 104.1 C 72.8 105.0 72.8 106.2 71.8 104.4 C 71.9 104.2 72.4 104.6 72.4 104.1 C 72.4 104.1 72.4 104.1 72.4 104.1 Z M 72.1 108.4 C 72.1 108.6 72.1 108.6 72.1 108.4 M 74.1 105.1 C 74.1 105.3 74.1 105.3 74.1 105.1 M 77.0 110.1 C 77.0 110.3 77.0 110.3 77.0 110.1 M 77.7 110.5 C 77.6 110.5 77.6 110.5 77.7 110.5 C 77.7 110.5 77.7 110.5 77.7 110.5 Z M 81.4 115.7 C 81.3 115.7 81.3 115.7 81.4 115.7 C 81.4 115.7 81.4 115.7 81.4 115.7 Z M 76.0 108.6 C 75.9 108.6 75.9 108.6 76.0 108.6 C 76.0 108.6 76.0 108.6 76.0 108.6 Z M 75.1 115.2 C 75.1 115.2 75.1 115.2 75.1 115.2 C 75.1 115.2 75.1 115.2 75.1 115.2 Z M 75.4 114.3 C 75.3 114.3 75.3 114.3 75.4 114.3 C 75.4 114.3 75.4 114.3 75.4 114.3 Z M 64.3 88.2 C 65.4 88.5 62.9 89.5 64.3 88.2 M 76.8 116.7 C 76.6 117.8 75.9 115.5 76.8 116.7 C 76.8 116.7 76.8 116.7 76.8 116.7 Z M 74.8 108.5 C 74.8 108.6 74.8 108.6 74.8 108.5 M 77.8 110.9 C 77.7 111.0 77.7 111.0 77.8 110.9 M 69.8 96.1 C 69.7 96.3 69.7 96.3 69.8 96.1 M 79.9 114.8 C 81.1 117.2 78.0 114.6 79.9 114.8 M 68.2 95.6 C 68.3 95.5 68.3 95.5 68.2 95.6 M 69.6 101.8 C 70.6 103.3 68.8 101.6 69.6 101.8 M 73.2 105.0 C 73.1 105.0 73.1 105.0 73.2 105.0 C 73.2 105.0 73.2 105.0 73.2 105.0 Z M 71.8 102.8 C 71.0 101.7 71.9 102.3 71.8 102.8 C 71.8 102.8 71.8 102.8 71.8 102.8 Z M 64.1 89.8 C 64.8 91.3 62.9 88.5 64.1 89.8 C 64.1 89.8 64.1 89.8 64.1 89.8 Z M 77.1 115.0 C 77.0 115.0 77.0 115.0 77.1 115.0 C 77.1 115.0 77.1 115.0 77.1 115.0 Z M 76.4 107.9 C 75.8 107.4 76.5 107.4 76.4 107.9 C 76.4 107.9 76.4 107.9 76.4 107.9 Z M 81.8 116.5 C 81.2 116.0 81.9 116.0 81.8 116.5 C 81.8 116.5 81.8 116.5 81.8 116.5 Z M 63.2 87.9 C 64.9 94.2 59.2 80.6 63.2 87.9 C 63.2 87.9 63.2 87.9 63.2 87.9 Z M 73.0 103.3 C 72.9 103.3 72.9 103.3 73.0 103.3 C 73.0 103.3 73.0 103.3 73.0 103.3 Z M 67.7 93.1 C 67.6 93.1 67.6 93.1 67.7 93.1 C 67.7 93.1 67.7 93.1 67.7 93.1 Z M 65.8 91.9 C 65.7 91.9 65.7 91.9 65.8 91.9 C 65.8 91.9 65.8 91.9 65.8 91.9 Z M 62.4 94.6 C 62.4 94.6 62.4 94.6 62.4 94.6 C 62.4 94.6 62.4 94.6 62.4 94.6 Z M 64.4 94.2 C 64.3 94.2 64.3 94.2 64.4 94.2 C 64.4 94.2 64.4 94.2 64.4 94.2 Z M 61.7 91.1 C 61.6 91.1 61.6 91.1 61.7 91.1 C 61.7 91.1 61.7 91.1 61.7 91.1 Z M 61.3 91.5 C 61.2 91.5 61.2 91.5 61.3 91.5 C 61.3 91.5 61.3 91.5 61.3 91.5 Z M 76.8 111.5 C 76.7 111.5 76.7 111.5 76.8 111.5 C 76.8 111.5 76.8 111.5 76.8 111.5 Z M 74.1 110.6 C 75.4 111.5 73.1 110.7 74.1 110.6 C 74.1 110.6 74.1 110.6 74.1 110.6 Z M 68.2 99.2 C 69.1 100.2 67.2 98.7 68.2 99.2 C 68.2 99.2 68.2 99.2 68.2 99.2 Z M 66.9 101.6 C 66.9 101.6 66.9 101.6 66.9 101.6 C 66.9 101.6 66.9 101.6 66.9 101.6 Z M 66.7 91.4 C 66.6 91.4 66.6 91.4 66.7 91.4 C 66.7 91.4 66.7 91.4 66.7 91.4 Z M 64.8 89.7 C 63.9 90.1 64.8 88.8 64.8 89.7 M 71.6 99.9 C 71.5 100.0 71.5 100.0 71.6 99.9 C 71.6 99.9 71.6 99.9 71.6 99.9 Z M 74.5 107.4 C 74.4 107.4 74.4 107.4 74.5 107.4 C 74.5 107.4 74.5 107.4 74.5 107.4 Z M 79.0 113.7 C 78.9 113.7 78.9 113.7 79.0 113.7 C 79.0 113.7 79.0 113.7 79.0 113.7 Z M 74.1 104.2 C 74.0 104.2 74.0 104.2 74.1 104.2 C 74.1 104.2 74.1 104.2 74.1 104.2 Z M 71.4 101.4 C 71.3 101.5 71.3 101.5 71.4 101.4 C 71.4 101.4 71.4 101.4 71.4 101.4 Z M 78.8 115.8 C 78.8 115.8 78.8 115.8 78.8 115.8 C 78.8 115.8 78.8 115.8 78.8 115.8 Z M 74.6 104.8 C 74.6 104.8 74.6 104.8 74.6 104.8 C 74.6 104.8 74.6 104.8 74.6 104.8 Z M 73.4 108.2 C 73.3 108.2 73.3 108.2 73.4 108.2 C 73.4 108.2 73.4 108.2 73.4 108.2 Z M 66.0 89.3 C 66.0 89.3 66.0 89.3 66.0 89.3 C 66.0 89.3 66.0 89.3 66.0 89.3 Z M 79.9 115.2 C 79.9 115.2 79.9 115.2 79.9 115.2 C 79.9 115.2 79.9 115.2 79.9 115.2 Z M 80.8 115.2 C 80.8 115.2 80.8 115.2 80.8 115.2 C 80.8 115.2 80.8 115.2 80.8 115.2 Z M 74.3 112.8 C 73.3 110.2 75.8 114.7 75.6 112.5 C 77.8 115.8 74.6 113.3 74.3 112.8 C 74.3 112.8 74.3 112.8 74.3 112.8 Z M 83.0 118.2 C 81.2 117.5 80.2 118.1 79.5 119.3 C 79.3 120.3 81.4 119.0 79.7 120.1 C 78.4 118.8 77.4 122.4 79.7 121.0 C 81.2 122.7 78.4 122.1 80.0 122.8 C 81.5 124.7 80.2 124.1 81.3 125.6 C 83.1 125.8 81.3 126.9 82.7 126.6 C 80.9 126.6 84.1 128.1 83.6 128.5 C 81.9 127.5 86.9 134.1 85.0 130.0 C 86.5 131.2 85.3 131.6 85.5 132.2 C 86.6 132.4 86.4 135.1 87.7 135.6 C 87.8 135.3 87.6 134.8 87.7 134.5 C 88.0 134.0 88.3 135.7 88.2 135.5 C 88.9 136.0 91.2 138.0 88.2 136.2 C 87.5 136.4 89.8 138.2 89.2 138.4 C 90.6 140.8 90.8 138.3 90.5 139.9 C 91.5 141.5 92.2 142.7 92.4 142.6 C 92.9 143.7 92.3 144.4 93.5 144.9 C 93.4 147.7 97.0 144.7 94.8 147.1 C 95.8 147.3 94.4 148.9 96.0 147.8 C 94.8 147.6 96.9 152.1 97.0 149.6 C 97.6 149.8 97.2 153.7 98.6 152.3 C 100.4 152.5 101.5 151.6 101.4 148.9 C 100.6 149.7 101.0 146.1 100.4 148.6 C 100.9 150.7 97.8 145.7 99.0 146.4 C 101.1 145.5 96.4 144.8 97.1 142.9 C 96.9 144.2 94.0 140.4 96.2 140.7 C 95.8 139.8 95.0 140.1 95.4 138.8 C 96.7 141.3 93.3 138.7 94.3 138.4 C 95.1 138.4 93.3 134.5 92.7 135.4 C 91.5 137.9 92.5 134.2 91.4 134.1 C 89.7 132.4 93.3 133.4 90.9 132.8 C 90.9 132.2 89.3 129.6 90.7 131.0 C 90.9 131.7 87.6 130.7 89.1 129.4 C 91.8 131.7 87.6 125.8 87.7 127.1 C 89.4 132.1 83.8 123.1 86.8 126.0 C 86.6 123.5 87.5 126.3 85.7 124.2 C 85.3 124.8 83.7 123.2 85.0 123.0 C 86.4 121.7 82.5 123.7 83.8 120.9 C 84.6 120.1 81.3 118.4 83.0 118.8 C 83.1 118.8 83.1 118.2 83.0 118.2 M 83.4 119.2 C 82.8 119.1 83.5 118.4 83.4 119.2 M 82.8 119.0 C 82.8 119.0 82.8 119.0 82.8 119.0 C 82.8 119.0 82.8 119.0 82.8 119.0 Z M 85.4 123.8 C 85.4 123.8 85.4 123.8 85.4 123.8 C 85.4 123.8 85.4 123.8 85.4 123.8 Z M 83.6 130.0 C 83.6 129.9 83.6 129.9 83.6 130.0 C 83.6 130.0 83.6 130.0 83.6 130.0 Z M 87.2 127.0 C 87.2 127.0 87.2 127.0 87.2 127.0 C 87.2 127.0 87.2 127.0 87.2 127.0 Z M 84.1 122.3 C 84.1 122.3 84.1 122.3 84.1 122.3 C 84.1 122.3 84.1 122.3 84.1 122.3 Z M 87.6 126.4 C 87.2 127.0 87.4 125.0 87.7 126.4 C 87.7 126.4 87.6 126.2 87.6 126.4 M 90.3 130.3 C 90.3 130.3 90.3 130.3 90.3 130.3 M 91.0 142.1 C 91.0 142.2 91.0 142.2 91.0 142.1 M 96.3 139.9 C 96.3 140.1 96.3 140.1 96.3 139.9 M 92.2 134.7 C 93.0 135.9 92.1 135.2 92.2 134.7 M 97.9 143.4 C 97.4 141.6 99.3 144.9 97.9 143.4 M 99.2 144.7 C 99.3 144.9 99.3 144.9 99.2 144.7 M 94.7 137.8 C 94.6 137.8 94.6 137.8 94.7 137.8 C 94.7 137.8 94.7 137.8 94.7 137.8 Z M 92.1 134.0 C 91.4 132.2 93.7 135.3 92.1 134.0 M 86.3 124.0 C 87.2 124.7 85.5 124.5 86.3 124.0 M 84.9 122.4 C 84.8 122.4 84.8 122.4 84.9 122.4 C 84.9 122.4 84.9 122.4 84.9 122.4 Z M 96.5 140.9 C 96.4 140.8 96.4 140.8 96.5 140.9 C 96.5 140.9 96.5 140.9 96.5 140.9 Z M 97.7 142.6 C 97.6 142.6 97.6 142.6 97.7 142.6 C 97.7 142.6 97.7 142.6 97.7 142.6 Z M 95.0 148.3 C 95.0 148.3 95.0 148.3 95.0 148.3 C 95.0 148.3 95.0 148.3 95.0 148.3 Z M 83.8 124.9 C 83.4 123.5 86.0 125.2 84.8 125.7 C 84.4 126.1 84.0 125.0 83.8 124.9 M 90.0 133.7 C 88.7 134.9 91.4 131.2 90.0 133.7 M 98.4 145.5 C 97.3 147.8 98.7 143.2 98.4 145.5 M 100.2 147.8 C 100.3 148.7 97.2 143.4 99.9 146.8 C 100.4 147.0 100.2 147.4 100.2 147.8 M 89.6 130.8 C 89.0 131.6 88.8 128.6 89.6 130.8 M 91.7 139.8 C 92.6 140.0 94.0 141.3 92.7 141.2 C 91.5 141.9 90.8 139.3 91.7 139.8 M 82.7 120.0 C 84.7 120.2 81.6 120.7 82.7 120.0 M 85.5 124.9 C 85.6 124.8 85.6 124.8 85.5 124.9 C 85.5 124.9 85.5 124.9 85.5 124.9 Z M 86.9 126.6 C 86.8 126.7 86.8 126.7 86.9 126.6 M 84.4 120.1 C 84.3 120.2 84.3 120.2 84.4 120.1 M 93.0 138.9 C 93.0 139.1 93.0 139.1 93.0 138.9 M 91.6 134.5 C 91.4 137.2 90.7 133.7 91.6 134.5 M 86.3 131.7 C 86.1 132.6 85.6 130.5 86.3 131.7 M 93.9 137.2 C 93.5 139.3 91.7 136.2 93.9 137.2 M 91.2 133.6 C 91.3 133.7 91.3 133.7 91.2 133.6 C 91.2 133.6 91.2 133.6 91.2 133.6 Z M 91.8 140.3 C 91.8 140.3 91.8 140.3 91.8 140.3 C 91.8 140.3 91.8 140.3 91.8 140.3 Z M 92.2 140.9 C 92.2 140.8 92.2 140.8 92.2 140.9 C 92.2 140.9 92.2 140.9 92.2 140.9 Z M 95.1 138.7 C 95.0 138.7 95.0 138.7 95.1 138.7 C 95.1 138.7 95.1 138.7 95.1 138.7 Z M 81.3 124.4 C 82.0 125.7 80.5 123.5 81.3 124.4 C 81.3 124.4 81.3 124.4 81.3 124.4 Z M 88.5 127.8 C 88.8 130.6 86.7 126.9 88.5 127.8 C 88.5 127.8 88.5 127.8 88.5 127.8 Z M 88.3 131.3 C 88.3 131.3 88.3 131.3 88.3 131.3 C 88.3 131.3 88.3 131.3 88.3 131.3 Z M 94.2 135.9 C 94.1 136.0 94.1 136.0 94.2 135.9 C 94.2 135.9 94.2 135.9 94.2 135.9 Z M 81.5 125.1 C 81.5 125.2 81.5 125.2 81.5 125.1 C 81.5 125.1 81.5 125.1 81.5 125.1 Z M 96.6 142.8 C 96.5 142.8 96.5 142.8 96.6 142.8 C 96.6 142.8 96.6 142.8 96.6 142.8 Z M 89.5 137.0 C 90.3 137.1 89.2 137.3 89.5 137.0 C 89.5 137.0 89.5 137.0 89.5 137.0 Z M 90.7 138.9 C 90.7 138.9 90.7 138.9 90.7 138.9 C 90.7 138.9 90.7 138.9 90.7 138.9 Z M 99.6 145.1 C 99.7 145.2 99.7 145.2 99.6 145.1 C 99.6 145.1 99.6 145.1 99.6 145.1 Z M 92.5 144.5 C 92.5 144.6 92.5 144.6 92.5 144.5 C 92.5 144.5 92.5 144.5 92.5 144.5 Z M 94.9 145.3 C 94.9 145.2 94.9 145.2 94.9 145.3 C 94.9 145.3 94.9 145.3 94.9 145.3 Z M 94.5 138.6 C 96.0 140.3 93.7 138.5 94.5 138.6 C 94.5 138.6 94.5 138.6 94.5 138.6 Z M 98.3 149.8 C 98.2 149.9 98.2 149.9 98.3 149.8 C 98.3 149.8 98.3 149.8 98.3 149.8 Z M 100.6 149.7 C 100.5 149.8 100.5 149.8 100.6 149.7 C 100.6 149.7 100.6 149.7 100.6 149.7 Z M 101.8 149.6 C 101.7 149.7 101.7 149.7 101.8 149.6 C 101.8 149.6 101.8 149.6 101.8 149.6 Z M 85.0 127.7 C 85.0 127.6 85.0 127.6 85.0 127.7 C 85.0 127.7 85.0 127.7 85.0 127.7 Z M 87.3 125.2 C 87.3 125.2 87.3 125.2 87.3 125.2 C 87.3 125.2 87.3 125.2 87.3 125.2 Z M 89.0 127.7 C 89.1 127.7 89.1 127.7 89.0 127.7 C 89.0 127.7 89.0 127.7 89.0 127.7 Z M 83.0 128.2 C 83.0 128.2 83.0 128.2 83.0 128.2 C 83.0 128.2 83.0 128.2 83.0 128.2 Z M 91.3 136.6 C 91.4 136.5 91.4 136.5 91.3 136.6 C 91.3 136.6 91.3 136.6 91.3 136.6 Z M 90.8 138.2 C 90.8 138.1 90.8 138.1 90.8 138.2 C 90.8 138.2 90.8 138.2 90.8 138.2 Z M 87.9 136.8 C 87.9 136.8 87.9 136.8 87.9 136.8 C 87.9 136.8 87.9 136.8 87.9 136.8 Z M 90.2 139.5 C 90.2 139.5 90.2 139.5 90.2 139.5 C 90.2 139.5 90.2 139.5 90.2 139.5 Z M 79.5 121.4 C 79.5 121.4 79.5 121.4 79.5 121.4 C 79.5 121.4 79.5 121.4 79.5 121.4 Z M 81.5 119.9 C 81.4 119.9 81.4 119.9 81.5 119.9 C 81.5 119.9 81.5 119.9 81.5 119.9 Z M 93.1 135.9 C 93.8 136.1 93.0 137.2 93.1 135.9 M 90.5 132.4 C 90.5 132.4 90.5 132.4 90.5 132.4 C 90.5 132.4 90.5 132.4 90.5 132.4 Z M 96.8 142.2 C 96.3 143.2 96.2 140.2 96.8 142.2 C 96.8 142.2 96.8 142.2 96.8 142.2 Z M 92.0 142.4 C 92.0 142.5 92.0 142.5 92.0 142.4 C 92.0 142.4 92.0 142.4 92.0 142.4 Z M 93.0 143.2 C 93.0 143.3 93.0 143.3 93.0 143.2 C 93.0 143.2 93.0 143.2 93.0 143.2 Z M 98.6 147.2 C 98.6 147.3 98.6 147.3 98.6 147.2 M 91.0 131.4 C 91.0 132.2 91.0 132.0 91.0 131.4 M 97.6 143.5 C 97.5 143.5 97.5 143.5 97.6 143.5 C 97.6 143.5 97.6 143.5 97.6 143.5 Z M 99.8 148.1 C 99.7 148.0 99.7 148.0 99.8 148.1 C 99.8 148.1 99.8 148.1 99.8 148.1 Z M 88.8 129.1 C 87.8 129.9 87.8 129.2 88.8 129.1 M 84.0 121.9 C 83.9 122.0 83.9 122.0 84.0 121.9 C 84.0 121.9 84.0 121.9 84.0 121.9 Z M 104.2 153.5 C 104.1 150.8 102.4 151.8 102.4 151.8 C 104.7 150.7 100.4 150.5 100.3 151.2 C 99.9 151.3 97.1 155.2 100.2 155.2 C 100.8 155.4 100.2 156.1 100.3 156.4 C 101.9 158.8 100.5 153.9 102.3 157.0 C 102.3 157.7 100.2 158.2 102.5 159.2 C 102.4 159.4 102.9 161.8 103.3 160.5 C 103.0 162.0 104.4 162.0 105.2 162.8 C 105.2 163.9 103.4 162.9 106.2 165.2 C 105.5 167.4 108.4 166.2 107.4 168.3 C 107.8 169.1 111.2 168.6 108.6 167.8 C 108.9 167.9 109.6 166.1 110.5 168.7 C 110.0 168.5 106.4 169.0 110.0 171.8 C 110.3 172.4 111.8 173.3 111.7 173.9 C 110.3 172.2 112.0 177.1 112.6 176.2 C 113.8 179.4 114.0 177.0 114.4 179.6 C 115.4 181.4 115.3 178.3 115.8 180.9 C 116.9 182.4 115.6 181.7 115.5 181.5 C 116.2 183.0 117.1 183.2 117.3 183.7 C 117.4 184.1 117.2 185.1 118.1 185.0 C 120.2 185.7 120.7 183.6 122.3 183.5 C 122.2 182.0 121.1 183.6 121.5 182.3 C 120.4 182.2 121.6 182.2 119.6 179.3 C 119.5 179.5 119.4 180.6 118.8 179.9 C 118.2 178.7 120.9 178.2 118.2 177.3 C 119.1 179.8 115.6 174.6 116.5 176.9 C 114.6 174.5 116.2 176.1 115.5 173.9 C 114.2 174.9 117.0 172.8 115.4 172.8 C 115.9 172.3 113.9 169.5 114.3 172.1 C 112.0 169.3 114.0 170.8 114.1 169.2 C 113.3 167.8 111.7 170.5 112.9 168.6 C 112.6 166.3 112.0 169.0 112.6 166.9 C 111.7 168.2 111.8 165.5 110.8 166.8 C 108.8 163.8 112.4 166.4 110.2 164.7 C 110.5 165.4 112.1 164.1 110.2 163.4 C 108.4 165.3 111.0 160.6 108.8 163.2 C 105.3 159.4 109.5 161.8 108.0 159.4 C 107.6 158.8 107.5 160.6 107.2 160.1 C 105.7 156.8 108.0 158.9 105.6 158.1 C 103.4 155.3 106.2 156.5 105.4 155.0 C 104.7 155.2 102.9 154.7 104.2 153.5 M 105.1 156.7 C 105.9 157.0 104.9 157.3 105.1 156.7 M 102.1 150.1 C 102.9 150.5 101.8 150.8 102.1 150.1 M 107.1 158.9 C 108.0 159.5 106.5 159.6 107.1 158.9 M 116.4 175.7 C 115.7 174.6 117.1 176.0 116.4 175.7 M 103.6 152.5 C 104.7 153.1 103.0 153.2 103.6 152.5 M 101.9 152.1 C 101.9 152.1 101.9 152.1 101.9 152.1 M 118.5 176.6 C 118.5 176.7 118.5 176.7 118.5 176.6 M 115.8 172.2 C 116.4 173.2 115.2 171.9 115.8 172.2 M 111.2 174.9 C 111.7 175.8 110.5 174.5 111.2 174.9 M 120.0 179.0 C 120.9 179.7 119.7 179.6 120.0 179.0 M 120.5 182.1 C 121.4 182.7 120.4 182.9 120.5 182.1 M 103.2 157.1 C 103.1 157.1 103.1 157.1 103.2 157.1 C 103.2 157.1 103.2 157.1 103.2 157.1 Z M 107.0 165.8 C 106.8 164.6 107.1 167.3 107.0 165.8 M 109.1 162.5 C 108.5 163.7 108.4 161.2 109.1 162.5 C 109.1 162.5 109.1 162.5 109.1 162.5 Z M 107.8 161.4 C 107.7 161.4 107.7 161.4 107.8 161.4 C 107.8 161.4 107.8 161.4 107.8 161.4 Z M 110.5 165.9 C 110.5 165.9 110.5 165.9 110.5 165.9 C 110.5 165.9 110.5 165.9 110.5 165.9 Z M 109.9 165.0 C 109.4 164.8 109.7 164.4 109.9 165.0 C 109.9 165.0 109.9 165.0 109.9 165.0 Z M 110.9 173.5 C 110.5 173.2 110.8 172.8 110.9 173.5 C 110.9 173.5 110.9 173.5 110.9 173.5 Z M 108.7 163.8 C 107.6 164.3 108.9 162.8 108.7 163.8 C 108.7 163.8 108.7 163.8 108.7 163.8 Z M 109.4 170.0 C 109.9 170.3 109.0 171.4 109.4 170.0 M 118.9 177.7 C 119.4 177.9 118.5 179.1 118.9 177.7 M 113.3 167.9 C 113.8 168.1 112.9 169.3 113.3 167.9 M 105.9 156.9 C 105.8 157.1 105.8 157.1 105.9 156.9 M 105.1 164.7 C 105.8 165.1 104.9 165.3 105.1 164.7 M 99.9 155.5 C 100.6 155.9 99.6 156.0 99.9 155.5 M 113.8 178.9 C 114.0 178.8 114.2 180.0 113.8 178.9 M 112.5 169.9 C 112.9 170.8 112.9 172.0 111.9 170.2 C 112.1 170.0 112.5 170.4 112.5 169.9 C 112.5 169.9 112.5 169.9 112.5 169.9 Z M 112.2 174.3 C 112.2 174.4 112.2 174.4 112.2 174.3 M 114.3 170.9 C 114.3 171.1 114.3 171.1 114.3 170.9 M 117.2 175.9 C 117.1 176.1 117.1 176.1 117.2 175.9 M 117.8 176.3 C 117.8 176.3 117.8 176.3 117.8 176.3 C 117.8 176.3 117.8 176.3 117.8 176.3 Z M 121.5 181.5 C 121.4 181.5 121.4 181.5 121.5 181.5 C 121.5 181.5 121.5 181.5 121.5 181.5 Z M 116.1 174.4 C 116.1 174.4 116.1 174.4 116.1 174.4 C 116.1 174.4 116.1 174.4 116.1 174.4 Z M 115.3 181.0 C 115.2 181.0 115.2 181.0 115.3 181.0 C 115.3 181.0 115.3 181.0 115.3 181.0 Z M 115.5 180.1 C 115.5 180.1 115.5 180.1 115.5 180.1 C 115.5 180.1 115.5 180.1 115.5 180.1 Z M 104.4 154.0 C 105.5 154.3 103.0 155.4 104.4 154.0 M 116.9 182.5 C 116.7 183.6 116.0 181.3 116.9 182.5 C 116.9 182.5 116.9 182.5 116.9 182.5 Z M 115.0 174.3 C 114.9 174.4 114.9 174.4 115.0 174.3 M 117.9 176.7 C 117.8 176.8 117.8 176.8 117.9 176.7 M 109.9 162.0 C 109.8 162.1 109.8 162.1 109.9 162.0 M 120.1 180.6 C 121.2 183.0 118.1 180.4 120.1 180.6 M 108.4 161.4 C 108.4 161.3 108.4 161.3 108.4 161.4 M 109.8 167.7 C 110.8 169.2 108.9 167.4 109.8 167.7 M 113.3 170.9 C 113.3 170.9 113.3 170.9 113.3 170.9 C 113.3 170.9 113.3 170.9 113.3 170.9 Z M 112.0 168.6 C 111.1 167.5 112.0 168.1 112.0 168.6 C 112.0 168.6 112.0 168.6 112.0 168.6 Z M 104.2 155.6 C 105.0 157.1 103.0 154.3 104.2 155.6 C 104.2 155.6 104.2 155.6 104.2 155.6 Z M 117.3 180.9 C 117.2 180.9 117.2 180.9 117.3 180.9 C 117.3 180.9 117.3 180.9 117.3 180.9 Z M 116.6 173.7 C 115.9 173.2 116.7 173.2 116.6 173.7 C 116.6 173.7 116.6 173.7 116.6 173.7 Z M 122.0 182.3 C 121.3 181.8 122.1 181.8 122.0 182.3 C 122.0 182.3 122.0 182.3 122.0 182.3 Z M 103.3 153.7 C 105.0 160.0 99.4 146.4 103.3 153.7 C 103.3 153.7 103.3 153.7 103.3 153.7 Z M 113.1 169.1 C 113.1 169.1 113.1 169.1 113.1 169.1 C 113.1 169.1 113.1 169.1 113.1 169.1 Z M 107.8 158.9 C 107.7 158.9 107.7 158.9 107.8 158.9 C 107.8 158.9 107.8 158.9 107.8 158.9 Z M 105.9 157.7 C 105.9 157.7 105.9 157.7 105.9 157.7 C 105.9 157.7 105.9 157.7 105.9 157.7 Z M 102.6 160.4 C 102.5 160.4 102.5 160.4 102.6 160.4 C 102.6 160.4 102.6 160.4 102.6 160.4 Z M 104.6 160.0 C 104.4 160.0 104.4 160.0 104.6 160.0 C 104.6 160.0 104.6 160.0 104.6 160.0 Z M 101.9 156.9 C 101.8 156.9 101.8 156.9 101.9 156.9 C 101.9 156.9 101.9 156.9 101.9 156.9 Z M 101.4 157.3 C 101.4 157.3 101.4 157.3 101.4 157.3 C 101.4 157.3 101.4 157.3 101.4 157.3 Z M 116.9 177.3 C 116.8 177.3 116.8 177.3 116.9 177.3 C 116.9 177.3 116.9 177.3 116.9 177.3 Z M 114.3 176.4 C 115.6 177.3 113.3 176.5 114.3 176.4 C 114.3 176.4 114.3 176.4 114.3 176.4 Z M 108.3 165.0 C 109.2 166.0 107.4 164.5 108.3 165.0 C 108.3 165.0 108.3 165.0 108.3 165.0 Z M 107.1 167.4 C 107.1 167.4 107.1 167.4 107.1 167.4 C 107.1 167.4 107.1 167.4 107.1 167.4 Z M 106.8 157.2 C 106.7 157.2 106.7 157.2 106.8 157.2 C 106.8 157.2 106.8 157.2 106.8 157.2 Z M 104.9 155.5 C 104.1 155.9 104.9 154.6 104.9 155.5 M 111.8 165.8 C 111.7 165.8 111.7 165.8 111.8 165.8 C 111.8 165.8 111.8 165.8 111.8 165.8 Z M 114.6 173.2 C 114.6 173.2 114.6 173.2 114.6 173.2 C 114.6 173.2 114.6 173.2 114.6 173.2 Z M 119.2 179.5 C 119.0 179.5 119.0 179.5 119.2 179.5 C 119.2 179.5 119.2 179.5 119.2 179.5 Z M 114.2 170.0 C 114.1 170.0 114.1 170.0 114.2 170.0 C 114.2 170.0 114.2 170.0 114.2 170.0 Z M 111.6 167.2 C 111.5 167.3 111.5 167.3 111.6 167.2 C 111.6 167.2 111.6 167.2 111.6 167.2 Z M 119.0 181.6 C 118.9 181.6 118.9 181.6 119.0 181.6 C 119.0 181.6 119.0 181.6 119.0 181.6 Z M 114.8 170.6 C 114.7 170.6 114.7 170.6 114.8 170.6 C 114.8 170.6 114.8 170.6 114.8 170.6 Z M 113.5 174.0 C 113.4 174.0 113.4 174.0 113.5 174.0 C 113.5 174.0 113.5 174.0 113.5 174.0 Z M 106.2 155.1 C 106.1 155.1 106.1 155.1 106.2 155.1 C 106.2 155.1 106.2 155.1 106.2 155.1 Z M 120.0 181.0 C 120.0 181.0 120.0 181.0 120.0 181.0 C 120.0 181.0 120.0 181.0 120.0 181.0 Z M 121.0 181.0 C 120.9 181.0 120.9 181.0 121.0 181.0 C 121.0 181.0 121.0 181.0 121.0 181.0 Z M 114.5 178.6 C 113.5 176.0 115.9 180.6 115.7 178.4 C 118.0 181.6 114.7 179.1 114.5 178.6 C 114.5 178.6 114.5 178.6 114.5 178.6 Z M 123.2 184.0 C 121.3 183.3 120.3 183.9 119.6 185.2 C 119.5 186.1 121.5 184.8 119.8 185.9 C 118.6 184.7 117.6 188.2 119.8 186.8 C 121.3 188.5 118.5 188.0 120.2 188.6 C 121.7 190.5 120.3 189.9 121.4 191.4 C 123.3 191.6 121.4 192.7 122.8 192.4 C 121.1 192.4 124.2 193.9 123.7 194.3 C 122.0 193.3 127.1 199.9 125.1 195.8 C 126.7 197.0 125.4 197.4 125.6 198.0 C 126.7 198.2 126.6 200.9 127.9 201.4 C 127.9 201.1 127.7 200.6 127.9 200.3 C 128.2 199.8 128.4 201.5 128.4 201.3 C 129.0 201.8 131.3 203.8 128.4 202.0 C 127.7 202.2 130.0 204.0 129.4 204.2 C 130.8 206.6 130.9 204.1 130.7 205.7 C 131.7 207.4 132.4 208.6 132.5 208.5 C 133.0 209.6 132.4 210.2 133.7 210.7 C 133.6 213.5 137.1 210.5 135.0 212.9 C 136.0 213.1 134.6 214.7 136.2 213.7 C 135.0 213.4 137.0 217.9 137.1 215.4 C 137.8 215.6 137.3 219.5 138.7 218.1 C 140.5 218.3 141.6 217.4 141.5 214.7 C 140.7 215.5 141.2 211.9 140.5 214.4 C 141.0 216.5 138.0 211.6 139.2 212.3 C 141.3 211.3 136.5 210.6 137.2 208.7 C 137.0 210.0 134.1 206.2 136.3 206.5 C 136.0 205.7 135.2 205.9 135.5 204.6 C 136.9 207.1 133.4 204.6 134.4 204.2 C 135.2 204.3 133.4 200.4 132.8 201.2 C 131.6 203.7 132.7 200.0 131.5 199.9 C 129.9 198.2 133.4 199.2 131.0 198.6 C 131.0 198.0 129.4 195.4 130.9 196.8 C 131.0 197.6 127.7 196.6 129.2 195.2 C 131.9 197.5 127.8 191.6 127.8 192.9 C 129.6 197.9 123.9 188.9 127.0 191.8 C 126.7 189.3 127.7 192.1 125.8 190.0 C 125.5 190.6 123.8 189.1 125.2 188.8 C 126.5 187.5 122.6 189.5 123.9 186.7 C 124.7 185.9 121.4 184.2 123.1 184.6 C 123.3 184.6 123.2 184.1 123.2 184.0 M 123.5 185.0 C 123.0 184.9 123.6 184.2 123.5 185.0 M 122.9 184.8 C 122.9 184.8 122.9 184.8 122.9 184.8 C 122.9 184.8 122.9 184.8 122.9 184.8 Z M 125.5 189.7 C 125.6 189.6 125.6 189.6 125.5 189.7 C 125.5 189.7 125.5 189.7 125.5 189.7 Z M 123.7 195.8 C 123.8 195.8 123.8 195.8 123.7 195.8 C 123.7 195.8 123.7 195.8 123.7 195.8 Z M 127.3 192.8 C 127.3 192.8 127.3 192.8 127.3 192.8 C 127.3 192.8 127.3 192.8 127.3 192.8 Z M 124.3 188.2 C 124.2 188.1 124.2 188.1 124.3 188.2 C 124.3 188.2 124.3 188.2 124.3 188.2 Z M 127.8 192.2 C 127.3 192.8 127.5 190.8 127.9 192.2 C 127.9 192.2 127.7 192.0 127.8 192.2 M 130.5 196.1 C 130.4 196.2 130.4 196.2 130.5 196.1 M 131.2 207.9 C 131.1 208.0 131.1 208.0 131.2 207.9 M 136.4 205.7 C 136.4 205.9 136.4 205.9 136.4 205.7 M 132.3 200.5 C 133.2 201.7 132.2 201.0 132.3 200.5 M 138.1 209.2 C 137.5 207.4 139.4 210.7 138.1 209.2 M 139.4 210.5 C 139.4 210.7 139.4 210.7 139.4 210.5 M 134.8 203.6 C 134.8 203.6 134.8 203.6 134.8 203.6 C 134.8 203.6 134.8 203.6 134.8 203.6 Z M 132.3 199.8 C 131.6 198.0 133.8 201.1 132.3 199.8 M 126.5 189.8 C 127.3 190.6 125.7 190.3 126.5 189.8 M 125.0 188.2 C 124.9 188.2 124.9 188.2 125.0 188.2 C 125.0 188.2 125.0 188.2 125.0 188.2 Z M 136.6 206.7 C 136.5 206.7 136.5 206.7 136.6 206.7 C 136.6 206.7 136.6 206.7 136.6 206.7 Z M 137.8 208.4 C 137.7 208.4 137.7 208.4 137.8 208.4 C 137.8 208.4 137.8 208.4 137.8 208.4 Z M 135.2 214.1 C 135.1 214.1 135.1 214.1 135.2 214.1 C 135.2 214.1 135.2 214.1 135.2 214.1 Z M 124.0 190.7 C 123.5 189.3 126.2 191.1 124.9 191.5 C 124.6 191.9 124.2 190.8 124.0 190.7 M 130.2 199.5 C 128.8 200.7 131.5 197.0 130.2 199.5 M 138.5 211.4 C 137.4 213.7 138.8 209.1 138.5 211.4 M 140.3 213.6 C 140.4 214.6 137.3 209.2 140.1 212.6 C 140.6 212.8 140.4 213.3 140.3 213.6 M 129.8 196.6 C 129.1 197.5 129.0 194.4 129.8 196.6 M 131.8 205.6 C 132.7 205.9 134.1 207.1 132.8 207.0 C 131.6 207.7 130.9 205.2 131.8 205.6 M 122.9 185.9 C 124.8 186.0 121.7 186.5 122.9 185.9 M 125.6 190.7 C 125.7 190.6 125.7 190.6 125.6 190.7 C 125.6 190.7 125.6 190.7 125.6 190.7 Z M 127.0 192.4 C 126.9 192.6 126.9 192.6 127.0 192.4 M 124.5 185.9 C 124.5 186.1 124.5 186.1 124.5 185.9 M 133.2 204.7 C 133.1 204.9 133.1 204.9 133.2 204.7 M 131.8 200.4 C 131.5 203.0 130.9 199.6 131.8 200.4 M 126.5 197.5 C 126.2 198.4 125.7 196.4 126.5 197.5 M 134.1 203.0 C 133.6 205.1 131.8 202.0 134.1 203.0 M 131.3 199.4 C 131.4 199.5 131.4 199.5 131.3 199.4 C 131.3 199.4 131.3 199.4 131.3 199.4 Z M 132.0 206.2 C 131.9 206.1 131.9 206.1 132.0 206.2 C 132.0 206.2 132.0 206.2 132.0 206.2 Z M 132.4 206.7 C 132.3 206.6 132.3 206.6 132.4 206.7 C 132.4 206.7 132.4 206.7 132.4 206.7 Z M 135.2 204.5 C 135.1 204.5 135.1 204.5 135.2 204.5 C 135.2 204.5 135.2 204.5 135.2 204.5 Z M 121.4 190.2 C 122.1 191.6 120.6 189.3 121.4 190.2 C 121.4 190.2 121.4 190.2 121.4 190.2 Z M 128.6 193.7 C 128.9 196.4 126.8 192.7 128.6 193.7 C 128.6 193.7 128.6 193.7 128.6 193.7 Z M 128.5 197.1 C 128.4 197.1 128.4 197.1 128.5 197.1 C 128.5 197.1 128.5 197.1 128.5 197.1 Z M 134.4 201.7 C 134.3 201.8 134.3 201.8 134.4 201.7 C 134.4 201.7 134.4 201.7 134.4 201.7 Z M 121.7 191.0 C 121.6 191.0 121.6 191.0 121.7 191.0 C 121.7 191.0 121.7 191.0 121.7 191.0 Z M 136.7 208.6 C 136.7 208.7 136.7 208.7 136.7 208.6 C 136.7 208.6 136.7 208.6 136.7 208.6 Z M 129.6 202.8 C 130.4 203.0 129.3 203.1 129.6 202.8 C 129.6 202.8 129.6 202.8 129.6 202.8 Z M 130.8 204.7 C 130.8 204.8 130.8 204.8 130.8 204.7 C 130.8 204.7 130.8 204.7 130.8 204.7 Z M 139.8 210.9 C 139.8 211.0 139.8 211.0 139.8 210.9 C 139.8 210.9 139.8 210.9 139.8 210.9 Z M 132.6 210.4 C 132.7 210.4 132.7 210.4 132.6 210.4 C 132.6 210.4 132.6 210.4 132.6 210.4 Z M 135.1 211.1 C 135.0 211.1 135.0 211.1 135.1 211.1 C 135.1 211.1 135.1 211.1 135.1 211.1 Z M 134.7 204.4 C 136.1 206.2 133.8 204.3 134.7 204.4 C 134.7 204.4 134.7 204.4 134.7 204.4 Z M 138.4 215.6 C 138.3 215.7 138.3 215.7 138.4 215.6 C 138.4 215.6 138.4 215.6 138.4 215.6 Z M 140.7 215.5 C 140.7 215.6 140.7 215.6 140.7 215.5 C 140.7 215.5 140.7 215.5 140.7 215.5 Z M 141.9 215.4 C 141.9 215.5 141.9 215.5 141.9 215.4 C 141.9 215.4 141.9 215.4 141.9 215.4 Z M 125.1 193.5 C 125.1 193.4 125.1 193.4 125.1 193.5 C 125.1 193.5 125.1 193.5 125.1 193.5 Z M 127.5 191.0 C 127.5 191.0 127.5 191.0 127.5 191.0 C 127.5 191.0 127.5 191.0 127.5 191.0 Z M 129.2 193.6 C 129.2 193.5 129.2 193.5 129.2 193.6 C 129.2 193.6 129.2 193.6 129.2 193.6 Z M 123.1 194.1 C 123.1 194.0 123.1 194.0 123.1 194.1 C 123.1 194.1 123.1 194.1 123.1 194.1 Z M 131.5 202.4 C 131.5 202.3 131.5 202.3 131.5 202.4 C 131.5 202.4 131.5 202.4 131.5 202.4 Z M 130.9 204.0 C 130.9 203.9 130.9 203.9 130.9 204.0 C 130.9 204.0 130.9 204.0 130.9 204.0 Z M 128.0 202.7 C 128.0 202.6 128.0 202.6 128.0 202.7 C 128.0 202.7 128.0 202.7 128.0 202.7 Z M 130.4 205.3 C 130.4 205.3 130.4 205.3 130.4 205.3 C 130.4 205.3 130.4 205.3 130.4 205.3 Z M 119.7 187.2 C 119.6 187.2 119.6 187.2 119.7 187.2 C 119.7 187.2 119.7 187.2 119.7 187.2 Z M 121.7 185.7 C 121.6 185.7 121.6 185.7 121.7 185.7 C 121.7 185.7 121.7 185.7 121.7 185.7 Z M 133.2 201.7 C 133.9 201.9 133.2 203.0 133.2 201.7 M 130.7 198.2 C 130.6 198.2 130.6 198.2 130.7 198.2 C 130.7 198.2 130.7 198.2 130.7 198.2 Z M 137.0 208.0 C 136.4 209.0 136.3 206.0 137.0 208.0 C 137.0 208.0 137.0 208.0 137.0 208.0 Z M 132.2 208.3 C 132.2 208.3 132.2 208.3 132.2 208.3 C 132.2 208.3 132.2 208.3 132.2 208.3 Z M 133.1 209.0 C 133.1 209.1 133.1 209.1 133.1 209.0 C 133.1 209.0 133.1 209.0 133.1 209.0 Z M 138.7 213.0 C 138.7 213.1 138.7 213.1 138.7 213.0 M 131.1 197.2 C 131.1 198.0 131.1 197.9 131.1 197.2 M 137.7 209.3 C 137.6 209.3 137.6 209.3 137.7 209.3 C 137.7 209.3 137.7 209.3 137.7 209.3 Z M 139.9 213.9 C 139.9 213.9 139.9 213.9 139.9 213.9 C 139.9 213.9 139.9 213.9 139.9 213.9 Z M 129.0 194.9 C 128.0 195.7 127.9 195.0 129.0 194.9 M 124.1 187.7 C 124.0 187.8 124.0 187.8 124.1 187.7 C 124.1 187.7 124.1 187.7 124.1 187.7 Z M 124.1 187.7 " fill="#EB5C56"></path><path d="M 133.5 231.6 C 132.9 231.8 131.7 230.7 133.1 231.1 C 133.2 231.1 133.7 231.5 133.5 231.6 Z M 135.9 232.9 C 135.7 232.9 135.6 232.7 135.5 232.5 C 135.5 232.0 136.6 233.3 135.9 232.9 Z M 132.6 230.5 C 132.5 230.5 131.7 230.1 131.9 230.1 C 132.1 230.0 132.6 230.5 132.6 230.5 Z M 138.6 233.2 C 138.5 233.3 137.7 232.9 137.6 232.7 C 137.3 232.2 138.9 232.7 138.6 233.2 Z M 138.7 225.4 C 138.7 225.4 138.8 225.4 138.8 225.3 C 138.8 225.4 138.7 225.4 138.7 225.4 Z M 149.8 239.7 C 149.7 239.7 149.5 239.3 149.6 239.2 C 149.9 239.0 150.4 239.9 149.8 239.7 Z M 151.9 216.8 C 151.9 216.8 151.5 216.9 151.6 216.7 C 151.6 216.5 151.9 216.6 151.9 216.8 Z M 151.8 216.6 C 151.6 216.5 151.8 216.2 151.9 216.4 C 151.9 216.6 151.9 216.7 151.8 216.6 Z M 155.6 229.2 C 155.6 229.3 155.6 229.4 155.5 229.3 C 155.4 229.3 155.5 229.0 155.6 229.2 Z M 155.3 228.9 C 155.0 228.7 155.4 228.5 155.4 228.6 C 155.5 228.9 155.5 229.0 155.3 228.9 Z M 156.5 226.1 C 156.5 226.2 156.5 226.3 156.4 226.2 C 156.3 226.1 156.4 225.9 156.5 226.1 Z M 146.0 219.6 C 146.1 219.5 146.5 219.4 146.6 219.5 C 146.7 219.8 145.9 219.9 146.0 219.6 Z M 146.5 219.2 C 146.4 219.1 146.6 218.8 146.7 219.1 C 146.7 219.2 146.6 219.3 146.5 219.2 Z M 145.0 220.6 C 145.1 220.8 144.7 221.1 144.5 221.1 C 144.4 221.1 144.1 221.2 143.9 221.2 C 143.8 221.2 144.8 220.3 145.0 220.6 Z M 141.5 223.0 C 141.5 222.9 141.5 222.8 141.7 222.8 C 141.9 222.8 141.6 223.1 141.5 223.0 Z M 143.5 221.6 C 143.4 221.5 143.4 221.4 143.7 221.4 C 143.9 221.4 143.5 221.7 143.5 221.6 Z M 143.0 236.1 C 143.0 236.3 142.4 235.8 142.4 235.8 C 142.4 235.7 142.6 235.8 142.5 235.7 C 142.4 235.5 143.0 235.3 143.0 236.1 Z M 137.3 233.6 C 137.2 233.5 137.2 233.4 137.3 233.3 C 137.3 233.3 137.7 233.7 137.3 233.6 Z M 142.6 234.9 C 142.5 235.0 142.4 234.9 142.4 234.8 C 142.4 234.8 142.6 234.9 142.6 234.9 Z M 143.0 235.1 C 142.9 235.0 142.7 234.6 142.9 234.5 C 143.1 234.4 143.6 235.2 143.0 235.1 Z M 143.6 236.7 C 143.4 236.6 143.4 236.6 143.6 236.6 C 143.7 236.6 143.6 236.7 143.6 236.7 Z M 140.3 235.4 C 140.1 235.2 140.1 235.2 140.3 235.2 C 140.4 235.2 140.3 235.4 140.3 235.4 Z M 145.3 237.1 C 145.3 237.1 144.8 237.2 144.9 236.7 C 145.0 236.2 145.3 237.1 145.3 237.1 Z M 147.8 237.8 C 147.6 237.7 147.8 237.6 147.9 237.7 C 148.0 237.9 147.9 237.9 147.8 237.8 Z M 149.0 237.5 C 149.2 237.7 149.3 238.0 148.9 237.8 C 148.6 237.5 148.8 237.3 149.0 237.5 Z M 148.5 237.5 C 148.5 237.4 148.6 237.5 148.6 237.6 C 148.6 237.6 148.4 237.5 148.5 237.5 Z M 146.3 237.0 C 146.0 237.0 146.0 236.7 146.3 236.8 C 146.6 236.9 146.6 237.0 146.3 237.0 Z M 136.2 225.6 C 136.1 225.8 136.0 225.5 136.1 225.4 C 136.1 225.3 136.3 225.5 136.2 225.6 Z M 144.5 221.7 C 144.3 221.7 144.4 221.6 144.7 221.5 C 144.9 221.5 144.7 221.8 144.5 221.7 Z M 149.7 219.1 C 149.5 219.1 149.6 219.0 149.8 218.9 C 150.1 218.9 149.9 219.2 149.7 219.1 Z M 142.5 222.9 C 142.4 222.9 142.7 222.2 143.2 222.4 C 143.7 222.5 142.9 223.1 142.5 222.9 Z M 140.1 229.8 C 140.0 229.9 140.0 229.8 140.0 229.8 C 140.2 229.7 140.2 229.7 140.1 229.8 Z M 144.0 222.8 C 143.9 222.9 143.8 222.7 143.9 222.6 C 143.9 222.5 144.1 222.7 144.0 222.8 Z M 148.6 219.4 C 148.4 219.4 148.3 219.0 148.4 218.8 C 148.6 218.2 149.1 218.5 149.5 218.5 C 149.8 218.5 148.8 219.3 148.6 219.4 Z M 135.5 227.1 C 135.7 227.1 135.8 227.1 135.9 227.0 C 135.9 226.9 136.0 226.9 136.1 226.9 C 136.6 226.5 136.6 225.9 136.8 225.6 C 137.4 224.9 138.2 225.7 138.7 225.4 C 138.6 225.5 138.5 225.6 138.4 225.7 C 138.4 226.1 140.1 224.9 140.2 224.8 C 141.5 223.7 139.6 224.6 139.3 224.1 C 139.1 223.8 140.5 223.8 140.6 223.8 C 141.2 223.7 140.9 223.2 141.5 223.1 C 141.7 223.1 142.9 223.9 143.0 223.6 C 143.1 223.4 143.6 223.2 143.8 223.2 C 144.1 223.0 144.5 222.7 144.0 222.4 C 143.6 222.2 143.4 222.0 143.9 222.0 C 144.3 222.1 146.4 221.7 145.9 220.9 C 145.8 220.9 145.3 220.8 145.3 220.9 C 145.6 220.4 147.3 219.8 147.4 219.2 C 147.7 218.0 147.5 219.8 148.0 219.8 C 148.9 219.8 149.4 219.8 150.1 219.1 C 150.3 219.0 151.1 218.5 150.4 218.3 C 150.0 218.1 150.1 217.8 149.5 218.0 C 149.8 217.3 150.7 217.8 150.7 217.6 C 150.7 217.3 150.3 217.3 150.7 217.1 C 151.2 216.9 151.0 216.9 151.3 217.2 C 151.4 217.4 151.9 217.2 151.9 217.2 C 151.9 217.2 151.9 217.3 152.0 217.3 C 152.4 217.0 152.5 215.9 152.7 216.0 C 152.9 216.1 153.0 216.7 153.1 216.9 C 153.1 216.9 153.2 216.9 153.2 216.9 C 153.3 216.7 153.6 216.1 153.7 216.2 C 153.8 216.2 153.9 217.1 154.0 216.8 C 154.0 216.5 155.1 216.2 155.3 216.4 C 155.4 216.6 156.3 217.4 156.5 217.4 C 156.7 217.4 156.6 218.0 156.7 218.2 C 156.7 218.4 156.4 218.8 156.3 218.8 C 156.2 218.9 156.3 219.4 156.3 219.4 C 156.3 219.4 156.5 219.6 156.5 220.0 C 156.5 220.4 156.3 220.7 156.1 221.2 C 156.0 221.7 156.3 221.9 156.4 222.3 C 156.4 222.8 155.7 223.2 155.6 223.6 C 155.5 224.0 156.1 224.0 156.1 224.5 C 156.2 225.0 156.1 225.2 156.0 225.1 C 155.9 224.9 155.7 225.1 155.7 225.2 C 155.7 225.4 155.5 225.9 155.6 226.2 C 155.7 226.4 156.2 224.9 156.2 226.7 C 156.2 227.7 155.5 228.3 155.5 228.1 C 155.5 227.4 154.6 228.9 154.9 228.9 C 155.2 228.9 155.1 230.5 155.6 230.1 C 155.8 230.0 156.0 231.6 155.9 231.8 C 155.8 232.0 155.9 232.7 155.4 233.0 C 155.2 233.1 155.9 234.0 155.9 234.2 C 155.9 234.4 155.8 235.6 155.7 235.9 C 155.5 236.2 155.5 235.6 155.5 235.3 C 155.5 235.0 155.8 234.6 155.7 234.4 C 155.7 234.1 155.4 234.6 155.4 235.0 C 155.4 235.3 155.1 235.3 155.0 235.6 C 155.1 235.7 155.1 235.9 155.0 236.2 C 155.0 236.3 155.1 236.4 155.2 236.4 C 155.3 236.4 155.5 236.2 155.5 236.3 C 155.6 236.3 155.7 236.5 155.7 236.9 C 155.7 237.3 155.7 237.6 155.5 238.1 C 155.4 238.6 155.5 238.8 155.6 239.1 C 155.6 239.5 155.6 239.8 155.5 239.8 C 155.4 239.8 155.3 239.4 155.2 239.4 C 155.1 239.3 154.8 239.8 154.8 240.0 C 154.7 240.9 153.9 240.2 153.8 241.2 C 153.7 241.7 153.4 241.1 153.1 240.8 C 153.1 240.9 153.0 240.9 152.6 240.8 C 152.5 240.9 152.0 240.5 151.8 240.4 C 151.6 240.3 150.4 240.0 151.2 240.0 C 151.3 240.0 151.3 240.0 151.4 240.1 C 151.4 240.0 151.4 240.0 151.4 240.0 C 151.4 240.0 151.9 239.8 151.9 239.8 C 151.9 239.8 151.4 240.0 151.4 240.0 C 151.4 239.8 151.3 239.6 151.3 239.4 C 151.2 239.4 151.1 239.4 151.1 239.5 C 151.1 239.5 151.0 239.5 151.0 239.5 C 151.0 239.5 151.0 239.5 151.0 239.5 C 150.9 239.7 150.9 239.6 150.8 239.5 C 150.3 239.5 149.6 238.7 149.3 238.4 C 150.7 238.0 149.0 237.2 148.4 237.0 C 147.8 236.8 147.3 238.0 147.5 238.1 C 147.1 237.9 147.1 237.7 147.2 237.3 C 147.2 237.4 147.1 236.5 147.1 236.5 C 146.4 235.6 146.1 236.7 145.8 236.6 C 145.5 236.6 145.2 236.5 144.9 236.4 C 144.5 236.3 144.7 236.6 144.5 236.7 C 144.0 237.0 143.7 235.8 143.5 235.6 C 143.8 235.6 144.1 235.7 144.4 235.7 C 143.9 235.7 144.0 235.1 143.9 235.0 C 143.7 234.7 143.3 234.6 143.0 234.4 C 142.4 234.2 141.8 234.0 141.3 233.8 C 141.4 234.0 141.8 235.0 141.9 235.0 C 141.7 235.0 141.3 234.5 141.3 235.0 C 141.3 235.9 140.1 234.8 139.9 234.7 C 139.3 234.3 138.2 234.6 137.9 233.4 C 137.9 233.4 139.0 233.8 139.0 233.7 C 139.1 233.0 139.0 232.5 138.2 232.3 C 138.0 232.2 136.8 232.2 136.8 232.2 C 136.8 232.1 137.1 234.1 136.5 233.2 C 136.3 233.0 136.8 232.9 136.7 232.7 C 136.4 232.4 135.9 232.3 135.6 232.1 C 135.6 232.0 135.1 231.5 135.1 231.6 C 134.8 231.7 134.7 231.9 134.4 231.9 C 134.2 231.9 134.0 231.6 134.1 231.4 C 134.1 231.4 134.1 231.4 134.2 231.4 C 134.1 231.3 134.1 231.2 134.2 231.1 C 134.1 231.1 133.9 231.0 133.9 230.8 C 133.9 230.7 134.1 230.8 134.2 231.0 C 134.3 231.0 134.3 230.9 134.4 230.8 C 134.1 230.7 133.8 230.6 133.7 230.6 C 133.1 230.7 133.0 230.9 132.6 230.0 C 132.3 229.2 133.6 227.8 134.7 227.5 C 134.9 227.3 135.1 227.1 135.5 227.1 Z M 154.7 236.8 C 154.7 236.8 154.7 236.8 154.7 236.7 C 154.6 236.7 154.5 236.7 154.3 236.8 C 154.3 237.0 154.6 236.7 154.5 237.0 C 154.5 237.3 154.6 237.2 154.7 236.8 Z M 152.4 238.0 C 152.4 238.2 152.5 238.2 152.6 238.0 C 152.5 238.0 152.4 238.0 152.4 238.0 Z M 151.7 239.0 C 152.1 239.1 151.8 238.4 151.2 238.3 C 151.4 238.7 151.6 238.9 151.7 239.0 Z M 150.7 239.1 C 150.7 239.0 150.8 239.0 150.8 238.9 C 150.9 238.8 150.5 238.8 150.6 238.7 C 150.7 238.6 151.1 238.6 151.0 238.4 C 150.9 238.4 150.9 238.3 150.8 238.3 C 150.8 238.3 150.7 238.3 150.7 238.3 C 150.4 238.4 150.5 238.9 150.7 239.1 Z M 153.8 235.1 C 153.9 235.3 153.9 235.2 153.9 235.0 C 153.9 234.9 153.7 235.0 153.8 235.1 Z M 154.9 232.9 C 154.7 233.1 154.8 233.3 155.0 233.1 C 155.1 233.0 155.0 232.7 154.9 232.9 Z M 150.8 232.1 C 150.9 232.1 150.9 232.1 150.9 232.0 C 150.8 231.8 150.7 232.0 150.8 232.1 Z M 149.0 233.0 C 148.8 233.0 148.7 233.3 148.9 233.3 C 149.0 233.3 149.1 233.1 149.0 233.0 Z M 153.2 230.8 C 153.2 230.6 153.0 230.7 153.1 230.8 C 153.2 231.0 153.3 230.9 153.2 230.8 Z M 151.0 232.6 C 151.1 232.4 151.0 232.4 150.9 232.3 C 150.8 232.3 150.7 232.4 150.7 232.6 C 150.8 232.9 150.9 232.9 151.0 232.6 Z M 149.6 233.7 C 149.0 233.4 148.9 233.6 149.6 233.9 C 150.3 234.1 149.9 233.9 149.6 233.7 Z M 155.5 231.2 C 155.5 231.3 155.6 231.6 155.6 231.6 C 155.6 231.6 155.7 230.8 155.5 231.2 Z M 145.3 236.1 C 145.5 236.2 145.7 236.1 145.5 235.9 C 145.2 235.7 145.1 236.0 145.3 236.1 Z M 145.5 234.7 C 145.5 235.2 145.8 235.5 145.8 235.5 C 145.8 235.5 146.0 235.2 146.2 235.2 C 146.6 235.3 146.8 235.9 147.3 235.8 C 147.8 235.7 147.1 235.3 146.9 235.2 C 147.0 235.2 147.1 235.2 147.2 235.1 C 147.2 234.9 147.1 234.9 147.0 234.9 C 146.7 234.9 145.6 234.1 145.5 234.7 Z M 149.9 232.1 C 149.9 232.3 150.2 232.4 150.3 232.2 C 150.4 231.9 150.4 231.7 150.3 231.7 C 150.2 231.6 149.9 231.9 149.9 232.1 Z M 151.2 231.1 C 151.3 231.3 151.3 231.2 151.3 231.0 C 151.2 230.6 151.0 231.0 151.2 231.1 Z M 155.4 225.1 C 155.3 224.9 155.3 225.3 155.4 225.3 C 155.5 225.3 155.5 225.2 155.4 225.1 Z M 153.2 226.5 C 153.0 226.1 152.9 226.6 152.9 226.7 C 153.0 226.8 153.3 226.8 153.2 226.5 Z M 152.6 228.7 C 152.6 228.5 152.5 228.8 152.6 228.9 C 152.7 229.0 152.7 228.8 152.6 228.7 Z M 151.9 229.4 C 151.8 229.2 151.6 229.4 151.7 229.6 C 151.8 229.7 151.9 229.6 151.9 229.4 Z M 144.1 233.2 C 144.1 233.2 144.3 232.9 144.0 232.9 C 143.6 233.0 143.6 232.9 144.1 233.2 Z M 147.1 232.2 C 147.4 232.3 147.7 232.4 148.3 231.7 C 148.9 231.0 148.5 231.1 148.0 231.2 C 147.5 231.4 148.5 230.3 147.5 230.6 C 147.1 230.8 146.8 232.1 147.1 232.2 Z M 151.0 228.1 C 150.7 228.6 151.2 229.2 151.2 228.7 C 151.3 228.1 151.2 227.6 151.0 228.1 Z M 151.3 227.9 C 151.3 228.0 151.4 227.9 151.3 227.7 C 151.3 227.5 151.2 227.7 151.3 227.9 Z M 140.7 234.8 C 141.7 235.1 141.0 234.0 141.0 234.0 C 140.1 233.2 139.6 234.5 140.7 234.8 Z M 151.8 217.9 C 151.8 217.9 151.7 218.0 151.7 218.0 C 151.7 218.0 151.7 218.0 151.7 218.0 C 151.6 218.2 152.0 218.2 152.0 218.2 C 152.0 218.1 151.9 218.0 151.8 217.9 Z M 147.0 220.6 C 147.2 220.5 147.3 220.4 147.3 220.2 C 147.0 219.8 145.6 220.7 146.6 221.1 C 146.7 221.1 148.0 221.2 147.9 220.8 C 147.8 220.5 146.5 220.9 147.0 220.6 Z M 148.8 220.3 C 148.2 220.6 149.6 220.5 149.3 220.3 C 149.1 220.2 149.0 220.2 148.8 220.3 Z M 153.8 219.0 C 154.3 218.3 153.5 217.3 152.7 218.6 C 151.9 219.8 152.1 220.4 152.6 219.8 C 153.1 219.3 152.9 220.2 153.8 219.0 Z M 147.6 222.8 C 147.3 221.9 147.1 222.3 147.2 223.0 C 147.3 223.2 147.9 223.3 147.6 222.8 Z M 146.0 223.9 C 145.7 224.0 145.8 224.0 146.0 224.0 C 146.2 224.1 146.3 223.9 146.0 223.9 Z M 155.7 219.4 C 155.9 219.1 155.9 218.7 156.0 218.9 C 156.1 219.1 156.1 218.9 156.2 218.7 C 156.3 218.4 155.9 218.6 155.7 218.8 C 155.6 218.9 155.4 219.7 155.7 219.4 Z M 150.8 226.1 C 150.8 225.9 150.6 226.1 150.7 226.3 C 150.7 226.4 150.8 226.3 150.8 226.1 Z M 144.8 230.9 C 144.8 230.9 145.0 230.7 144.8 230.8 C 144.5 230.8 144.5 230.8 144.8 230.9 Z M 139.5 233.8 C 139.7 233.9 139.5 233.5 139.8 233.4 C 139.9 233.3 139.9 233.6 139.8 233.6 C 139.9 233.5 140.4 233.1 139.9 233.1 C 139.6 233.1 138.9 233.7 139.5 233.8 Z M 148.9 227.0 C 148.7 227.4 150.0 227.0 149.9 227.3 C 149.8 227.6 150.0 227.6 150.1 227.2 C 150.1 226.8 149.0 226.6 148.9 227.0 Z M 151.5 225.1 C 151.3 225.3 151.2 226.1 151.4 225.8 C 151.6 225.5 151.6 225.1 151.8 225.3 C 151.9 225.4 151.9 225.3 151.9 225.1 C 152.1 224.8 151.7 225.0 151.5 225.1 Z M 156.0 222.2 C 155.9 222.3 155.9 222.7 156.1 222.4 C 156.2 222.3 156.0 222.0 156.0 222.2 Z M 143.0 229.7 C 143.3 229.6 143.3 229.5 143.0 229.4 C 142.7 229.3 142.8 229.7 143.0 229.7 Z M 155.1 221.6 C 154.9 222.1 155.3 221.6 155.2 221.9 C 155.2 222.2 155.3 222.2 155.4 221.8 C 155.5 221.4 155.2 221.2 155.1 221.6 Z M 138.4 231.5 C 138.5 231.5 138.7 231.2 138.5 231.2 C 138.3 231.2 138.3 231.5 138.4 231.5 Z M 139.7 229.8 C 139.8 229.9 139.9 229.9 139.9 230.0 C 141.4 230.6 139.6 228.9 139.7 229.8 Z M 142.5 228.3 C 142.2 228.6 142.7 228.5 142.7 228.5 C 142.7 228.4 142.6 228.3 142.5 228.3 Z M 145.4 226.6 C 145.3 226.4 145.1 226.6 145.2 226.7 C 145.3 226.8 145.4 226.7 145.4 226.6 Z M 135.7 231.8 C 135.8 231.9 135.9 231.8 135.8 231.7 C 135.7 231.6 135.5 231.6 135.7 231.8 Z M 142.8 227.2 C 142.8 227.3 142.9 227.3 143.0 227.2 C 143.1 227.1 142.8 227.1 142.8 227.2 Z M 151.6 221.8 C 151.6 221.9 151.6 222.0 151.6 222.2 C 151.7 222.3 152.3 222.0 152.4 222.2 C 152.4 222.2 152.4 222.2 152.4 222.2 C 152.4 222.2 152.5 222.2 152.5 222.2 C 152.5 222.3 152.5 222.5 152.4 222.4 C 152.4 222.5 152.3 222.6 152.2 222.7 C 152.5 222.7 152.7 222.7 152.8 222.5 C 152.9 222.2 152.7 221.8 152.5 221.5 C 152.3 221.5 152.2 221.5 152.0 221.6 C 152.0 221.6 152.0 221.6 152.0 221.6 C 152.1 221.9 151.9 222.1 151.9 221.9 C 151.8 221.8 151.8 221.7 151.8 221.7 C 151.7 221.7 151.7 221.7 151.6 221.8 Z M 143.7 226.1 C 143.5 226.4 143.8 226.4 144.1 226.3 C 144.3 226.2 143.9 225.9 143.7 226.1 Z M 135.9 231.2 C 135.9 231.2 136.0 231.1 136.0 231.0 C 135.9 231.0 135.9 231.0 135.8 231.1 C 135.7 231.1 135.5 231.2 135.3 231.2 C 135.4 231.4 135.6 231.5 135.9 231.2 Z M 137.9 228.9 C 137.8 229.0 136.7 229.6 137.0 229.7 C 137.6 229.9 137.4 230.5 138.0 229.9 C 138.3 229.6 138.3 228.9 138.6 228.6 C 140.2 227.0 137.8 228.4 137.3 228.5 C 137.2 228.6 138.0 228.7 137.9 228.9 Z M 140.0 226.8 C 139.9 226.6 139.5 226.6 139.4 226.7 C 139.0 227.0 140.0 227.1 140.0 226.8 Z M 134.6 229.7 C 134.6 229.7 134.6 229.8 134.7 229.8 C 134.7 229.8 134.7 229.7 134.7 229.7 C 134.6 229.7 134.6 229.7 134.6 229.7 Z M 133.2 230.3 C 134.0 230.6 133.3 229.6 133.1 229.4 C 132.7 229.2 132.7 230.2 133.2 230.3 Z M 138.0 226.8 C 138.4 226.6 138.2 225.2 137.6 225.7 C 137.0 226.1 137.2 227.2 138.0 226.8 Z M 141.1 223.0 C 141.0 223.3 140.5 223.3 140.6 223.0 C 140.7 222.8 141.1 222.9 141.1 223.0 Z M 134.9 226.0 C 135.1 226.0 135.0 226.1 135.0 226.1 C 134.8 226.0 134.8 226.0 134.9 226.0 Z M 135.9 226.4 C 135.7 226.5 135.5 226.6 135.3 226.6 C 135.1 226.6 135.5 226.3 135.5 226.3 C 135.7 226.2 135.9 226.5 135.9 226.4 Z M 139.1 224.7 C 138.9 224.6 139.1 224.5 139.2 224.4 C 139.4 224.4 139.3 224.7 139.1 224.7 Z M 138.2 224.8 C 138.3 224.8 138.3 225.0 138.2 225.1 C 138.0 225.1 138.1 224.9 138.2 224.8 Z M 139.9 224.7 C 139.6 225.0 139.2 225.3 139.1 225.0 C 139.0 224.8 140.4 224.1 139.9 224.7 Z M 139.9 224.7 " fill="#EB5C56"></path></g></svg>