<?xml version="1.0" encoding="UTF-8"?><svg xmlns="http://www.w3.org/2000/svg" xmlns:xlink="http://www.w3.org/1999/xlink" clip-rule="evenodd" stroke-miterlimit="4.00" viewBox="0 0 302 343"><desc>SVG generated by Keynote</desc><defs></defs><g transform="matrix(1.00, 0.00, -0.00, -1.00, 0.0, 343.0)"><path d="M 21.8 19.5 C 21.5 19.4 21.2 18.7 21.0 18.7 M 21.8 19.5 C 22.2 18.3 21.4 17.2 20.4 15.7 C 19.2 14.3 19.7 16.5 19.2 16.6 C 17.2 15.0 17.8 14.5 19.0 14.0 C 17.7 13.8 16.9 10.7 16.2 12.1 C 18.8 15.1 14.1 10.2 15.6 13.3 C 15.7 13.7 14.8 13.2 14.5 13.0 C 14.8 14.2 13.0 13.2 13.8 14.9 C 13.3 15.7 13.4 15.2 13.6 16.5 C 13.8 16.9 13.9 16.6 14.1 16.4 C 15.0 15.8 14.5 17.8 15.6 18.1 C 15.1 19.7 17.0 19.2 16.9 18.3 C 17.3 19.0 16.9 20.8 18.2 20.7 C 18.0 21.6 19.8 23.0 19.6 21.4 C 19.4 20.2 20.5 20.8 20.8 20.7 C 20.8 20.2 19.6 19.5 19.6 19.1 C 20.1 19.3 21.7 20.3 20.4 18.9 C 21.1 19.1 20.8 18.1 21.8 19.5 C 21.8 19.5 21.8 19.5 21.8 19.5 Z M 18.0 13.8 C 18.3 13.6 18.4 14.3 18.0 13.8 C 18.0 13.8 18.0 13.8 18.0 13.8 Z M 17.2 20.7 C 17.5 20.4 17.6 21.2 17.2 20.7 C 17.2 20.7 17.2 20.7 17.2 20.7 Z M 14.3 16.7 C 14.5 16.4 14.7 17.2 14.3 16.7 C 14.3 16.7 14.3 16.7 14.3 16.7 Z M 19.0 15.3 C 19.4 16.4 18.0 15.0 18.2 14.7 C 18.3 14.9 19.1 14.9 19.0 15.3 C 19.0 15.3 19.0 15.3 19.0 15.3 Z M 17.4 16.9 C 17.6 16.9 17.9 17.2 17.6 17.4 C 17.3 17.2 17.3 16.9 17.4 16.9 C 17.4 16.9 17.4 16.9 17.4 16.9 Z M 15.1 11.9 C 15.3 11.8 15.6 12.1 15.3 12.4 C 15.1 12.2 15.0 11.9 15.1 11.9 C 15.1 11.9 15.1 11.9 15.1 11.9 Z M 19.0 16.9 C 19.1 17.2 19.0 17.5 18.7 17.3 C 18.7 17.0 18.3 16.4 19.0 16.9 C 19.0 16.9 19.0 16.9 19.0 16.9 Z M 21.1 17.4 C 21.5 18.2 19.9 17.2 20.0 17.1 C 20.1 16.7 21.0 16.8 21.1 17.4 C 21.1 17.4 21.1 17.4 21.1 17.4 Z M 19.0 17.7 C 19.3 18.3 18.6 17.6 19.0 17.7 C 19.0 17.7 19.0 17.7 19.0 17.7 Z M 13.5 14.3 C 13.8 14.9 13.1 14.2 13.5 14.3 C 13.5 14.3 13.5 14.3 13.5 14.3 Z M 15.1 18.0 C 15.5 18.7 14.7 17.9 15.1 18.0 C 15.1 18.0 15.1 18.0 15.1 18.0 Z M 17.1 14.3 C 16.3 13.4 17.8 13.6 17.1 14.3 C 17.1 14.3 17.1 14.3 17.1 14.3 Z M 22.5 18.9 C 21.7 17.9 23.1 18.1 22.5 18.9 C 22.5 18.9 22.5 18.9 22.5 18.9 Z M 276.5 313.6 C 277.4 314.4 275.4 310.1 275.4 312.4 C 274.8 313.6 272.8 311.2 274.2 311.0 C 273.7 310.2 273.8 310.2 273.0 310.2 C 273.6 309.5 272.5 307.5 271.6 307.2 C 270.8 307.4 272.5 308.4 271.1 308.0 C 269.1 306.1 270.6 308.7 269.1 308.6 C 269.0 308.5 269.4 308.1 269.0 308.1 C 268.2 308.7 268.7 310.3 267.8 310.2 C 268.1 310.4 268.6 312.6 268.7 311.4 C 269.2 310.6 269.3 313.8 270.3 312.7 C 270.2 313.6 271.4 313.5 271.1 314.5 C 271.3 315.0 271.9 314.5 272.0 314.3 C 272.5 313.8 271.2 315.8 272.6 315.6 C 272.4 315.8 274.0 317.4 273.3 315.8 C 273.5 316.2 274.9 318.4 275.0 316.5 C 274.4 314.8 277.3 317.0 276.0 315.4 C 275.1 314.1 274.6 314.0 275.9 314.4 C 276.1 314.8 277.4 316.1 276.8 314.5 C 276.5 314.4 276.1 313.7 276.5 313.6 C 276.5 313.6 276.5 313.6 276.5 313.6 Z M 275.3 315.2 C 274.6 314.5 275.6 314.8 275.3 315.2 C 275.3 315.2 275.3 315.2 275.3 315.2 Z M 270.8 314.6 C 270.2 314.0 271.2 314.2 270.8 314.6 C 270.8 314.6 270.8 314.6 270.8 314.6 Z M 274.9 311.3 C 274.3 311.2 275.3 310.2 274.9 311.3 C 274.9 311.3 274.9 311.3 274.9 311.3 Z M 272.7 315.1 C 272.6 315.0 272.9 315.1 273.1 315.1 C 273.0 315.2 272.7 315.1 272.7 315.1 C 272.7 315.1 272.7 315.1 272.7 315.1 Z M 273.9 310.1 C 272.5 309.5 274.5 309.2 273.9 310.1 C 273.9 310.1 273.9 310.1 273.9 310.1 Z M 271.1 308.9 C 270.0 309.6 270.4 307.6 271.1 308.9 C 271.1 308.9 271.1 308.9 271.1 308.9 Z M 270.1 312.3 C 270.5 312.3 270.1 312.6 270.1 312.3 C 270.1 312.3 270.1 312.3 270.1 312.3 Z M 273.8 316.9 C 274.2 316.9 273.8 317.2 273.8 316.9 C 273.8 316.9 273.8 316.9 273.8 316.9 Z M 269.1 310.9 C 269.5 310.7 269.2 311.5 269.1 310.9 C 269.1 310.9 269.1 310.9 269.1 310.9 Z M 274.3 311.4 C 276.0 311.7 274.1 313.6 274.3 311.4 C 274.3 311.4 274.3 311.4 274.3 311.4 Z M 275.9 313.0 C 276.6 313.5 275.2 313.4 275.1 313.0 C 275.2 312.9 275.7 313.0 275.9 313.0 C 275.9 313.0 275.9 313.0 275.9 313.0 Z M 273.4 310.5 C 274.3 310.8 273.7 311.3 273.4 310.5 C 273.4 310.5 273.4 310.5 273.4 310.5 Z M 275.2 311.8 C 275.4 312.2 274.9 311.6 275.2 311.8 C 275.2 311.8 275.2 311.8 275.2 311.8 Z M 273.1 308.5 C 273.3 308.9 272.8 308.3 273.1 308.5 C 273.1 308.5 273.1 308.5 273.1 308.5 Z M 277.0 313.5 C 277.2 313.9 276.6 313.3 277.0 313.5 C 277.0 313.5 277.0 313.5 277.0 313.5 Z M 272.8 309.2 C 272.4 309.5 272.3 311.1 271.6 308.8 C 271.6 308.3 272.7 308.5 272.8 309.2 C 272.8 309.2 272.8 309.2 272.8 309.2 Z M 24.5 22.6 C 21.9 17.2 20.7 20.1 20.2 20.2 C 19.1 20.1 19.3 21.0 19.6 22.1 C 19.1 24.2 22.1 22.4 21.4 24.1 C 20.7 26.8 24.1 24.2 22.7 26.2 C 22.1 26.4 23.9 27.8 23.9 27.6 C 23.8 29.2 26.3 29.0 26.5 28.9 C 26.8 29.7 25.2 31.1 27.9 31.9 C 29.5 32.8 28.4 34.8 29.2 33.5 C 28.8 35.6 30.2 33.9 30.6 35.2 C 30.5 36.5 31.7 34.3 31.4 36.7 C 33.0 36.4 30.3 36.7 33.9 39.4 C 32.6 37.7 36.1 40.3 34.8 40.3 C 33.1 39.8 36.5 41.6 37.3 43.5 C 38.1 43.6 40.6 44.6 39.3 45.2 C 39.5 47.8 41.4 46.2 41.0 47.7 C 41.1 48.6 42.1 48.0 42.4 48.4 C 42.1 49.6 43.0 49.7 44.5 51.8 C 47.9 56.4 47.0 50.8 48.6 52.3 C 49.2 52.2 49.6 47.8 48.6 50.3 C 48.8 49.5 43.9 47.7 47.4 47.7 C 45.5 47.0 48.5 47.2 45.2 45.4 C 47.0 50.3 41.0 41.7 44.8 44.6 C 44.7 43.7 43.3 42.3 43.9 43.6 C 43.0 45.2 42.3 40.6 42.0 43.4 C 40.5 40.8 39.6 42.6 40.0 41.1 C 41.2 39.1 39.7 41.6 39.2 40.0 C 36.9 37.4 40.6 37.8 37.9 37.2 C 36.5 33.9 36.7 37.3 35.7 36.6 C 34.3 37.3 34.3 33.1 36.2 35.0 C 34.7 34.5 36.6 34.3 34.8 33.8 C 34.5 35.6 34.6 31.3 34.1 32.4 C 32.9 31.5 32.7 32.6 32.4 32.3 C 31.0 30.7 32.5 30.3 31.4 30.7 C 30.7 30.7 31.4 28.7 30.9 28.8 C 32.3 30.5 28.6 28.5 29.0 27.8 C 30.0 28.7 30.0 26.1 28.6 26.1 C 26.9 29.0 28.0 24.2 26.5 24.2 C 25.8 26.0 23.3 20.7 25.3 21.8 C 25.1 21.8 24.5 22.6 24.5 22.6 M 30.3 28.5 C 31.4 30.0 28.8 27.3 30.3 28.5 M 30.6 28.2 C 30.7 29.1 29.8 26.6 30.8 28.1 C 30.8 28.1 30.6 28.1 30.6 28.2 M 35.4 33.7 C 34.9 33.8 35.0 32.7 35.4 33.7 M 35.6 35.5 C 36.0 36.6 34.5 34.3 35.6 35.5 M 46.4 47.5 C 43.4 48.0 46.4 45.3 46.4 47.5 M 39.8 39.0 C 38.3 37.8 41.1 38.9 39.8 39.0 M 38.9 39.0 C 38.0 38.6 39.2 38.5 38.9 39.0 M 44.4 45.2 C 44.5 45.3 44.5 45.3 44.4 45.2 C 44.4 45.2 44.4 45.2 44.4 45.2 Z M 47.5 48.9 C 47.6 48.9 47.6 48.9 47.5 48.9 C 47.5 48.9 47.5 48.9 47.5 48.9 Z M 41.2 41.8 C 40.6 40.3 42.9 43.5 41.2 41.8 C 41.2 41.8 41.2 41.8 41.2 41.8 Z M 43.1 49.7 C 43.0 49.7 43.0 49.7 43.1 49.7 C 43.1 49.7 43.1 49.7 43.1 49.7 Z M 28.5 28.2 C 28.4 28.2 28.4 28.2 28.5 28.2 C 28.5 28.2 28.5 28.2 28.5 28.2 Z M 25.6 23.4 C 25.4 23.7 25.2 22.5 25.6 23.4 C 25.6 23.4 25.6 23.4 25.6 23.4 Z M 20.5 22.0 C 20.5 22.0 20.5 22.0 20.5 22.0 C 20.5 22.0 20.5 22.0 20.5 22.0 Z M 26.3 27.7 C 26.2 27.7 26.2 27.7 26.3 27.7 C 26.3 27.7 26.3 27.7 26.3 27.7 Z M 28.2 27.1 C 28.7 25.5 29.3 28.9 28.2 27.1 C 28.2 27.1 28.2 27.1 28.2 27.1 Z M 37.3 42.8 C 37.8 42.4 37.9 43.9 37.3 42.8 C 37.3 42.8 37.3 42.8 37.3 42.8 Z M 35.3 36.0 C 35.7 35.9 35.7 36.7 35.3 36.0 C 35.3 36.0 35.3 36.0 35.3 36.0 Z M 34.7 32.4 C 35.1 32.4 35.2 33.2 34.7 32.4 C 34.7 32.4 34.7 32.4 34.7 32.4 Z M 26.0 23.3 C 26.1 23.3 26.1 23.3 26.0 23.3 C 26.0 23.3 26.0 23.3 26.0 23.3 Z M 26.5 25.4 C 26.6 23.6 27.3 27.5 26.5 25.4 C 26.5 25.4 26.5 25.4 26.5 25.4 Z M 24.7 23.9 C 24.8 24.8 23.7 22.4 24.7 23.9 M 24.0 26.3 C 25.5 27.1 21.2 26.7 24.0 26.3 C 24.0 26.3 24.0 26.3 24.0 26.3 Z M 29.1 33.0 C 29.1 33.1 29.1 33.1 29.1 33.0 C 29.1 33.0 29.1 33.0 29.1 33.0 Z M 31.5 29.8 C 32.4 30.9 30.6 29.3 31.5 29.8 C 31.5 29.8 31.5 29.8 31.5 29.8 Z M 23.4 20.0 C 24.3 21.1 22.5 19.5 23.4 20.0 C 23.4 20.0 23.4 20.0 23.4 20.0 Z M 33.3 35.9 C 35.0 37.5 31.8 35.2 33.3 35.9 C 33.3 35.9 33.3 35.9 33.3 35.9 Z M 40.2 41.5 C 40.2 41.6 40.2 41.6 40.2 41.5 C 40.2 41.5 40.2 41.5 40.2 41.5 Z M 41.7 42.4 C 41.7 42.5 41.7 42.5 41.7 42.4 C 41.7 42.4 41.7 42.4 41.7 42.4 Z M 45.1 48.5 C 45.2 48.6 45.2 48.6 45.1 48.5 C 45.1 48.5 45.1 48.5 45.1 48.5 Z M 43.2 43.1 C 43.2 43.2 43.2 43.2 43.2 43.1 C 43.2 43.1 43.2 43.1 43.2 43.1 Z M 46.0 46.9 C 46.0 47.0 46.0 47.0 46.0 46.9 C 46.0 46.9 46.0 46.9 46.0 46.9 Z M 46.4 45.7 C 46.5 45.8 46.5 45.8 46.4 45.7 C 46.4 45.7 46.4 45.7 46.4 45.7 Z M 35.2 41.5 C 35.2 41.6 35.2 41.6 35.2 41.5 C 35.2 41.5 35.2 41.5 35.2 41.5 Z M 28.0 24.9 C 28.0 25.1 28.0 25.1 28.0 24.9 C 28.0 24.9 28.0 24.9 28.0 24.9 Z M 45.4 47.0 C 45.4 47.0 45.4 47.0 45.4 47.0 C 45.4 47.0 45.4 47.0 45.4 47.0 Z M 37.0 38.9 C 36.2 39.7 37.5 37.2 37.2 39.1 C 37.2 39.1 37.1 38.8 37.0 38.9 M 36.6 41.3 C 36.5 41.3 36.5 41.3 36.6 41.3 C 36.6 41.3 36.6 41.3 36.6 41.3 Z M 32.7 37.8 C 32.6 37.8 32.6 37.8 32.7 37.8 C 32.7 37.8 32.7 37.8 32.7 37.8 Z M 42.8 42.4 C 43.1 41.8 43.3 43.6 42.6 42.2 M 43.7 49.8 C 44.0 49.2 44.2 51.1 43.5 49.7 M 22.0 19.0 C 21.5 19.2 21.5 18.1 22.0 19.0 M 31.5 37.3 C 31.0 37.5 31.0 36.4 31.5 37.3 M 34.1 38.2 C 34.5 37.7 34.6 39.5 34.0 38.1 M 41.4 47.1 C 41.4 47.1 41.4 47.1 41.4 47.1 C 41.4 47.1 41.4 47.1 41.4 47.1 Z M 32.8 31.6 C 32.9 31.6 32.9 31.6 32.8 31.6 C 32.8 31.6 32.8 31.6 32.8 31.6 Z M 36.0 37.3 C 36.1 36.1 36.3 38.5 36.0 37.3 M 30.5 31.2 C 30.5 29.5 31.5 32.9 30.5 31.2 M 45.2 52.0 C 45.3 50.1 45.4 53.3 45.2 52.0 M 43.1 44.6 C 43.2 42.7 43.3 45.8 43.1 44.6 M 33.3 32.9 C 33.7 32.4 33.9 34.2 33.3 32.9 M 24.2 21.4 C 23.4 20.3 25.8 22.4 24.2 21.4 M 39.1 44.5 C 39.1 44.5 39.1 44.5 39.1 44.5 C 39.1 44.5 39.1 44.5 39.1 44.5 Z M 23.4 28.0 C 23.4 28.1 23.4 28.1 23.4 28.0 C 23.4 28.0 23.4 28.0 23.4 28.0 Z M 49.6 50.6 C 49.7 50.7 49.7 50.7 49.6 50.6 C 49.6 50.6 49.6 50.6 49.6 50.6 Z M 42.1 44.3 C 42.1 44.4 42.1 44.4 42.1 44.3 C 42.1 44.3 42.1 44.3 42.1 44.3 Z M 48.0 48.5 C 48.0 48.6 48.0 48.6 48.0 48.5 C 48.0 48.5 48.0 48.5 48.0 48.5 Z M 38.4 41.6 C 38.4 41.7 38.4 41.7 38.4 41.6 C 38.4 41.6 38.4 41.6 38.4 41.6 Z M 40.4 38.8 C 40.4 38.9 40.4 38.9 40.4 38.8 C 40.4 38.8 40.4 38.8 40.4 38.8 Z M 36.1 36.1 C 36.1 36.1 36.1 36.1 36.1 36.1 C 36.1 36.1 36.1 36.1 36.1 36.1 Z M 41.6 40.7 C 43.7 42.7 39.8 40.3 41.6 40.7 C 41.6 40.7 41.6 40.7 41.6 40.7 Z M 35.9 39.0 C 35.8 39.1 35.8 39.1 35.9 39.0 C 35.9 39.0 35.9 39.0 35.9 39.0 Z M 37.3 37.2 C 39.3 38.0 36.8 39.0 37.3 37.2 M 32.7 30.6 C 33.4 30.7 32.3 31.3 32.7 30.6 M 27.3 31.0 C 27.3 31.0 27.3 31.0 27.3 31.0 C 27.3 31.0 27.3 31.0 27.3 31.0 Z M 28.1 31.4 C 28.1 31.5 28.1 31.5 28.1 31.4 C 28.1 31.4 28.1 31.4 28.1 31.4 Z M 31.5 29.0 C 31.6 29.0 31.6 29.0 31.5 29.0 C 31.5 29.0 31.5 29.0 31.5 29.0 Z M 27.3 32.3 C 27.3 32.4 27.3 32.4 27.3 32.3 C 27.3 32.3 27.3 32.3 27.3 32.3 Z M 39.6 38.0 C 39.6 38.1 39.6 38.1 39.6 38.0 C 39.6 38.0 39.6 38.0 39.6 38.0 Z M 49.3 49.2 C 49.3 49.3 49.3 49.3 49.3 49.2 C 49.3 49.2 49.3 49.2 49.3 49.2 Z M 21.9 24.0 C 21.9 24.1 21.9 24.1 21.9 24.0 C 21.9 24.0 21.9 24.0 21.9 24.0 Z M 39.6 40.0 C 39.6 40.1 39.6 40.1 39.6 40.0 C 39.6 40.0 39.6 40.0 39.6 40.0 Z M 26.1 29.3 C 26.1 29.3 26.1 29.3 26.1 29.3 C 26.1 29.3 26.1 29.3 26.1 29.3 Z M 39.2 39.1 C 39.2 39.2 39.2 39.2 39.2 39.1 C 39.2 39.1 39.2 39.1 39.2 39.1 Z M 38.6 44.3 C 38.6 44.3 38.6 44.3 38.6 44.3 C 38.6 44.3 38.6 44.3 38.6 44.3 Z M 40.1 47.2 C 40.1 47.2 40.1 47.2 40.1 47.2 C 40.1 47.2 40.1 47.2 40.1 47.2 Z M 40.1 42.6 C 40.2 42.7 40.2 42.7 40.1 42.6 C 40.1 42.6 40.1 42.6 40.1 42.6 Z M 26.5 27.6 C 23.5 22.4 29.9 30.7 26.5 27.6 M 40.6 43.5 C 38.1 40.3 43.7 45.2 40.6 43.5 C 41.1 43.7 40.7 43.6 40.6 43.5 M 51.0 51.4 C 49.0 50.9 48.1 51.7 47.6 53.0 C 47.7 54.1 49.5 52.4 48.0 53.8 C 46.4 52.6 46.2 56.5 48.2 54.7 C 50.1 56.4 47.2 56.1 48.9 56.6 C 50.9 58.4 49.4 57.9 50.9 59.4 C 52.8 59.3 51.1 60.7 52.5 60.2 C 50.7 60.4 54.3 61.6 53.8 62.1 C 51.9 61.3 58.5 67.6 55.6 63.6 C 57.4 64.6 56.2 65.1 56.6 65.8 C 57.8 65.9 58.2 68.7 59.6 69.1 C 59.6 68.8 59.3 68.3 59.4 68.0 C 59.6 67.3 60.2 69.1 60.1 68.9 C 60.9 69.3 63.7 71.2 60.2 69.6 C 59.6 69.9 62.3 71.5 61.8 71.9 C 63.7 74.2 63.3 71.5 63.4 73.2 C 64.8 74.9 65.8 76.0 65.9 75.9 C 66.6 77.0 66.2 77.7 67.6 78.1 C 68.1 81.1 71.1 77.5 69.4 80.3 C 70.4 80.4 69.4 82.2 70.8 80.9 C 69.5 80.8 72.6 85.3 72.1 82.6 C 72.8 82.8 73.2 86.9 74.4 85.3 C 76.2 85.3 77.2 84.2 76.5 81.3 C 75.8 82.3 75.5 78.5 75.4 81.2 C 76.4 83.3 72.1 78.5 73.5 79.1 C 75.5 77.8 70.4 77.6 70.8 75.5 C 70.8 77.0 67.1 73.3 69.3 73.4 C 68.8 72.5 68.1 72.9 68.1 71.4 C 70.0 73.9 66.0 71.7 66.9 71.2 C 67.7 71.2 65.1 67.3 64.7 68.3 C 63.9 71.0 64.2 67.0 63.0 67.0 C 61.0 65.4 64.8 66.0 62.2 65.7 C 62.1 65.1 59.9 62.5 61.7 63.9 C 62.0 64.6 58.4 64.0 59.7 62.4 C 62.9 64.5 57.4 58.8 57.7 60.2 C 60.6 65.1 52.9 56.5 56.6 59.1 C 55.8 56.5 57.4 59.4 55.0 57.3 C 54.8 58.0 52.8 56.6 54.1 56.2 C 55.2 54.6 51.6 57.2 52.3 54.1 C 53.0 53.2 49.3 51.8 51.1 52.0 C 51.2 52.0 51.1 51.4 51.0 51.4 M 51.6 52.4 C 51.0 52.3 51.5 51.5 51.6 52.4 M 51.0 52.3 C 51.0 52.2 51.0 52.2 51.0 52.3 C 51.0 52.3 51.0 52.3 51.0 52.3 Z M 54.7 57.0 C 54.7 57.0 54.7 57.0 54.7 57.0 C 54.7 57.0 54.7 57.0 54.7 57.0 Z M 54.2 63.7 C 54.2 63.7 54.2 63.7 54.2 63.7 C 54.2 63.7 54.2 63.7 54.2 63.7 Z M 57.2 60.1 C 57.2 60.1 57.2 60.1 57.2 60.1 C 57.2 60.1 57.2 60.1 57.2 60.1 Z M 53.0 55.6 C 53.0 55.6 53.0 55.6 53.0 55.6 C 53.0 55.6 53.0 55.6 53.0 55.6 Z M 57.5 59.4 C 57.1 60.1 57.0 58.0 57.6 59.4 C 57.6 59.4 57.4 59.2 57.5 59.4 M 61.1 63.2 C 61.1 63.2 61.1 63.2 61.1 63.2 M 64.4 75.5 C 64.4 75.6 64.4 75.6 64.4 75.5 M 69.3 72.6 C 69.3 72.7 69.3 72.7 69.3 72.6 M 64.0 67.6 C 65.1 68.7 64.0 68.1 64.0 67.6 M 71.7 76.0 C 70.8 74.2 73.4 77.4 71.7 76.0 M 73.3 77.2 C 73.4 77.4 73.4 77.4 73.3 77.2 M 67.2 70.5 C 67.1 70.5 67.1 70.5 67.2 70.5 C 67.2 70.5 67.2 70.5 67.2 70.5 Z M 63.7 66.9 C 62.7 65.0 65.6 68.0 63.7 66.9 M 55.6 57.1 C 56.7 57.8 54.9 57.7 55.6 57.1 M 53.8 55.6 C 53.7 55.6 53.7 55.6 53.8 55.6 C 53.8 55.6 53.8 55.6 53.8 55.6 Z M 69.7 73.5 C 69.6 73.5 69.6 73.5 69.7 73.5 C 69.7 73.5 69.7 73.5 69.7 73.5 Z M 71.3 75.2 C 71.2 75.2 71.2 75.2 71.3 75.2 C 71.3 75.2 71.3 75.2 71.3 75.2 Z M 69.9 81.5 C 69.8 81.5 69.8 81.5 69.9 81.5 C 69.9 81.5 69.9 81.5 69.9 81.5 Z M 53.3 58.3 C 52.6 56.9 55.6 58.4 54.5 59.0 C 54.2 59.5 53.5 58.4 53.3 58.3 M 61.6 66.7 C 60.5 68.2 62.4 64.0 61.6 66.7 M 72.6 78.2 C 72.1 80.8 72.5 75.7 72.6 78.2 M 75.0 80.4 C 75.3 81.3 71.0 76.1 74.5 79.3 C 75.1 79.4 75.0 80.0 75.0 80.4 M 60.5 63.8 C 60.1 64.8 59.2 61.6 60.5 63.8 M 64.6 73.0 C 65.5 73.1 67.3 74.3 65.9 74.3 C 64.8 75.2 63.6 72.6 64.6 73.0 M 51.1 53.4 C 53.1 53.3 50.1 54.2 51.1 53.4 M 55.0 58.1 C 55.1 58.0 55.1 58.0 55.0 58.1 C 55.0 58.1 55.0 58.1 55.0 58.1 Z M 56.7 59.7 C 56.7 59.9 56.7 59.9 56.7 59.7 M 52.8 53.2 C 52.8 53.4 52.8 53.4 52.8 53.2 M 65.8 71.9 C 65.8 72.1 65.8 72.1 65.8 71.9 M 63.4 67.5 C 63.7 70.3 62.3 66.7 63.4 67.5 M 57.3 65.1 C 57.3 66.1 56.3 64.0 57.3 65.1 M 66.3 70.0 C 66.3 72.2 63.8 69.2 66.3 70.0 M 62.7 66.5 C 62.8 66.6 62.8 66.6 62.7 66.5 C 62.7 66.5 62.7 66.5 62.7 66.5 Z M 64.8 73.6 C 64.8 73.5 64.8 73.5 64.8 73.6 C 64.8 73.6 64.8 73.6 64.8 73.6 Z M 65.4 74.0 C 65.3 74.0 65.3 74.0 65.4 74.0 C 65.4 74.0 65.4 74.0 65.4 74.0 Z M 67.8 71.5 C 67.7 71.4 67.7 71.4 67.8 71.5 C 67.8 71.5 67.8 71.5 67.8 71.5 Z M 50.6 58.1 C 51.6 59.4 49.6 57.3 50.6 58.1 C 50.6 58.1 50.6 58.1 50.6 58.1 Z M 58.7 60.8 C 59.6 63.7 56.6 60.1 58.7 60.8 C 58.7 60.8 58.7 60.8 58.7 60.8 Z M 59.3 64.5 C 59.2 64.5 59.2 64.5 59.3 64.5 C 59.3 64.5 59.3 64.5 59.3 64.5 Z M 66.3 68.6 C 66.3 68.7 66.3 68.7 66.3 68.6 C 66.3 68.6 66.3 68.6 66.3 68.6 Z M 51.0 58.9 C 50.9 58.9 50.9 58.9 51.0 58.9 C 51.0 58.9 51.0 58.9 51.0 58.9 Z M 70.3 75.5 C 70.2 75.6 70.2 75.6 70.3 75.5 C 70.3 75.5 70.3 75.5 70.3 75.5 Z M 61.7 70.3 C 62.5 70.4 61.5 70.7 61.7 70.3 C 61.7 70.3 61.7 70.3 61.7 70.3 Z M 63.3 72.2 C 63.4 72.2 63.4 72.2 63.3 72.2 C 63.3 72.2 63.3 72.2 63.3 72.2 Z M 73.8 77.6 C 73.9 77.7 73.9 77.7 73.8 77.6 C 73.8 77.6 73.8 77.6 73.8 77.6 Z M 66.4 77.9 C 66.5 77.9 66.5 77.9 66.4 77.9 C 66.4 77.9 66.4 77.9 66.4 77.9 Z M 69.1 78.3 C 69.0 78.3 69.0 78.3 69.1 78.3 C 69.1 78.3 69.1 78.3 69.1 78.3 Z M 67.2 71.3 C 69.0 73.0 66.3 71.4 67.2 71.3 C 67.2 71.3 67.2 71.3 67.2 71.3 Z M 73.5 82.7 C 73.4 82.8 73.4 82.8 73.5 82.7 C 73.5 82.7 73.5 82.7 73.5 82.7 Z M 75.8 82.3 C 75.8 82.4 75.8 82.4 75.8 82.3 C 75.8 82.3 75.8 82.3 75.8 82.3 Z M 77.0 82.1 C 77.0 82.2 77.0 82.2 77.0 82.1 C 77.0 82.1 77.0 82.1 77.0 82.1 Z M 55.1 61.1 C 55.1 61.0 55.1 61.0 55.1 61.1 C 55.1 61.1 55.1 61.1 55.1 61.1 Z M 56.9 58.2 C 56.9 58.2 56.9 58.2 56.9 58.2 C 56.9 58.2 56.9 58.2 56.9 58.2 Z M 59.2 60.7 C 59.2 60.6 59.2 60.6 59.2 60.7 C 59.2 60.7 59.2 60.7 59.2 60.7 Z M 53.2 61.9 C 53.2 61.9 53.2 61.9 53.2 61.9 C 53.2 61.9 53.2 61.9 53.2 61.9 Z M 63.5 69.7 C 63.5 69.6 63.5 69.6 63.5 69.7 C 63.5 69.7 63.5 69.7 63.5 69.7 Z M 63.3 71.4 C 63.3 71.3 63.3 71.3 63.3 71.4 C 63.3 71.4 63.3 71.4 63.3 71.4 Z M 60.1 70.4 C 60.1 70.3 60.1 70.3 60.1 70.4 C 60.1 70.4 60.1 70.4 60.1 70.4 Z M 63.0 72.9 C 63.0 72.8 63.0 72.8 63.0 72.9 C 63.0 72.9 63.0 72.9 63.0 72.9 Z M 48.1 55.2 C 48.1 55.2 48.1 55.2 48.1 55.2 C 48.1 55.2 48.1 55.2 48.1 55.2 Z M 49.9 53.3 C 49.8 53.3 49.8 53.3 49.9 53.3 C 49.9 53.3 49.9 53.3 49.9 53.3 Z M 65.2 68.7 C 65.9 68.8 65.4 70.1 65.2 68.7 M 61.8 65.3 C 61.7 65.3 61.7 65.3 61.8 65.3 C 61.8 65.3 61.8 65.3 61.8 65.3 Z M 70.4 74.9 C 70.0 76.0 69.3 72.9 70.4 74.9 C 70.4 74.9 70.4 74.9 70.4 74.9 Z M 65.5 75.7 C 65.5 75.8 65.5 75.8 65.5 75.7 C 65.5 75.7 65.5 75.7 65.5 75.7 Z M 66.7 76.4 C 66.6 76.5 66.6 76.5 66.7 76.4 C 66.7 76.4 66.7 76.4 66.7 76.4 Z M 73.2 79.9 C 73.3 80.0 73.3 80.0 73.2 79.9 M 62.0 64.3 C 62.2 65.1 62.2 64.9 62.0 64.3 M 71.4 76.2 C 71.3 76.1 71.3 76.1 71.4 76.2 C 71.4 76.2 71.4 76.2 71.4 76.2 Z M 74.7 80.7 C 74.6 80.7 74.6 80.7 74.7 80.7 C 74.7 80.7 74.7 80.7 74.7 80.7 Z M 59.3 62.1 C 58.5 63.0 58.3 62.3 59.3 62.1 M 52.8 55.2 C 52.7 55.2 52.7 55.2 52.8 55.2 C 52.8 55.2 52.8 55.2 52.8 55.2 Z M 80.3 85.9 C 79.6 83.0 78.2 84.3 78.1 84.3 C 80.3 82.9 75.9 83.2 75.8 83.9 C 75.5 84.1 73.5 88.5 76.7 88.1 C 77.3 88.3 76.9 89.0 77.0 89.3 C 79.2 91.7 76.7 86.8 79.2 89.7 C 79.4 90.5 77.3 91.2 79.9 92.0 C 79.8 92.2 80.9 94.7 81.0 93.3 C 81.0 94.9 82.4 94.7 83.4 95.5 C 83.6 96.6 81.6 95.8 85.0 97.9 C 84.7 100.2 87.4 98.7 86.9 101.0 C 87.4 101.8 90.8 100.8 88.0 100.3 C 88.3 100.4 88.6 98.4 90.1 101.0 C 89.5 100.9 86.0 101.8 90.2 104.3 C 90.7 104.9 92.5 105.7 92.5 106.3 C 90.6 104.7 93.5 109.7 93.9 108.6 C 95.8 111.9 95.5 109.3 96.4 112.0 C 97.9 113.7 97.1 110.5 98.2 113.2 C 99.7 114.6 98.2 114.1 98.1 113.9 C 99.1 115.3 100.0 115.4 100.3 115.9 C 100.5 116.3 100.5 117.4 101.4 117.2 C 103.7 117.7 103.7 115.4 105.4 115.1 C 105.0 113.6 104.1 115.3 104.4 113.9 C 103.2 114.0 104.3 113.8 101.7 111.1 C 101.6 111.3 101.7 112.4 101.1 111.8 C 100.2 110.6 102.8 109.7 99.8 109.0 C 101.3 111.6 96.6 106.5 98.0 108.9 C 95.6 106.6 97.5 108.0 96.4 105.8 C 95.2 107.0 97.6 104.5 96.0 104.7 C 96.4 104.1 93.7 101.5 94.7 104.2 C 91.8 101.5 94.1 102.7 93.9 101.1 C 92.8 99.7 91.8 102.8 92.6 100.6 C 91.7 98.2 91.7 101.2 91.8 98.8 C 91.3 100.4 90.7 97.5 90.0 99.0 C 87.3 96.1 91.5 98.3 88.9 96.9 C 89.4 97.6 90.8 96.0 88.6 95.5 C 87.2 97.7 88.8 92.4 87.1 95.5 C 82.8 91.9 87.5 93.9 85.5 91.6 C 85.0 91.0 85.3 92.9 84.8 92.4 C 82.6 89.1 85.4 91.0 82.8 90.5 C 79.9 87.8 83.1 88.7 81.9 87.2 C 81.2 87.6 79.2 87.3 80.3 85.9 M 82.0 89.0 C 82.9 89.3 81.9 89.8 82.0 89.0 M 77.4 82.6 C 78.3 82.9 77.3 83.3 77.4 82.6 M 84.5 91.2 C 85.6 91.6 84.0 92.0 84.5 91.2 M 97.6 107.7 C 96.7 106.5 98.4 107.9 97.6 107.7 M 79.6 84.9 C 80.8 85.3 79.1 85.7 79.6 84.9 M 77.7 84.6 C 77.7 84.7 77.7 84.7 77.7 84.6 M 100.0 108.4 C 100.0 108.4 100.0 108.4 100.0 108.4 M 96.3 104.1 C 97.1 105.0 95.6 103.8 96.3 104.1 M 92.1 107.4 C 92.9 108.4 91.4 107.1 92.1 107.4 M 102.1 110.7 C 103.2 111.3 101.9 111.3 102.1 110.7 M 103.2 113.8 C 104.3 114.3 103.3 114.7 103.2 113.8 M 80.1 89.7 C 80.0 89.7 80.0 89.7 80.1 89.7 C 80.1 89.7 80.1 89.7 80.1 89.7 Z M 85.9 98.4 C 85.5 97.2 86.4 100.0 85.9 98.4 M 87.3 94.7 C 87.0 96.0 86.3 93.4 87.3 94.7 C 87.3 94.7 87.3 94.7 87.3 94.7 Z M 85.7 93.6 C 85.7 93.7 85.7 93.7 85.7 93.6 C 85.7 93.6 85.7 93.6 85.7 93.6 Z M 89.5 98.1 C 89.4 98.1 89.4 98.1 89.5 98.1 C 89.5 98.1 89.5 98.1 89.5 98.1 Z M 88.6 97.3 C 88.2 97.1 88.4 96.6 88.6 97.3 C 88.6 97.3 88.6 97.3 88.6 97.3 Z M 91.6 106.0 C 91.1 105.7 91.3 105.3 91.6 106.0 C 91.6 106.0 91.6 106.0 91.6 106.0 Z M 87.2 96.1 C 86.2 96.7 87.1 95.0 87.2 96.1 C 87.2 96.1 87.2 96.1 87.2 96.1 Z M 89.3 102.6 C 89.8 102.8 89.2 104.1 89.3 102.6 M 100.6 109.4 C 101.2 109.6 100.6 110.9 100.6 109.4 M 92.8 99.8 C 93.3 100.0 92.7 101.3 92.8 99.8 M 82.8 89.2 C 82.8 89.4 82.8 89.4 82.8 89.2 M 83.7 97.5 C 84.5 97.9 83.6 98.2 83.7 97.5 M 76.4 88.5 C 77.2 88.8 76.2 89.1 76.4 88.5 M 95.7 111.4 C 95.9 111.1 96.4 112.4 95.7 111.4 M 92.4 102.1 C 93.0 103.0 93.3 104.2 91.9 102.4 C 92.0 102.2 92.5 102.6 92.4 102.1 C 92.4 102.1 92.4 102.1 92.4 102.1 Z M 93.1 106.6 C 93.1 106.8 93.1 106.8 93.1 106.6 M 94.4 102.9 C 94.5 103.0 94.5 103.0 94.4 102.9 M 98.5 107.7 C 98.5 107.9 98.5 107.9 98.5 107.7 M 99.2 108.1 C 99.2 108.1 99.2 108.1 99.2 108.1 C 99.2 108.1 99.2 108.1 99.2 108.1 Z M 104.1 113.1 C 104.1 113.1 104.1 113.1 104.1 113.1 C 104.1 113.1 104.1 113.1 104.1 113.1 Z M 97.1 106.3 C 97.0 106.3 97.0 106.3 97.1 106.3 C 97.1 106.3 97.1 106.3 97.1 106.3 Z M 97.7 113.3 C 97.6 113.4 97.6 113.4 97.7 113.3 C 97.7 113.3 97.7 113.3 97.7 113.3 Z M 97.7 112.4 C 97.7 112.4 97.7 112.4 97.7 112.4 C 97.7 112.4 97.7 112.4 97.7 112.4 Z M 80.7 86.3 C 81.9 86.5 79.6 87.9 80.7 86.3 M 99.7 114.7 C 99.7 115.9 98.5 113.6 99.7 114.7 C 99.7 114.7 99.7 114.7 99.7 114.7 Z M 95.9 106.3 C 95.8 106.5 95.8 106.5 95.9 106.3 M 99.4 108.5 C 99.4 108.7 99.4 108.7 99.4 108.5 M 88.0 94.0 C 88.0 94.2 88.0 94.2 88.0 94.0 M 102.5 112.3 C 104.2 114.7 100.4 112.3 102.5 112.3 M 86.3 93.7 C 86.4 93.5 86.4 93.5 86.3 93.7 M 89.1 100.0 C 90.5 101.5 88.2 99.9 89.1 100.0 M 93.5 102.9 C 93.4 102.9 93.4 102.9 93.5 102.9 C 93.5 102.9 93.5 102.9 93.5 102.9 Z M 91.6 100.7 C 90.5 99.7 91.5 100.2 91.6 100.7 C 91.6 100.7 91.6 100.7 91.6 100.7 Z M 80.8 88.0 C 81.9 89.5 79.3 86.8 80.8 88.0 C 80.8 88.0 80.8 88.0 80.8 88.0 Z M 99.7 113.0 C 99.6 113.0 99.6 113.0 99.7 113.0 C 99.7 113.0 99.7 113.0 99.7 113.0 Z M 97.4 105.5 C 96.6 105.0 97.4 105.0 97.4 105.5 C 97.4 105.5 97.4 105.5 97.4 105.5 Z M 104.8 113.9 C 104.0 113.4 104.8 113.4 104.8 113.9 C 104.8 113.9 104.8 113.9 104.8 113.9 Z M 79.5 86.2 C 82.6 92.6 73.9 79.0 79.5 86.2 C 79.5 86.2 79.5 86.2 79.5 86.2 Z M 92.9 101.1 C 92.8 101.1 92.8 101.1 92.9 101.1 C 92.9 101.1 92.9 101.1 92.9 101.1 Z M 85.2 91.0 C 85.1 91.1 85.1 91.1 85.2 91.0 C 85.2 91.0 85.2 91.0 85.2 91.0 Z M 83.0 90.1 C 83.0 90.1 83.0 90.1 83.0 90.1 C 83.0 90.1 83.0 90.1 83.0 90.1 Z M 80.2 93.3 C 80.1 93.3 80.1 93.3 80.2 93.3 C 80.2 93.3 80.2 93.3 80.2 93.3 Z M 82.2 92.6 C 82.0 92.6 82.0 92.6 82.2 92.6 C 82.2 92.6 82.2 92.6 82.2 92.6 Z M 78.7 89.7 C 78.6 89.7 78.6 89.7 78.7 89.7 C 78.7 89.7 78.7 89.7 78.7 89.7 Z M 78.3 90.2 C 78.3 90.2 78.3 90.2 78.3 90.2 C 78.3 90.2 78.3 90.2 78.3 90.2 Z M 98.5 109.3 C 98.4 109.3 98.4 109.3 98.5 109.3 C 98.5 109.3 98.5 109.3 98.5 109.3 Z M 95.6 108.7 C 97.2 109.4 94.6 108.9 95.6 108.7 C 95.6 108.7 95.6 108.7 95.6 108.7 Z M 87.0 97.4 C 88.2 98.3 86.0 97.0 87.0 97.4 C 87.0 97.4 87.0 97.4 87.0 97.4 Z M 86.3 100.1 C 86.3 100.1 86.3 100.1 86.3 100.1 C 86.3 100.1 86.3 100.1 86.3 100.1 Z M 83.8 89.4 C 83.7 89.4 83.7 89.4 83.8 89.4 C 83.8 89.4 83.8 89.4 83.8 89.4 Z M 81.5 87.8 C 80.7 88.3 81.3 86.9 81.5 87.8 M 90.8 97.8 C 90.7 97.8 90.7 97.8 90.8 97.8 C 90.8 97.8 90.8 97.8 90.8 97.8 Z M 95.3 105.2 C 95.2 105.2 95.2 105.2 95.3 105.2 C 95.3 105.2 95.3 105.2 95.3 105.2 Z M 101.3 111.3 C 101.2 111.3 101.2 111.3 101.3 111.3 C 101.3 111.3 101.3 111.3 101.3 111.3 Z M 94.2 101.9 C 94.0 101.9 94.0 101.9 94.2 101.9 C 94.2 101.9 94.2 101.9 94.2 101.9 Z M 90.9 99.4 C 90.8 99.4 90.8 99.4 90.9 99.4 C 90.9 99.4 90.9 99.4 90.9 99.4 Z M 101.6 113.5 C 101.5 113.5 101.5 113.5 101.6 113.5 C 101.6 113.5 101.6 113.5 101.6 113.5 Z M 94.9 102.5 C 94.8 102.5 94.8 102.5 94.9 102.5 C 94.9 102.5 94.9 102.5 94.9 102.5 Z M 94.3 106.3 C 94.2 106.3 94.2 106.3 94.3 106.3 C 94.3 106.3 94.3 106.3 94.3 106.3 Z M 82.7 87.3 C 82.7 87.3 82.7 87.3 82.7 87.3 C 82.7 87.3 82.7 87.3 82.7 87.3 Z M 102.5 112.8 C 102.5 112.8 102.5 112.8 102.5 112.8 C 102.5 112.8 102.5 112.8 102.5 112.8 Z M 103.5 112.7 C 103.4 112.7 103.4 112.7 103.5 112.7 C 103.5 112.7 103.5 112.7 103.5 112.7 Z M 96.3 110.9 C 94.7 108.3 98.2 112.8 97.5 110.5 C 100.5 113.6 96.7 111.4 96.3 110.9 C 96.3 110.9 96.3 110.9 96.3 110.9 Z M 106.4 115.5 C 104.4 115.0 103.5 115.8 103.0 117.2 C 103.1 118.2 104.9 116.6 103.4 118.0 C 101.8 116.8 101.6 120.6 103.5 118.8 C 105.5 120.5 102.5 120.3 104.3 120.7 C 106.3 122.6 104.8 122.1 106.2 123.5 C 108.1 123.5 106.5 124.9 107.9 124.4 C 106.1 124.6 109.6 125.8 109.2 126.3 C 107.2 125.4 113.8 131.7 110.9 127.7 C 112.8 128.8 111.6 129.3 111.9 129.9 C 113.1 130.0 113.5 132.9 115.0 133.2 C 115.0 132.9 114.6 132.4 114.7 132.1 C 114.9 131.5 115.6 133.2 115.5 133.1 C 116.2 133.5 119.1 135.3 115.6 133.7 C 115.0 134.1 117.7 135.7 117.1 136.0 C 119.1 138.3 118.7 135.6 118.8 137.4 C 120.2 139.0 121.2 140.2 121.3 140.0 C 122.0 141.1 121.6 141.9 122.9 142.2 C 123.5 145.3 126.4 141.7 124.8 144.4 C 125.8 144.5 124.8 146.4 126.1 145.1 C 124.9 144.9 127.9 149.4 127.5 146.7 C 128.2 146.9 128.6 151.1 129.7 149.4 C 131.6 149.4 132.5 148.3 131.8 145.5 C 131.2 146.4 130.9 142.6 130.7 145.3 C 131.7 147.5 127.5 142.6 128.9 143.2 C 130.8 142.0 125.8 141.8 126.1 139.7 C 126.2 141.1 122.4 137.5 124.7 137.5 C 124.2 136.7 123.4 137.0 123.5 135.6 C 125.4 138.1 121.4 135.8 122.3 135.3 C 123.1 135.3 120.4 131.4 120.0 132.4 C 119.3 135.2 119.6 131.2 118.4 131.2 C 116.3 129.6 120.1 130.2 117.6 129.8 C 117.5 129.3 115.3 126.7 117.0 128.0 C 117.4 128.8 113.8 128.1 115.0 126.6 C 118.3 128.6 112.8 123.0 113.1 124.3 C 116.0 129.3 108.3 120.6 112.0 123.2 C 111.1 120.6 112.8 123.5 110.4 121.5 C 110.2 122.2 108.1 120.7 109.5 120.4 C 110.6 118.7 107.0 121.4 107.7 118.2 C 108.4 117.3 104.6 115.9 106.5 116.1 C 106.6 116.1 106.4 115.6 106.4 115.5 M 106.9 116.5 C 106.3 116.5 106.9 115.6 106.9 116.5 M 106.3 116.4 C 106.3 116.4 106.3 116.4 106.3 116.4 C 106.3 116.4 106.3 116.4 106.3 116.4 Z M 110.0 121.2 C 110.1 121.1 110.1 121.1 110.0 121.2 C 110.0 121.2 110.0 121.2 110.0 121.2 Z M 109.5 127.9 C 109.6 127.8 109.6 127.8 109.5 127.9 C 109.5 127.9 109.5 127.9 109.5 127.9 Z M 112.6 124.3 C 112.5 124.2 112.5 124.2 112.6 124.3 C 112.6 124.3 112.6 124.3 112.6 124.3 Z M 108.4 119.7 C 108.4 119.7 108.4 119.7 108.4 119.7 C 108.4 119.7 108.4 119.7 108.4 119.7 Z M 112.9 123.5 C 112.5 124.2 112.3 122.1 113.0 123.5 C 113.0 123.6 112.8 123.4 112.9 123.5 M 116.5 127.3 C 116.4 127.4 116.4 127.4 116.5 127.3 M 119.8 139.7 C 119.8 139.7 119.8 139.7 119.8 139.7 M 124.7 136.7 C 124.7 136.9 124.7 136.9 124.7 136.7 M 119.3 131.7 C 120.5 132.9 119.3 132.2 119.3 131.7 M 127.1 140.2 C 126.2 138.3 128.8 141.5 127.1 140.2 M 128.7 141.4 C 128.8 141.5 128.8 141.5 128.7 141.4 M 122.6 134.7 C 122.5 134.7 122.5 134.7 122.6 134.7 C 122.6 134.7 122.6 134.7 122.6 134.7 Z M 119.1 131.0 C 118.0 129.2 121.0 132.2 119.1 131.0 M 111.0 121.2 C 112.0 121.9 110.3 121.8 111.0 121.2 M 109.2 119.7 C 109.1 119.7 109.1 119.7 109.2 119.7 C 109.2 119.7 109.2 119.7 109.2 119.7 Z M 125.0 137.7 C 125.0 137.6 125.0 137.6 125.0 137.7 C 125.0 137.7 125.0 137.7 125.0 137.7 Z M 126.7 139.4 C 126.6 139.3 126.6 139.3 126.7 139.4 C 126.7 139.4 126.7 139.4 126.7 139.4 Z M 125.2 145.7 C 125.2 145.6 125.2 145.6 125.2 145.7 C 125.2 145.7 125.2 145.7 125.2 145.7 Z M 108.7 122.5 C 107.9 121.1 111.0 122.5 109.8 123.1 C 109.5 123.6 108.9 122.5 108.7 122.5 M 116.9 130.9 C 115.8 132.4 117.7 128.2 116.9 130.9 M 128.0 142.3 C 127.4 144.9 127.9 139.9 128.0 142.3 M 130.4 144.5 C 130.6 145.5 126.3 140.2 129.9 143.4 C 130.4 143.6 130.3 144.1 130.4 144.5 M 115.9 127.9 C 115.4 128.9 114.6 125.8 115.9 127.9 M 119.9 137.1 C 120.9 137.3 122.6 138.4 121.2 138.5 C 120.2 139.4 118.9 136.8 119.9 137.1 M 106.5 117.5 C 108.5 117.4 105.4 118.3 106.5 117.5 M 110.4 122.2 C 110.4 122.2 110.4 122.2 110.4 122.2 C 110.4 122.2 110.4 122.2 110.4 122.2 Z M 112.1 123.9 C 112.1 124.0 112.1 124.0 112.1 123.9 M 108.2 117.3 C 108.2 117.5 108.2 117.5 108.2 117.3 M 121.1 136.0 C 121.1 136.2 121.1 136.2 121.1 136.0 M 118.7 131.6 C 119.1 134.4 117.7 130.9 118.7 131.6 M 112.7 129.2 C 112.6 130.3 111.7 128.2 112.7 129.2 M 121.7 134.2 C 121.7 136.4 119.1 133.3 121.7 134.2 M 118.1 130.6 C 118.2 130.7 118.2 130.7 118.1 130.6 C 118.1 130.6 118.1 130.6 118.1 130.6 Z M 120.2 137.7 C 120.2 137.7 120.2 137.7 120.2 137.7 C 120.2 137.7 120.2 137.7 120.2 137.7 Z M 120.7 138.2 C 120.7 138.2 120.7 138.2 120.7 138.2 C 120.7 138.2 120.7 138.2 120.7 138.2 Z M 123.1 135.6 C 123.1 135.6 123.1 135.6 123.1 135.6 C 123.1 135.6 123.1 135.6 123.1 135.6 Z M 106.0 122.2 C 107.0 123.6 105.0 121.4 106.0 122.2 C 106.0 122.2 106.0 122.2 106.0 122.2 Z M 114.1 125.0 C 115.0 127.8 112.0 124.3 114.1 125.0 C 114.1 125.0 114.1 125.0 114.1 125.0 Z M 114.7 128.6 C 114.6 128.7 114.6 128.7 114.7 128.6 C 114.7 128.6 114.7 128.6 114.7 128.6 Z M 121.7 132.8 C 121.6 132.8 121.6 132.8 121.7 132.8 C 121.7 132.8 121.7 132.8 121.7 132.8 Z M 106.4 123.0 C 106.3 123.1 106.3 123.1 106.4 123.0 C 106.4 123.0 106.4 123.0 106.4 123.0 Z M 125.6 139.7 C 125.6 139.7 125.6 139.7 125.6 139.7 C 125.6 139.7 125.6 139.7 125.6 139.7 Z M 117.1 134.4 C 117.9 134.5 116.8 134.8 117.1 134.4 C 117.1 134.4 117.1 134.4 117.1 134.4 Z M 118.7 136.3 C 118.8 136.4 118.8 136.4 118.7 136.3 C 118.7 136.3 118.7 136.3 118.7 136.3 Z M 129.2 141.8 C 129.3 141.8 129.3 141.8 129.2 141.8 C 129.2 141.8 129.2 141.8 129.2 141.8 Z M 121.8 142.0 C 121.8 142.1 121.8 142.1 121.8 142.0 C 121.8 142.0 121.8 142.0 121.8 142.0 Z M 124.5 142.5 C 124.4 142.5 124.4 142.5 124.5 142.5 C 124.5 142.5 124.5 142.5 124.5 142.5 Z M 122.6 135.5 C 124.4 137.2 121.7 135.5 122.6 135.5 C 122.6 135.5 122.6 135.5 122.6 135.5 Z M 128.8 146.8 C 128.8 146.9 128.8 146.9 128.8 146.8 C 128.8 146.8 128.8 146.8 128.8 146.8 Z M 131.2 146.4 C 131.2 146.5 131.2 146.5 131.2 146.4 C 131.2 146.4 131.2 146.4 131.2 146.4 Z M 132.4 146.2 C 132.4 146.3 132.4 146.3 132.4 146.2 C 132.4 146.2 132.4 146.2 132.4 146.2 Z M 110.4 125.2 C 110.5 125.1 110.5 125.1 110.4 125.2 C 110.4 125.2 110.4 125.2 110.4 125.2 Z M 112.3 122.4 C 112.3 122.3 112.3 122.3 112.3 122.4 C 112.3 122.4 112.3 122.4 112.3 122.4 Z M 114.6 124.8 C 114.6 124.8 114.6 124.8 114.6 124.8 C 114.6 124.8 114.6 124.8 114.6 124.8 Z M 108.5 126.1 C 108.5 126.0 108.5 126.0 108.5 126.1 C 108.5 126.1 108.5 126.1 108.5 126.1 Z M 118.9 133.8 C 118.9 133.7 118.9 133.7 118.9 133.8 C 118.9 133.8 118.9 133.8 118.9 133.8 Z M 118.7 135.5 C 118.7 135.5 118.7 135.5 118.7 135.5 C 118.7 135.5 118.7 135.5 118.7 135.5 Z M 115.4 134.5 C 115.4 134.5 115.4 134.5 115.4 134.5 C 115.4 134.5 115.4 134.5 115.4 134.5 Z M 118.4 137.0 C 118.4 137.0 118.4 137.0 118.4 137.0 C 118.4 137.0 118.4 137.0 118.4 137.0 Z M 103.5 119.3 C 103.5 119.3 103.5 119.3 103.5 119.3 C 103.5 119.3 103.5 119.3 103.5 119.3 Z M 105.2 117.5 C 105.1 117.5 105.1 117.5 105.2 117.5 C 105.2 117.5 105.2 117.5 105.2 117.5 Z M 120.5 132.9 C 121.3 133.0 120.7 134.2 120.5 132.9 M 117.1 129.5 C 117.1 129.5 117.1 129.5 117.1 129.5 C 117.1 129.5 117.1 129.5 117.1 129.5 Z M 125.7 139.1 C 125.4 140.2 124.6 137.0 125.7 139.1 C 125.7 139.1 125.7 139.1 125.7 139.1 Z M 120.9 139.9 C 120.9 139.9 120.9 139.9 120.9 139.9 C 120.9 139.9 120.9 139.9 120.9 139.9 Z M 122.0 140.6 C 122.0 140.7 122.0 140.7 122.0 140.6 C 122.0 140.6 122.0 140.6 122.0 140.6 Z M 128.6 144.0 C 128.6 144.2 128.6 144.2 128.6 144.0 M 117.4 128.4 C 117.6 129.2 117.5 129.1 117.4 128.4 M 126.7 140.3 C 126.7 140.3 126.7 140.3 126.7 140.3 C 126.7 140.3 126.7 140.3 126.7 140.3 Z M 130.0 144.8 C 130.0 144.8 130.0 144.8 130.0 144.8 C 130.0 144.8 130.0 144.8 130.0 144.8 Z M 114.7 126.3 C 113.8 127.2 113.6 126.5 114.7 126.3 M 108.2 119.3 C 108.1 119.4 108.1 119.4 108.2 119.3 C 108.2 119.3 108.2 119.3 108.2 119.3 Z M 135.7 150.0 C 135.0 147.2 133.5 148.4 133.5 148.4 C 135.6 147.0 131.2 147.3 131.2 148.1 C 130.9 148.2 128.8 152.6 132.0 152.3 C 132.6 152.4 132.2 153.2 132.4 153.5 C 134.6 155.8 132.0 150.9 134.6 153.8 C 134.7 154.6 132.6 155.4 135.2 156.1 C 135.1 156.4 136.2 158.8 136.3 157.5 C 136.4 159.0 137.8 158.9 138.7 159.6 C 139.0 160.8 137.0 159.9 140.3 162.0 C 140.1 164.4 142.7 162.8 142.2 165.2 C 142.8 165.9 146.2 164.9 143.4 164.4 C 143.7 164.5 144.0 162.5 145.5 165.1 C 144.9 165.1 141.4 165.9 145.6 168.5 C 146.0 169.1 147.8 169.9 147.8 170.4 C 146.0 168.8 148.9 173.8 149.2 172.8 C 151.2 176.0 150.9 173.4 151.8 176.2 C 153.2 177.8 152.4 174.7 153.6 177.3 C 155.0 178.7 153.5 178.2 153.4 178.0 C 154.5 179.5 155.3 179.6 155.7 180.1 C 155.9 180.5 155.9 181.5 156.8 181.3 C 159.1 181.8 159.1 179.5 160.7 179.2 C 160.4 177.7 159.5 179.5 159.7 178.0 C 158.6 178.1 159.7 177.9 157.1 175.2 C 157.0 175.4 157.1 176.5 156.4 175.9 C 155.6 174.7 158.1 173.9 155.2 173.2 C 156.7 175.7 152.0 170.7 153.3 173.0 C 151.0 170.7 152.9 172.2 151.8 170.0 C 150.6 171.2 153.0 168.7 151.4 168.9 C 151.8 168.2 149.1 165.6 150.1 168.3 C 147.2 165.6 149.5 166.9 149.3 165.3 C 148.2 163.8 147.1 166.9 147.9 164.7 C 147.1 162.3 147.1 165.3 147.2 163.0 C 146.6 164.5 146.1 161.7 145.3 163.2 C 142.6 160.2 146.9 162.5 144.2 161.0 C 144.8 161.7 146.1 160.1 144.0 159.7 C 142.6 161.9 144.2 156.6 142.5 159.6 C 138.1 156.0 142.9 158.0 140.9 155.7 C 140.4 155.1 140.7 157.1 140.2 156.5 C 137.9 153.2 140.7 155.2 138.2 154.6 C 135.3 151.9 138.5 152.9 137.3 151.4 C 136.6 151.7 134.6 151.4 135.7 150.0 M 137.4 153.2 C 138.3 153.4 137.3 153.9 137.4 153.2 M 132.8 146.7 C 133.7 147.0 132.7 147.4 132.8 146.7 M 139.8 155.3 C 140.9 155.8 139.4 156.1 139.8 155.3 M 153.0 171.8 C 152.1 170.7 153.8 172.0 153.0 171.8 M 134.9 149.0 C 136.1 149.5 134.5 149.8 134.9 149.0 M 133.0 148.8 C 133.1 148.8 133.1 148.8 133.0 148.8 M 155.4 172.5 C 155.4 172.6 155.4 172.6 155.4 172.5 M 151.7 168.2 C 152.5 169.1 151.0 167.9 151.7 168.2 M 147.5 171.6 C 148.3 172.5 146.8 171.3 147.5 171.6 M 157.4 174.8 C 158.5 175.4 157.2 175.5 157.4 174.8 M 158.6 178.0 C 159.7 178.5 158.7 178.8 158.6 178.0 M 135.5 153.9 C 135.4 153.9 135.4 153.9 135.5 153.9 C 135.5 153.9 135.5 153.9 135.5 153.9 Z M 141.2 162.6 C 140.8 161.3 141.7 164.1 141.2 162.6 M 142.7 158.8 C 142.4 160.2 141.7 157.6 142.7 158.8 C 142.7 158.8 142.7 158.8 142.7 158.8 Z M 141.1 157.8 C 141.0 157.8 141.0 157.8 141.1 157.8 C 141.1 157.8 141.1 157.8 141.1 157.8 Z M 144.9 162.3 C 144.8 162.2 144.8 162.2 144.9 162.3 C 144.9 162.3 144.9 162.3 144.9 162.3 Z M 144.0 161.4 C 143.5 161.2 143.7 160.7 144.0 161.4 C 144.0 161.4 144.0 161.4 144.0 161.4 Z M 146.9 170.1 C 146.4 169.9 146.7 169.5 146.9 170.1 C 146.9 170.1 146.9 170.1 146.9 170.1 Z M 142.5 160.2 C 141.6 160.8 142.5 159.1 142.5 160.2 C 142.5 160.2 142.5 160.2 142.5 160.2 Z M 144.7 166.7 C 145.2 166.9 144.6 168.2 144.7 166.7 M 156.0 173.5 C 156.6 173.7 155.9 175.0 156.0 173.5 M 148.1 164.0 C 148.7 164.2 148.1 165.5 148.1 164.0 M 138.2 153.4 C 138.1 153.5 138.1 153.5 138.2 153.4 M 139.1 161.7 C 139.9 162.0 139.0 162.3 139.1 161.7 M 131.7 152.6 C 132.6 152.9 131.6 153.2 131.7 152.6 M 151.0 175.5 C 151.2 175.3 151.8 176.5 151.0 175.5 M 147.8 166.2 C 148.4 167.1 148.7 168.3 147.2 166.6 C 147.3 166.3 147.9 166.7 147.8 166.2 C 147.8 166.2 147.8 166.2 147.8 166.2 Z M 148.4 170.8 C 148.5 171.0 148.5 171.0 148.4 170.8 M 149.8 167.0 C 149.8 167.2 149.8 167.2 149.8 167.0 M 153.9 171.9 C 153.8 172.1 153.8 172.1 153.9 171.9 M 154.6 172.3 C 154.6 172.3 154.6 172.3 154.6 172.3 C 154.6 172.3 154.6 172.3 154.6 172.3 Z M 159.5 177.2 C 159.4 177.2 159.4 177.2 159.5 177.2 C 159.5 177.2 159.5 177.2 159.5 177.2 Z M 152.4 170.4 C 152.4 170.4 152.4 170.4 152.4 170.4 C 152.4 170.4 152.4 170.4 152.4 170.4 Z M 153.0 177.5 C 153.0 177.5 153.0 177.5 153.0 177.5 C 153.0 177.5 153.0 177.5 153.0 177.5 Z M 153.1 176.5 C 153.0 176.5 153.0 176.5 153.1 176.5 C 153.1 176.5 153.1 176.5 153.1 176.5 Z M 136.0 150.4 C 137.2 150.7 134.9 152.1 136.0 150.4 M 155.1 178.9 C 155.1 180.0 153.9 177.7 155.1 178.9 C 155.1 178.9 155.1 178.9 155.1 178.9 Z M 151.2 170.5 C 151.2 170.6 151.2 170.6 151.2 170.5 M 154.8 172.6 C 154.7 172.8 154.7 172.8 154.8 172.6 M 143.4 158.1 C 143.3 158.3 143.3 158.3 143.4 158.1 M 157.8 176.5 C 159.6 178.9 155.8 176.5 157.8 176.5 M 141.7 157.8 C 141.7 157.7 141.7 157.7 141.7 157.8 M 144.5 164.2 C 145.9 165.6 143.6 164.0 144.5 164.2 M 148.8 167.1 C 148.8 167.1 148.8 167.1 148.8 167.1 C 148.8 167.1 148.8 167.1 148.8 167.1 Z M 146.9 164.8 C 145.9 163.9 146.9 164.4 146.9 164.8 C 146.9 164.8 146.9 164.8 146.9 164.8 Z M 136.2 152.1 C 137.3 153.7 134.7 150.9 136.2 152.1 C 136.2 152.1 136.2 152.1 136.2 152.1 Z M 155.0 177.1 C 154.9 177.1 154.9 177.1 155.0 177.1 C 155.0 177.1 155.0 177.1 155.0 177.1 Z M 152.8 169.7 C 152.0 169.2 152.8 169.1 152.8 169.7 C 152.8 169.7 152.8 169.7 152.8 169.7 Z M 160.2 178.0 C 159.4 177.5 160.1 177.5 160.2 178.0 C 160.2 178.0 160.2 178.0 160.2 178.0 Z M 134.9 150.3 C 138.0 156.7 129.2 143.1 134.9 150.3 C 134.9 150.3 134.9 150.3 134.9 150.3 Z M 148.3 165.3 C 148.2 165.3 148.2 165.3 148.3 165.3 C 148.3 165.3 148.3 165.3 148.3 165.3 Z M 140.6 155.2 C 140.5 155.2 140.5 155.2 140.6 155.2 C 140.6 155.2 140.6 155.2 140.6 155.2 Z M 138.4 154.2 C 138.3 154.2 138.3 154.2 138.4 154.2 C 138.4 154.2 138.4 154.2 138.4 154.2 Z M 135.6 157.5 C 135.5 157.5 135.5 157.5 135.6 157.5 C 135.6 157.5 135.6 157.5 135.6 157.5 Z M 137.5 156.7 C 137.4 156.8 137.4 156.8 137.5 156.7 C 137.5 156.7 137.5 156.7 137.5 156.7 Z M 134.1 153.9 C 134.0 153.9 134.0 153.9 134.1 153.9 C 134.1 153.9 134.1 153.9 134.1 153.9 Z M 133.7 154.3 C 133.7 154.3 133.7 154.3 133.7 154.3 C 133.7 154.3 133.7 154.3 133.7 154.3 Z M 153.9 173.4 C 153.8 173.4 153.8 173.4 153.9 173.4 C 153.9 173.4 153.9 173.4 153.9 173.4 Z M 151.0 172.8 C 152.5 173.6 150.0 173.0 151.0 172.8 C 151.0 172.8 151.0 172.8 151.0 172.8 Z M 142.4 161.5 C 143.5 162.5 141.4 161.2 142.4 161.5 C 142.4 161.5 142.4 161.5 142.4 161.5 Z M 141.7 164.2 C 141.7 164.3 141.7 164.3 141.7 164.2 C 141.7 164.2 141.7 164.2 141.7 164.2 Z M 139.2 153.5 C 139.1 153.6 139.1 153.6 139.2 153.5 C 139.2 153.5 139.2 153.5 139.2 153.5 Z M 136.9 152.0 C 136.1 152.5 136.7 151.1 136.9 152.0 M 146.1 161.9 C 146.0 162.0 146.0 162.0 146.1 161.9 C 146.1 161.9 146.1 161.9 146.1 161.9 Z M 150.7 169.3 C 150.6 169.4 150.6 169.4 150.7 169.3 C 150.7 169.3 150.7 169.3 150.7 169.3 Z M 156.7 175.4 C 156.6 175.5 156.6 175.5 156.7 175.4 C 156.7 175.4 156.7 175.4 156.7 175.4 Z M 149.5 166.0 C 149.4 166.1 149.4 166.1 149.5 166.0 C 149.5 166.0 149.5 166.0 149.5 166.0 Z M 146.3 163.5 C 146.1 163.5 146.1 163.5 146.3 163.5 C 146.3 163.5 146.3 163.5 146.3 163.5 Z M 156.9 177.7 C 156.9 177.6 156.9 177.6 156.9 177.7 C 156.9 177.7 156.9 177.7 156.9 177.7 Z M 150.3 166.7 C 150.2 166.7 150.2 166.7 150.3 166.7 C 150.3 166.7 150.3 166.7 150.3 166.7 Z M 149.7 170.4 C 149.6 170.4 149.6 170.4 149.7 170.4 C 149.7 170.4 149.7 170.4 149.7 170.4 Z M 138.1 151.4 C 138.0 151.4 138.0 151.4 138.1 151.4 C 138.1 151.4 138.1 151.4 138.1 151.4 Z M 157.9 176.9 C 157.9 176.9 157.9 176.9 157.9 176.9 C 157.9 176.9 157.9 176.9 157.9 176.9 Z M 158.9 176.8 C 158.8 176.8 158.8 176.8 158.9 176.8 C 158.9 176.8 158.9 176.8 158.9 176.8 Z M 151.7 175.0 C 150.1 172.4 153.6 176.9 152.9 174.6 C 155.9 177.8 152.1 175.5 151.7 175.0 C 151.7 175.0 151.7 175.0 151.7 175.0 Z M 161.7 179.6 C 159.7 179.2 158.8 179.9 158.4 181.3 C 158.4 182.3 160.3 180.7 158.7 182.1 C 157.2 180.9 156.9 184.7 158.9 183.0 C 160.8 184.6 157.9 184.4 159.7 184.8 C 161.6 186.7 160.1 186.2 161.6 187.6 C 163.5 187.6 161.9 189.0 163.2 188.5 C 161.4 188.7 165.0 189.9 164.5 190.4 C 162.6 189.6 169.2 195.8 166.3 191.8 C 168.2 192.9 167.0 193.4 167.3 194.1 C 168.5 194.1 168.9 197.0 170.4 197.4 C 170.4 197.1 170.0 196.6 170.1 196.2 C 170.3 195.6 170.9 197.4 170.8 197.2 C 171.6 197.6 174.4 199.5 171.0 197.9 C 170.3 198.2 173.1 199.8 172.5 200.1 C 174.5 202.4 174.1 199.8 174.1 201.5 C 175.5 203.1 176.5 204.3 176.7 204.2 C 177.4 205.3 176.9 206.0 178.3 206.4 C 178.8 209.4 181.8 205.8 180.1 208.6 C 181.2 208.7 180.1 210.5 181.5 209.2 C 180.2 209.1 183.3 213.6 182.8 210.9 C 183.6 211.1 183.9 215.2 185.1 213.6 C 187.0 213.6 187.9 212.5 187.2 209.6 C 186.6 210.5 186.2 206.7 186.1 209.5 C 187.1 211.6 182.9 206.8 184.3 207.3 C 186.2 206.1 181.2 205.9 181.5 203.8 C 181.6 205.3 177.8 201.6 180.1 201.6 C 179.6 200.8 178.8 201.2 178.8 199.7 C 180.8 202.2 176.7 200.0 177.6 199.4 C 178.5 199.4 175.8 195.6 175.4 196.5 C 174.7 199.3 175.0 195.3 173.7 195.3 C 171.7 193.7 175.5 194.3 173.0 194.0 C 172.9 193.4 170.6 190.8 172.4 192.1 C 172.8 192.9 169.1 192.3 170.4 190.7 C 173.6 192.7 168.1 187.1 168.5 188.4 C 171.3 193.4 163.6 184.7 167.3 187.4 C 166.5 184.8 168.1 187.6 165.7 185.6 C 165.6 186.3 163.5 184.9 164.8 184.5 C 165.9 182.9 162.4 185.5 163.1 182.4 C 163.7 181.4 160.0 180.1 161.8 180.3 C 162.0 180.2 161.8 179.7 161.7 179.6 M 162.3 180.6 C 161.7 180.6 162.3 179.8 162.3 180.6 M 161.7 180.6 C 161.7 180.5 161.7 180.5 161.7 180.6 C 161.7 180.6 161.7 180.6 161.7 180.6 Z M 165.4 185.3 C 165.4 185.2 165.4 185.2 165.4 185.3 C 165.4 185.3 165.4 185.3 165.4 185.3 Z M 164.9 192.0 C 164.9 191.9 164.9 191.9 164.9 192.0 C 164.9 192.0 164.9 192.0 164.9 192.0 Z M 167.9 188.4 C 167.9 188.4 167.9 188.4 167.9 188.4 C 167.9 188.4 167.9 188.4 167.9 188.4 Z M 163.8 183.9 C 163.7 183.8 163.7 183.8 163.8 183.9 C 163.8 183.9 163.8 183.9 163.8 183.9 Z M 168.2 187.7 C 167.9 188.4 167.7 186.3 168.3 187.6 C 168.4 187.7 168.2 187.5 168.2 187.7 M 171.8 191.4 C 171.8 191.5 171.8 191.5 171.8 191.4 M 175.2 203.8 C 175.1 203.9 175.1 203.9 175.2 203.8 M 180.0 200.8 C 180.1 201.0 180.1 201.0 180.0 200.8 M 174.7 195.8 C 175.8 197.0 174.7 196.4 174.7 195.8 M 182.5 204.3 C 181.5 202.5 184.2 205.7 182.5 204.3 M 184.1 205.5 C 184.1 205.7 184.1 205.7 184.1 205.5 M 177.9 198.8 C 177.9 198.8 177.9 198.8 177.9 198.8 C 177.9 198.8 177.9 198.8 177.9 198.8 Z M 174.5 195.1 C 173.4 193.3 176.4 196.3 174.5 195.1 M 166.4 185.4 C 167.4 186.0 165.7 186.0 166.4 185.4 M 164.5 183.9 C 164.5 183.9 164.5 183.9 164.5 183.9 C 164.5 183.9 164.5 183.9 164.5 183.9 Z M 180.4 201.8 C 180.4 201.8 180.4 201.8 180.4 201.8 C 180.4 201.8 180.4 201.8 180.4 201.8 Z M 182.0 203.5 C 182.0 203.4 182.0 203.4 182.0 203.5 C 182.0 203.5 182.0 203.5 182.0 203.5 Z M 180.6 209.8 C 180.5 209.8 180.5 209.8 180.6 209.8 C 180.6 209.8 180.6 209.8 180.6 209.8 Z M 164.0 186.6 C 163.3 185.2 166.4 186.7 165.2 187.3 C 164.9 187.8 164.2 186.7 164.0 186.6 M 172.3 195.0 C 171.2 196.5 173.1 192.3 172.3 195.0 M 183.4 206.5 C 182.8 209.0 183.2 204.0 183.4 206.5 M 185.7 208.6 C 186.0 209.6 181.7 204.3 185.2 207.6 C 185.8 207.7 185.7 208.2 185.7 208.6 M 171.2 192.1 C 170.8 193.0 170.0 189.9 171.2 192.1 M 175.3 201.3 C 176.3 201.4 178.0 202.6 176.6 202.6 C 175.6 203.5 174.3 200.9 175.3 201.3 M 161.9 181.6 C 163.9 181.6 160.8 182.5 161.9 181.6 M 165.7 186.3 C 165.8 186.3 165.8 186.3 165.7 186.3 C 165.7 186.3 165.7 186.3 165.7 186.3 Z M 167.5 188.0 C 167.5 188.2 167.5 188.2 167.5 188.0 M 163.5 181.5 C 163.5 181.7 163.5 181.7 163.5 181.5 M 176.5 200.2 C 176.5 200.3 176.5 200.3 176.5 200.2 M 174.1 195.8 C 174.4 198.5 173.0 195.0 174.1 195.8 M 168.1 193.4 C 168.0 194.4 167.1 192.3 168.1 193.4 M 177.1 198.3 C 177.0 200.5 174.5 197.5 177.1 198.3 M 173.4 194.8 C 173.5 194.9 173.5 194.9 173.4 194.8 C 173.4 194.8 173.4 194.8 173.4 194.8 Z M 175.6 201.8 C 175.5 201.8 175.5 201.8 175.6 201.8 C 175.6 201.8 175.6 201.8 175.6 201.8 Z M 176.1 202.3 C 176.0 202.3 176.0 202.3 176.1 202.3 C 176.1 202.3 176.1 202.3 176.1 202.3 Z M 178.5 199.7 C 178.4 199.7 178.4 199.7 178.5 199.7 C 178.5 199.7 178.5 199.7 178.5 199.7 Z M 161.3 186.4 C 162.3 187.7 160.3 185.6 161.3 186.4 C 161.3 186.4 161.3 186.4 161.3 186.4 Z M 169.4 189.1 C 170.4 192.0 167.4 188.4 169.4 189.1 C 169.4 189.1 169.4 189.1 169.4 189.1 Z M 170.0 192.7 C 170.0 192.8 170.0 192.8 170.0 192.7 C 170.0 192.7 170.0 192.7 170.0 192.7 Z M 177.1 196.9 C 177.0 196.9 177.0 196.9 177.1 196.9 C 177.1 196.9 177.1 196.9 177.1 196.9 Z M 161.7 187.1 C 161.7 187.2 161.7 187.2 161.7 187.1 C 161.7 187.1 161.7 187.1 161.7 187.1 Z M 181.0 203.8 C 180.9 203.9 180.9 203.9 181.0 203.8 C 181.0 203.8 181.0 203.8 181.0 203.8 Z M 172.5 198.6 C 173.3 198.7 172.2 199.0 172.5 198.6 C 172.5 198.6 172.5 198.6 172.5 198.6 Z M 174.1 200.5 C 174.1 200.5 174.1 200.5 174.1 200.5 C 174.1 200.5 174.1 200.5 174.1 200.5 Z M 184.6 205.9 C 184.6 205.9 184.6 205.9 184.6 205.9 C 184.6 205.9 184.6 205.9 184.6 205.9 Z M 177.2 206.2 C 177.2 206.2 177.2 206.2 177.2 206.2 C 177.2 206.2 177.2 206.2 177.2 206.2 Z M 179.8 206.6 C 179.8 206.6 179.8 206.6 179.8 206.6 C 179.8 206.6 179.8 206.6 179.8 206.6 Z M 178.0 199.6 C 179.8 201.3 177.1 199.6 178.0 199.6 C 178.0 199.6 178.0 199.6 178.0 199.6 Z M 184.2 210.9 C 184.2 211.0 184.2 211.0 184.2 210.9 C 184.2 210.9 184.2 210.9 184.2 210.9 Z M 186.5 210.6 C 186.5 210.7 186.5 210.7 186.5 210.6 C 186.5 210.6 186.5 210.6 186.5 210.6 Z M 187.8 210.3 C 187.7 210.5 187.7 210.5 187.8 210.3 C 187.8 210.3 187.8 210.3 187.8 210.3 Z M 165.8 189.4 C 165.8 189.3 165.8 189.3 165.8 189.4 C 165.8 189.4 165.8 189.4 165.8 189.4 Z M 167.7 186.5 C 167.7 186.5 167.7 186.5 167.7 186.5 C 167.7 186.5 167.7 186.5 167.7 186.5 Z M 170.0 188.9 C 170.0 188.9 170.0 188.9 170.0 188.9 C 170.0 188.9 170.0 188.9 170.0 188.9 Z M 163.9 190.2 C 163.9 190.2 163.9 190.2 163.9 190.2 C 163.9 190.2 163.9 190.2 163.9 190.2 Z M 174.3 197.9 C 174.3 197.8 174.3 197.8 174.3 197.9 C 174.3 197.9 174.3 197.9 174.3 197.9 Z M 174.0 199.7 C 174.0 199.6 174.0 199.6 174.0 199.7 C 174.0 199.7 174.0 199.7 174.0 199.7 Z M 170.8 198.6 C 170.8 198.6 170.8 198.6 170.8 198.6 C 170.8 198.6 170.8 198.6 170.8 198.6 Z M 173.8 201.1 C 173.8 201.1 173.8 201.1 173.8 201.1 C 173.8 201.1 173.8 201.1 173.8 201.1 Z M 158.9 183.4 C 158.8 183.5 158.8 183.5 158.9 183.4 C 158.9 183.4 158.9 183.4 158.9 183.4 Z M 160.6 181.6 C 160.5 181.6 160.5 181.6 160.6 181.6 C 160.6 181.6 160.6 181.6 160.6 181.6 Z M 175.9 197.0 C 176.7 197.1 176.1 198.4 175.9 197.0 M 172.5 193.6 C 172.5 193.6 172.5 193.6 172.5 193.6 C 172.5 193.6 172.5 193.6 172.5 193.6 Z M 181.1 203.2 C 180.7 204.3 180.0 201.1 181.1 203.2 C 181.1 203.2 181.1 203.2 181.1 203.2 Z M 176.3 204.0 C 176.3 204.1 176.3 204.1 176.3 204.0 C 176.3 204.0 176.3 204.0 176.3 204.0 Z M 177.4 204.7 C 177.4 204.8 177.4 204.8 177.4 204.7 C 177.4 204.7 177.4 204.7 177.4 204.7 Z M 184.0 208.2 C 184.0 208.3 184.0 208.3 184.0 208.2 M 172.8 192.6 C 172.9 193.4 172.9 193.2 172.8 192.6 M 182.1 204.4 C 182.1 204.4 182.1 204.4 182.1 204.4 C 182.1 204.4 182.1 204.4 182.1 204.4 Z M 185.4 209.0 C 185.3 208.9 185.3 208.9 185.4 209.0 C 185.4 209.0 185.4 209.0 185.4 209.0 Z M 170.1 190.4 C 169.2 191.3 169.0 190.6 170.1 190.4 M 163.5 183.4 C 163.5 183.5 163.5 183.5 163.5 183.4 C 163.5 183.4 163.5 183.4 163.5 183.4 Z M 190.6 215.0 C 188.0 209.7 186.8 212.5 186.3 212.6 C 185.2 212.5 185.4 213.4 185.7 214.5 C 185.2 216.6 188.2 214.8 187.5 216.5 C 186.8 219.2 190.2 216.6 188.8 218.6 C 188.2 218.9 190.0 220.2 190.0 220.0 C 189.9 221.6 192.4 221.5 192.6 221.3 C 192.9 222.1 191.3 223.6 194.0 224.3 C 195.6 225.2 194.5 227.2 195.3 225.9 C 194.9 228.0 196.3 226.3 196.7 227.6 C 196.6 228.9 197.8 226.7 197.6 229.1 C 199.1 228.8 196.4 229.1 200.0 231.9 C 198.7 230.2 202.2 232.7 200.9 232.7 C 199.2 232.2 202.6 234.0 203.5 235.9 C 204.2 236.0 206.7 237.0 205.4 237.6 C 205.6 240.2 207.5 238.6 207.1 240.1 C 207.2 241.0 208.2 240.4 208.5 240.8 C 208.2 242.0 209.1 242.1 210.6 244.2 C 214.0 248.9 213.1 243.2 214.7 244.7 C 215.3 244.6 215.7 240.2 214.7 242.7 C 214.9 241.9 210.0 240.1 213.5 240.1 C 211.6 239.4 214.6 239.7 211.3 237.8 C 213.1 242.7 207.1 234.1 210.9 237.0 C 210.8 236.1 209.4 234.7 210.0 236.1 C 209.1 237.6 208.4 233.0 208.1 235.8 C 206.6 233.2 205.7 235.0 206.1 233.5 C 207.4 231.5 205.8 234.0 205.3 232.5 C 203.0 229.8 206.7 230.2 204.0 229.7 C 202.6 226.3 202.8 229.7 201.8 229.0 C 200.5 229.8 200.4 225.6 202.3 227.4 C 200.8 226.9 202.7 226.8 200.9 226.2 C 200.6 228.0 200.7 223.7 200.2 224.8 C 199.0 223.9 198.8 225.0 198.5 224.7 C 197.1 223.2 198.6 222.7 197.5 223.1 C 196.8 223.1 197.5 221.1 197.0 221.2 C 198.4 222.9 194.7 220.9 195.1 220.2 C 196.1 221.1 196.1 218.5 194.7 218.6 C 193.1 221.4 194.1 216.6 192.6 216.6 C 191.9 218.4 189.4 213.2 191.4 214.2 C 191.2 214.2 190.6 215.0 190.6 215.0 M 196.4 220.9 C 197.5 222.4 194.9 219.7 196.4 220.9 M 196.7 220.6 C 196.8 221.5 195.9 219.0 196.9 220.5 C 196.9 220.6 196.7 220.5 196.7 220.6 M 201.5 226.1 C 201.0 226.3 201.1 225.2 201.5 226.1 M 201.7 227.9 C 202.1 229.1 200.6 226.7 201.7 227.9 M 212.6 239.9 C 209.5 240.4 212.5 237.7 212.6 239.9 M 205.9 231.5 C 204.4 230.2 207.2 231.3 205.9 231.5 M 205.0 231.4 C 204.1 231.0 205.4 230.9 205.0 231.4 M 210.5 237.6 C 210.6 237.7 210.6 237.7 210.5 237.6 C 210.5 237.6 210.5 237.6 210.5 237.6 Z M 213.6 241.3 C 213.7 241.3 213.7 241.3 213.6 241.3 C 213.6 241.3 213.6 241.3 213.6 241.3 Z M 207.3 234.2 C 206.7 232.7 209.0 235.9 207.3 234.2 C 207.3 234.2 207.3 234.2 207.3 234.2 Z M 209.2 242.1 C 209.1 242.1 209.1 242.1 209.2 242.1 C 209.2 242.1 209.2 242.1 209.2 242.1 Z M 194.6 220.6 C 194.5 220.6 194.5 220.6 194.6 220.6 C 194.6 220.6 194.6 220.6 194.6 220.6 Z M 191.8 215.8 C 191.5 216.1 191.3 214.9 191.8 215.8 C 191.8 215.8 191.8 215.8 191.8 215.8 Z M 186.6 214.4 C 186.6 214.4 186.6 214.4 186.6 214.4 C 186.6 214.4 186.6 214.4 186.6 214.4 Z M 192.4 220.1 C 192.3 220.1 192.3 220.1 192.4 220.1 C 192.4 220.1 192.4 220.1 192.4 220.1 Z M 194.3 219.5 C 194.8 217.9 195.4 221.3 194.3 219.5 C 194.3 219.5 194.3 219.5 194.3 219.5 Z M 203.4 235.2 C 203.9 234.8 204.0 236.3 203.4 235.2 C 203.4 235.2 203.4 235.2 203.4 235.2 Z M 201.4 228.4 C 201.8 228.4 201.8 229.1 201.4 228.4 C 201.4 228.4 201.4 228.4 201.4 228.4 Z M 200.9 224.9 C 201.3 224.8 201.3 225.6 200.9 224.9 C 200.9 224.9 200.9 224.9 200.9 224.9 Z M 192.1 215.7 C 192.3 215.7 192.3 215.7 192.1 215.7 C 192.1 215.7 192.1 215.7 192.1 215.7 Z M 192.6 217.8 C 192.7 216.0 193.4 219.9 192.6 217.8 C 192.6 217.8 192.6 217.8 192.6 217.8 Z M 190.8 216.3 C 190.9 217.2 189.8 214.9 190.8 216.3 M 190.1 218.7 C 191.6 219.6 187.3 219.1 190.1 218.7 C 190.1 218.7 190.1 218.7 190.1 218.7 Z M 195.2 225.4 C 195.3 225.5 195.3 225.5 195.2 225.4 C 195.2 225.4 195.2 225.4 195.2 225.4 Z M 197.6 222.2 C 198.5 223.4 196.7 221.7 197.6 222.2 C 197.6 222.2 197.6 222.2 197.6 222.2 Z M 189.5 212.4 C 190.4 213.5 188.6 211.9 189.5 212.4 C 189.5 212.4 189.5 212.4 189.5 212.4 Z M 199.4 228.3 C 201.1 230.0 197.9 227.6 199.4 228.3 C 199.4 228.3 199.4 228.3 199.4 228.3 Z M 206.3 233.9 C 206.4 234.0 206.4 234.0 206.3 233.9 C 206.3 233.9 206.3 233.9 206.3 233.9 Z M 207.8 234.8 C 207.8 234.9 207.8 234.9 207.8 234.8 C 207.8 234.8 207.8 234.8 207.8 234.8 Z M 211.2 240.9 C 211.3 241.0 211.3 241.0 211.2 240.9 C 211.2 240.9 211.2 240.9 211.2 240.9 Z M 209.3 235.5 C 209.3 235.6 209.3 235.6 209.3 235.5 C 209.3 235.5 209.3 235.5 209.3 235.5 Z M 212.1 239.3 C 212.1 239.5 212.1 239.5 212.1 239.3 C 212.1 239.3 212.1 239.3 212.1 239.3 Z M 212.5 238.1 C 212.6 238.2 212.6 238.2 212.5 238.1 C 212.5 238.1 212.5 238.1 212.5 238.1 Z M 201.3 233.9 C 201.3 234.0 201.3 234.0 201.3 233.9 C 201.3 233.9 201.3 233.9 201.3 233.9 Z M 194.1 217.3 C 194.1 217.5 194.1 217.5 194.1 217.3 C 194.1 217.3 194.1 217.3 194.1 217.3 Z M 211.5 239.4 C 211.5 239.5 211.5 239.5 211.5 239.4 C 211.5 239.4 211.5 239.4 211.5 239.4 Z M 203.1 231.3 C 202.3 232.1 203.6 229.6 203.4 231.5 C 203.3 231.5 203.2 231.2 203.1 231.3 M 202.7 233.7 C 202.6 233.7 202.6 233.7 202.7 233.7 C 202.7 233.7 202.7 233.7 202.7 233.7 Z M 198.8 230.2 C 198.7 230.2 198.7 230.2 198.8 230.2 C 198.8 230.2 198.8 230.2 198.8 230.2 Z M 208.9 234.8 C 209.2 234.2 209.4 236.1 208.7 234.6 M 209.8 242.2 C 210.1 241.6 210.3 243.5 209.6 242.1 M 188.1 211.4 C 187.6 211.6 187.6 210.5 188.1 211.4 M 197.6 229.7 C 197.1 229.9 197.1 228.8 197.6 229.7 M 200.2 230.7 C 200.6 230.1 200.7 231.9 200.1 230.5 M 207.5 239.5 C 207.5 239.5 207.5 239.5 207.5 239.5 C 207.5 239.5 207.5 239.5 207.5 239.5 Z M 198.9 224.0 C 199.0 224.0 199.0 224.0 198.9 224.0 C 198.9 224.0 198.9 224.0 198.9 224.0 Z M 202.1 229.7 C 202.2 228.5 202.4 230.9 202.1 229.7 M 196.6 223.6 C 196.6 221.9 197.6 225.3 196.6 223.6 M 211.4 244.4 C 211.4 242.5 211.5 245.7 211.4 244.4 M 209.2 237.0 C 209.3 235.1 209.4 238.3 209.2 237.0 M 199.4 225.3 C 199.8 224.8 200.0 226.7 199.4 225.3 M 190.3 213.8 C 189.5 212.8 191.9 214.9 190.3 213.8 M 205.2 236.9 C 205.2 237.0 205.2 237.0 205.2 236.9 C 205.2 236.9 205.2 236.9 205.2 236.9 Z M 189.5 220.4 C 189.5 220.5 189.5 220.5 189.5 220.4 C 189.5 220.4 189.5 220.4 189.5 220.4 Z M 215.8 243.0 C 215.8 243.1 215.8 243.1 215.8 243.0 C 215.8 243.0 215.8 243.0 215.8 243.0 Z M 208.2 236.7 C 208.2 236.8 208.2 236.8 208.2 236.7 C 208.2 236.7 208.2 236.7 208.2 236.7 Z M 214.1 240.9 C 214.1 241.0 214.1 241.0 214.1 240.9 C 214.1 240.9 214.1 240.9 214.1 240.9 Z M 204.6 234.1 C 204.5 234.1 204.5 234.1 204.6 234.1 C 204.6 234.1 204.6 234.1 204.6 234.1 Z M 206.5 231.2 C 206.5 231.3 206.5 231.3 206.5 231.2 C 206.5 231.2 206.5 231.2 206.5 231.2 Z M 202.2 228.5 C 202.2 228.5 202.2 228.5 202.2 228.5 C 202.2 228.5 202.2 228.5 202.2 228.5 Z M 207.7 233.1 C 209.8 235.1 205.9 232.7 207.7 233.1 C 207.7 233.1 207.7 233.1 207.7 233.1 Z M 202.0 231.4 C 201.9 231.5 201.9 231.5 202.0 231.4 C 202.0 231.4 202.0 231.4 202.0 231.4 Z M 203.5 229.6 C 205.4 230.4 202.9 231.4 203.5 229.6 M 198.8 223.0 C 199.5 223.1 198.4 223.7 198.8 223.0 M 193.4 223.4 C 193.4 223.4 193.4 223.4 193.4 223.4 C 193.4 223.4 193.4 223.4 193.4 223.4 Z M 194.2 223.8 C 194.2 223.9 194.2 223.9 194.2 223.8 C 194.2 223.8 194.2 223.8 194.2 223.8 Z M 197.7 221.4 C 197.7 221.4 197.7 221.4 197.7 221.4 C 197.7 221.4 197.7 221.4 197.7 221.4 Z M 193.4 224.7 C 193.4 224.8 193.4 224.8 193.4 224.7 C 193.4 224.7 193.4 224.7 193.4 224.7 Z M 205.7 230.4 C 205.7 230.5 205.7 230.5 205.7 230.4 C 205.7 230.4 205.7 230.4 205.7 230.4 Z M 215.4 241.6 C 215.4 241.7 215.4 241.7 215.4 241.6 C 215.4 241.6 215.4 241.6 215.4 241.6 Z M 188.0 216.4 C 188.0 216.5 188.0 216.5 188.0 216.4 C 188.0 216.4 188.0 216.4 188.0 216.4 Z M 205.7 232.5 C 205.7 232.5 205.7 232.5 205.7 232.5 C 205.7 232.5 205.7 232.5 205.7 232.5 Z M 192.2 221.7 C 192.2 221.8 192.2 221.8 192.2 221.7 C 192.2 221.7 192.2 221.7 192.2 221.7 Z M 205.3 231.6 C 205.3 231.6 205.3 231.6 205.3 231.6 C 205.3 231.6 205.3 231.6 205.3 231.6 Z M 204.7 236.7 C 204.7 236.8 204.7 236.8 204.7 236.7 C 204.7 236.7 204.7 236.7 204.7 236.7 Z M 206.2 239.6 C 206.2 239.6 206.2 239.6 206.2 239.6 C 206.2 239.6 206.2 239.6 206.2 239.6 Z M 206.3 235.0 C 206.3 235.1 206.3 235.1 206.3 235.0 C 206.3 235.0 206.3 235.0 206.3 235.0 Z M 192.6 220.0 C 189.6 214.8 196.0 223.1 192.6 220.0 M 206.7 236.0 C 204.2 232.7 209.8 237.6 206.7 236.0 C 207.2 236.1 206.8 236.0 206.7 236.0 M 218.7 246.2 C 218.0 243.4 216.6 244.6 216.6 244.6 C 218.7 243.2 214.3 243.5 214.2 244.3 C 213.9 244.4 211.9 248.9 215.1 248.5 C 215.7 248.6 215.3 249.4 215.5 249.7 C 217.6 252.0 215.1 247.1 217.6 250.0 C 217.8 250.8 215.7 251.6 218.3 252.4 C 218.2 252.6 219.3 255.1 219.4 253.7 C 219.4 255.2 220.9 255.1 221.8 255.8 C 222.0 257.0 220.1 256.1 223.4 258.2 C 223.1 260.6 225.8 259.0 225.3 261.4 C 225.9 262.1 229.2 261.1 226.4 260.7 C 226.8 260.8 227.0 258.7 228.5 261.3 C 228.0 261.3 224.4 262.1 228.6 264.7 C 229.1 265.3 230.9 266.1 230.9 266.6 C 229.0 265.1 231.9 270.0 232.3 269.0 C 234.2 272.2 233.9 269.6 234.9 272.4 C 236.3 274.1 235.5 270.9 236.6 273.5 C 238.1 274.9 236.6 274.4 236.5 274.2 C 237.5 275.7 238.4 275.8 238.8 276.3 C 238.9 276.7 238.9 277.7 239.8 277.5 C 242.2 278.0 242.1 275.7 243.8 275.4 C 243.4 273.9 242.6 275.7 242.8 274.3 C 241.6 274.3 242.8 274.1 240.1 271.4 C 240.0 271.6 240.2 272.7 239.5 272.1 C 238.6 270.9 241.2 270.1 238.3 269.4 C 239.7 271.9 235.1 266.9 236.4 269.2 C 234.0 266.9 235.9 268.4 234.8 266.2 C 233.6 267.4 236.0 264.9 234.4 265.1 C 234.8 264.5 232.1 261.8 233.1 264.5 C 230.2 261.8 232.6 263.1 232.3 261.5 C 231.2 260.0 230.2 263.1 231.0 260.9 C 230.2 258.6 230.2 261.5 230.3 259.2 C 229.7 260.7 229.1 257.9 228.4 259.4 C 225.7 256.4 230.0 258.7 227.3 257.2 C 227.8 257.9 229.2 256.3 227.0 255.9 C 225.7 258.1 227.2 252.8 225.6 255.8 C 221.2 252.2 226.0 254.2 224.0 251.9 C 223.4 251.3 223.7 253.3 223.2 252.7 C 221.0 249.4 223.8 251.4 221.2 250.8 C 218.4 248.1 221.5 249.1 220.3 247.6 C 219.7 248.0 217.7 247.6 218.7 246.2 M 220.4 249.4 C 221.3 249.7 220.3 250.1 220.4 249.4 M 215.9 242.9 C 216.8 243.2 215.8 243.6 215.9 242.9 M 222.9 251.5 C 224.0 252.0 222.5 252.3 222.9 251.5 M 236.1 268.0 C 235.1 266.9 236.8 268.2 236.1 268.0 M 218.0 245.2 C 219.2 245.7 217.5 246.0 218.0 245.2 M 216.1 245.0 C 216.1 245.0 216.1 245.0 216.1 245.0 M 238.4 268.7 C 238.5 268.8 238.5 268.8 238.4 268.7 M 234.8 264.4 C 235.5 265.4 234.1 264.1 234.8 264.4 M 230.5 267.8 C 231.3 268.7 229.8 267.5 230.5 267.8 M 240.5 271.0 C 241.6 271.6 240.3 271.7 240.5 271.0 M 241.7 274.2 C 242.7 274.7 241.7 275.0 241.7 274.2 M 218.5 250.1 C 218.5 250.1 218.5 250.1 218.5 250.1 C 218.5 250.1 218.5 250.1 218.5 250.1 Z M 224.3 258.8 C 223.9 257.5 224.8 260.4 224.3 258.8 M 225.7 255.0 C 225.4 256.4 224.7 253.8 225.7 255.0 C 225.7 255.0 225.7 255.0 225.7 255.0 Z M 224.1 254.0 C 224.1 254.0 224.1 254.0 224.1 254.0 C 224.1 254.0 224.1 254.0 224.1 254.0 Z M 227.9 258.5 C 227.9 258.4 227.9 258.4 227.9 258.5 C 227.9 258.5 227.9 258.5 227.9 258.5 Z M 227.1 257.6 C 226.6 257.4 226.8 256.9 227.1 257.6 C 227.1 257.6 227.1 257.6 227.1 257.6 Z M 230.0 266.3 C 229.5 266.1 229.7 265.7 230.0 266.3 C 230.0 266.3 230.0 266.3 230.0 266.3 Z M 225.6 256.5 C 224.6 257.1 225.6 255.4 225.6 256.5 C 225.6 256.5 225.6 256.5 225.6 256.5 Z M 227.7 262.9 C 228.3 263.1 227.6 264.4 227.7 262.9 M 239.1 269.7 C 239.6 269.9 239.0 271.2 239.1 269.7 M 231.2 260.2 C 231.8 260.4 231.1 261.7 231.2 260.2 M 221.2 249.6 C 221.2 249.7 221.2 249.7 221.2 249.6 M 222.1 257.9 C 222.9 258.2 222.0 258.5 222.1 257.9 M 214.8 248.8 C 215.6 249.2 214.7 249.4 214.8 248.8 M 234.1 271.7 C 234.3 271.5 234.8 272.8 234.1 271.7 M 230.8 262.4 C 231.4 263.3 231.7 264.5 230.3 262.8 C 230.4 262.5 231.0 262.9 230.8 262.4 C 230.8 262.4 230.8 262.4 230.8 262.4 Z M 231.5 267.0 C 231.5 267.2 231.5 267.2 231.5 267.0 M 232.9 263.2 C 232.9 263.4 232.9 263.4 232.9 263.2 M 236.9 268.1 C 236.9 268.3 236.9 268.3 236.9 268.1 M 237.7 268.5 C 237.6 268.5 237.6 268.5 237.7 268.5 C 237.7 268.5 237.7 268.5 237.7 268.5 Z M 242.5 273.4 C 242.5 273.5 242.5 273.5 242.5 273.4 C 242.5 273.4 242.5 273.4 242.5 273.4 Z M 235.5 266.6 C 235.4 266.6 235.4 266.6 235.5 266.6 C 235.5 266.6 235.5 266.6 235.5 266.6 Z M 236.1 273.7 C 236.1 273.7 236.1 273.7 236.1 273.7 C 236.1 273.7 236.1 273.7 236.1 273.7 Z M 236.1 272.7 C 236.1 272.8 236.1 272.8 236.1 272.7 C 236.1 272.7 236.1 272.7 236.1 272.7 Z M 219.1 246.6 C 220.3 246.9 218.0 248.3 219.1 246.6 M 238.1 275.1 C 238.1 276.2 236.9 273.9 238.1 275.1 C 238.1 275.1 238.1 275.1 238.1 275.1 Z M 234.3 266.7 C 234.3 266.8 234.3 266.8 234.3 266.7 M 237.8 268.8 C 237.8 269.0 237.8 269.0 237.8 268.8 M 226.4 254.3 C 226.4 254.5 226.4 254.5 226.4 254.3 M 240.9 272.7 C 242.6 275.1 238.8 272.7 240.9 272.7 M 224.8 254.0 C 224.8 253.9 224.8 253.9 224.8 254.0 M 227.6 260.4 C 228.9 261.8 226.6 260.2 227.6 260.4 M 231.9 263.3 C 231.8 263.3 231.8 263.3 231.9 263.3 C 231.9 263.3 231.9 263.3 231.9 263.3 Z M 230.0 261.1 C 228.9 260.1 230.0 260.6 230.0 261.1 C 230.0 261.1 230.0 261.1 230.0 261.1 Z M 219.2 248.4 C 220.3 249.9 217.7 247.1 219.2 248.4 C 219.2 248.4 219.2 248.4 219.2 248.4 Z M 238.1 273.3 C 238.0 273.3 238.0 273.3 238.1 273.3 C 238.1 273.3 238.1 273.3 238.1 273.3 Z M 235.8 265.9 C 235.1 265.4 235.8 265.3 235.8 265.9 C 235.8 265.9 235.8 265.9 235.8 265.9 Z M 243.2 274.2 C 242.4 273.7 243.2 273.7 243.2 274.2 C 243.2 274.2 243.2 274.2 243.2 274.2 Z M 217.9 246.5 C 221.0 252.9 212.3 239.3 217.9 246.5 C 217.9 246.5 217.9 246.5 217.9 246.5 Z M 231.3 261.5 C 231.2 261.5 231.2 261.5 231.3 261.5 C 231.3 261.5 231.3 261.5 231.3 261.5 Z M 223.6 251.4 C 223.5 251.4 223.5 251.4 223.6 251.4 C 223.6 251.4 223.6 251.4 223.6 251.4 Z M 221.4 250.4 C 221.4 250.4 221.4 250.4 221.4 250.4 C 221.4 250.4 221.4 250.4 221.4 250.4 Z M 218.6 253.7 C 218.6 253.7 218.6 253.7 218.6 253.7 C 218.6 253.7 218.6 253.7 218.6 253.7 Z M 220.6 252.9 C 220.4 253.0 220.4 253.0 220.6 252.9 C 220.6 252.9 220.6 252.9 220.6 252.9 Z M 217.1 250.1 C 217.0 250.1 217.0 250.1 217.1 250.1 C 217.1 250.1 217.1 250.1 217.1 250.1 Z M 216.8 250.5 C 216.7 250.5 216.7 250.5 216.8 250.5 C 216.8 250.5 216.8 250.5 216.8 250.5 Z M 236.9 269.6 C 236.8 269.6 236.8 269.6 236.9 269.6 C 236.9 269.6 236.9 269.6 236.9 269.6 Z M 234.0 269.0 C 235.6 269.8 233.0 269.2 234.0 269.0 C 234.0 269.0 234.0 269.0 234.0 269.0 Z M 225.5 257.7 C 226.6 258.7 224.4 257.4 225.5 257.7 C 225.5 257.7 225.5 257.7 225.5 257.7 Z M 224.7 260.4 C 224.8 260.5 224.8 260.5 224.7 260.4 C 224.7 260.4 224.7 260.4 224.7 260.4 Z M 222.2 249.8 C 222.1 249.8 222.1 249.8 222.2 249.8 C 222.2 249.8 222.2 249.8 222.2 249.8 Z M 219.9 248.2 C 219.2 248.7 219.7 247.3 219.9 248.2 M 229.2 258.1 C 229.1 258.2 229.1 258.2 229.2 258.1 C 229.2 258.1 229.2 258.1 229.2 258.1 Z M 233.7 265.5 C 233.7 265.6 233.7 265.6 233.7 265.5 C 233.7 265.5 233.7 265.5 233.7 265.5 Z M 239.7 271.6 C 239.6 271.7 239.6 271.7 239.7 271.6 C 239.7 271.6 239.7 271.6 239.7 271.6 Z M 232.6 262.2 C 232.5 262.3 232.5 262.3 232.6 262.2 C 232.6 262.2 232.6 262.2 232.6 262.2 Z M 229.3 259.7 C 229.2 259.7 229.2 259.7 229.3 259.7 C 229.3 259.7 229.3 259.7 229.3 259.7 Z M 240.0 273.9 C 239.9 273.8 239.9 273.8 240.0 273.9 C 240.0 273.9 240.0 273.9 240.0 273.9 Z M 233.3 262.9 C 233.3 262.9 233.3 262.9 233.3 262.9 C 233.3 262.9 233.3 262.9 233.3 262.9 Z M 232.8 266.6 C 232.6 266.6 232.6 266.6 232.8 266.6 C 232.8 266.6 232.8 266.6 232.8 266.6 Z M 221.1 247.6 C 221.1 247.6 221.1 247.6 221.1 247.6 C 221.1 247.6 221.1 247.6 221.1 247.6 Z M 241.0 273.1 C 240.9 273.1 240.9 273.1 241.0 273.1 C 241.0 273.1 241.0 273.1 241.0 273.1 Z M 241.9 273.0 C 241.9 273.0 241.9 273.0 241.9 273.0 C 241.9 273.0 241.9 273.0 241.9 273.0 Z M 234.7 271.2 C 233.2 268.6 236.6 273.1 236.0 270.9 C 239.0 274.0 235.1 271.7 234.7 271.2 C 234.7 271.2 234.7 271.2 234.7 271.2 Z M 244.8 275.9 C 242.8 275.4 241.9 276.1 241.4 277.5 C 241.5 278.5 243.3 276.9 241.8 278.3 C 240.2 277.1 240.0 280.9 242.0 279.2 C 243.9 280.8 241.0 280.6 242.7 281.1 C 244.7 282.9 243.2 282.4 244.7 283.8 C 246.5 283.8 244.9 285.2 246.3 284.7 C 244.5 284.9 248.1 286.1 247.6 286.6 C 245.7 285.8 252.3 292.1 249.4 288.0 C 251.2 289.1 250.0 289.6 250.3 290.3 C 251.6 290.4 252.0 293.2 253.4 293.6 C 253.4 293.3 253.1 292.8 253.2 292.4 C 253.4 291.8 254.0 293.6 253.9 293.4 C 254.7 293.8 257.5 295.7 254.0 294.1 C 253.4 294.4 256.1 296.0 255.6 296.3 C 257.5 298.6 257.1 296.0 257.2 297.7 C 258.6 299.3 259.6 300.5 259.7 300.4 C 260.4 301.5 260.0 302.2 261.4 302.6 C 261.9 305.6 264.9 302.0 263.2 304.8 C 264.2 304.9 263.2 306.7 264.5 305.4 C 263.3 305.3 266.3 309.8 265.9 307.1 C 266.6 307.3 267.0 311.4 268.2 309.8 C 270.0 309.8 270.9 308.7 270.2 305.8 C 269.6 306.7 269.3 302.9 269.2 305.7 C 270.2 307.8 265.9 303.0 267.3 303.5 C 269.3 302.3 264.2 302.1 264.6 300.0 C 264.6 301.5 260.9 297.8 263.1 297.8 C 262.6 297.0 261.8 297.4 261.9 295.9 C 263.8 298.4 259.8 296.2 260.7 295.6 C 261.5 295.6 258.8 291.8 258.4 292.8 C 257.7 295.5 258.0 291.5 256.8 291.5 C 254.7 289.9 258.6 290.5 256.0 290.2 C 255.9 289.6 253.7 287.0 255.4 288.3 C 255.8 289.1 252.2 288.5 253.5 286.9 C 256.7 288.9 251.2 283.3 251.5 284.7 C 254.4 289.6 246.7 280.9 250.4 283.6 C 249.6 281.0 251.2 283.9 248.8 281.8 C 248.6 282.5 246.6 281.1 247.9 280.7 C 249.0 279.1 245.4 281.7 246.1 278.6 C 246.8 277.6 243.0 276.3 244.9 276.5 C 245.0 276.5 244.9 275.9 244.8 275.9 M 245.4 276.8 C 244.8 276.8 245.3 276.0 245.4 276.8 M 244.7 276.8 C 244.7 276.7 244.7 276.7 244.7 276.8 C 244.7 276.8 244.7 276.8 244.7 276.8 Z M 248.4 281.5 C 248.5 281.4 248.5 281.4 248.4 281.5 C 248.4 281.5 248.4 281.5 248.4 281.5 Z M 248.0 288.2 C 248.0 288.1 248.0 288.1 248.0 288.2 C 248.0 288.2 248.0 288.2 248.0 288.2 Z M 251.0 284.6 C 251.0 284.6 251.0 284.6 251.0 284.6 C 251.0 284.6 251.0 284.6 251.0 284.6 Z M 246.8 280.1 C 246.8 280.0 246.8 280.0 246.8 280.1 C 246.8 280.1 246.8 280.1 246.8 280.1 Z M 251.3 283.9 C 250.9 284.6 250.8 282.5 251.4 283.9 C 251.4 283.9 251.2 283.7 251.3 283.9 M 254.9 287.6 C 254.9 287.7 254.9 287.7 254.9 287.6 M 258.2 300.0 C 258.2 300.1 258.2 300.1 258.2 300.0 M 263.1 297.1 C 263.1 297.2 263.1 297.2 263.1 297.1 M 257.8 292.0 C 258.9 293.2 257.7 292.6 257.8 292.0 M 265.5 300.5 C 264.6 298.7 267.2 301.9 265.5 300.5 M 267.1 301.7 C 267.2 301.9 267.2 301.9 267.1 301.7 M 261.0 295.0 C 260.9 295.0 260.9 295.0 261.0 295.0 C 261.0 295.0 261.0 295.0 261.0 295.0 Z M 257.5 291.4 C 256.5 289.5 259.4 292.5 257.5 291.4 M 249.4 281.6 C 250.4 282.2 248.7 282.2 249.4 281.6 M 247.6 280.1 C 247.5 280.1 247.5 280.1 247.6 280.1 C 247.6 280.1 247.6 280.1 247.6 280.1 Z M 263.5 298.0 C 263.4 298.0 263.4 298.0 263.5 298.0 C 263.5 298.0 263.5 298.0 263.5 298.0 Z M 265.1 299.7 C 265.0 299.7 265.0 299.7 265.1 299.7 C 265.1 299.7 265.1 299.7 265.1 299.7 Z M 263.6 306.0 C 263.6 306.0 263.6 306.0 263.6 306.0 C 263.6 306.0 263.6 306.0 263.6 306.0 Z M 247.1 282.8 C 246.4 281.4 249.4 282.9 248.3 283.5 C 248.0 284.0 247.3 282.9 247.1 282.8 M 255.3 291.2 C 254.3 292.7 256.2 288.5 255.3 291.2 M 266.4 302.7 C 265.9 305.2 266.3 300.2 266.4 302.7 M 268.8 304.8 C 269.1 305.8 264.8 300.5 268.3 303.8 C 268.9 303.9 268.7 304.4 268.8 304.8 M 254.3 288.3 C 253.9 289.3 253.0 286.1 254.3 288.3 M 258.4 297.5 C 259.3 297.6 261.0 298.8 259.7 298.8 C 258.6 299.7 257.3 297.1 258.4 297.5 M 244.9 277.9 C 246.9 277.8 243.9 278.7 244.9 277.9 M 248.8 282.6 C 248.8 282.5 248.8 282.5 248.8 282.6 C 248.8 282.6 248.8 282.6 248.8 282.6 Z M 250.5 284.2 C 250.5 284.4 250.5 284.4 250.5 284.2 M 246.6 277.7 C 246.6 277.9 246.6 277.9 246.6 277.7 M 259.6 296.4 C 259.5 296.5 259.5 296.5 259.6 296.4 M 257.2 292.0 C 257.5 294.8 256.1 291.2 257.2 292.0 M 251.1 289.6 C 251.0 290.6 250.1 288.5 251.1 289.6 M 260.1 294.5 C 260.1 296.7 257.6 293.7 260.1 294.5 M 256.5 291.0 C 256.6 291.1 256.6 291.1 256.5 291.0 C 256.5 291.0 256.5 291.0 256.5 291.0 Z M 258.6 298.0 C 258.6 298.0 258.6 298.0 258.6 298.0 C 258.6 298.0 258.6 298.0 258.6 298.0 Z M 259.2 298.5 C 259.1 298.5 259.1 298.5 259.2 298.5 C 259.2 298.5 259.2 298.5 259.2 298.5 Z M 261.6 295.9 C 261.5 295.9 261.5 295.9 261.6 295.9 C 261.6 295.9 261.6 295.9 261.6 295.9 Z M 244.4 282.6 C 245.4 283.9 243.4 281.8 244.4 282.6 C 244.4 282.6 244.4 282.6 244.4 282.6 Z M 252.5 285.3 C 253.4 288.2 250.4 284.6 252.5 285.3 C 252.5 285.3 252.5 285.3 252.5 285.3 Z M 253.1 288.9 C 253.0 289.0 253.0 289.0 253.1 288.9 C 253.1 288.9 253.1 288.9 253.1 288.9 Z M 260.1 293.1 C 260.0 293.2 260.0 293.2 260.1 293.1 C 260.1 293.1 260.1 293.1 260.1 293.1 Z M 244.8 283.4 C 244.7 283.4 244.7 283.4 244.8 283.4 C 244.8 283.4 244.8 283.4 244.8 283.4 Z M 264.0 300.0 C 264.0 300.1 264.0 300.1 264.0 300.0 C 264.0 300.0 264.0 300.0 264.0 300.0 Z M 255.5 294.8 C 256.3 294.9 255.3 295.2 255.5 294.8 C 255.5 294.8 255.5 294.8 255.5 294.8 Z M 257.1 296.7 C 257.2 296.7 257.2 296.7 257.1 296.7 C 257.1 296.7 257.1 296.7 257.1 296.7 Z M 267.6 302.1 C 267.7 302.1 267.7 302.1 267.6 302.1 C 267.6 302.1 267.6 302.1 267.6 302.1 Z M 260.2 302.4 C 260.3 302.4 260.3 302.4 260.2 302.4 C 260.2 302.4 260.2 302.4 260.2 302.4 Z M 262.9 302.8 C 262.8 302.8 262.8 302.8 262.9 302.8 C 262.9 302.8 262.9 302.8 262.9 302.8 Z M 261.0 295.8 C 262.8 297.5 260.1 295.8 261.0 295.8 C 261.0 295.8 261.0 295.8 261.0 295.8 Z M 267.2 307.1 C 267.2 307.3 267.2 307.3 267.2 307.1 C 267.2 307.1 267.2 307.1 267.2 307.1 Z M 269.6 306.8 C 269.6 306.9 269.6 306.9 269.6 306.8 C 269.6 306.8 269.6 306.8 269.6 306.8 Z M 270.8 306.6 C 270.8 306.7 270.8 306.7 270.8 306.6 C 270.8 306.6 270.8 306.6 270.8 306.6 Z M 248.9 285.6 C 248.9 285.5 248.9 285.5 248.9 285.6 C 248.9 285.6 248.9 285.6 248.9 285.6 Z M 250.7 282.7 C 250.7 282.7 250.7 282.7 250.7 282.7 C 250.7 282.7 250.7 282.7 250.7 282.7 Z M 253.0 285.1 C 253.0 285.1 253.0 285.1 253.0 285.1 C 253.0 285.1 253.0 285.1 253.0 285.1 Z M 247.0 286.4 C 247.0 286.4 247.0 286.4 247.0 286.4 C 247.0 286.4 247.0 286.4 247.0 286.4 Z M 257.3 294.1 C 257.3 294.1 257.3 294.1 257.3 294.1 C 257.3 294.1 257.3 294.1 257.3 294.1 Z M 257.1 295.9 C 257.1 295.8 257.1 295.8 257.1 295.9 C 257.1 295.9 257.1 295.9 257.1 295.9 Z M 253.8 294.9 C 253.8 294.8 253.8 294.8 253.8 294.9 C 253.8 294.9 253.8 294.9 253.8 294.9 Z M 256.8 297.3 C 256.8 297.3 256.8 297.3 256.8 297.3 C 256.8 297.3 256.8 297.3 256.8 297.3 Z M 241.9 279.6 C 241.9 279.7 241.9 279.7 241.9 279.6 C 241.9 279.6 241.9 279.6 241.9 279.6 Z M 243.6 277.8 C 243.6 277.8 243.6 277.8 243.6 277.8 C 243.6 277.8 243.6 277.8 243.6 277.8 Z M 258.9 293.2 C 259.7 293.3 259.1 294.6 258.9 293.2 M 255.6 289.8 C 255.5 289.8 255.5 289.8 255.6 289.8 C 255.6 289.8 255.6 289.8 255.6 289.8 Z M 264.1 299.4 C 263.8 300.5 263.1 297.4 264.1 299.4 C 264.1 299.4 264.1 299.4 264.1 299.4 Z M 259.3 300.2 C 259.3 300.3 259.3 300.3 259.3 300.2 C 259.3 300.2 259.3 300.2 259.3 300.2 Z M 260.4 300.9 C 260.4 301.0 260.4 301.0 260.4 300.9 C 260.4 300.9 260.4 300.9 260.4 300.9 Z M 267.0 304.4 C 267.0 304.5 267.0 304.5 267.0 304.4 M 255.8 288.8 C 256.0 289.6 255.9 289.4 255.8 288.8 M 265.2 300.6 C 265.1 300.6 265.1 300.6 265.2 300.6 C 265.2 300.6 265.2 300.6 265.2 300.6 Z M 268.5 305.2 C 268.4 305.1 268.4 305.1 268.5 305.2 C 268.5 305.2 268.5 305.2 268.5 305.2 Z M 253.1 286.6 C 252.3 287.5 252.0 286.8 253.1 286.6 M 246.6 279.7 C 246.5 279.7 246.5 279.7 246.6 279.7 C 246.6 279.7 246.6 279.7 246.6 279.7 Z M 246.6 279.7 " fill="#EB5C56"></path><path d="M 265.2 323.9 C 264.7 324.2 263.3 323.4 264.7 323.5 C 264.8 323.5 265.4 323.8 265.2 323.9 Z M 267.8 324.8 C 267.6 324.8 267.4 324.7 267.4 324.5 C 267.2 324.0 268.5 325.1 267.8 324.8 Z M 264.1 323.0 C 264.0 323.0 263.2 322.8 263.4 322.7 C 263.6 322.6 264.2 323.0 264.1 323.0 Z M 270.5 324.6 C 270.4 324.8 269.5 324.5 269.4 324.4 C 269.1 323.9 270.7 324.2 270.5 324.6 Z M 269.3 317.0 C 269.4 316.9 269.4 316.9 269.4 316.8 C 269.4 316.9 269.4 317.0 269.3 317.0 Z M 282.6 329.3 C 282.5 329.2 282.2 328.9 282.4 328.8 C 282.6 328.6 283.2 329.4 282.6 329.3 Z M 281.0 306.3 C 281.0 306.3 280.6 306.4 280.6 306.2 C 280.6 306.0 280.9 306.1 281.0 306.3 Z M 280.8 306.1 C 280.6 306.0 280.8 305.7 280.8 305.9 C 280.9 306.1 280.9 306.2 280.8 306.1 Z M 286.6 318.0 C 286.6 318.1 286.7 318.2 286.6 318.1 C 286.4 318.0 286.5 317.8 286.6 318.0 Z M 286.2 317.7 C 286.0 317.6 286.3 317.3 286.3 317.4 C 286.4 317.7 286.5 317.8 286.2 317.7 Z M 287.0 314.7 C 287.0 314.8 287.1 314.9 286.9 314.8 C 286.8 314.8 286.9 314.5 287.0 314.7 Z M 275.6 310.1 C 275.6 309.9 276.1 309.7 276.2 309.9 C 276.3 310.1 275.6 310.3 275.6 310.1 Z M 276.0 309.6 C 275.8 309.5 276.1 309.2 276.1 309.4 C 276.2 309.5 276.2 309.6 276.0 309.6 Z M 274.7 311.2 C 274.9 311.3 274.5 311.7 274.4 311.8 C 274.2 311.8 274.0 311.9 273.8 311.9 C 273.7 312.0 274.5 310.9 274.7 311.2 Z M 271.7 314.1 C 271.6 314.0 271.7 314.0 271.8 313.9 C 272.1 313.9 271.8 314.2 271.7 314.1 Z M 273.4 312.4 C 273.4 312.4 273.4 312.3 273.6 312.2 C 273.8 312.2 273.5 312.5 273.4 312.4 Z M 275.3 326.8 C 275.3 327.0 274.7 326.6 274.7 326.6 C 274.6 326.5 274.9 326.6 274.8 326.5 C 274.6 326.4 275.2 326.0 275.3 326.8 Z M 269.3 325.3 C 269.2 325.2 269.2 325.1 269.3 325.0 C 269.3 325.0 269.7 325.3 269.3 325.3 Z M 274.7 325.7 C 274.7 325.8 274.5 325.7 274.5 325.7 C 274.6 325.6 274.7 325.7 274.7 325.7 Z M 275.2 325.8 C 275.0 325.7 274.8 325.4 274.9 325.3 C 275.1 325.1 275.8 325.9 275.2 325.8 Z M 276.0 327.3 C 275.8 327.3 275.8 327.3 276.0 327.2 C 276.1 327.2 276.0 327.3 276.0 327.3 Z M 272.5 326.5 C 272.3 326.4 272.3 326.4 272.5 326.4 C 272.6 326.4 272.5 326.5 272.5 326.5 Z M 277.8 327.5 C 277.8 327.5 277.2 327.6 277.3 327.1 C 277.3 326.6 277.8 327.4 277.8 327.5 Z M 280.3 327.7 C 280.2 327.6 280.3 327.5 280.4 327.6 C 280.5 327.7 280.5 327.8 280.3 327.7 Z M 281.4 327.2 C 281.7 327.4 281.8 327.7 281.4 327.5 C 281.0 327.3 281.2 327.0 281.4 327.2 Z M 280.9 327.3 C 281.0 327.2 281.1 327.2 281.1 327.3 C 281.1 327.4 280.9 327.3 280.9 327.3 Z M 278.7 327.2 C 278.5 327.2 278.3 326.9 278.7 326.9 C 279.0 327.0 279.0 327.1 278.7 327.2 Z M 266.9 317.6 C 266.9 317.7 266.7 317.5 266.7 317.4 C 266.8 317.3 267.0 317.4 266.9 317.6 Z M 274.5 312.4 C 274.3 312.3 274.3 312.3 274.6 312.2 C 274.8 312.1 274.6 312.4 274.5 312.4 Z M 279.1 308.9 C 278.9 308.9 279.0 308.8 279.2 308.7 C 279.5 308.6 279.3 309.0 279.1 308.9 Z M 272.7 313.9 C 272.6 313.9 272.8 313.1 273.3 313.2 C 273.8 313.3 273.1 314.0 272.7 313.9 Z M 271.4 321.1 C 271.4 321.2 271.3 321.0 271.3 321.0 C 271.5 320.9 271.5 320.9 271.4 321.1 Z M 274.1 313.6 C 274.1 313.7 273.9 313.5 273.9 313.3 C 274.0 313.2 274.2 313.4 274.1 313.6 Z M 278.1 309.4 C 277.9 309.4 277.7 309.1 277.8 308.9 C 277.9 308.3 278.4 308.4 278.9 308.4 C 279.2 308.4 278.3 309.3 278.1 309.4 Z M 266.5 319.2 C 266.6 319.1 266.7 319.1 266.8 319.0 C 266.8 318.9 266.9 318.9 267.0 318.9 C 267.4 318.4 267.3 317.8 267.5 317.5 C 267.9 316.7 268.9 317.3 269.3 317.0 C 269.2 317.1 269.1 317.2 269.1 317.3 C 269.2 317.7 270.6 316.3 270.7 316.2 C 271.8 314.8 270.1 316.0 269.7 315.5 C 269.5 315.3 270.8 315.1 270.9 315.1 C 271.5 314.9 271.2 314.4 271.7 314.3 C 271.9 314.2 273.3 314.8 273.3 314.5 C 273.3 314.3 273.8 314.0 274.0 313.9 C 274.2 313.7 274.6 313.3 274.1 313.1 C 273.7 313.0 273.4 312.8 273.9 312.8 C 274.3 312.7 276.4 312.1 275.7 311.4 C 275.6 311.3 275.1 311.4 275.1 311.4 C 275.4 310.9 276.9 310.0 276.9 309.4 C 277.0 308.2 277.0 310.0 277.6 309.9 C 278.4 309.7 278.9 309.7 279.6 308.9 C 279.7 308.7 280.4 308.1 279.7 308.0 C 279.3 307.9 279.3 307.6 278.8 307.9 C 279.0 307.1 279.9 307.5 279.9 307.3 C 279.8 307.0 279.4 307.1 279.8 306.8 C 280.3 306.5 280.0 306.5 280.4 306.9 C 280.5 306.9 281.0 306.7 281.0 306.7 C 281.0 306.7 281.1 306.8 281.1 306.8 C 281.4 306.5 281.4 305.3 281.6 305.4 C 281.8 305.4 282.0 306.1 282.1 306.2 C 282.2 306.2 282.2 306.2 282.2 306.2 C 282.4 306.0 282.5 305.4 282.6 305.4 C 282.7 305.4 283.0 306.3 283.0 306.0 C 283.0 305.6 284.0 305.2 284.2 305.4 C 284.4 305.5 285.4 306.2 285.5 306.2 C 285.7 306.1 285.8 306.7 285.9 306.9 C 285.9 307.1 285.7 307.5 285.6 307.6 C 285.6 307.7 285.7 308.1 285.7 308.1 C 285.7 308.1 285.9 308.3 286.0 308.7 C 286.1 309.1 285.9 309.4 285.8 309.9 C 285.8 310.4 286.1 310.6 286.2 311.0 C 286.4 311.4 285.7 312.0 285.7 312.4 C 285.7 312.8 286.2 312.7 286.4 313.2 C 286.5 313.7 286.4 314.0 286.3 313.8 C 286.2 313.7 286.1 313.8 286.1 314.0 C 286.1 314.1 286.0 314.7 286.2 314.9 C 286.3 315.1 286.5 313.6 286.8 315.4 C 286.9 316.3 286.4 317.1 286.4 316.9 C 286.2 316.2 285.6 317.8 285.8 317.7 C 286.2 317.7 286.4 319.3 286.8 318.8 C 286.9 318.7 287.4 320.2 287.3 320.4 C 287.3 320.7 287.5 321.4 287.1 321.7 C 286.9 321.8 287.7 322.6 287.7 322.8 C 287.7 323.0 287.9 324.3 287.8 324.5 C 287.7 324.8 287.6 324.2 287.5 323.9 C 287.5 323.7 287.7 323.2 287.6 323.0 C 287.5 322.8 287.3 323.3 287.4 323.7 C 287.4 324.0 287.1 324.1 287.1 324.4 C 287.2 324.5 287.2 324.7 287.2 324.9 C 287.2 325.0 287.3 325.1 287.4 325.1 C 287.5 325.1 287.6 324.9 287.7 324.9 C 287.8 324.9 288.0 325.1 288.0 325.5 C 288.1 325.9 288.1 326.2 288.0 326.8 C 288.0 327.3 288.1 327.4 288.2 327.7 C 288.3 328.1 288.3 328.4 288.2 328.4 C 288.1 328.5 288.0 328.0 287.9 328.0 C 287.8 328.0 287.6 328.5 287.6 328.7 C 287.7 329.7 286.7 329.1 286.8 330.0 C 286.8 330.6 286.4 330.0 286.1 329.8 C 286.0 329.9 286.0 329.9 285.5 329.9 C 285.5 330.0 285.0 329.7 284.7 329.6 C 284.5 329.6 283.3 329.4 284.1 329.3 C 284.1 329.3 284.2 329.3 284.2 329.3 C 284.2 329.3 284.2 329.3 284.2 329.3 C 284.2 329.3 284.7 329.0 284.7 329.0 C 284.7 329.0 284.2 329.3 284.2 329.3 C 284.2 329.1 284.1 328.9 284.0 328.7 C 284.0 328.7 283.9 328.8 283.8 328.8 C 283.8 328.8 283.8 328.8 283.8 328.8 C 283.8 328.8 283.8 328.8 283.8 328.8 C 283.7 329.0 283.7 329.0 283.5 328.9 C 283.0 329.0 282.2 328.3 281.9 328.1 C 283.2 327.5 281.5 326.9 280.8 326.8 C 280.2 326.8 279.8 328.0 280.1 328.1 C 279.7 327.9 279.6 327.7 279.6 327.3 C 279.6 327.4 279.4 326.5 279.4 326.5 C 278.6 325.8 278.5 326.9 278.2 326.9 C 277.9 326.9 277.5 326.8 277.2 326.8 C 276.9 326.8 277.1 327.1 276.9 327.2 C 276.4 327.5 276.0 326.4 275.7 326.2 C 276.0 326.2 276.3 326.3 276.6 326.2 C 276.2 326.3 276.2 325.7 276.0 325.5 C 275.8 325.3 275.3 325.3 275.0 325.2 C 274.4 325.0 273.8 324.9 273.2 324.9 C 273.4 325.0 274.0 325.9 274.1 325.9 C 273.9 325.9 273.4 325.6 273.5 326.1 C 273.6 326.9 272.3 326.0 272.0 326.0 C 271.3 325.6 270.3 326.1 269.8 325.0 C 269.8 325.0 271.0 325.2 271.0 325.1 C 271.0 324.4 270.8 323.9 269.9 323.8 C 269.8 323.8 268.6 323.9 268.6 324.0 C 268.6 323.9 269.2 325.8 268.4 325.0 C 268.2 324.8 268.7 324.7 268.5 324.5 C 268.2 324.2 267.7 324.2 267.4 324.0 C 267.3 324.0 266.8 323.6 266.7 323.6 C 266.5 323.8 266.4 324.1 266.2 324.1 C 265.9 324.2 265.7 323.9 265.8 323.7 C 265.8 323.6 265.8 323.6 265.8 323.6 C 265.8 323.5 265.7 323.5 265.8 323.3 C 265.7 323.3 265.5 323.3 265.5 323.1 C 265.4 323.0 265.7 323.1 265.8 323.2 C 265.9 323.2 265.9 323.1 266.0 323.0 C 265.6 322.9 265.3 322.9 265.3 322.9 C 264.6 323.1 264.6 323.3 264.0 322.5 C 263.6 321.8 264.7 320.2 265.7 319.6 C 265.9 319.4 266.1 319.3 266.5 319.2 Z M 287.0 325.6 C 287.0 325.6 287.0 325.5 287.0 325.5 C 286.9 325.5 286.7 325.5 286.6 325.6 C 286.6 325.9 286.8 325.5 286.8 325.8 C 286.8 326.1 286.9 326.0 287.0 325.6 Z M 284.9 327.2 C 285.0 327.4 285.0 327.3 285.1 327.1 C 285.0 327.1 284.9 327.1 284.9 327.2 Z M 284.4 328.3 C 284.8 328.3 284.4 327.7 283.8 327.6 C 284.0 328.0 284.2 328.2 284.4 328.3 Z M 283.4 328.5 C 283.4 328.4 283.5 328.4 283.5 328.3 C 283.6 328.2 283.2 328.2 283.2 328.1 C 283.3 328.0 283.8 328.0 283.5 327.8 C 283.5 327.8 283.4 327.7 283.4 327.7 C 283.3 327.7 283.3 327.7 283.2 327.7 C 283.0 327.8 283.1 328.3 283.4 328.5 Z M 285.8 324.1 C 285.9 324.2 285.9 324.1 285.9 324.0 C 285.8 323.8 285.7 323.9 285.8 324.1 Z M 286.5 321.7 C 286.4 321.9 286.5 322.1 286.6 321.9 C 286.8 321.7 286.6 321.5 286.5 321.7 Z M 282.4 321.5 C 282.5 321.6 282.4 321.5 282.4 321.4 C 282.3 321.2 282.3 321.5 282.4 321.5 Z M 280.7 322.8 C 280.5 322.8 280.5 323.2 280.6 323.1 C 280.8 323.0 280.8 322.8 280.7 322.8 Z M 284.5 319.9 C 284.4 319.7 284.3 319.8 284.4 320.0 C 284.6 320.1 284.6 320.0 284.5 319.9 Z M 282.6 322.1 C 282.7 321.8 282.6 321.8 282.5 321.8 C 282.4 321.8 282.3 321.9 282.4 322.1 C 282.5 322.4 282.6 322.4 282.6 322.1 Z M 281.4 323.4 C 280.8 323.2 280.7 323.4 281.4 323.5 C 282.2 323.7 281.7 323.5 281.4 323.4 Z M 286.9 319.9 C 286.8 320.0 287.0 320.3 287.0 320.3 C 287.0 320.3 287.0 319.5 286.9 319.9 Z M 277.6 326.4 C 277.8 326.5 278.0 326.4 277.7 326.2 C 277.4 326.0 277.4 326.3 277.6 326.4 Z M 277.6 325.0 C 277.6 325.6 277.9 325.8 278.0 325.8 C 277.9 325.7 278.2 325.4 278.3 325.4 C 278.7 325.4 279.1 326.0 279.5 325.8 C 280.0 325.7 279.2 325.3 279.0 325.3 C 279.1 325.3 279.2 325.3 279.3 325.2 C 279.3 325.0 279.2 324.9 279.0 325.0 C 278.8 325.0 277.5 324.4 277.6 325.0 Z M 281.5 321.7 C 281.5 322.0 281.8 322.0 281.9 321.8 C 281.9 321.5 281.9 321.3 281.8 321.2 C 281.7 321.2 281.4 321.5 281.5 321.7 Z M 282.6 320.5 C 282.8 320.7 282.7 320.6 282.7 320.4 C 282.6 320.1 282.3 320.4 282.6 320.5 Z M 285.7 313.9 C 285.6 313.8 285.6 314.2 285.8 314.1 C 285.9 314.1 285.9 314.0 285.7 313.9 Z M 283.8 315.7 C 283.6 315.3 283.5 315.8 283.6 315.9 C 283.6 316.0 283.9 315.9 283.8 315.7 Z M 283.6 317.9 C 283.5 317.7 283.5 318.1 283.6 318.1 C 283.7 318.2 283.7 318.0 283.6 317.9 Z M 283.0 318.7 C 282.9 318.6 282.7 318.8 282.9 319.0 C 282.9 319.0 283.0 318.9 283.0 318.7 Z M 275.9 323.8 C 275.9 323.8 276.1 323.4 275.8 323.5 C 275.4 323.6 275.4 323.6 275.9 323.8 Z M 278.7 322.3 C 279.0 322.4 279.3 322.4 279.8 321.6 C 280.3 320.8 279.9 320.9 279.4 321.2 C 278.9 321.4 279.8 320.2 278.9 320.7 C 278.5 320.9 278.4 322.3 278.7 322.3 Z M 281.9 317.6 C 281.7 318.2 282.3 318.7 282.2 318.1 C 282.2 317.5 282.0 317.1 281.9 317.6 Z M 282.1 317.3 C 282.2 317.4 282.2 317.4 282.2 317.2 C 282.1 317.0 282.0 317.2 282.1 317.3 Z M 272.8 325.9 C 273.9 326.1 273.0 325.1 273.0 325.1 C 272.0 324.4 271.7 325.8 272.8 325.9 Z M 281.0 307.4 C 281.0 307.5 281.0 307.5 280.9 307.5 C 280.9 307.5 280.9 307.5 280.9 307.6 C 280.9 307.8 281.3 307.7 281.3 307.7 C 281.2 307.5 281.1 307.4 281.0 307.4 Z M 276.7 310.8 C 276.9 310.7 277.0 310.6 277.0 310.4 C 276.6 310.1 275.3 311.2 276.4 311.4 C 276.5 311.4 277.8 311.3 277.6 310.9 C 277.5 310.7 276.3 311.2 276.7 310.8 Z M 278.4 310.3 C 277.9 310.6 279.3 310.4 279.0 310.2 C 278.8 310.1 278.6 310.1 278.4 310.3 Z M 283.1 308.2 C 283.6 307.4 282.6 306.5 282.0 307.9 C 281.4 309.3 281.7 309.8 282.1 309.2 C 282.5 308.6 282.5 309.5 283.1 308.2 Z M 277.7 312.9 C 277.2 312.1 277.1 312.5 277.3 313.2 C 277.4 313.4 278.0 313.4 277.7 312.9 Z M 276.3 314.3 C 276.0 314.4 276.1 314.4 276.3 314.4 C 276.6 314.5 276.6 314.2 276.3 314.3 Z M 285.1 308.3 C 285.2 307.9 285.2 307.5 285.3 307.7 C 285.5 307.8 285.4 307.7 285.5 307.5 C 285.5 307.2 285.2 307.5 285.1 307.6 C 284.9 307.8 284.9 308.6 285.1 308.3 Z M 281.3 315.7 C 281.3 315.5 281.2 315.7 281.3 315.9 C 281.4 315.9 281.4 315.9 281.3 315.7 Z M 276.3 321.4 C 276.3 321.4 276.4 321.2 276.2 321.2 C 276.0 321.3 276.0 321.3 276.3 321.4 Z M 271.5 325.1 C 271.7 325.1 271.4 324.8 271.7 324.6 C 271.8 324.6 271.8 324.8 271.8 324.9 C 271.8 324.8 272.3 324.2 271.7 324.3 C 271.5 324.4 270.9 325.1 271.5 325.1 Z M 279.6 316.9 C 279.5 317.3 280.7 316.7 280.7 317.0 C 280.7 317.3 280.8 317.2 280.8 316.8 C 280.8 316.5 279.7 316.4 279.6 316.9 Z M 281.9 314.6 C 281.8 314.8 281.8 315.6 281.9 315.3 C 282.1 314.9 282.0 314.5 282.2 314.7 C 282.3 314.8 282.3 314.7 282.3 314.5 C 282.4 314.2 282.0 314.5 281.9 314.6 Z M 285.8 310.9 C 285.8 311.1 285.9 311.5 286.0 311.2 C 286.1 311.0 285.9 310.8 285.8 310.9 Z M 274.3 320.5 C 274.5 320.4 274.6 320.3 274.2 320.2 C 273.9 320.2 274.0 320.5 274.3 320.5 Z M 284.9 310.6 C 284.8 311.0 285.1 310.5 285.1 310.8 C 285.1 311.1 285.2 311.1 285.2 310.7 C 285.2 310.3 284.9 310.1 284.9 310.6 Z M 270.0 323.0 C 270.2 323.0 270.2 322.7 270.1 322.8 C 269.9 322.8 269.9 323.1 270.0 323.0 Z M 271.1 321.1 C 271.1 321.2 271.2 321.2 271.3 321.3 C 272.8 321.6 270.7 320.3 271.1 321.1 Z M 273.5 319.2 C 273.3 319.6 273.8 319.4 273.8 319.4 C 273.8 319.2 273.7 319.2 273.5 319.2 Z M 276.1 317.0 C 276.0 316.8 275.8 317.1 276.0 317.2 C 276.1 317.3 276.1 317.1 276.1 317.0 Z M 267.4 323.7 C 267.6 323.8 267.6 323.7 267.5 323.6 C 267.4 323.5 267.2 323.6 267.4 323.7 Z M 273.7 318.1 C 273.7 318.2 273.7 318.2 273.8 318.0 C 273.9 317.9 273.7 318.0 273.7 318.1 Z M 281.5 311.3 C 281.5 311.4 281.5 311.5 281.5 311.6 C 281.7 311.7 282.2 311.4 282.3 311.5 C 282.3 311.5 282.3 311.5 282.4 311.6 C 282.4 311.6 282.4 311.6 282.4 311.6 C 282.5 311.7 282.4 311.8 282.4 311.8 C 282.3 311.9 282.3 311.9 282.2 312.1 C 282.5 312.1 282.7 312.0 282.8 311.8 C 282.8 311.5 282.5 311.1 282.3 310.9 C 282.1 310.9 282.0 311.0 281.8 311.0 C 281.8 311.0 281.9 311.1 281.9 311.1 C 281.9 311.3 281.9 311.5 281.7 311.4 C 281.7 311.3 281.6 311.2 281.7 311.1 C 281.6 311.2 281.5 311.2 281.5 311.3 Z M 274.4 316.9 C 274.3 317.1 274.5 317.1 274.8 316.9 C 275.0 316.8 274.5 316.6 274.4 316.9 Z M 267.5 323.2 C 267.5 323.1 267.6 323.0 267.6 322.9 C 267.5 323.0 267.5 323.0 267.4 323.0 C 267.3 323.1 267.1 323.2 266.9 323.3 C 267.1 323.4 267.3 323.5 267.5 323.2 Z M 269.1 320.5 C 269.0 320.6 268.1 321.4 268.4 321.4 C 268.9 321.5 268.8 322.2 269.4 321.5 C 269.7 321.2 269.5 320.5 269.8 320.1 C 271.1 318.3 268.9 320.0 268.4 320.3 C 268.3 320.4 269.1 320.4 269.1 320.5 Z M 270.8 318.1 C 270.7 317.9 270.3 318.0 270.2 318.1 C 269.9 318.5 270.9 318.4 270.8 318.1 Z M 266.0 321.9 C 266.0 321.9 266.0 322.0 266.1 322.0 C 266.1 321.9 266.0 321.9 266.0 321.8 C 266.0 321.8 266.0 321.9 266.0 321.9 Z M 264.7 322.7 C 265.5 322.9 264.7 322.0 264.4 321.9 C 264.0 321.7 264.2 322.6 264.7 322.7 Z M 268.9 318.4 C 269.2 318.2 268.8 316.9 268.2 317.4 C 267.7 317.9 268.1 319.0 268.9 318.4 Z M 271.3 314.2 C 271.3 314.5 270.8 314.6 270.8 314.3 C 270.9 314.1 271.3 314.1 271.3 314.2 Z M 265.7 318.1 C 265.8 318.1 265.8 318.3 265.8 318.3 C 265.6 318.2 265.6 318.2 265.7 318.1 Z M 266.8 318.4 C 266.6 318.5 266.3 318.6 266.2 318.7 C 266.0 318.7 266.3 318.4 266.3 318.4 C 266.5 318.3 266.7 318.5 266.8 318.4 Z M 269.6 316.2 C 269.4 316.2 269.6 316.0 269.7 315.9 C 269.8 315.8 269.8 316.1 269.6 316.2 Z M 268.8 316.5 C 268.9 316.4 268.9 316.6 268.8 316.7 C 268.6 316.8 268.6 316.5 268.8 316.5 Z M 270.4 316.0 C 270.1 316.4 269.8 316.8 269.6 316.5 C 269.5 316.4 270.8 315.4 270.4 316.0 Z M 270.4 316.0 " fill="#EB5C56"></path></g></svg>