<?xml version="1.0" encoding="UTF-8"?><svg xmlns="http://www.w3.org/2000/svg" xmlns:xlink="http://www.w3.org/1999/xlink" clip-rule="evenodd" stroke-miterlimit="4.00" viewBox="0 0 1920 1080"><desc>SVG generated by Keynote</desc><defs></defs><g transform="matrix(1.00, 0.00, -0.00, -1.00, 0.0, 1080.0)"><path d="M 0.0 0.0 L 1920.0 0.0 L 1920.0 1080.0 L 0.0 1080.0 Z M 0.0 0.0 " fill="#FEFFFF"></path><path d="M 0.0 0.0 L 1325.4 0.0 L 1325.4 828.4 L 0.0 828.4 Z M 0.0 0.0 " fill="none" stroke="#2F7FAD" stroke-width="10.00" transform="matrix(1.00, 0.00, 0.00, -1.00, 354.8, 879.5)"></path><image xlink:href="860796C3D48EE6F8B5DBE2D5B3A017BC.png" width="476.00" height="402.00" transform="matrix(1.00, 0.00, -0.00, -1.00, 538.0, 511.0)"></image><image xlink:href="4FF5EDC8992B334BF3F8B947ED6B81B2.png" width="318.00" height="318.00" transform="matrix(1.56, 0.00, -0.00, -1.56, 1021.0, 546.0)"></image><image xlink:href="98895F937B133D4F68A1DB4FBC50EBF5.png" width="496.00" height="308.00" transform="matrix(1.00, 0.00, -0.00, -1.00, 514.0, 861.0)"></image><image xlink:href="DD3C1455F8A0C952C11AAACBE75912FB.png" width="256.00" height="256.00" transform="matrix(1.23, 0.00, -0.00, -1.23, 1110.0, 865.0)"></image><text xml:space="preserve" font-family="Helvetica-Bold" font-weight="bold" font-size="84.0" fill="#000000" transform="matrix(1.00, 0.00, -0.00, -1.00, 686.0, 977.0)">M</text><text xml:space="preserve" font-family="Helvetica-Bold" font-weight="bold" font-size="84.0" fill="#000000" transform="matrix(1.00, 0.00, -0.00, -1.00, 756.0, 977.0)">a</text><text xml:space="preserve" font-family="Helvetica-Bold" font-weight="bold" font-size="84.0" fill="#000000" transform="matrix(1.00, 0.00, -0.00, -1.00, 802.7, 977.0)">i</text><text xml:space="preserve" font-family="Helvetica-Bold" font-weight="bold" font-size="84.0" fill="#000000" transform="matrix(1.00, 0.00, -0.00, -1.00, 826.0, 977.0)">n</text><text xml:space="preserve" font-family="Helvetica-Bold" font-weight="bold" font-size="84.0" fill="#000000" transform="matrix(1.00, 0.00, -0.00, -1.00, 877.3, 977.0)"> </text><text xml:space="preserve" font-family="Helvetica-Bold" font-weight="bold" font-size="84.0" fill="#000000" transform="matrix(1.00, 0.00, -0.00, -1.00, 900.6, 977.0)">L</text><text xml:space="preserve" font-family="Helvetica-Bold" font-weight="bold" font-size="84.0" fill="#000000" transform="matrix(1.00, 0.00, -0.00, -1.00, 951.9, 977.0)">i</text><text xml:space="preserve" font-family="Helvetica-Bold" font-weight="bold" font-size="84.0" fill="#000000" transform="matrix(1.00, 0.00, -0.00, -1.00, 975.3, 977.0)">b</text><text xml:space="preserve" font-family="Helvetica-Bold" font-weight="bold" font-size="84.0" fill="#000000" transform="matrix(1.00, 0.00, -0.00, -1.00, 1026.6, 977.0)">r</text><text xml:space="preserve" font-family="Helvetica-Bold" font-weight="bold" font-size="84.0" fill="#000000" transform="matrix(1.00, 0.00, -0.00, -1.00, 1059.3, 977.0)">a</text><text xml:space="preserve" font-family="Helvetica-Bold" font-weight="bold" font-size="84.0" fill="#000000" transform="matrix(1.00, 0.00, -0.00, -1.00, 1106.0, 977.0)">r</text><text xml:space="preserve" font-family="Helvetica-Bold" font-weight="bold" font-size="84.0" fill="#000000" transform="matrix(1.00, 0.00, -0.00, -1.00, 1138.7, 977.0)">i</text><text xml:space="preserve" font-family="Helvetica-Bold" font-weight="bold" font-size="84.0" fill="#000000" transform="matrix(1.00, 0.00, -0.00, -1.00, 1162.0, 977.0)">e</text><text xml:space="preserve" font-family="Helvetica-Bold" font-weight="bold" font-size="84.0" fill="#000000" transform="matrix(1.00, 0.00, -0.00, -1.00, 1208.8, 977.0)">s</text></g></svg>