<?xml version="1.0" encoding="UTF-8"?><svg xmlns="http://www.w3.org/2000/svg" xmlns:xlink="http://www.w3.org/1999/xlink" clip-rule="evenodd" stroke-miterlimit="4.00" viewBox="0 0 1920 1080"><desc>SVG generated by Keynote</desc><defs></defs><g transform="matrix(1.00, 0.00, -0.00, -1.00, 0.0, 1080.0)"><path d="M 0.0 0.0 L 1920.0 0.0 L 1920.0 1080.0 L 0.0 1080.0 Z M 0.0 0.0 " fill="#FEFFFF"></path><text xml:space="preserve" font-family="Helvetica-Light" font-size="109.8" fill="#000000" transform="matrix(1.00, 0.00, -0.00, -1.00, 551.0, 967.0)">C</text><text xml:space="preserve" font-family="Helvetica-Light" font-size="109.8" fill="#000000" transform="matrix(1.00, 0.00, -0.00, -1.00, 630.2, 967.0)">o</text><text xml:space="preserve" font-family="Helvetica-Light" font-size="109.8" fill="#000000" transform="matrix(1.00, 0.00, -0.00, -1.00, 691.3, 967.0)">n</text><text xml:space="preserve" font-family="Helvetica-Light" font-size="109.8" fill="#000000" transform="matrix(1.00, 0.00, -0.00, -1.00, 752.3, 967.0)">n</text><text xml:space="preserve" font-family="Helvetica-Light" font-size="109.8" fill="#000000" transform="matrix(1.00, 0.00, -0.00, -1.00, 813.3, 967.0)">e</text><text xml:space="preserve" font-family="Helvetica-Light" font-size="109.8" fill="#000000" transform="matrix(1.00, 0.00, -0.00, -1.00, 874.4, 967.0)">c</text><text xml:space="preserve" font-family="Helvetica-Light" font-size="109.8" fill="#000000" transform="matrix(1.00, 0.00, -0.00, -1.00, 935.4, 967.0)">t</text><text xml:space="preserve" font-family="Helvetica-Light" font-size="109.8" fill="#000000" transform="matrix(1.00, 0.00, -0.00, -1.00, 965.9, 967.0)">e</text><text xml:space="preserve" font-family="Helvetica-Light" font-size="109.8" fill="#000000" transform="matrix(1.00, 0.00, -0.00, -1.00, 1026.9, 967.0)">d</text><text xml:space="preserve" font-family="Helvetica-Light" font-size="109.8" fill="#000000" transform="matrix(1.00, 0.00, -0.00, -1.00, 1094.0, 967.0)"> </text><text xml:space="preserve" font-family="Helvetica-Light" font-size="109.8" fill="#000000" transform="matrix(1.00, 0.00, -0.00, -1.00, 1124.5, 967.0)">H</text><text xml:space="preserve" font-family="Helvetica-Light" font-size="109.8" fill="#000000" transform="matrix(1.00, 0.00, -0.00, -1.00, 1203.7, 967.0)">O</text><text xml:space="preserve" font-family="Helvetica-Light" font-size="109.8" fill="#000000" transform="matrix(1.00, 0.00, -0.00, -1.00, 1289.1, 967.0)">C</text><image xlink:href="4CADC9BD84056FE48C35F67F79EA3FEE.png" width="913.00" height="540.00" transform="matrix(1.72, 0.00, -0.00, -1.72, 176.0, 940.0)"></image></g></svg>