<?xml version="1.0" encoding="UTF-8"?><svg xmlns="http://www.w3.org/2000/svg" xmlns:xlink="http://www.w3.org/1999/xlink" clip-rule="evenodd" stroke-miterlimit="4.00" viewBox="0 0 1037 99"><desc>SVG generated by Keynote</desc><defs></defs><g transform="matrix(1.00, 0.00, -0.00, -1.00, 0.0, 99.0)"><text xml:space="preserve" font-family="Helvetica-Light" font-size="100.0" fill="#000000" transform="matrix(1.00, 0.00, -0.00, -1.00, 0.0, 24.0)">A</text><text xml:space="preserve" font-family="Helvetica-Light" font-size="100.0" fill="#000000" transform="matrix(1.00, 0.00, -0.00, -1.00, 66.7, 24.0)">d</text><text xml:space="preserve" font-family="Helvetica-Light" font-size="100.0" fill="#000000" transform="matrix(1.00, 0.00, -0.00, -1.00, 127.8, 24.0)">d</text><text xml:space="preserve" font-family="Helvetica-Light" font-size="100.0" fill="#000000" transform="matrix(1.00, 0.00, -0.00, -1.00, 188.9, 24.0)">i</text><text xml:space="preserve" font-family="Helvetica-Light" font-size="100.0" fill="#000000" transform="matrix(1.00, 0.00, -0.00, -1.00, 211.1, 24.0)">n</text><text xml:space="preserve" font-family="Helvetica-Light" font-size="100.0" fill="#000000" transform="matrix(1.00, 0.00, -0.00, -1.00, 266.7, 24.0)">g</text><text xml:space="preserve" font-family="Helvetica-Light" font-size="100.0" fill="#000000" transform="matrix(1.00, 0.00, -0.00, -1.00, 327.8, 24.0)"> </text><text xml:space="preserve" font-family="Helvetica-Light" font-size="100.0" fill="#000000" transform="matrix(1.00, 0.00, -0.00, -1.00, 355.6, 24.0)">C</text><text xml:space="preserve" font-family="Helvetica-Light" font-size="100.0" fill="#000000" transform="matrix(1.00, 0.00, -0.00, -1.00, 427.8, 24.0)">u</text><text xml:space="preserve" font-family="Helvetica-Light" font-size="100.0" fill="#000000" transform="matrix(1.00, 0.00, -0.00, -1.00, 483.4, 24.0)">s</text><text xml:space="preserve" font-family="Helvetica-Light" font-size="100.0" fill="#000000" transform="matrix(1.00, 0.00, -0.00, -1.00, 533.4, 24.0)">t</text><text xml:space="preserve" font-family="Helvetica-Light" font-size="100.0" fill="#000000" transform="matrix(1.00, 0.00, -0.00, -1.00, 561.2, 24.0)">o</text><text xml:space="preserve" font-family="Helvetica-Light" font-size="100.0" fill="#000000" transform="matrix(1.00, 0.00, -0.00, -1.00, 616.8, 24.0)">m</text><text xml:space="preserve" font-family="Helvetica-Light" font-size="100.0" fill="#000000" transform="matrix(1.00, 0.00, -0.00, -1.00, 700.1, 24.0)">i</text><text xml:space="preserve" font-family="Helvetica-Light" font-size="100.0" fill="#000000" transform="matrix(1.00, 0.00, -0.00, -1.00, 722.3, 24.0)">z</text><text xml:space="preserve" font-family="Helvetica-Light" font-size="100.0" fill="#000000" transform="matrix(1.00, 0.00, -0.00, -1.00, 772.3, 24.0)">a</text><text xml:space="preserve" font-family="Helvetica-Light" font-size="100.0" fill="#000000" transform="matrix(1.00, 0.00, -0.00, -1.00, 827.9, 24.0)">t</text><text xml:space="preserve" font-family="Helvetica-Light" font-size="100.0" fill="#000000" transform="matrix(1.00, 0.00, -0.00, -1.00, 855.7, 24.0)">i</text><text xml:space="preserve" font-family="Helvetica-Light" font-size="100.0" fill="#000000" transform="matrix(1.00, 0.00, -0.00, -1.00, 877.9, 24.0)">o</text><text xml:space="preserve" font-family="Helvetica-Light" font-size="100.0" fill="#000000" transform="matrix(1.00, 0.00, -0.00, -1.00, 933.5, 24.0)">n</text><text xml:space="preserve" font-family="Helvetica-Light" font-size="100.0" fill="#000000" transform="matrix(1.00, 0.00, -0.00, -1.00, 989.1, 24.0)">s</text></g></svg>