<?xml version="1.0" encoding="UTF-8"?><svg xmlns="http://www.w3.org/2000/svg" xmlns:xlink="http://www.w3.org/1999/xlink" clip-rule="evenodd" stroke-miterlimit="4.00" viewBox="0 0 1920 1080"><desc>SVG generated by Keynote</desc><defs></defs><g transform="matrix(1.00, 0.00, -0.00, -1.00, 0.0, 1080.0)"><path d="M 0.0 0.0 L 1920.0 0.0 L 1920.0 1080.0 L 0.0 1080.0 Z M 0.0 0.0 " fill="#FEFFFF"></path><text xml:space="preserve" font-family="Helvetica-Light" font-size="100.0" fill="#000000" transform="matrix(1.00, 0.00, -0.00, -1.00, 685.0, 413.0)">f</text><text xml:space="preserve" font-family="Helvetica-Light" font-size="100.0" fill="#000000" transform="matrix(1.00, 0.00, -0.00, -1.00, 712.8, 413.0)">o</text><text xml:space="preserve" font-family="Helvetica-Light" font-size="100.0" fill="#000000" transform="matrix(1.00, 0.00, -0.00, -1.00, 768.4, 413.0)">r</text><text xml:space="preserve" font-family="Helvetica-Light" font-size="100.0" fill="#000000" transform="matrix(1.00, 0.00, -0.00, -1.00, 829.5, 413.0)">t</text><text xml:space="preserve" font-family="Helvetica-Light" font-size="100.0" fill="#000000" transform="matrix(1.00, 0.00, -0.00, -1.00, 857.3, 413.0)">h</text><text xml:space="preserve" font-family="Helvetica-Light" font-size="100.0" fill="#000000" transform="matrix(1.00, 0.00, -0.00, -1.00, 912.9, 413.0)">e</text><text xml:space="preserve" font-family="Helvetica-Light" font-size="100.0" fill="#000000" transform="matrix(1.00, 0.00, -0.00, -1.00, 996.3, 413.0)">c</text><text xml:space="preserve" font-family="Helvetica-Light" font-size="100.0" fill="#000000" transform="matrix(1.00, 0.00, -0.00, -1.00, 1051.9, 413.0)">l</text><text xml:space="preserve" font-family="Helvetica-Light" font-size="100.0" fill="#000000" transform="matrix(1.00, 0.00, -0.00, -1.00, 1074.1, 413.0)">i</text><text xml:space="preserve" font-family="Helvetica-Light" font-size="100.0" fill="#000000" transform="matrix(1.00, 0.00, -0.00, -1.00, 1096.3, 413.0)">e</text><text xml:space="preserve" font-family="Helvetica-Light" font-size="100.0" fill="#000000" transform="matrix(1.00, 0.00, -0.00, -1.00, 1151.9, 413.0)">n</text><text xml:space="preserve" font-family="Helvetica-Light" font-size="100.0" fill="#000000" transform="matrix(1.00, 0.00, -0.00, -1.00, 1207.5, 413.0)">t</text><text xml:space="preserve" font-family="Helvetica-Light" font-size="100.0" fill="#000000" transform="matrix(1.00, 0.00, -0.00, -1.00, 440.0, 545.0)">A</text><text xml:space="preserve" font-family="Helvetica-Light" font-size="100.0" fill="#000000" transform="matrix(1.00, 0.00, -0.00, -1.00, 506.7, 545.0)">d</text><text xml:space="preserve" font-family="Helvetica-Light" font-size="100.0" fill="#000000" transform="matrix(1.00, 0.00, -0.00, -1.00, 567.8, 545.0)">d</text><text xml:space="preserve" font-family="Helvetica-Light" font-size="100.0" fill="#000000" transform="matrix(1.00, 0.00, -0.00, -1.00, 628.9, 545.0)">i</text><text xml:space="preserve" font-family="Helvetica-Light" font-size="100.0" fill="#000000" transform="matrix(1.00, 0.00, -0.00, -1.00, 651.1, 545.0)">n</text><text xml:space="preserve" font-family="Helvetica-Light" font-size="100.0" fill="#000000" transform="matrix(1.00, 0.00, -0.00, -1.00, 706.7, 545.0)">g</text><text xml:space="preserve" font-family="Helvetica-Light" font-size="100.0" fill="#000000" transform="matrix(1.00, 0.00, -0.00, -1.00, 767.8, 545.0)"> </text><text xml:space="preserve" font-family="Helvetica-Light" font-size="100.0" fill="#000000" transform="matrix(1.00, 0.00, -0.00, -1.00, 795.6, 545.0)">C</text><text xml:space="preserve" font-family="Helvetica-Light" font-size="100.0" fill="#000000" transform="matrix(1.00, 0.00, -0.00, -1.00, 867.8, 545.0)">u</text><text xml:space="preserve" font-family="Helvetica-Light" font-size="100.0" fill="#000000" transform="matrix(1.00, 0.00, -0.00, -1.00, 923.4, 545.0)">s</text><text xml:space="preserve" font-family="Helvetica-Light" font-size="100.0" fill="#000000" transform="matrix(1.00, 0.00, -0.00, -1.00, 973.4, 545.0)">t</text><text xml:space="preserve" font-family="Helvetica-Light" font-size="100.0" fill="#000000" transform="matrix(1.00, 0.00, -0.00, -1.00, 1001.2, 545.0)">o</text><text xml:space="preserve" font-family="Helvetica-Light" font-size="100.0" fill="#000000" transform="matrix(1.00, 0.00, -0.00, -1.00, 1056.8, 545.0)">m</text><text xml:space="preserve" font-family="Helvetica-Light" font-size="100.0" fill="#000000" transform="matrix(1.00, 0.00, -0.00, -1.00, 1140.1, 545.0)">i</text><text xml:space="preserve" font-family="Helvetica-Light" font-size="100.0" fill="#000000" transform="matrix(1.00, 0.00, -0.00, -1.00, 1162.3, 545.0)">z</text><text xml:space="preserve" font-family="Helvetica-Light" font-size="100.0" fill="#000000" transform="matrix(1.00, 0.00, -0.00, -1.00, 1212.3, 545.0)">a</text><text xml:space="preserve" font-family="Helvetica-Light" font-size="100.0" fill="#000000" transform="matrix(1.00, 0.00, -0.00, -1.00, 1267.9, 545.0)">t</text><text xml:space="preserve" font-family="Helvetica-Light" font-size="100.0" fill="#000000" transform="matrix(1.00, 0.00, -0.00, -1.00, 1295.7, 545.0)">i</text><text xml:space="preserve" font-family="Helvetica-Light" font-size="100.0" fill="#000000" transform="matrix(1.00, 0.00, -0.00, -1.00, 1317.9, 545.0)">o</text><text xml:space="preserve" font-family="Helvetica-Light" font-size="100.0" fill="#000000" transform="matrix(1.00, 0.00, -0.00, -1.00, 1373.5, 545.0)">n</text><text xml:space="preserve" font-family="Helvetica-Light" font-size="100.0" fill="#000000" transform="matrix(1.00, 0.00, -0.00, -1.00, 1429.1, 545.0)">s</text><text xml:space="preserve" font-family="Helvetica-Light" font-size="112.0" fill="#000000" transform="matrix(1.00, 0.00, -0.00, -1.00, 506.0, 874.0)">E</text><text xml:space="preserve" font-family="Helvetica-Light" font-size="112.0" fill="#000000" transform="matrix(1.00, 0.00, -0.00, -1.00, 574.4, 874.0)">n</text><text xml:space="preserve" font-family="Helvetica-Light" font-size="112.0" fill="#000000" transform="matrix(1.00, 0.00, -0.00, -1.00, 636.7, 874.0)">t</text><text xml:space="preserve" font-family="Helvetica-Light" font-size="112.0" fill="#000000" transform="matrix(1.00, 0.00, -0.00, -1.00, 667.8, 874.0)">e</text><text xml:space="preserve" font-family="Helvetica-Light" font-size="112.0" fill="#000000" transform="matrix(1.00, 0.00, -0.00, -1.00, 730.1, 874.0)">r</text><text xml:space="preserve" font-family="Helvetica-Light" font-size="112.0" fill="#000000" transform="matrix(1.00, 0.00, -0.00, -1.00, 767.4, 874.0)">p</text><text xml:space="preserve" font-family="Helvetica-Light" font-size="112.0" fill="#000000" transform="matrix(1.00, 0.00, -0.00, -1.00, 835.8, 874.0)">r</text><text xml:space="preserve" font-family="Helvetica-Light" font-size="112.0" fill="#000000" transform="matrix(1.00, 0.00, -0.00, -1.00, 873.1, 874.0)">i</text><text xml:space="preserve" font-family="Helvetica-Light" font-size="112.0" fill="#000000" transform="matrix(1.00, 0.00, -0.00, -1.00, 898.0, 874.0)">s</text><text xml:space="preserve" font-family="Helvetica-Light" font-size="112.0" fill="#000000" transform="matrix(1.00, 0.00, -0.00, -1.00, 954.0, 874.0)">e</text><text xml:space="preserve" font-family="Helvetica-Light" font-size="112.0" fill="#000000" transform="matrix(1.00, 0.00, -0.00, -1.00, 1016.3, 874.0)"> </text><text xml:space="preserve" font-family="Helvetica-Light" font-size="112.0" fill="#000000" transform="matrix(1.00, 0.00, -0.00, -1.00, 1047.4, 874.0)"> </text><text xml:space="preserve" font-family="Helvetica-Light" font-size="112.0" fill="#000000" transform="matrix(1.00, 0.00, -0.00, -1.00, 1078.5, 874.0)"> </text><text xml:space="preserve" font-family="Helvetica-Light" font-size="112.0" fill="#000000" transform="matrix(1.00, 0.00, -0.00, -1.00, 1109.7, 874.0)"> </text><text xml:space="preserve" font-family="Helvetica-Light" font-size="112.0" fill="#000000" transform="matrix(1.00, 0.00, -0.00, -1.00, 1140.8, 874.0)"> </text><text xml:space="preserve" font-family="Helvetica-Light" font-size="112.0" fill="#000000" transform="matrix(1.00, 0.00, -0.00, -1.00, 1172.0, 874.0)"> </text><text xml:space="preserve" font-family="Helvetica-Light" font-size="112.0" fill="#000000" transform="matrix(1.00, 0.00, -0.00, -1.00, 1203.1, 874.0)">A</text><text xml:space="preserve" font-family="Helvetica-Light" font-size="112.0" fill="#000000" transform="matrix(1.00, 0.00, -0.00, -1.00, 1277.8, 874.0)">p</text><text xml:space="preserve" font-family="Helvetica-Light" font-size="112.0" fill="#000000" transform="matrix(1.00, 0.00, -0.00, -1.00, 1346.2, 874.0)">p</text><g><clipPath id="clip-7"><path d="M 1036.0 981.0 L 1176.0 981.0 L 1176.0 849.0 L 1036.0 849.0 Z M 1035.6 980.6 "></path></clipPath><g clip-path="url(#clip-7)"><image xlink:href="../../075F27DC-BE00-4EE2-B0AF-B9D4985033FB/assets/AE6ACFDE48F7D01A1D92CDA4B3CED7DF.jpeg" width="485.00" height="453.00" transform="matrix(0.29, 0.00, -0.00, -0.29, 1036.0, 981.0)"></image></g></g></g></svg>