<?xml version="1.0" encoding="UTF-8"?><svg xmlns="http://www.w3.org/2000/svg" xmlns:xlink="http://www.w3.org/1999/xlink" clip-rule="evenodd" stroke-miterlimit="4.00" viewBox="0 0 1007 96"><desc>SVG generated by Keynote</desc><defs></defs><g transform="matrix(1.00, 0.00, -0.00, -1.00, 0.0, 96.0)"><text xml:space="preserve" font-family="Helvetica-Light" font-size="100.0" fill="#000000" transform="matrix(1.00, 0.00, -0.00, -1.00, -8.0, 23.0)">I</text><text xml:space="preserve" font-family="Helvetica-Light" font-size="100.0" fill="#000000" transform="matrix(1.00, 0.00, -0.00, -1.00, 19.8, 23.0)">m</text><text xml:space="preserve" font-family="Helvetica-Light" font-size="100.0" fill="#000000" transform="matrix(1.00, 0.00, -0.00, -1.00, 103.1, 23.0)">p</text><text xml:space="preserve" font-family="Helvetica-Light" font-size="100.0" fill="#000000" transform="matrix(1.00, 0.00, -0.00, -1.00, 164.2, 23.0)">o</text><text xml:space="preserve" font-family="Helvetica-Light" font-size="100.0" fill="#000000" transform="matrix(1.00, 0.00, -0.00, -1.00, 219.8, 23.0)">r</text><text xml:space="preserve" font-family="Helvetica-Light" font-size="100.0" fill="#000000" transform="matrix(1.00, 0.00, -0.00, -1.00, 254.9, 23.0)">t</text><text xml:space="preserve" font-family="Helvetica-Light" font-size="100.0" fill="#000000" transform="matrix(1.00, 0.00, -0.00, -1.00, 282.7, 23.0)">a</text><text xml:space="preserve" font-family="Helvetica-Light" font-size="100.0" fill="#000000" transform="matrix(1.00, 0.00, -0.00, -1.00, 338.3, 23.0)">n</text><text xml:space="preserve" font-family="Helvetica-Light" font-size="100.0" fill="#000000" transform="matrix(1.00, 0.00, -0.00, -1.00, 393.9, 23.0)">t</text><text xml:space="preserve" font-family="Helvetica-Light" font-size="100.0" fill="#000000" transform="matrix(1.00, 0.00, -0.00, -1.00, 421.7, 23.0)"> </text><text xml:space="preserve" font-family="Helvetica-Light" font-size="100.0" fill="#000000" transform="matrix(1.00, 0.00, -0.00, -1.00, 449.5, 23.0)"> </text><text xml:space="preserve" font-family="Helvetica-Light" font-size="100.0" fill="#000000" transform="matrix(1.00, 0.00, -0.00, -1.00, 477.3, 23.0)"> </text><text xml:space="preserve" font-family="Helvetica-Light" font-size="100.0" fill="#000000" transform="matrix(1.00, 0.00, -0.00, -1.00, 505.1, 23.0)"> </text><text xml:space="preserve" font-family="Helvetica-Light" font-size="100.0" fill="#000000" transform="matrix(1.00, 0.00, -0.00, -1.00, 532.9, 23.0)"> </text><text xml:space="preserve" font-family="Helvetica-Light" font-size="100.0" fill="#000000" transform="matrix(1.00, 0.00, -0.00, -1.00, 560.7, 23.0)"> </text><text xml:space="preserve" font-family="Helvetica-Light" font-size="100.0" fill="#000000" transform="matrix(1.00, 0.00, -0.00, -1.00, 588.5, 23.0)"> </text><text xml:space="preserve" font-family="Helvetica-Light" font-size="100.0" fill="#000000" transform="matrix(1.00, 0.00, -0.00, -1.00, 616.3, 23.0)"> </text><text xml:space="preserve" font-family="Helvetica-Light" font-size="100.0" fill="#000000" transform="matrix(1.00, 0.00, -0.00, -1.00, 644.1, 23.0)"> </text><text xml:space="preserve" font-family="Helvetica-Light" font-size="100.0" fill="#000000" transform="matrix(1.00, 0.00, -0.00, -1.00, 671.9, 23.0)"> </text><text xml:space="preserve" font-family="Helvetica-Light" font-size="100.0" fill="#000000" transform="matrix(1.00, 0.00, -0.00, -1.00, 699.7, 23.0)"> </text><text xml:space="preserve" font-family="Helvetica-Light" font-size="100.0" fill="#000000" transform="matrix(1.00, 0.00, -0.00, -1.00, 727.5, 23.0)"> </text><text xml:space="preserve" font-family="Helvetica-Light" font-size="100.0" fill="#000000" transform="matrix(1.00, 0.00, -0.00, -1.00, 755.3, 23.0)"> </text><text xml:space="preserve" font-family="Helvetica-Light" font-size="100.0" fill="#000000" transform="matrix(1.00, 0.00, -0.00, -1.00, 783.1, 23.0)"> </text><text xml:space="preserve" font-family="Helvetica-Light" font-size="100.0" fill="#000000" transform="matrix(1.00, 0.00, -0.00, -1.00, 810.9, 23.0)"> </text><text xml:space="preserve" font-family="Helvetica-Light" font-size="100.0" fill="#000000" transform="matrix(1.00, 0.00, -0.00, -1.00, 838.7, 23.0)"> </text><text xml:space="preserve" font-family="Helvetica-Light" font-size="100.0" fill="#000000" transform="matrix(1.00, 0.00, -0.00, -1.00, 866.5, 23.0)"> </text><text xml:space="preserve" font-family="Helvetica-Light" font-size="100.0" fill="#000000" transform="matrix(1.00, 0.00, -0.00, -1.00, 894.3, 23.0)"> </text><text xml:space="preserve" font-family="Helvetica-Light" font-size="100.0" fill="#000000" transform="matrix(1.00, 0.00, -0.00, -1.00, 922.1, 23.0)"> </text><text xml:space="preserve" font-family="Helvetica-Light" font-size="100.0" fill="#000000" transform="matrix(1.00, 0.00, -0.00, -1.00, 949.9, 23.0)"> </text><text xml:space="preserve" font-family="Helvetica-Light" font-size="100.0" fill="#000000" transform="matrix(1.00, 0.00, -0.00, -1.00, 977.7, 23.0)"> </text><text xml:space="preserve" font-family="Helvetica-Light" font-size="100.0" fill="#000000" transform="matrix(1.00, 0.00, -0.00, -1.00, 1005.5, 23.0)"> </text></g></svg>