<?xml version="1.0" encoding="UTF-8"?><svg xmlns="http://www.w3.org/2000/svg" xmlns:xlink="http://www.w3.org/1999/xlink" clip-rule="evenodd" stroke-miterlimit="4.00" viewBox="0 0 907 96"><desc>SVG generated by Keynote</desc><defs></defs><g transform="matrix(1.00, 0.00, -0.00, -1.00, 0.0, 96.0)"><text xml:space="preserve" font-family="Helvetica-Light" font-size="100.0" fill="#000000" transform="matrix(1.00, 0.00, -0.00, -1.00, 2.0, 23.0)"> </text><text xml:space="preserve" font-family="Helvetica-Light" font-size="100.0" fill="#000000" transform="matrix(1.00, 0.00, -0.00, -1.00, 29.8, 23.0)">I</text><text xml:space="preserve" font-family="Helvetica-Light" font-size="100.0" fill="#000000" transform="matrix(1.00, 0.00, -0.00, -1.00, 57.6, 23.0)">m</text><text xml:space="preserve" font-family="Helvetica-Light" font-size="100.0" fill="#000000" transform="matrix(1.00, 0.00, -0.00, -1.00, 140.9, 23.0)">p</text><text xml:space="preserve" font-family="Helvetica-Light" font-size="100.0" fill="#000000" transform="matrix(1.00, 0.00, -0.00, -1.00, 202.0, 23.0)">o</text><text xml:space="preserve" font-family="Helvetica-Light" font-size="100.0" fill="#000000" transform="matrix(1.00, 0.00, -0.00, -1.00, 257.6, 23.0)">r</text><text xml:space="preserve" font-family="Helvetica-Light" font-size="100.0" fill="#000000" transform="matrix(1.00, 0.00, -0.00, -1.00, 292.7, 23.0)">t</text><text xml:space="preserve" font-family="Helvetica-Light" font-size="100.0" fill="#000000" transform="matrix(1.00, 0.00, -0.00, -1.00, 320.5, 23.0)">a</text><text xml:space="preserve" font-family="Helvetica-Light" font-size="100.0" fill="#000000" transform="matrix(1.00, 0.00, -0.00, -1.00, 376.1, 23.0)">n</text><text xml:space="preserve" font-family="Helvetica-Light" font-size="100.0" fill="#000000" transform="matrix(1.00, 0.00, -0.00, -1.00, 431.7, 23.0)">t</text><text xml:space="preserve" font-family="Helvetica-Light" font-size="100.0" fill="#000000" transform="matrix(1.00, 0.00, -0.00, -1.00, 459.5, 23.0)"> </text><text xml:space="preserve" font-family="Helvetica-Light" font-size="100.0" fill="#000000" transform="matrix(1.00, 0.00, -0.00, -1.00, 487.3, 23.0)"> </text><text xml:space="preserve" font-family="Helvetica-Light" font-size="100.0" fill="#000000" transform="matrix(1.00, 0.00, -0.00, -1.00, 515.1, 23.0)"> </text><text xml:space="preserve" font-family="Helvetica-Light" font-size="100.0" fill="#000000" transform="matrix(1.00, 0.00, -0.00, -1.00, 542.9, 23.0)"> </text><text xml:space="preserve" font-family="Helvetica-Light" font-size="100.0" fill="#000000" transform="matrix(1.00, 0.00, -0.00, -1.00, 570.7, 23.0)"> </text><text xml:space="preserve" font-family="Helvetica-Light" font-size="100.0" fill="#000000" transform="matrix(1.00, 0.00, -0.00, -1.00, 598.5, 23.0)"> </text><text xml:space="preserve" font-family="Helvetica-Light" font-size="100.0" fill="#000000" transform="matrix(1.00, 0.00, -0.00, -1.00, 626.3, 23.0)"> </text><text xml:space="preserve" font-family="Helvetica-Light" font-size="100.0" fill="#000000" transform="matrix(1.00, 0.00, -0.00, -1.00, 654.1, 23.0)"> </text><text xml:space="preserve" font-family="Helvetica-Light" font-size="100.0" fill="#000000" transform="matrix(1.00, 0.00, -0.00, -1.00, 681.9, 23.0)"> </text><text xml:space="preserve" font-family="Helvetica-Light" font-size="100.0" fill="#000000" transform="matrix(1.00, 0.00, -0.00, -1.00, 709.7, 23.0)"> </text><text xml:space="preserve" font-family="Helvetica-Light" font-size="100.0" fill="#000000" transform="matrix(1.00, 0.00, -0.00, -1.00, 737.5, 23.0)"> </text><text xml:space="preserve" font-family="Helvetica-Light" font-size="100.0" fill="#000000" transform="matrix(1.00, 0.00, -0.00, -1.00, 765.3, 23.0)"> </text><text xml:space="preserve" font-family="Helvetica-Light" font-size="100.0" fill="#000000" transform="matrix(1.00, 0.00, -0.00, -1.00, 793.1, 23.0)"> </text><text xml:space="preserve" font-family="Helvetica-Light" font-size="100.0" fill="#000000" transform="matrix(1.00, 0.00, -0.00, -1.00, 820.9, 23.0)"> </text><text xml:space="preserve" font-family="Helvetica-Light" font-size="100.0" fill="#000000" transform="matrix(1.00, 0.00, -0.00, -1.00, 848.7, 23.0)"> </text><text xml:space="preserve" font-family="Helvetica-Light" font-size="100.0" fill="#000000" transform="matrix(1.00, 0.00, -0.00, -1.00, 876.5, 23.0)"> </text><text xml:space="preserve" font-family="Helvetica-Light" font-size="100.0" fill="#000000" transform="matrix(1.00, 0.00, -0.00, -1.00, 904.3, 23.0)"> </text></g></svg>