<?xml version="1.0" encoding="UTF-8"?><svg xmlns="http://www.w3.org/2000/svg" xmlns:xlink="http://www.w3.org/1999/xlink" clip-rule="evenodd" stroke-miterlimit="4.00" viewBox="0 0 1549 218"><desc>SVG generated by Keynote</desc><defs></defs><g transform="matrix(1.00, 0.00, -0.00, -1.00, 0.0, 218.0)"><text xml:space="preserve" font-family="Helvetica-Light" font-size="100.0" fill="#000000" transform="matrix(1.00, 0.00, -0.00, -1.00, -3.0, 143.0)">s</text><text xml:space="preserve" font-family="Helvetica-Light" font-size="100.0" fill="#000000" transform="matrix(1.00, 0.00, -0.00, -1.00, 47.0, 143.0)">e</text><text xml:space="preserve" font-family="Helvetica-Light" font-size="100.0" fill="#000000" transform="matrix(1.00, 0.00, -0.00, -1.00, 102.6, 143.0)">l</text><text xml:space="preserve" font-family="Helvetica-Light" font-size="100.0" fill="#000000" transform="matrix(1.00, 0.00, -0.00, -1.00, 124.8, 143.0)">e</text><text xml:space="preserve" font-family="Helvetica-Light" font-size="100.0" fill="#000000" transform="matrix(1.00, 0.00, -0.00, -1.00, 180.4, 143.0)">c</text><text xml:space="preserve" font-family="Helvetica-Light" font-size="100.0" fill="#000000" transform="matrix(1.00, 0.00, -0.00, -1.00, 236.0, 143.0)">t</text><text xml:space="preserve" font-family="Helvetica-Light" font-size="100.0" fill="#000000" transform="matrix(1.00, 0.00, -0.00, -1.00, 263.8, 143.0)">i</text><text xml:space="preserve" font-family="Helvetica-Light" font-size="100.0" fill="#000000" transform="matrix(1.00, 0.00, -0.00, -1.00, 286.0, 143.0)">n</text><text xml:space="preserve" font-family="Helvetica-Light" font-size="100.0" fill="#000000" transform="matrix(1.00, 0.00, -0.00, -1.00, 341.6, 143.0)">g</text><text xml:space="preserve" font-family="Helvetica-Light" font-size="100.0" fill="#000000" transform="matrix(1.00, 0.00, -0.00, -1.00, 402.7, 143.0)"> </text><text xml:space="preserve" font-family="Helvetica-Light" font-size="100.0" fill="#000000" transform="matrix(1.00, 0.00, -0.00, -1.00, 430.5, 143.0)">t</text><text xml:space="preserve" font-family="Helvetica-Light" font-size="100.0" fill="#000000" transform="matrix(1.00, 0.00, -0.00, -1.00, 458.3, 143.0)">h</text><text xml:space="preserve" font-family="Helvetica-Light" font-size="100.0" fill="#000000" transform="matrix(1.00, 0.00, -0.00, -1.00, 513.9, 143.0)">e</text><text xml:space="preserve" font-family="Helvetica-Light" font-size="100.0" fill="#000000" transform="matrix(1.00, 0.00, -0.00, -1.00, 569.5, 143.0)"> </text><text xml:space="preserve" font-family="Helvetica-Light" font-size="100.0" fill="#000000" transform="matrix(1.00, 0.00, -0.00, -1.00, 597.3, 143.0)">r</text><text xml:space="preserve" font-family="Helvetica-Light" font-size="100.0" fill="#000000" transform="matrix(1.00, 0.00, -0.00, -1.00, 630.6, 143.0)">i</text><text xml:space="preserve" font-family="Helvetica-Light" font-size="100.0" fill="#000000" transform="matrix(1.00, 0.00, -0.00, -1.00, 652.8, 143.0)">g</text><text xml:space="preserve" font-family="Helvetica-Light" font-size="100.0" fill="#000000" transform="matrix(1.00, 0.00, -0.00, -1.00, 713.9, 143.0)">h</text><text xml:space="preserve" font-family="Helvetica-Light" font-size="100.0" fill="#000000" transform="matrix(1.00, 0.00, -0.00, -1.00, 769.5, 143.0)">t</text><text xml:space="preserve" font-family="Helvetica-Light" font-size="100.0" fill="#000000" transform="matrix(1.00, 0.00, -0.00, -1.00, 797.3, 143.0)"> </text><text xml:space="preserve" font-family="Helvetica-Light" font-size="100.0" fill="#000000" transform="matrix(1.00, 0.00, -0.00, -1.00, 825.1, 143.0)">l</text><text xml:space="preserve" font-family="Helvetica-Light" font-size="100.0" fill="#000000" transform="matrix(1.00, 0.00, -0.00, -1.00, 847.3, 143.0)">i</text><text xml:space="preserve" font-family="Helvetica-Light" font-size="100.0" fill="#000000" transform="matrix(1.00, 0.00, -0.00, -1.00, 869.5, 143.0)">b</text><text xml:space="preserve" font-family="Helvetica-Light" font-size="100.0" fill="#000000" transform="matrix(1.00, 0.00, -0.00, -1.00, 930.6, 143.0)">r</text><text xml:space="preserve" font-family="Helvetica-Light" font-size="100.0" fill="#000000" transform="matrix(1.00, 0.00, -0.00, -1.00, 963.9, 143.0)">a</text><text xml:space="preserve" font-family="Helvetica-Light" font-size="100.0" fill="#000000" transform="matrix(1.00, 0.00, -0.00, -1.00, 1019.5, 143.0)">r</text><text xml:space="preserve" font-family="Helvetica-Light" font-size="100.0" fill="#000000" transform="matrix(1.00, 0.00, -0.00, -1.00, 1052.8, 143.0)">i</text><text xml:space="preserve" font-family="Helvetica-Light" font-size="100.0" fill="#000000" transform="matrix(1.00, 0.00, -0.00, -1.00, 1075.0, 143.0)">e</text><text xml:space="preserve" font-family="Helvetica-Light" font-size="100.0" fill="#000000" transform="matrix(1.00, 0.00, -0.00, -1.00, 1130.6, 143.0)">s</text><text xml:space="preserve" font-family="Helvetica-Light" font-size="100.0" fill="#000000" transform="matrix(1.00, 0.00, -0.00, -1.00, 1180.6, 143.0)"> </text><text xml:space="preserve" font-family="Helvetica-Light" font-size="100.0" fill="#000000" transform="matrix(1.00, 0.00, -0.00, -1.00, 1208.4, 143.0)">f</text><text xml:space="preserve" font-family="Helvetica-Light" font-size="100.0" fill="#000000" transform="matrix(1.00, 0.00, -0.00, -1.00, 1236.2, 143.0)">o</text><text xml:space="preserve" font-family="Helvetica-Light" font-size="100.0" fill="#000000" transform="matrix(1.00, 0.00, -0.00, -1.00, 1291.8, 143.0)">r</text><text xml:space="preserve" font-family="Helvetica-Light" font-size="100.0" fill="#000000" transform="matrix(1.00, 0.00, -0.00, -1.00, 1325.1, 143.0)"> </text><text xml:space="preserve" font-family="Helvetica-Light" font-size="100.0" fill="#000000" transform="matrix(1.00, 0.00, -0.00, -1.00, 1352.9, 143.0)">y</text><text xml:space="preserve" font-family="Helvetica-Light" font-size="100.0" fill="#000000" transform="matrix(1.00, 0.00, -0.00, -1.00, 1402.9, 143.0)">o</text><text xml:space="preserve" font-family="Helvetica-Light" font-size="100.0" fill="#000000" transform="matrix(1.00, 0.00, -0.00, -1.00, 1458.5, 143.0)">u</text><text xml:space="preserve" font-family="Helvetica-Light" font-size="100.0" fill="#000000" transform="matrix(1.00, 0.00, -0.00, -1.00, 1514.1, 143.0)">r</text><text xml:space="preserve" font-family="Helvetica-Light" font-size="100.0" fill="#000000" transform="matrix(1.00, 0.00, -0.00, -1.00, 1547.4, 143.0)"> </text><text xml:space="preserve" font-family="Helvetica-Light" font-size="100.0" fill="#000000" transform="matrix(1.00, 0.00, -0.00, -1.00, 291.0, 23.0)">E</text><text xml:space="preserve" font-family="Helvetica-Light" font-size="100.0" fill="#000000" transform="matrix(1.00, 0.00, -0.00, -1.00, 352.1, 23.0)">n</text><text xml:space="preserve" font-family="Helvetica-Light" font-size="100.0" fill="#000000" transform="matrix(1.00, 0.00, -0.00, -1.00, 407.7, 23.0)">t</text><text xml:space="preserve" font-family="Helvetica-Light" font-size="100.0" fill="#000000" transform="matrix(1.00, 0.00, -0.00, -1.00, 435.5, 23.0)">e</text><text xml:space="preserve" font-family="Helvetica-Light" font-size="100.0" fill="#000000" transform="matrix(1.00, 0.00, -0.00, -1.00, 491.1, 23.0)">r</text><text xml:space="preserve" font-family="Helvetica-Light" font-size="100.0" fill="#000000" transform="matrix(1.00, 0.00, -0.00, -1.00, 524.4, 23.0)">p</text><text xml:space="preserve" font-family="Helvetica-Light" font-size="100.0" fill="#000000" transform="matrix(1.00, 0.00, -0.00, -1.00, 585.5, 23.0)">r</text><text xml:space="preserve" font-family="Helvetica-Light" font-size="100.0" fill="#000000" transform="matrix(1.00, 0.00, -0.00, -1.00, 618.8, 23.0)">i</text><text xml:space="preserve" font-family="Helvetica-Light" font-size="100.0" fill="#000000" transform="matrix(1.00, 0.00, -0.00, -1.00, 641.0, 23.0)">s</text><text xml:space="preserve" font-family="Helvetica-Light" font-size="100.0" fill="#000000" transform="matrix(1.00, 0.00, -0.00, -1.00, 691.0, 23.0)">e</text><text xml:space="preserve" font-family="Helvetica-Light" font-size="100.0" fill="#000000" transform="matrix(1.00, 0.00, -0.00, -1.00, 746.6, 23.0)"> </text><text xml:space="preserve" font-family="Helvetica-Light" font-size="100.0" fill="#000000" transform="matrix(1.00, 0.00, -0.00, -1.00, 774.4, 23.0)">R</text><text xml:space="preserve" font-family="Helvetica-Light" font-size="100.0" fill="#000000" transform="matrix(1.00, 0.00, -0.00, -1.00, 841.1, 23.0)">e</text><text xml:space="preserve" font-family="Helvetica-Light" font-size="100.0" fill="#000000" transform="matrix(1.00, 0.00, -0.00, -1.00, 896.7, 23.0)">a</text><text xml:space="preserve" font-family="Helvetica-Light" font-size="100.0" fill="#000000" transform="matrix(1.00, 0.00, -0.00, -1.00, 952.3, 23.0)">c</text><text xml:space="preserve" font-family="Helvetica-Light" font-size="100.0" fill="#000000" transform="matrix(1.00, 0.00, -0.00, -1.00, 1007.9, 23.0)">t</text><text xml:space="preserve" font-family="Helvetica-Light" font-size="100.0" fill="#000000" transform="matrix(1.00, 0.00, -0.00, -1.00, 1035.7, 23.0)"> </text><text xml:space="preserve" font-family="Helvetica-Light" font-size="100.0" fill="#000000" transform="matrix(1.00, 0.00, -0.00, -1.00, 1063.5, 23.0)">A</text><text xml:space="preserve" font-family="Helvetica-Light" font-size="100.0" fill="#000000" transform="matrix(1.00, 0.00, -0.00, -1.00, 1130.2, 23.0)">p</text><text xml:space="preserve" font-family="Helvetica-Light" font-size="100.0" fill="#000000" transform="matrix(1.00, 0.00, -0.00, -1.00, 1191.3, 23.0)">p</text><text xml:space="preserve" font-family="Helvetica-Light" font-size="100.0" fill="#000000" transform="matrix(1.00, 0.00, -0.00, -1.00, 1252.4, 23.0)"> </text></g></svg>