<?xml version="1.0" encoding="UTF-8"?><svg xmlns="http://www.w3.org/2000/svg" xmlns:xlink="http://www.w3.org/1999/xlink" clip-rule="evenodd" stroke-miterlimit="4.00" viewBox="0 0 1221 88"><desc>SVG generated by Keynote</desc><defs></defs><g transform="matrix(1.00, 0.00, -0.00, -1.00, 0.0, 88.0)"><text xml:space="preserve" font-family="Helvetica-Light" font-size="90.0" fill="#000000" transform="matrix(1.00, 0.00, -0.00, -1.00, -5.0, 22.0)">U</text><text xml:space="preserve" font-family="Helvetica-Light" font-size="90.0" fill="#000000" transform="matrix(1.00, 0.00, -0.00, -1.00, 60.0, 22.0)">s</text><text xml:space="preserve" font-family="Helvetica-Light" font-size="90.0" fill="#000000" transform="matrix(1.00, 0.00, -0.00, -1.00, 105.0, 22.0)">i</text><text xml:space="preserve" font-family="Helvetica-Light" font-size="90.0" fill="#000000" transform="matrix(1.00, 0.00, -0.00, -1.00, 125.0, 22.0)">n</text><text xml:space="preserve" font-family="Helvetica-Light" font-size="90.0" fill="#000000" transform="matrix(1.00, 0.00, -0.00, -1.00, 175.0, 22.0)">g</text><text xml:space="preserve" font-family="Helvetica-Light" font-size="90.0" fill="#000000" transform="matrix(1.00, 0.00, -0.00, -1.00, 230.0, 22.0)"> </text><text xml:space="preserve" font-family="Helvetica-Light" font-size="90.0" fill="#000000" transform="matrix(1.00, 0.00, -0.00, -1.00, 255.0, 22.0)">R</text><text xml:space="preserve" font-family="Helvetica-Light" font-size="90.0" fill="#000000" transform="matrix(1.00, 0.00, -0.00, -1.00, 315.0, 22.0)">e</text><text xml:space="preserve" font-family="Helvetica-Light" font-size="90.0" fill="#000000" transform="matrix(1.00, 0.00, -0.00, -1.00, 365.1, 22.0)">a</text><text xml:space="preserve" font-family="Helvetica-Light" font-size="90.0" fill="#000000" transform="matrix(1.00, 0.00, -0.00, -1.00, 415.1, 22.0)">c</text><text xml:space="preserve" font-family="Helvetica-Light" font-size="90.0" fill="#000000" transform="matrix(1.00, 0.00, -0.00, -1.00, 465.2, 22.0)">t</text><text xml:space="preserve" font-family="Helvetica-Light" font-size="90.0" fill="#000000" transform="matrix(1.00, 0.00, -0.00, -1.00, 490.2, 22.0)"> </text><text xml:space="preserve" font-family="Helvetica-Light" font-size="90.0" fill="#000000" transform="matrix(1.00, 0.00, -0.00, -1.00, 515.2, 22.0)">p</text><text xml:space="preserve" font-family="Helvetica-Light" font-size="90.0" fill="#000000" transform="matrix(1.00, 0.00, -0.00, -1.00, 570.2, 22.0)">a</text><text xml:space="preserve" font-family="Helvetica-Light" font-size="90.0" fill="#000000" transform="matrix(1.00, 0.00, -0.00, -1.00, 620.2, 22.0)">t</text><text xml:space="preserve" font-family="Helvetica-Light" font-size="90.0" fill="#000000" transform="matrix(1.00, 0.00, -0.00, -1.00, 645.2, 22.0)">t</text><text xml:space="preserve" font-family="Helvetica-Light" font-size="90.0" fill="#000000" transform="matrix(1.00, 0.00, -0.00, -1.00, 670.3, 22.0)">e</text><text xml:space="preserve" font-family="Helvetica-Light" font-size="90.0" fill="#000000" transform="matrix(1.00, 0.00, -0.00, -1.00, 720.3, 22.0)">r</text><text xml:space="preserve" font-family="Helvetica-Light" font-size="90.0" fill="#000000" transform="matrix(1.00, 0.00, -0.00, -1.00, 751.9, 22.0)">n</text><text xml:space="preserve" font-family="Helvetica-Light" font-size="90.0" fill="#000000" transform="matrix(1.00, 0.00, -0.00, -1.00, 801.9, 22.0)">s</text><text xml:space="preserve" font-family="Helvetica-Light" font-size="90.0" fill="#000000" transform="matrix(1.00, 0.00, -0.00, -1.00, 846.9, 22.0)"> </text><text xml:space="preserve" font-family="Helvetica-Light" font-size="90.0" fill="#000000" transform="matrix(1.00, 0.00, -0.00, -1.00, 872.0, 22.0)">c</text><text xml:space="preserve" font-family="Helvetica-Light" font-size="90.0" fill="#000000" transform="matrix(1.00, 0.00, -0.00, -1.00, 922.0, 22.0)">o</text><text xml:space="preserve" font-family="Helvetica-Light" font-size="90.0" fill="#000000" transform="matrix(1.00, 0.00, -0.00, -1.00, 972.0, 22.0)">r</text><text xml:space="preserve" font-family="Helvetica-Light" font-size="90.0" fill="#000000" transform="matrix(1.00, 0.00, -0.00, -1.00, 1002.0, 22.0)">r</text><text xml:space="preserve" font-family="Helvetica-Light" font-size="90.0" fill="#000000" transform="matrix(1.00, 0.00, -0.00, -1.00, 1030.4, 22.0)">e</text><text xml:space="preserve" font-family="Helvetica-Light" font-size="90.0" fill="#000000" transform="matrix(1.00, 0.00, -0.00, -1.00, 1080.4, 22.0)">c</text><text xml:space="preserve" font-family="Helvetica-Light" font-size="90.0" fill="#000000" transform="matrix(1.00, 0.00, -0.00, -1.00, 1130.4, 22.0)">t</text><text xml:space="preserve" font-family="Helvetica-Light" font-size="90.0" fill="#000000" transform="matrix(1.00, 0.00, -0.00, -1.00, 1155.5, 22.0)">l</text><text xml:space="preserve" font-family="Helvetica-Light" font-size="90.0" fill="#000000" transform="matrix(1.00, 0.00, -0.00, -1.00, 1175.4, 22.0)">y</text></g></svg>